<svg width="334" height="612" viewBox="0 0 334 612" fill="none" xmlns="http://www.w3.org/2000/svg">
<path d="M311.827 211.777C311.827 214.356 311.758 216.926 311.628 219.486C309.08 269.629 281.869 316.663 242.1 346.656C220.203 363.168 194.496 374.518 166.999 378.382C115.107 385.675 69.5961 364.499 44.0258 326.678C31.2873 307.836 23.4889 284.861 22.3331 259.208C22.2274 256.989 22.1777 254.744 22.1777 252.485C22.1777 252.252 22.1839 252.019 22.1839 251.793C22.1902 250.939 22.1964 250.085 22.215 249.235C22.2274 248.775 22.2399 248.322 22.2523 247.862C22.2772 247.175 22.302 246.493 22.3331 245.805C22.3517 245.357 22.3704 244.902 22.3952 244.453C22.4449 243.505 22.5009 242.562 22.5692 241.618C22.6003 241.174 22.6376 240.736 22.6748 240.298C22.737 239.542 22.7991 238.781 22.8737 238.023C22.9172 237.553 22.9669 237.082 23.0166 236.61C23.085 235.948 23.1595 235.285 23.2341 234.622C23.29 234.168 23.3397 233.716 23.3957 233.263C23.5262 232.247 23.6629 231.23 23.812 230.217C23.8679 229.82 23.9363 229.415 23.9984 229.018C24.104 228.325 24.2159 227.632 24.334 226.937C24.4147 226.462 24.4955 225.98 24.5825 225.503C24.6944 224.854 24.8186 224.209 24.9367 223.565C25.0237 223.119 25.1045 222.669 25.1977 222.223C25.3965 221.228 25.6016 220.233 25.8191 219.243C25.9123 218.809 26.0179 218.38 26.1174 217.946C26.2603 217.298 26.4094 216.656 26.5648 216.013L26.919 214.57C27.0805 213.932 27.2483 213.3 27.4161 212.662C27.5279 212.225 27.6398 211.789 27.7578 211.359C28.025 210.386 28.2984 209.419 28.5781 208.451C28.7148 207.999 28.8515 207.553 28.9882 207.101C29.1746 206.491 29.361 205.881 29.5474 205.271C29.7028 204.798 29.8519 204.319 30.0073 203.845C30.2123 203.207 30.4236 202.575 30.6411 201.942C30.7778 201.528 30.9145 201.12 31.0512 200.711C31.3868 199.761 31.7223 198.81 32.0703 197.864C32.2381 197.42 32.4058 196.969 32.5736 196.525C32.7973 195.929 33.0272 195.338 33.2571 194.748C33.4311 194.29 33.6113 193.826 33.7977 193.373C34.0587 192.709 34.3321 192.055 34.6056 191.395C34.7982 190.917 34.997 190.437 35.2021 189.963C35.5501 189.148 35.9043 188.333 36.2585 187.524C36.4511 187.095 36.6437 186.666 36.8426 186.237C37.1098 185.641 37.3832 185.05 37.6566 184.46C37.8616 184.029 38.0605 183.606 38.2593 183.176C38.6073 182.45 38.9615 181.722 39.3219 181C39.5394 180.562 39.7569 180.123 39.9806 179.69C40.3534 178.941 40.7387 178.197 41.1239 177.453C41.3352 177.053 41.5465 176.659 41.7578 176.265C42.0809 175.655 42.4102 175.044 42.7396 174.439C42.9508 174.058 43.1559 173.678 43.3734 173.302C43.8643 172.418 44.3614 171.538 44.8709 170.664C45.0263 170.391 45.1878 170.123 45.3494 169.856C45.6787 169.295 46.0081 168.728 46.3436 168.172C23.2217 80.8364 36.6064 49.237 108.296 106.649C108.489 106.534 108.682 106.432 108.868 106.318C109.694 105.838 110.521 105.364 111.36 104.895C111.695 104.703 112.037 104.517 112.373 104.332C113.137 103.911 113.907 103.489 114.678 103.079C115.076 102.866 115.473 102.66 115.871 102.453C116.592 102.076 117.313 101.705 118.046 101.338C118.487 101.113 118.928 100.894 119.369 100.675C120.059 100.34 120.755 100.004 121.445 99.6745C121.923 99.4441 122.408 99.2191 122.887 99.0013C123.551 98.6882 124.223 98.3868 124.894 98.0854C125.403 97.8569 125.913 97.6347 126.422 97.4125C127.075 97.1263 127.727 96.8526 128.38 96.5789C128.908 96.3541 129.442 96.1347 129.983 95.9144C130.617 95.6559 131.263 95.3956 131.903 95.1488C132.456 94.933 133.009 94.7173 133.562 94.5078C134.196 94.2618 134.83 94.0347 135.464 93.8013C136.035 93.5954 136.601 93.3842 137.172 93.1846C137.8 92.9646 138.44 92.7492 139.074 92.5346C139.652 92.3404 140.223 92.1409 140.807 91.9521C141.441 91.7501 142.075 91.5481 142.715 91.3514C143.299 91.1689 143.883 90.9865 144.467 90.8102C145.108 90.6199 145.754 90.4412 146.4 90.2563C146.984 90.0863 147.568 89.9227 148.159 89.7581C148.811 89.5848 149.476 89.4161 150.135 89.242C150.712 89.0917 151.29 88.9415 151.874 88.7966C152.552 88.6324 153.235 88.4799 153.919 88.3211C154.484 88.1914 155.05 88.0555 155.615 87.9258C156.336 87.768 157.063 87.6282 157.79 87.4758C158.318 87.3702 158.853 87.2512 159.387 87.1509C160.201 86.9926 161.021 86.8523 161.842 86.7056C162.289 86.6302 162.73 86.5431 163.178 86.4676C164.451 86.2572 165.725 86.0594 166.999 85.8803C168.273 85.7013 169.547 85.5411 170.814 85.3943C171.206 85.3519 171.591 85.3166 171.983 85.2741C172.853 85.1832 173.729 85.0914 174.599 85.0131C175.077 84.9709 175.543 84.9431 176.015 84.9018C176.798 84.842 177.588 84.775 178.364 84.7286C178.868 84.6955 179.365 84.6758 179.868 84.6553C180.614 84.6133 181.359 84.5712 182.105 84.548C182.621 84.5257 183.13 84.5231 183.646 84.5071C184.367 84.4874 185.094 84.4668 185.815 84.4659C186.331 84.4561 186.846 84.4652 187.362 84.4618C188.077 84.468 188.791 84.468 189.5 84.4751C190.015 84.4842 190.525 84.5004 191.034 84.5167C191.743 84.5363 192.451 84.556 193.16 84.5882C193.663 84.6116 194.16 84.6421 194.663 84.6655C195.372 84.7103 196.086 84.7479 196.795 84.799C197.286 84.8304 197.77 84.8752 198.255 84.9138C198.97 84.9702 199.684 85.0329 200.399 85.1019C200.871 85.1485 201.337 85.2022 201.809 85.2488C202.53 85.3294 203.257 85.4093 203.978 85.5025C204.425 85.5588 204.873 85.6214 205.32 85.6778C206.06 85.7809 206.799 85.8841 207.532 85.9944C207.955 86.0605 208.371 86.1275 208.794 86.1999C209.552 86.3192 210.31 86.4511 211.062 86.5902C211.453 86.6607 211.839 86.732 212.224 86.8097C213.007 86.9569 213.79 87.1104 214.567 87.2773C214.915 87.3477 215.269 87.4234 215.623 87.4991C216.431 87.6805 217.239 87.8682 218.046 88.0621C218.357 88.1314 218.662 88.2078 218.972 88.2834C219.824 88.4963 220.669 88.7164 221.514 88.9428C221.768 89.0136 222.023 89.0845 222.284 89.1545C223.179 89.399 224.074 89.6623 224.962 89.9264C225.081 89.9663 225.205 89.999 225.323 90.0326C296.696 12.8847 310.143 40.4558 287.251 133.7C288.114 134.871 288.947 136.066 289.774 137.274C289.947 137.532 290.122 137.79 290.289 138.042C290.631 138.553 290.967 139.064 291.302 139.575C291.482 139.857 291.663 140.14 291.843 140.428C292.427 141.35 293.005 142.279 293.564 143.217C293.738 143.506 293.912 143.789 294.08 144.079C294.366 144.554 294.639 145.036 294.912 145.519C295.124 145.89 295.329 146.257 295.54 146.629C295.801 147.1 296.062 147.572 296.317 148.044C296.534 148.459 296.752 148.874 296.969 149.289C297.323 149.955 297.665 150.629 298.007 151.308C298.28 151.854 298.56 152.404 298.827 152.963C299.038 153.404 299.25 153.851 299.455 154.299C299.672 154.758 299.884 155.224 300.095 155.684C300.3 156.132 300.499 156.581 300.698 157.03C300.928 157.549 301.145 158.071 301.369 158.598C301.592 159.125 301.816 159.652 302.027 160.181C302.319 160.887 302.599 161.594 302.872 162.309C303.04 162.731 303.196 163.16 303.357 163.583C303.556 164.114 303.749 164.652 303.941 165.189C304.097 165.619 304.252 166.049 304.401 166.486C304.619 167.102 304.824 167.719 305.029 168.337C305.172 168.788 305.321 169.231 305.464 169.681C305.718 170.48 305.967 171.286 306.203 172.094C306.327 172.503 306.445 172.926 306.563 173.342C306.731 173.927 306.899 174.519 307.061 175.111C307.172 175.541 307.291 175.963 307.402 176.393C307.583 177.083 307.757 177.78 307.924 178.478C308.024 178.891 308.123 179.31 308.223 179.723C308.415 180.568 308.608 181.419 308.788 182.279C308.875 182.7 308.962 183.12 309.049 183.541C309.173 184.17 309.298 184.799 309.416 185.428C309.496 185.863 309.577 186.291 309.652 186.726C309.789 187.478 309.913 188.239 310.037 188.999C310.099 189.411 310.168 189.822 310.23 190.227C310.36 191.1 310.484 191.974 310.603 192.854C310.658 193.279 310.708 193.712 310.758 194.138C310.839 194.798 310.919 195.464 310.988 196.126C311.038 196.564 311.081 197.004 311.125 197.443C311.205 198.254 311.28 199.072 311.342 199.891C311.379 200.307 311.41 200.723 311.441 201.145C311.504 202.021 311.56 202.904 311.609 203.794C311.634 204.23 311.653 204.673 311.671 205.11C311.702 205.796 311.727 206.489 311.752 207.182C311.765 207.625 311.777 208.069 311.789 208.513C311.808 209.389 311.814 210.267 311.82 211.15C311.82 211.358 311.827 211.564 311.827 211.777Z" fill="white"/>
<path d="M77.4922 185.541C93.5054 140.909 228.71 98.3936 261.303 166.864L77.4922 185.541Z" fill="#E6E6E6"/>
<path d="M311.628 219.486C309.08 269.63 281.869 316.663 242.1 346.656C220.203 363.168 194.496 374.518 166.999 378.383C115.107 385.676 69.596 364.499 44.0258 326.678C31.2873 307.836 23.4888 284.862 22.333 259.209C23.6255 252.602 33.7107 210.767 88.4739 173.12L245.257 151.086C304.917 175.331 311.559 219.439 311.559 219.439C311.559 219.439 311.584 219.455 311.628 219.486Z" fill="#FFEBF6"/>
<g opacity="0.55">
<path d="M284.504 222.688C284.504 285.375 234.177 343.269 172.1 351.993C141.509 356.293 113.777 347.847 93.5068 330.685C113.255 345.285 139.073 352.186 167.322 348.216C229.399 339.492 279.725 281.598 279.725 218.911C279.725 209.931 278.694 201.348 276.743 193.245C271.604 174.1 262.979 159.663 251.707 149.845C265.321 159.566 275.674 175.248 281.521 197.022C283.472 205.125 284.504 213.709 284.504 222.688Z" fill="white"/>
</g>
<path d="M309.191 208.45C309.191 289.222 244.349 363.814 164.364 375.055C107.83 383 58.864 357.171 35.0088 312.821C60.1751 352.494 106.699 374.958 159.933 367.476C239.919 356.235 304.761 281.643 304.761 200.871C304.761 177.208 299.193 155.646 289.313 137.255C301.946 157.185 309.191 181.455 309.191 208.45Z" fill="#F4BDE3"/>
<g opacity="0.55">
<path d="M300.979 159.01C277.801 112.695 227.841 85.4178 169.952 93.5536C89.967 104.795 25.1248 179.387 25.1248 260.159C25.1248 280.891 29.3938 300.013 37.099 316.795C28.238 299.109 23.2793 278.641 23.2793 256.308C23.2793 175.536 88.1215 100.944 168.107 89.7028C227.586 81.3435 278.69 110.368 300.979 159.01Z" fill="white"/>
</g>
<path d="M59.0938 149.752C44.8552 95.6058 55.1753 85.3629 90.0527 119.025C78.8627 127.532 68.6334 137.919 59.0938 149.752Z" fill="#FFEBF6"/>
<path d="M274.343 119.499C288.581 61.3504 278.261 54.0083 243.384 97.4735C254.574 102.836 264.803 110.348 274.343 119.499Z" fill="#FFEBF6"/>
<path d="M166.996 380.578C127.731 386.097 90.8174 375.843 63.0537 351.707C35.2899 327.571 20 292.442 20 252.79C20 223.743 28.2931 194.485 43.9944 168.104C37.7034 144.183 34.2895 124.774 33.8433 110.406C33.3425 94.2463 36.4495 83.9077 43.3432 78.8011C55.0775 70.1064 76.4708 78.3521 108.728 103.996C127.143 93.3625 146.738 86.5299 166.996 83.6827C187.255 80.8355 206.578 82.1434 224.884 87.506C257.041 52.9332 278.377 38.7376 290.091 44.1217C296.96 47.2777 300.07 56.6812 299.599 72.8665C299.18 87.2574 295.814 107.477 289.597 132.971C305.564 155.035 314 182.157 314 211.471C314 251.123 298.709 290.55 270.944 322.49C243.179 354.43 206.263 375.06 166.998 380.578L166.996 380.578ZM51.2224 80.0595C48.8388 80.3945 46.9945 81.2071 45.5653 82.2664C38.075 87.8157 32.4949 107.077 48.4473 167.329C48.6014 167.911 48.4945 168.567 48.1515 169.135C32.5807 194.958 24.3497 223.674 24.3497 252.18C24.3497 331.611 88.3406 387.241 166.996 376.187C245.652 365.133 309.649 291.516 309.649 212.084C309.649 183.316 301.279 156.725 285.443 135.187C285.097 134.715 284.986 134.087 285.141 133.458C300.912 69.2131 295.33 51.6409 287.868 48.2117C281.116 45.1095 265.046 50.0939 226.801 91.4332C226.166 92.1198 225.239 92.4095 224.443 92.1676C206.312 86.6448 186.984 85.2699 166.996 88.0789C147.009 90.888 127.412 97.7899 109.177 108.534C108.379 109.004 107.448 108.976 106.811 108.466C76.5453 84.2288 60.1269 78.8093 51.2224 80.0607V80.0595Z" fill="#001F54"/>
<path d="M59.0947 151.949C58.9182 151.974 58.7405 151.977 58.5652 151.957C57.791 151.87 57.1858 151.346 56.9882 150.593C46.5413 110.863 51.4081 102.099 55.9778 98.9644C62.6242 94.4021 73.9608 100.237 91.6593 117.319C92.0968 117.742 92.2981 118.369 92.2074 119.03C92.1166 119.692 91.7438 120.318 91.192 120.738C80.6097 128.784 70.6339 138.687 60.6979 151.013C60.2815 151.531 59.6962 151.864 59.0959 151.949L59.0947 151.949ZM59.6664 101.949C58.9306 102.052 58.4074 102.289 58.0445 102.538C55.8224 104.063 51.7387 111.273 60.2356 145.152C68.8505 134.852 77.5487 126.265 86.6807 119.046C70.3841 103.656 62.9311 101.49 59.6664 101.949Z" fill="#001F54"/>
<path d="M274.343 121.699C273.741 121.783 273.158 121.613 272.741 121.213C262.804 111.68 252.829 104.581 242.247 99.5093C241.694 99.2444 241.321 98.7233 241.231 98.087C241.141 97.451 241.342 96.7676 241.779 96.2216C259.478 74.1651 270.818 65.143 277.461 67.8377C282.031 69.6891 286.897 77.0848 276.45 119.751C276.253 120.559 275.648 121.253 274.873 121.557C274.698 121.626 274.52 121.674 274.344 121.698L274.343 121.699ZM246.757 96.55C255.889 101.201 264.588 107.343 273.202 115.222C281.699 78.9549 277.614 72.8926 275.393 71.9924C273.419 71.193 266.729 72.0742 246.757 96.55Z" fill="#001F54"/>
<path d="M147.822 75.4214C147.822 75.4214 160.579 23.7549 168.174 22.6876C175.769 21.6202 186.03 69.3839 186.03 69.3839C186.03 69.3839 174.599 85.3125 147.822 75.4214Z" fill="#FEF26B"/>
<g opacity="0.55">
<path d="M168.102 27.8344C164.33 32.9114 160.168 46.0563 156.011 59.1102C160.29 55.547 164.504 50.2309 168.102 27.8344Z" fill="white"/>
</g>
<g style="mix-blend-mode:color-burn" opacity="0.2">
<path d="M169.635 29.582C169.635 29.582 170.649 55.1242 158.479 69.2427L175.983 70.1361L178.447 70.4549L181.538 68.64C181.538 68.64 176.044 41.5638 169.635 29.582Z" fill="#001F54"/>
</g>
<path d="M169.161 80.5604C163.261 81.3897 155.866 80.8539 146.844 77.5211C145.931 77.1837 145.463 76.2054 145.719 75.1692C145.751 75.0392 148.975 62.0248 153.09 49.0484C160.822 24.6677 165.055 20.9328 168.176 20.4943C171.297 20.0557 175.449 22.5833 182.042 44.7361C185.538 56.4822 188.135 68.5153 188.16 68.6348C188.294 69.261 188.135 69.956 187.725 70.5269C187.378 71.0099 181.588 78.8152 169.16 80.5618L169.161 80.5604ZM150.383 73.885C170.828 80.8106 181.034 71.9116 183.664 69.0471C182.968 65.9296 180.825 56.6111 178.092 47.3154C172.094 26.9213 168.674 25.0702 168.171 24.905C167.551 25.2394 164.07 28.0541 156.962 50.6653C153.903 60.4011 151.377 70.0066 150.384 73.8848L150.383 73.885Z" fill="#001F54"/>
<path d="M178.816 35.1965C178.416 40.6542 173.749 44.7914 168.749 46.2157C168.286 46.4038 167.577 46.521 167.098 46.6373C166.141 46.8986 164.807 47.0509 163.837 47.1509C162.299 47.3255 160.582 47.336 159.068 47.2927L155.964 47.1053C155.601 47.0822 155.657 46.5084 156.039 46.4734C157.178 46.3435 159.626 46.2027 160.72 45.9637C165.542 45.1831 172.102 43.4165 174.114 38.0949C174.365 37.407 174.531 36.5693 174.469 35.9166C174.484 33.0155 178.658 32.3171 178.817 35.1975L178.816 35.1965Z" fill="#001F54"/>
<path d="M183.469 51.9516C181.959 54.5371 179.748 56.655 177.344 58.3695C170.57 63.1606 162.52 64.0133 155.225 63.3606L151.192 62.8054L151.346 62.1764L155.415 62.2534C163.974 62.0632 174.506 59.4009 179.474 50.7548C179.528 50.6431 179.615 50.4778 179.615 50.4564L183.467 51.9543L183.469 51.9516Z" fill="#001F54"/>
<path d="M93.1187 170.159C100.263 165.672 104.227 158.467 101.971 154.065C99.7155 149.664 92.095 149.734 84.9503 154.221C77.8056 158.709 73.8422 165.914 76.0979 170.315C78.3535 174.717 85.974 174.647 93.1187 170.159Z" fill="#FF69CD"/>
<path d="M261.355 144.23C263.611 139.195 259.647 133.103 252.503 130.624C245.358 128.145 237.737 130.217 235.482 135.253C233.226 140.288 237.189 146.379 244.334 148.858C251.479 151.338 259.099 149.265 261.355 144.23Z" fill="#FF69CD"/>
<path d="M128.803 142.84C134.981 141.972 139.988 135.313 139.988 127.966C139.988 120.62 134.981 115.368 128.803 116.237C122.626 117.105 117.618 123.764 117.618 131.11C117.618 138.456 122.626 143.708 128.803 142.84Z" fill="#001F54"/>
<path d="M130.375 128.992C132.239 128.73 133.749 126.564 133.749 124.154C133.749 121.744 132.239 120.003 130.375 120.265C128.512 120.527 127.001 122.693 127.001 125.103C127.001 127.513 128.512 129.254 130.375 128.992Z" fill="white"/>
<path d="M208.671 131.615C214.849 130.747 219.856 124.088 219.856 116.742C219.856 109.395 214.849 104.144 208.671 105.012C202.494 105.88 197.486 112.539 197.486 119.886C197.486 127.232 202.494 132.484 208.671 131.615Z" fill="#001F54"/>
<path d="M207.098 118.209C208.961 117.947 210.472 115.781 210.472 113.371C210.472 110.961 208.961 109.22 207.098 109.482C205.234 109.744 203.724 111.909 203.724 114.319C203.724 116.729 205.234 118.471 207.098 118.209Z" fill="white"/>
<path d="M175.987 74.0483C175.987 74.0483 182.581 66.8366 192.934 65.3816C203.286 63.9267 210.825 67.3136 217.091 77.61C223.357 87.9076 226.15 92.077 234.161 90.9512C229.17 100.877 197.087 107.219 190.899 95.9104" fill="#39D5FF"/>
<g style="mix-blend-mode:color-burn" opacity="0.2">
<path d="M181.592 75.5999C181.592 75.5999 186.862 70.4719 192.315 76.1938C197.768 81.9145 201.419 98.5307 226.841 93.885C226.841 93.885 210.894 103.128 195.412 94.3814C179.928 85.6366 181.592 75.6012 181.592 75.6012V75.5999Z" fill="#001F54"/>
</g>
<path d="M212.507 103.658C212.281 103.69 212.057 103.721 211.832 103.749C200.549 105.187 192 102.733 188.965 97.1854C188.417 96.1831 188.839 94.7999 189.907 94.0962C190.975 93.3915 192.287 93.6337 192.835 94.636C195.087 98.7534 202.389 100.559 211.888 99.3489C218.896 98.4569 225.607 96.0115 229.427 93.1969C223.301 92.2732 220.155 87.1042 215.198 78.9582C209.496 69.5891 202.837 66.1852 192.933 67.577C183.629 68.8847 177.534 75.3749 177.475 75.4411C176.598 76.3887 175.223 76.5394 174.402 75.7712C173.582 75.0042 173.622 73.6143 174.493 72.6611C174.788 72.3386 181.844 64.7431 192.933 63.1845C204.023 61.626 212.494 65.5973 218.983 76.2613C225.212 86.4977 227.5 89.6901 234.16 88.7541C234.928 88.6462 235.639 88.9554 236.031 89.5668C236.422 90.1781 236.437 91.0031 236.068 91.7352C232.832 98.17 222.025 102.319 212.505 103.657L212.507 103.658Z" fill="#001F54"/>
<path d="M141.569 83.4167C145.372 76.35 151.694 71.3953 158.484 69.2388C168.835 65.9492 178.915 70.5678 182.915 79.8197C184.796 84.1675 188.384 90.0524 194.783 93.2544C190.715 104.094 168.188 110.32 159.276 103.721" fill="#FD6CCB"/>
<path d="M146.312 83.3527C146.312 83.3527 151.212 78.8063 154.879 83.7978C158.545 88.7895 161.303 104.549 190.005 94.4645C190.005 94.4645 180.305 106.813 161.584 101.276L146.312 83.3527Z" fill="#E825AD"/>
<path d="M173.761 108.303C167.887 109.129 161.876 108.56 157.847 105.577C156.941 104.908 156.848 103.533 157.639 102.508C158.429 101.482 159.803 101.196 160.707 101.866C164.906 104.975 173.411 105.006 181.393 101.942C186.292 100.061 190.09 97.3034 191.949 94.3489C186.114 90.7928 182.743 85.1887 180.906 80.9389C177.251 72.4856 167.981 68.4547 158.861 71.3503C152.374 73.4116 146.754 78.1208 143.446 84.2684C142.837 85.3994 141.503 85.9357 140.468 85.4675C139.433 84.998 139.088 83.7012 139.695 82.5691C143.652 75.2185 150.363 69.5904 158.11 67.13C169.221 63.5993 180.502 68.4658 184.928 78.7021C186.694 82.7886 190.039 88.2797 195.95 91.2378C196.833 91.6796 197.193 92.7511 196.804 93.7872C194.921 98.8045 189.676 103.28 182.412 106.069C179.755 107.089 176.776 107.88 173.762 108.304L173.761 108.303Z" fill="#001F54"/>
<path d="M118.043 101.338C135.931 129.532 159.276 109.076 161.586 100.349C155.904 100.027 153.536 94.4371 147.935 87.3354C142.334 80.2349 133.065 74.4857 120.28 82.3504C107.496 90.215 108.295 106.65 108.295 106.65C111.829 104.652 115.118 102.85 118.042 101.338L118.043 101.338Z" fill="#FEF26B"/>
<path d="M141.984 117.729C134.84 118.733 125.587 116.617 117.122 104.166C114.791 105.4 112.16 106.845 109.139 108.554C108.486 108.924 107.738 108.966 107.137 108.669C106.536 108.372 106.157 107.772 106.124 107.06C106.089 106.329 105.414 89.0675 119.357 80.4904C130.714 73.5054 141.491 75.3918 149.703 85.8049C151.028 87.4861 152.189 89.1001 153.213 90.5249C156.419 94.9876 158.537 97.9354 162.003 98.1322C162.598 98.1665 163.117 98.4564 163.436 98.9311C163.754 99.4072 163.844 100.026 163.681 100.639C162.322 105.773 155.07 114.352 144.986 117.106C144.037 117.365 143.033 117.58 141.986 117.727L141.984 117.729ZM118.042 99.1399C118.794 99.0343 119.517 99.3279 119.917 99.9594C126.839 110.868 135.304 115.32 144.419 112.832C150.879 111.068 156.407 105.94 158.609 102.087C154.906 100.867 152.495 97.512 149.579 93.454C148.529 91.9914 147.443 90.48 146.166 88.8622C141.318 82.7151 133.055 76.9175 121.205 84.2065C113.138 89.1692 111.111 98.15 110.615 102.97C113.098 101.593 115.298 100.41 117.283 99.3847C117.531 99.2557 117.789 99.1756 118.041 99.1401L118.042 99.1399Z" fill="#001F54"/>
<g style="mix-blend-mode:color-burn" opacity="0.2">
<path d="M120.404 97.6037C120.404 97.6037 128.2 110.728 138.029 111.93C147.858 113.131 157.194 102.889 157.194 102.889C145.331 109.754 134.251 104.779 123.516 94.5534C123.516 94.5534 116.09 90.2444 111.653 101.292C111.653 101.292 116.83 96.6125 120.404 97.6037Z" fill="#001F54"/>
</g>
<g opacity="0.55">
<path d="M115.839 90.7159C115.839 90.7159 122.141 81.9576 130.376 81.6712C138.61 81.3849 142.431 87.32 144.895 89.4636C147.36 91.6059 150.642 97.2903 152.414 98.8309C152.414 98.8309 141.056 85.7098 134.934 84.4542C128.812 83.1987 120.769 86.3823 115.839 90.7159Z" fill="white"/>
</g>
<g opacity="0.55">
<path d="M147.827 79.1478C147.827 79.1478 153.836 72.5203 163.111 71.2168C172.386 69.9133 178.456 79.0487 178.456 79.0487C169.104 72.1993 158.972 71.6013 147.827 79.1478Z" fill="white"/>
</g>
<g opacity="0.55">
<path d="M183.75 71.3394C183.75 71.3394 192.563 66.927 199.896 68.3862C207.23 69.8442 210.959 74.2988 212.498 76.9149C214.038 79.531 216.966 83.8483 216.966 83.8483C216.966 83.8483 208.677 73.0658 198.879 71.1898C189.082 69.3138 183.749 71.3408 183.749 71.3408L183.75 71.3394Z" fill="white"/>
</g>
<path d="M59.4519 136.542C56.596 118.468 51.646 97.5222 67.648 105.299C59.7675 108.131 59.5923 122.311 59.4519 136.542Z" fill="#F4BDE3"/>
<path d="M249.26 94.7435C249.26 94.7435 267.378 73.7612 273.063 72.9623C278.747 72.1634 277.037 85.3792 277.037 85.3792C274.887 76.3944 263.019 83.9596 249.26 94.7435Z" fill="#F4BDE3"/>
<path d="M33.6052 528.73C44.8132 531.04 49.6498 537.31 51.0695 541.861C52.1935 545.464 52.4393 549.288 49.7031 553.475C46.819 557.889 39.4267 563.085 29.7415 563.489C25.7901 563.654 20.7283 563.521 15.6632 566.897C14.5855 566.044 14.5718 564.399 15.1321 562.435C11.906 562.079 8.11443 562.069 2.39442 563.272C2.33599 563.284 -0.666683 547.624 18.5851 532.345C16.7013 529.388 17.6346 526.707 20.156 525.086C24.1624 529.846 26.0857 527.178 33.6018 528.728L33.6052 528.73Z" fill="#C4612B"/>
<path d="M49.7003 553.475C46.8197 557.887 39.4274 563.086 29.7439 563.487C25.8046 563.655 20.7617 563.518 15.712 566.862C15.6931 566.871 15.6725 566.885 15.6588 566.895C15.4972 566.764 15.3563 566.62 15.2428 566.455C14.9352 566.012 14.7891 565.453 14.7684 564.81C14.7513 564.107 14.8905 563.303 15.1363 562.438C11.9067 562.084 8.11515 562.069 2.39859 563.274C2.38828 563.26 2.3178 562.93 2.2628 562.335C2.25077 562.237 2.24563 562.129 2.23875 562.009C2.20954 561.608 2.19579 561.122 2.19579 560.555C2.19751 560.441 2.19579 560.321 2.20095 560.197C2.21298 559.936 2.21985 559.663 2.23703 559.367C2.24219 559.236 2.25421 559.101 2.26796 558.966C2.33843 558.047 2.47249 557.007 2.69593 555.857C3.87671 549.873 7.63046 541.052 18.5892 532.346C16.7072 529.39 17.6388 526.712 20.1602 525.086C24.1666 529.849 26.0882 527.183 33.6094 528.73C42.8872 530.648 47.7977 535.268 50.0132 539.385C50.0132 539.385 50.0166 539.388 50.0235 539.393C50.4858 540.248 50.8313 541.081 51.0719 541.865C52.1908 545.467 52.4418 549.29 49.7021 553.477L49.7003 553.475Z" fill="#C4612B"/>
<path d="M49.7008 553.477C46.8202 557.889 39.4279 563.088 29.7444 563.489C25.8051 563.657 20.7622 563.519 15.7125 566.864C15.6936 566.873 15.673 566.886 15.6593 566.897C15.4977 566.766 15.3567 566.622 15.2433 566.457C14.9356 566.013 14.7896 565.455 14.7689 564.812C14.7517 564.109 14.891 563.305 15.1368 562.44C11.9072 562.086 8.11564 562.071 2.39908 563.275C2.38876 563.262 2.31829 562.932 2.26329 562.337C2.25126 562.239 2.24612 562.131 2.23924 562.01C2.21003 561.61 2.19627 561.124 2.19627 560.556C2.19799 560.443 2.19628 560.323 2.20144 560.199C2.21347 559.938 2.22034 559.664 2.23752 559.369C2.24268 559.238 2.2547 559.102 2.26845 558.968C2.33892 558.049 2.47298 557.009 2.69642 555.859C3.8772 549.874 7.63095 541.054 18.5897 532.348C18.533 532.26 18.4832 532.18 18.4333 532.092C17.7836 530.989 17.5327 529.928 17.6066 528.948C17.6135 528.878 17.6186 528.813 17.6255 528.742C17.7974 527.362 18.6224 526.166 19.9097 525.257C19.9922 525.2 20.073 525.143 20.1607 525.086C24.1671 529.849 26.0886 527.183 33.6099 528.73C42.8877 530.648 47.7982 535.268 50.0137 539.385C50.0137 539.385 50.0171 539.388 50.024 539.393C50.4863 540.248 50.8318 541.081 51.0724 541.865C51.3422 542.726 51.5605 543.603 51.698 544.495C52.1398 547.317 51.7822 550.295 49.7026 553.477H49.7008Z" fill="#5F5F82"/>
<g opacity="0.4">
<path d="M18.429 532.091C18.4428 532.198 18.46 532.311 18.4875 532.426C18.5201 532.4 18.5545 532.371 18.5889 532.345C18.5321 532.261 18.4806 532.174 18.429 532.089V532.091Z" fill="#F9F9F9"/>
</g>
<g opacity="0.4">
<path d="M51.7031 544.492C50.4484 543.262 49.3226 542.347 48.1711 540.879C45.397 537.332 40.1669 533.394 34.6514 532.256C27.6681 530.813 25.3272 533.289 20.2637 529.783C18.7701 530.739 18.2528 530.79 18.4367 532.09C17.787 530.986 17.536 529.926 17.61 528.946C17.6168 528.876 17.622 528.81 17.6289 528.74C17.8008 527.36 18.6258 526.163 19.9131 525.254C19.9939 525.203 20.0764 525.146 20.164 525.091V525.086C24.1722 529.848 26.092 527.183 33.6133 528.729C42.8911 530.648 47.8015 535.268 50.017 539.384C50.017 539.384 50.0205 539.387 50.0273 539.393C50.4897 540.247 50.8351 541.08 51.0758 541.864C51.3456 542.725 51.5639 543.602 51.7014 544.494L51.7031 544.492Z" fill="#F9F9F9"/>
</g>
<g opacity="0.4">
<path d="M2.6953 555.849C1.8067 560.337 2.36014 563.224 2.3928 563.269C2.73826 563.195 3.07516 563.131 3.40689 563.066C3.43782 561.892 3.56842 560.421 3.90014 558.721C5.08436 552.733 8.82952 543.916 19.7969 535.214C19.1197 534.15 18.6642 533.232 18.4855 532.419C7.60063 541.097 3.87264 549.885 2.6953 555.847V555.849Z" fill="#F9F9F9"/>
</g>
<g opacity="0.2">
<path d="M49.7003 553.486C46.8197 557.898 39.4274 563.097 29.7439 563.498C25.8046 563.666 20.7617 563.529 15.712 566.873C15.6931 566.882 15.6725 566.896 15.6588 566.906C15.4972 566.775 15.3563 566.631 15.2428 566.466C14.9352 566.023 14.7839 565.462 14.7684 564.821C14.7513 564.118 14.8905 563.314 15.1363 562.449C11.9067 562.095 8.11515 562.08 2.39859 563.285C2.38828 563.271 2.3178 562.941 2.2628 562.346C2.25077 562.248 2.24563 562.14 2.23875 562.02C2.20954 561.619 2.19579 561.133 2.19579 560.565C2.19751 560.452 2.19579 560.332 2.20095 560.208C2.21298 559.947 2.21985 559.673 2.23703 559.378C2.24219 559.247 2.25421 559.111 2.26796 558.977C2.33843 558.058 2.47249 557.018 2.69593 555.868C3.29062 558.64 4.84611 559.519 7.49127 558.579C12.7781 556.7 16.8344 553.694 22.3825 553.474C21.2086 557.389 29.0719 557.382 31.0829 556.327C38.9633 552.192 38.7003 544.566 40.2042 538.921C41.7081 533.277 50.0183 539.401 50.0235 539.402C50.4858 540.257 50.8313 541.09 51.0719 541.874C52.1908 545.477 52.4418 549.299 49.7021 553.486H49.7003Z" fill="#001F54"/>
</g>
<path d="M15.6648 569.168C16.1014 569.168 16.5414 569.041 16.9229 568.787C21.0101 566.063 25.13 565.922 28.7652 565.796L29.8359 565.759C40.1708 565.327 48.2145 559.903 51.6022 554.719C55.1549 549.284 54.2353 544.394 53.235 541.189C52.3963 538.499 48.5342 529.493 34.0623 526.511C31.1284 525.906 29.0075 525.896 27.3025 525.887C24.5955 525.873 23.779 525.87 21.8936 523.63C21.1596 522.757 19.8912 522.565 18.9321 523.183C15.7696 525.217 14.6233 528.484 15.7662 531.724C-3.47348 547.88 0.268234 564.083 0.335266 564.227C0.776985 565.178 1.81169 565.707 2.84122 565.499C7.12091 564.598 10.1476 564.425 12.5075 564.512C12.4628 566.706 13.3582 567.965 14.2554 568.677C14.6662 569.002 15.1646 569.167 15.6648 569.167V569.168ZM20.1112 528.274C22.6069 530.4 24.8051 530.411 27.2801 530.423C28.8614 530.431 30.6558 530.44 33.148 530.954C45.1878 533.436 48.2524 540.448 48.9038 542.54C50.0897 546.342 49.7614 549.241 47.8037 552.235C45.1414 556.311 38.3231 560.862 29.6469 561.223L28.6087 561.261C25.484 561.367 21.4175 561.506 17.2134 563.44C17.2426 563.321 17.2753 563.196 17.3148 563.062C17.4987 562.419 17.3904 561.728 17.0175 561.173C16.6445 560.618 16.0464 560.255 15.3829 560.183C12.9234 559.911 9.52714 559.738 4.44823 560.58C4.4551 556.07 6.09826 545.158 19.9978 534.127C20.9087 533.405 21.1253 532.111 20.5014 531.131C19.8087 530.043 19.6764 529.098 20.1129 528.276L20.1112 528.274Z" fill="#001F54"/>
<path d="M17.0454 534.02C19.7215 535.375 22.4217 536.805 25.3779 537.377C23.2243 535.521 21.662 533.041 20.1237 530.686L17.0454 534.02Z" fill="#001F54"/>
<path d="M17.186 563.403C17.8219 560.83 18.793 558.155 20.2161 555.878C20.7163 555.11 21.2801 554.371 22.002 553.742C19.2055 554.732 16.9815 556.947 15.0084 559.101C14.338 559.86 13.7159 560.589 13.0782 561.474L17.186 563.403Z" fill="#001F54"/>
<path d="M109.569 502.034C108.72 514.949 101.646 556.819 70.9524 555.42C59.2323 554.885 56.1677 549.119 43.4146 546.574C39.941 545.847 39.5388 541.086 42.8336 539.766C48.7685 536.88 54.6896 538.605 61.1143 540.082C86.2871 545.869 92.1842 513.063 93.64 484.864" fill="#F9F9F9"/>
<path d="M43.418 546.583C56.1712 549.132 59.2323 554.893 70.9507 555.429C101.644 556.832 108.725 514.956 109.569 502.045L102.268 500.995C100.24 517.171 96.7045 549.525 69.0652 548.265C57.3468 547.729 56.7572 543.907 42.7391 542.972C42.0224 542.82 41.3813 542.353 40.8536 541.683C40.0544 543.583 40.9826 546.079 43.418 546.584V546.583Z" fill="#EFEFEF"/>
<path d="M72.4256 558.182C85.8473 558.182 96.7098 550.294 103.913 535.278C110.759 521.007 112.094 505.234 112.292 502.218L106.859 501.86C106.718 503.996 103.028 554.174 71.0815 552.706C65.2652 552.441 61.7813 550.762 57.7491 548.82C54.169 547.094 50.1093 545.14 43.9527 543.911C43.566 543.83 43.3391 543.579 43.303 543.17C43.2772 542.883 43.3529 542.498 43.8496 542.299C43.9098 542.275 43.9682 542.249 44.0266 542.22C48.6586 539.97 53.4935 541.101 59.0915 542.412L60.506 542.742C67.7471 544.404 74.0567 543.258 79.2593 539.332C89.271 531.775 94.8639 514.006 96.3609 485.009L90.9227 484.729C89.534 511.64 84.5049 528.549 75.9782 534.986C72.0663 537.94 67.4034 538.739 61.7263 537.435L60.3324 537.11C54.303 535.699 48.0674 534.24 41.7252 537.285C39.1797 538.354 37.6363 540.896 37.8769 543.645C38.1193 546.422 40.1216 548.672 42.8596 549.244C48.3648 550.343 51.9329 552.063 55.3824 553.725C59.7635 555.836 63.9005 557.829 70.8306 558.146C71.3651 558.17 71.8962 558.182 72.4238 558.182H72.4256Z" fill="#001F54"/>
<path opacity="0.1" d="M167.763 611.981C77.5435 611.981 4.40613 605.683 4.40613 597.915C4.40613 590.146 77.5435 583.849 167.763 583.849C257.983 583.849 331.12 590.146 331.12 597.915C331.12 605.683 257.983 611.981 167.763 611.981Z" fill="#001F54"/>
<path d="M212.749 371.549L239.221 482.859L248.142 520.386C258.124 527.646 276.957 529.389 286.259 519.479C308.893 516.593 308.276 490.448 293.673 458.637C285.459 440.731 272.818 421.037 257.408 402.688C248.604 392.197 238.885 382.142 228.565 373.12L220.843 372.349L212.748 371.549H212.749Z" fill="#F9F9F9"/>
<path d="M239.227 482.857L241.341 491.76L248.147 520.384C258.13 527.644 276.962 529.387 286.264 519.477C294.722 518.397 299.931 514.068 302.382 507.416C306.485 496.263 302.828 478.565 293.679 458.636C287.235 457.339 280.528 457.383 274.167 458.882C271.508 459.508 268.922 460.379 266.426 461.524C262.36 463.375 258.594 465.834 254.991 468.466C254.746 468.648 254.501 468.82 254.266 469.002C248.785 473.069 243.611 477.659 239.229 482.86L239.227 482.857Z" fill="#5F5F82"/>
<path d="M220.851 372.344C223.001 377.826 225.372 383.226 227.967 388.527C228.465 389.542 228.993 390.577 229.846 391.321C230.634 392.002 231.633 392.375 232.604 392.737C240.954 395.778 249.611 398.555 257.416 402.684C248.613 392.193 238.893 382.138 228.574 373.116L220.851 372.344Z" fill="#E5E5E5"/>
<g opacity="0.2">
<path d="M241.347 491.755L248.153 520.379C258.136 527.639 276.968 529.382 286.27 519.472C294.728 518.393 299.938 514.063 302.389 507.411C297.171 510.651 290.364 511.177 284.718 508.781C279.01 506.349 274.636 500.995 273.402 494.914C272.948 492.709 272.893 490.394 273.474 488.216C274.227 485.386 276.006 482.916 276.886 480.121C278.075 476.391 277.594 472.344 276.814 468.504C276.142 465.237 275.262 462.024 274.172 458.876C272.266 453.384 269.734 448.113 266.621 443.194C266.577 445.681 265.559 448.03 264.497 450.273C261.457 456.708 257.909 462.87 254.269 468.996C249.822 476.519 245.247 483.969 241.345 491.757L241.347 491.755Z" fill="#001F54"/>
</g>
<path d="M267.87 529.092C275.273 529.092 282.53 526.921 287.56 522.042C296.672 520.594 302.83 515.4 305.401 506.973C314.247 477.962 278.482 413.188 230.364 371.073C229.938 370.7 229.405 370.468 228.839 370.413L213.025 368.841C212.15 368.753 211.286 369.095 210.705 369.758C210.125 370.422 209.902 371.324 210.107 372.18L245.501 521.017C245.652 521.65 246.023 522.207 246.548 522.588C252.23 526.72 260.129 529.094 267.87 529.094V529.092ZM227.43 375.743C273.011 415.94 308.314 478.75 300.193 505.385C298.15 512.085 293.482 515.811 285.922 516.775C285.295 516.856 284.716 517.152 284.283 517.612C276.44 525.965 260.052 525.037 250.559 518.742L216.291 374.635L227.432 375.743H227.43Z" fill="#001F54"/>
<path d="M291.167 475.564C281.007 474.383 268.666 479.522 265.487 490.177C262.704 498.482 267.295 508.045 275.388 511.133C277.85 512.13 280.436 512.581 282.949 512.477C283.36 512.46 283.68 512.113 283.662 511.702C283.65 511.41 283.472 511.164 283.222 511.053C278.907 509.074 275.314 506.434 273.3 503.019C267.436 492.882 275.246 483.668 284.823 479.689C286.889 478.713 289.111 478.006 291.376 477.166C292.189 476.887 292.026 475.622 291.167 475.564Z" fill="#001F54"/>
<path d="M186.479 590.757C186.697 591.319 186.969 591.846 187.287 592.345C188.975 594.976 191.924 596.628 195.128 596.628H236.266C241.965 595.593 244.525 591.41 244.306 586.754C244.179 583.749 242.881 580.537 240.53 577.851C240.549 577.768 240.558 577.696 240.575 577.615C241.537 572.378 242.689 566.925 244.014 561.28C245.375 555.426 246.919 549.355 248.615 543.103C251.719 531.623 255.33 519.533 259.314 507L237.679 514.623L184.188 533.464C180.865 555.852 180.749 576.281 186.476 590.757H186.479Z" fill="#F9F9F9"/>
<path d="M230.226 536.967C230.725 539.191 231.643 541.305 233.031 543.165C233.939 544.381 235.082 545.615 235.054 547.121C235.035 548.364 234.219 549.426 233.848 550.615C233.222 552.63 233.966 554.89 235.328 556.497C236.697 558.113 238.603 559.164 240.546 560C241.68 560.49 242.842 560.916 244.021 561.28C245.382 555.426 246.926 549.355 248.622 543.103C251.726 531.623 255.337 519.533 259.321 507L237.686 514.623C235.625 516.819 233.837 519.215 232.449 521.892C230.061 526.465 229.109 532.01 230.225 536.965L230.226 536.967Z" fill="#5F5F82"/>
<path d="M187.284 592.348C188.972 594.979 191.921 596.631 195.125 596.631H236.263C240.375 595.886 242.843 593.499 243.822 590.486C243.905 590.24 243.977 589.988 244.041 589.723C244.268 588.779 244.359 587.781 244.304 586.755C244.177 583.75 242.879 580.538 240.528 577.852C240.547 577.769 240.555 577.697 240.572 577.616C237.968 575.511 234.892 574.003 231.606 573.333C229.165 572.835 226.669 572.771 224.174 572.843C216.078 573.061 207.784 574.83 200.687 578.597C196.938 580.595 193.518 583.144 190.641 586.32C189.47 587.609 188.372 589.023 187.755 590.658C187.537 591.203 187.384 591.765 187.282 592.346L187.284 592.348Z" fill="#5F5F82"/>
<g opacity="0.2">
<path d="M187.288 592.344C188.976 594.975 191.925 596.627 195.129 596.627H236.268C240.379 595.883 242.847 593.495 243.827 590.483C243.909 590.237 243.981 589.984 244.045 589.719C244.272 588.767 244.354 587.769 244.308 586.751C237.593 591.933 227.81 592.243 219.114 591.424C213.498 590.898 207.381 589.781 203.751 585.462C202.099 583.492 201.183 581.124 200.693 578.592C196.944 580.589 193.524 583.138 190.647 586.315C189.476 587.604 188.378 589.018 187.761 590.653C187.543 591.198 187.39 591.76 187.288 592.34V592.344Z" fill="#001F54"/>
</g>
<path d="M195.129 599.414H236.268C236.435 599.414 236.601 599.399 236.766 599.37C241.529 598.505 244.951 595.741 246.402 591.589C247.979 587.074 246.84 581.517 243.511 577.094C246.974 558.723 253.019 536.049 261.972 507.843C262.291 506.835 262.015 505.734 261.255 504.998C260.497 504.262 259.387 504.02 258.39 504.371L183.272 530.833C182.297 531.175 181.593 532.031 181.441 533.051C177.684 558.408 178.506 578.167 183.885 591.779C185.718 596.417 190.131 599.412 195.131 599.412L195.129 599.414ZM236.001 593.842H195.129C192.433 593.842 190.052 592.23 189.066 589.732C184.166 577.332 183.373 559.101 186.711 535.528L254.983 511.478C246.677 538.094 241.044 559.684 237.794 577.345C237.639 578.182 237.877 579.044 238.437 579.685C241.137 582.772 242.198 586.721 241.139 589.751C240.389 591.895 238.616 593.307 236 593.842H236.001Z" fill="#001F54"/>
<path d="M244.098 578.053C233.504 566.034 214.178 570.868 201.745 577.022C200.734 577.535 201.393 579.084 202.472 578.684C208.928 576.173 215.823 574.413 222.731 574.457C228.977 574.455 236.134 576.124 239.745 581.324C241.967 584.361 246.403 581.052 244.098 578.053Z" fill="#001F54"/>
<path d="M225.339 597.423C228.227 592.98 229.144 585.923 224.462 582.408C223.741 581.877 222.838 582.85 223.414 583.527C224.724 585.16 224.92 587.272 224.364 589.207C223.826 591.11 222.653 592.83 221.229 594.121C218.351 597.028 223.11 600.862 225.339 597.423Z" fill="#001F54"/>
<path d="M106.486 589.963C109.554 594.619 114.836 597.533 120.608 597.533H161.175C162.946 597.533 164.714 597.123 166.213 596.18C171.223 593.021 172.184 585.871 169.571 578.547C165.587 574.845 160.942 571.995 155.677 570.723C148.835 569.072 141.628 570.215 134.813 571.976C128.596 573.583 122.443 575.715 117.053 579.2C112.787 581.95 109.003 585.589 106.49 589.963H106.486Z" fill="#727272"/>
<path d="M100.968 559.345C101.123 566.16 101.604 572.423 102.575 577.896C103.092 580.881 103.764 583.631 104.598 586.11C106.903 592.962 113.374 597.545 120.607 597.545H161.174C162.945 597.545 164.713 597.136 166.212 596.192C168.816 594.549 170.332 591.826 170.813 588.559C171.294 585.264 170.741 581.426 169.197 577.578C169.405 577.016 169.624 576.452 169.833 575.899C175.887 559.863 181.804 546.204 187.457 537.057C188.329 535.632 189.209 534.307 190.072 533.109C193.356 533.363 196.543 533.526 199.628 533.617C234.549 534.625 257.22 525.35 266.786 503.651C267.512 501.999 268.166 500.265 268.737 498.469C270.425 493.196 271.451 487.288 271.814 480.735C272.603 466.531 270.035 452.357 264.952 439.06C259.626 425.121 252.048 411.734 242.672 398.783C239.687 394.663 236.519 390.579 233.18 386.54L221.382 370.205L188.511 366.512L132.444 360.223C128.659 373.682 124.884 387.149 121.1 400.608L118.35 417.951L110.337 468.401L102.95 514.957C101.697 530.639 100.69 546.03 100.971 559.344L100.968 559.345Z" fill="#F9F9F9"/>
<path d="M100.969 559.342C101.123 566.157 101.605 572.42 102.576 577.893C102.739 578.819 102.911 579.726 103.102 580.606C103.292 581.495 103.5 582.366 103.727 583.202C103.755 583.301 103.782 583.393 103.808 583.484C103.916 583.918 104.043 584.346 104.171 584.762C104.306 585.225 104.453 585.67 104.597 586.105C106.902 592.957 113.373 597.54 120.605 597.54H161.173C162.943 597.54 164.712 597.13 166.211 596.187C168.815 594.544 170.331 591.821 170.812 588.554C162.725 592.203 153.722 593.808 144.902 592.947C137.279 592.194 129.084 589.071 125.789 582.157C124.964 580.433 124.51 578.607 124.32 576.739C123.921 573.018 124.528 569.106 125.272 565.395C126.561 559.007 128.204 552.68 130.182 546.463C131.38 542.679 132.778 538.83 135.428 535.864C141.246 529.365 151.256 528.985 159.886 530.264C169.261 531.653 178.354 534.384 187.456 537.053C188.328 535.628 189.208 534.303 190.07 533.105C193.355 533.36 196.542 533.523 199.627 533.614C234.548 534.621 257.219 525.347 266.785 503.648C247.955 517.869 224.15 525.682 200.899 522.452C172.62 518.532 146.682 496.443 142.062 468.272C137.887 442.725 151.936 415.79 174.261 402.685C194.672 390.696 220.673 389.952 242.671 398.783C239.686 394.663 236.518 390.58 233.178 386.54L221.381 370.205L188.51 366.512L132.442 360.223C128.658 373.682 124.883 387.149 121.099 400.608L118.349 417.951L110.336 468.401L102.949 514.957C101.696 530.639 100.688 546.03 100.97 559.344L100.969 559.342Z" fill="#D3D3D3" fill-opacity="0.4"/>
<path d="M102.575 577.88C103.092 580.866 103.765 583.616 104.598 586.094C106.903 592.947 113.374 597.529 120.607 597.529H161.174C162.945 597.529 164.713 597.12 166.212 596.177C168.816 594.533 170.332 591.811 170.813 588.544C171.294 585.249 170.741 581.411 169.197 577.562C169.405 577 169.624 576.437 169.833 575.883C168.898 575.175 167.891 574.558 166.856 574.024C162.817 571.954 158.227 571.165 153.687 571.093C152.118 571.066 150.52 571.121 149.004 570.703C147.997 570.431 147.034 569.959 145.991 569.94C145.219 569.931 144.466 570.186 143.713 570.375C142.216 570.748 140.664 570.865 139.14 571.127C133.659 572.062 128.693 574.83 123.594 577.054C118.503 579.286 112.848 581.029 107.422 579.768C105.726 579.377 104.119 578.705 102.575 577.88Z" fill="#5F5F82"/>
<g opacity="0.2">
<path d="M102.575 577.889C102.739 578.816 102.911 579.723 103.101 580.603C103.292 581.492 103.5 582.363 103.727 583.199C103.754 583.298 103.782 583.389 103.808 583.48C103.916 583.915 104.043 584.343 104.17 584.759C104.306 585.222 104.452 585.667 104.597 586.102C106.901 592.954 113.373 597.536 120.605 597.536H161.173C162.943 597.536 164.712 597.127 166.21 596.184C168.814 594.541 170.33 591.818 170.812 588.551C162.725 592.2 153.722 593.805 144.901 592.944C137.279 592.191 129.084 589.068 125.789 582.154C124.964 580.43 124.51 578.604 124.319 576.736C124.074 576.855 123.838 576.954 123.594 577.063C118.503 579.295 112.848 581.038 107.422 579.777C105.726 579.386 104.119 578.714 102.575 577.889Z" fill="#001F54"/>
</g>
<path d="M181.36 507.044C181.996 511.064 183.266 514.84 185.072 518.296C188.367 524.585 193.431 529.831 199.62 533.607C201.327 533.652 203.006 533.679 204.658 533.679C205.457 533.679 206.237 533.671 207.017 533.66C207.299 533.66 207.59 533.652 207.87 533.641C207.997 533.641 208.124 533.641 208.252 533.633C208.951 533.624 209.64 533.597 210.321 533.578C210.421 533.569 210.529 533.569 210.629 533.559C211.428 533.531 212.217 533.495 212.997 533.451C214.104 533.387 215.194 533.315 216.264 533.224C218.968 533.005 221.582 532.698 224.088 532.308C224.107 532.308 224.133 532.299 224.152 532.299C224.977 532.172 225.795 532.036 226.603 531.89C227.139 531.79 227.665 531.691 228.191 531.581C228.282 531.562 228.363 531.545 228.454 531.526C228.772 531.471 229.09 531.398 229.397 531.326C229.433 531.326 229.461 531.318 229.497 531.307C230.795 531.036 232.065 530.726 233.309 530.391C233.517 530.336 233.727 530.273 233.935 530.219C234.634 530.029 235.324 529.821 235.996 529.611C236.712 529.393 237.42 529.166 238.11 528.93C238.137 528.911 238.154 528.903 238.182 528.903C240.315 528.167 242.338 527.342 244.271 526.424C244.308 526.405 244.344 526.388 244.38 526.369C245.016 526.07 245.633 525.761 246.239 525.443C246.757 525.171 247.265 524.89 247.764 524.608C247.883 524.544 247.999 524.48 248.109 524.408C248.709 524.063 249.288 523.709 249.861 523.346C250.433 522.983 250.995 522.61 251.549 522.231C251.568 522.212 251.593 522.203 251.612 522.186C252.157 521.804 252.692 521.414 253.219 521.007C253.255 520.988 253.283 520.962 253.319 520.935C253.817 520.545 254.309 520.154 254.799 519.745C255.308 519.319 255.806 518.874 256.304 518.42C256.767 517.994 257.221 517.557 257.657 517.114C257.721 517.059 257.776 517.006 257.82 516.951C258.193 516.579 258.546 516.198 258.9 515.816C259.018 515.698 259.127 515.57 259.235 515.445C259.608 515.036 259.96 514.62 260.314 514.192C260.386 514.101 260.46 514.01 260.533 513.92C261.304 512.977 262.04 511.987 262.738 510.962C262.793 510.89 262.846 510.808 262.901 510.717C263.183 510.29 263.463 509.854 263.736 509.419C263.845 509.237 263.963 509.056 264.063 508.874C264.298 508.493 264.525 508.102 264.743 507.704C264.862 507.504 264.97 507.295 265.089 507.087C265.116 507.042 265.144 506.987 265.171 506.932C265.379 506.542 265.589 506.143 265.788 505.734C265.897 505.516 266.007 505.299 266.106 505.081C266.342 504.608 266.56 504.129 266.768 503.647L266.777 503.639C267.502 501.987 268.157 500.253 268.728 498.457C268.7 496.769 268.564 495.081 268.293 493.383C264.871 471.648 242.646 457.081 218.641 460.847C194.629 464.623 177.938 485.305 181.36 507.04V507.044Z" fill="#FFD8BE"/>
<g opacity="0.3">
<path d="M258.283 447.109L258.108 447.047C258.116 446.992 258.129 446.937 258.137 446.882L258.283 447.109Z" fill="#66142E"/>
</g>
<path d="M100.963 559.334C102.025 559.406 103.085 559.434 104.139 559.425C110.928 559.389 117.862 558.164 123.669 554.652C125.639 553.463 127.462 551.975 129.006 550.27C132.065 546.947 134.143 542.783 134.451 538.317C134.478 537.872 134.496 537.437 134.496 536.992C134.523 534.198 134.142 531.375 134.958 528.725C136.41 523.925 141.255 521.039 143.916 516.8C146.312 512.988 146.81 508.207 145.994 503.786C145.178 499.367 143.136 495.256 140.767 491.444C134.65 481.633 126.112 473.357 116.11 467.556L115.175 467.838C114.287 467.067 112.925 467.412 111.817 467.819C111.318 468.002 110.818 468.201 110.328 468.392L102.941 514.948C101.688 530.629 100.681 546.021 100.963 559.334Z" fill="#5F5F82"/>
<path d="M185.077 518.296C188.372 524.584 193.435 529.83 199.624 533.606C201.331 533.651 203.01 533.678 204.662 533.678C205.461 533.678 206.241 533.67 207.022 533.659C207.304 533.659 207.594 533.651 207.874 533.641C208.001 533.641 208.129 533.641 208.256 533.632C208.955 533.623 209.645 533.596 210.325 533.577C210.425 533.568 210.533 533.568 210.633 533.558C211.432 533.531 212.221 533.494 213.001 533.45C214.108 533.386 215.198 533.314 216.269 533.223C218.972 532.996 221.578 532.697 224.092 532.307C224.111 532.307 224.137 532.298 224.156 532.298C224.981 532.171 225.799 532.035 226.607 531.889C227.143 531.789 227.669 531.69 228.195 531.58C228.286 531.561 228.367 531.544 228.458 531.525C228.776 531.47 229.094 531.398 229.402 531.325C229.438 531.325 229.465 531.317 229.501 531.307C230.799 531.025 232.069 530.717 233.314 530.39C233.521 530.335 233.731 530.272 233.939 530.219C234.639 530.028 235.328 529.82 236 529.61C236.717 529.392 237.425 529.165 238.114 528.929C238.142 528.911 238.159 528.902 238.186 528.902C240.319 528.158 242.342 527.331 244.276 526.424C244.312 526.405 244.348 526.387 244.384 526.369C245.02 526.069 245.637 525.76 246.244 525.442C246.761 525.171 247.27 524.889 247.768 524.607C247.887 524.543 248.004 524.48 248.114 524.407C248.714 524.062 249.293 523.708 249.865 523.345C250.437 522.983 250.999 522.61 251.553 522.23C251.572 522.211 251.598 522.202 251.617 522.185C252.161 521.804 252.696 521.413 253.224 521.006C253.26 520.987 253.287 520.961 253.323 520.934C253.822 520.544 254.313 520.154 254.803 519.744C255.312 519.318 255.81 518.873 256.309 518.419C256.771 517.993 257.225 517.556 257.661 517.113C257.725 517.058 257.78 517.005 257.825 516.95C258.198 516.579 258.55 516.197 258.904 515.815C259.023 515.697 259.131 515.57 259.239 515.444C259.612 515.035 259.964 514.619 260.319 514.191C260.391 514.1 260.465 514.009 260.537 513.92C261.309 512.976 262.044 511.986 262.742 510.962C262.797 510.889 262.85 510.807 262.905 510.716C263.187 510.29 263.467 509.853 263.741 509.418C263.849 509.236 263.967 509.056 264.067 508.873C264.303 508.492 264.529 508.102 264.748 507.703C264.866 507.504 264.975 507.294 265.093 507.086C265.121 507.041 265.148 506.986 265.176 506.931C265.384 506.541 265.593 506.142 265.793 505.733C265.901 505.515 266.011 505.298 266.111 505.08C266.346 504.607 266.564 504.128 266.772 503.647C247.942 517.859 224.146 525.672 200.894 522.441C195.494 521.688 190.176 520.281 185.077 518.294V518.296Z" fill="#FFB6B8"/>
<g opacity="0.2">
<path d="M100.965 559.346C102.027 559.419 103.087 559.446 104.141 559.438C110.93 559.401 117.863 558.176 123.671 554.665C125.641 553.475 127.464 551.987 129.008 550.282C129.389 549.012 129.78 547.742 130.178 546.47C131.23 543.147 132.428 539.78 134.498 537.004C134.525 534.21 134.143 531.388 134.96 528.737C136.412 523.937 141.257 521.051 143.918 516.813C146.314 513 146.812 508.219 145.996 503.798C145.18 499.379 143.138 495.268 140.769 491.456C134.652 481.645 126.113 473.369 116.112 467.569L115.177 467.851C114.288 467.079 112.927 467.424 111.819 467.832C111.32 468.014 110.82 468.213 110.33 468.404L102.943 514.96C101.69 530.642 100.683 546.033 100.965 559.346Z" fill="#001F54"/>
</g>
<path d="M221.456 369.502C206.827 366.304 192.003 364.655 177.175 362.825C164.285 361.195 145.818 359.052 132.74 357.533C131.408 357.376 130.19 358.229 129.846 359.482L118.482 399.862C118.226 400.182 100.381 514.307 100.206 514.726C99.1663 527.944 98.2073 541.205 98.1746 554.589C98.1918 564.223 98.6404 574.156 100.983 583.622C101.628 585.774 102.2 588.089 103.331 590.068C106.291 595.612 112.083 599.475 118.318 600.155C120.774 600.418 124.834 600.263 127.318 600.303C133.971 600.312 150.682 600.303 157.097 600.31H159.579C164.988 600.729 169.991 598.311 172.303 593.227C174.764 587.888 173.786 581.656 171.782 576.529L171.804 578.54C177.631 563.53 183.234 548.053 192.305 534.71L189.86 535.846C194.399 536.163 198.95 536.389 203.519 536.42C232.129 536.744 262.542 529.215 271.518 498.362C282.669 457.566 261.078 415.36 233.886 385.942C233.537 385.571 232.954 385.55 232.581 385.899C232.237 386.22 232.196 386.745 232.466 387.116C247.988 408.734 262.759 431.628 267.786 457.994C270.662 474.728 270.345 493.737 261.191 508.406C249.083 527.409 224.493 531.034 203.553 530.917C199.12 530.883 194.679 530.656 190.241 530.343C189.26 530.274 188.363 530.736 187.828 531.481C185.326 534.994 183.217 538.648 181.269 542.354C175.542 553.407 170.971 565 166.584 576.589C166.33 577.267 166.356 577.978 166.607 578.602C167.69 581.367 168.331 584.317 168.164 587.082C168.009 589.851 166.937 592.268 165.046 593.589C162.956 595.279 159.706 594.628 157.097 594.757C150.743 594.77 133.873 594.753 127.318 594.763C124.86 594.669 120.182 594.985 117.932 594.5C112.765 593.565 108.346 589.561 106.995 584.473C106.847 583.892 106.481 582.808 106.332 582.232C101.481 560.614 104.347 536.536 105.656 515.379C105.885 515.735 123.794 399.75 123.708 401.333L135.032 360.943L132.137 362.892C153.721 365.336 177.418 367.711 198.911 369.758C206.348 370.363 213.8 370.829 221.299 370.889C221.686 370.893 222.002 370.582 222.005 370.195C222.009 369.858 221.772 369.574 221.456 369.506V369.502Z" fill="#001F54"/>
<path d="M172.379 578.431C165.212 563.024 136.516 568.018 125.272 576.064C124.954 576.279 124.87 576.712 125.084 577.031C125.285 577.329 125.677 577.422 125.987 577.257C129.5 575.433 133.327 574.312 137.171 573.527C146.163 571.935 156.828 571.636 164.48 577.035C165.781 578.083 166.764 579.298 167.424 580.687C169.019 583.807 173.68 581.688 172.378 578.431H172.379Z" fill="#001F54"/>
<path d="M149.297 598.54C152.983 594.16 152.775 585.774 147.789 582.583C147.238 582.277 146.7 583.037 147.167 583.454C149.907 586.476 148.888 592.515 145.66 594.722C142.031 597.228 146.545 602.02 149.297 598.54Z" fill="#001F54"/>
<path d="M205.289 530.956C200.138 531.183 194.995 530.862 189.894 530.258C187.665 530.162 184.432 530.19 182.167 530.105C179.556 530.111 176.95 530.011 174.334 530.069C173.869 530.033 173.441 530.387 173.461 530.869C173.473 531.217 173.716 531.506 174.039 531.59C184.21 534.222 194.715 535.648 205.239 536.401C209.055 536.527 209.125 530.908 205.289 530.956Z" fill="#001F54"/>
<path d="M69.5125 533.229C76.5645 535.226 83.589 535.326 89.3967 532.839C117.811 539.337 140.445 524.099 128.992 500.493C143.149 493.804 142.795 473.103 121.286 472.143C121.25 471.816 121.223 471.47 121.187 471.135C120.941 467.995 121.051 464.673 121.45 461.206C122.313 453.484 124.645 445.024 127.749 436.167L131.025 429.215L155.864 376.432L129.328 367.094C122.259 373.02 115.216 379.101 108.346 385.327C103.736 389.493 99.2073 393.712 94.8056 397.978C78.2884 413.959 63.514 430.55 52.8767 447.093C46.8318 456.505 42.1138 465.898 39.1902 475.145C31.4404 499.649 44.7813 526.249 69.5107 533.227L69.5125 533.229Z" fill="#F9F9F9"/>
<path d="M69.5153 533.228C76.5674 535.226 83.5919 535.325 89.3996 532.838C117.814 539.337 140.448 524.098 128.994 500.493C143.152 493.804 142.798 473.103 121.289 472.142C121.207 471.407 121.154 470.673 121.117 469.918C121.099 469.545 121.09 469.174 121.081 468.792C121.073 468.43 121.062 468.067 121.062 467.694C121.062 465.597 121.198 463.428 121.453 461.206C117.278 456.005 111.996 451.976 106.051 449.046C90.1953 441.205 69.6408 441.105 52.8778 447.095C46.833 456.507 42.115 465.9 39.1914 475.147C31.4415 499.651 44.7825 526.25 69.5119 533.228H69.5153Z" fill="#5F5F82"/>
<g opacity="0.4">
<path d="M96.0174 532.819C99.3449 533.58 102.59 534.03 105.713 534.216C101.933 534.484 97.8926 534.314 93.6834 533.659C94.4809 533.422 95.2595 533.143 96.0174 532.819Z" fill="#F9F9F9"/>
<path d="M39.1921 475.149C42.1122 465.902 46.8285 456.504 52.8785 447.092C66.3501 426.142 86.4646 405.095 108.343 385.327C115.212 379.109 122.261 373.023 129.33 367.096L133.979 368.733C127.574 374.133 121.194 379.659 114.965 385.298C93.0853 405.065 72.9724 426.113 59.5009 447.063C53.4509 456.475 48.7346 465.873 45.8144 475.12C38.0629 499.621 51.4004 526.222 76.1349 533.205C78.4208 533.851 80.7051 534.295 82.9463 534.52C78.6976 535.024 74.1103 534.536 69.5126 533.236C44.778 526.253 31.4422 499.652 39.1921 475.151V475.149Z" fill="#F9F9F9"/>
</g>
<g opacity="0.2">
<path d="M105.932 464.06C106.521 467.961 108.699 472.554 112.63 472.509C113.692 472.5 114.716 472.11 115.734 471.828C117.513 471.33 119.355 471.093 121.187 471.129C121.151 470.73 121.132 470.321 121.115 469.912C121.096 469.539 121.079 469.168 121.079 468.786C121.06 468.423 121.06 468.061 121.06 467.688C121.06 465.591 121.196 463.422 121.45 461.199C117.275 455.999 111.994 451.97 106.048 449.039C105.34 454.039 105.16 459.058 105.93 464.06H105.932Z" fill="#001F54"/>
</g>
<path d="M127.58 365.006C94.2944 393.125 52.2194 430.181 37.0651 471.862C32.5139 484.079 32.9298 498.134 38.3903 510.017C44.8236 524.434 58.7506 535.266 74.4978 537.44C79.7366 538.165 85.3895 537.88 90.5974 535.649L88.7136 535.819C94.3889 537.098 100.272 537.663 106.169 537.213C127.279 535.783 141.876 520.111 131.598 499.225L130.225 503.123C137.915 499.653 143.38 490.757 140.998 482.182C138.801 473.564 129.462 469.473 121.413 469.339L124.082 471.852C123.448 465.634 124.275 459.142 125.711 452.783C130.039 433.273 139.704 415.683 148.908 398.09C149.226 397.484 148.992 396.734 148.387 396.416C147.844 396.131 147.184 396.291 146.825 396.763C142.729 402.145 138.996 407.801 135.581 413.666C128.657 425.425 123.364 438.227 120.32 451.557C118.785 458.26 117.803 465.264 118.494 472.443C118.628 473.836 119.768 474.889 121.126 474.955C124.41 475.109 127.638 475.788 130.254 477.264C135.697 480.092 137.337 486.743 134.285 491.938C132.851 494.505 130.507 496.576 127.743 497.869C126.287 498.55 125.663 500.291 126.356 501.74C134.788 518.855 122.59 530.085 105.714 531.197C100.523 531.572 95.2259 531.051 90.0748 529.865C89.4183 529.714 88.7652 529.788 88.1911 530.035C84.3222 531.68 79.7967 531.969 75.3538 531.326C61.7137 529.413 49.612 520.049 43.9917 507.468C37.897 494.32 39.4181 480.111 45.4509 467.227C51.2397 453.97 59.5068 442.001 68.5784 430.7C87.0223 407.947 108.782 388.178 131.077 369.183C133.709 366.898 130.46 362.763 127.58 365.009V365.006Z" fill="#001F54"/>
<path d="M129.055 470.741C126.14 470.344 123.167 470.136 120.194 470.325C117.229 470.512 114.252 471.127 111.579 472.363C111.175 472.55 110.998 473.028 111.186 473.432C111.351 473.805 111.734 473.925 112.102 473.908C115.438 473.858 118.66 474.515 121.916 475.037C123.897 475.099 125.879 475.29 127.765 476.014C131.568 477.188 132.979 471.461 129.055 470.741Z" fill="#001F54"/>
<path d="M130.018 496.861C128.215 497.416 126.42 497.724 124.566 497.688C122.662 497.554 120.678 498.102 119.202 499.295C117.16 500.845 116.012 503.626 116.565 506.137C117.014 508.334 118.763 510.69 121.134 510.892C122.136 510.981 122.588 509.657 121.788 509.087C120.193 507.586 119.967 504.369 122.05 503.271C122.567 502.973 123.134 502.868 123.696 502.925C126.405 503.274 129.256 502.968 131.783 502.014C135.035 500.716 133.373 495.889 130.016 496.863L130.018 496.861Z" fill="#001F54"/>
<g opacity="0.2">
<path d="M111.411 525.885C108.27 528.72 103.238 527.869 99.7179 527.274C96.0192 526.649 94.926 525.55 91.7395 525.848C89.6392 526.044 87.7159 527.059 85.6895 527.644C79.3576 529.469 72.6699 526.996 66.5494 524.557C63.6722 523.41 60.6593 522.168 58.7326 519.741C56.8058 517.316 56.4845 513.32 58.8924 511.372C60.3413 510.2 62.3506 510.049 64.212 510.104C75.6296 510.437 87.0301 516.52 98.0215 513.409C101.383 512.457 103.391 510.662 106.703 511.405C109.511 512.034 113.062 514.359 113.808 518.309C114.319 521.011 113.437 524.055 111.409 525.885H111.411Z" fill="#001F54"/>
</g>
<path d="M123.527 459.446C112.465 446.766 95.0505 441.474 78.7241 441.87C78.1758 441.873 77.7358 442.322 77.741 442.868C77.7444 443.394 78.1586 443.82 78.6742 443.851C90.403 444.584 102.058 447.696 111.327 454.924C114.338 457.259 117.033 459.968 119.366 462.957C121.734 465.82 125.961 462.285 123.527 459.446Z" fill="#001F54"/>
<path d="M209.902 324.691C209.902 324.691 298.934 284.232 299.075 282.866C301.563 258.373 299.099 199.006 262.556 164.616C244.065 147.213 214.433 136.064 181.078 136.389C124.097 136.945 93.2422 162.403 79.2259 185.989C49.2535 236.424 51.6612 318.686 78.9792 348.371C79.9087 349.382 205.171 324.97 205.171 324.97" fill="#F9F9F9"/>
<path d="M299.073 282.857C298.933 284.221 209.905 324.683 209.905 324.683L205.177 324.957C205.177 324.957 79.9078 349.369 78.978 348.362C51.6599 318.677 49.254 236.42 79.2266 185.983C93.2455 162.392 124.102 136.939 181.079 136.382C190.121 136.294 198.891 137.049 207.236 138.543C229.685 142.561 249.076 151.924 262.555 164.607C272.632 174.087 280.111 185.46 285.611 197.484L285.619 197.491C300.084 229.078 300.88 265.116 299.073 282.857Z" fill="#F9F9F9"/>
<path d="M285.614 197.492C275.881 201.668 262.339 203.965 248.015 200.956C216.123 194.257 204.522 162.746 207.231 138.543C229.68 142.561 249.071 151.924 262.55 164.607C272.627 174.087 280.106 185.461 285.606 197.484L285.614 197.492Z" fill="#5F5F82"/>
<path d="M78.7246 350.405C77.9803 350.338 77.7584 350.099 77.4541 349.767C64.0207 335.171 55.8321 307.211 55.5464 274.975C55.2515 241.661 63.234 208.842 77.4435 184.927C88.5157 166.295 116.7 134.944 181.055 134.316C213.476 133.996 244.477 144.759 263.97 163.104C299.525 196.568 304.057 254.258 301.129 283.069C300.979 284.543 300.963 284.696 285.97 291.839C278.559 295.37 268.241 300.188 255.301 306.163C233.274 316.334 210.979 326.469 210.755 326.568C209.714 327.041 208.487 326.581 208.016 325.541C207.543 324.5 208.003 323.273 209.044 322.802C241.719 307.955 290.684 285.417 297.105 281.722C299.768 253.37 295.143 198.122 261.137 166.116C242.405 148.488 212.479 138.145 181.097 138.452C118.769 139.061 91.6317 169.155 81.003 187.04C50.5925 238.212 55.1039 318.122 79.8795 346.273C88.4272 345.339 158.227 332.002 204.774 322.932C205.889 322.716 206.981 323.444 207.201 324.566C207.419 325.688 206.688 326.774 205.566 326.994C205.253 327.054 173.886 333.166 142.809 339.076C124.553 342.548 109.966 345.272 99.4552 347.171C84.8986 349.803 80.435 350.559 78.7268 350.405L78.7246 350.405Z" fill="#001F54"/>
<path d="M280.309 257.661C291.391 259.401 310.526 267.426 315.808 288.445C329.159 341.584 264.852 385.445 184.351 383.803C113.771 382.365 75.9021 356.798 70.0389 331.285C65.4281 311.218 74.891 289.732 99.4381 275.701C99.4381 275.701 113.887 268.089 140.657 264.269C159.744 261.546 193.16 261.65 215.528 260.686C233.756 259.9 250.472 256.522 262.282 256.424C271.726 256.345 280.309 257.659 280.309 257.659L280.309 257.661Z" fill="#FFD8BE"/>
<path d="M142.79 347.005C129.012 343.656 106.058 337.772 104.671 320.952C104.56 319.304 103.088 318.06 101.442 318.266C100.039 318.436 98.9928 319.589 98.9095 320.952C98.7558 323.479 99.0909 326.103 99.9481 328.578C105.83 344.35 128.073 347.979 142.79 347.007L142.79 347.005Z" fill="#001F54"/>
<path d="M115.401 339.089C115.401 339.089 98.5603 331.629 100.995 318.605C103.698 304.143 119.992 303.306 124.286 312.521C129.87 324.511 108.56 330.322 115.401 339.089Z" fill="#F27E80"/>
<g opacity="0.7">
<path d="M115.402 339.095C115.402 339.095 113.208 338.121 110.525 336.268C110.962 335.209 111.666 334.161 112.532 333.115C116.583 328.161 123.85 323.042 120.31 315.449C117.687 309.811 110.577 307.934 104.83 310.637C110.696 304.314 121.01 305.47 124.292 312.529C127.832 320.122 120.565 325.241 116.515 330.195C114.173 333.065 112.897 335.887 115.402 339.093L115.402 339.095Z" fill="#F9F9F9"/>
</g>
<path d="M115.396 339.095C115.396 339.095 98.5612 331.628 101.001 318.607C101.418 316.411 102.131 314.532 103.079 312.957C103.079 312.957 101.594 321.664 110.329 319.733C110.329 319.733 107.198 327.59 116.509 330.195C114.167 333.065 112.891 335.886 115.396 339.093L115.396 339.095Z" fill="#FF5C64"/>
<path d="M115.405 341.251C116.055 341.251 116.69 340.956 117.11 340.419C117.719 339.638 117.719 338.542 117.11 337.761C115.108 335.195 116.49 333.273 120.644 328.824C124.693 324.488 129.735 319.091 126.248 311.609C123.905 306.575 118.328 303.7 112.381 304.45C106.968 305.133 100.579 309.106 98.8752 318.208C96.1574 332.747 113.779 340.732 114.529 341.065C114.812 341.191 115.108 341.251 115.403 341.251L115.405 341.251ZM114.249 308.654C117.802 308.654 120.952 310.474 122.331 313.435C124.432 317.949 121.903 321.146 117.486 325.875C115.129 328.398 112.402 331.318 111.93 334.597C107.597 331.644 101.775 326.221 103.124 319.002C104.207 313.213 107.869 309.377 112.922 308.738C113.368 308.682 113.812 308.654 114.249 308.654Z" fill="#001F54"/>
<path d="M113.229 317.407C105.134 321.935 103.296 329.928 109.357 337.171C110.566 338.63 112.773 336.871 111.61 335.366C105.151 329.493 106.547 322.38 113.229 317.407Z" fill="#001F54"/>
<path d="M305.937 336.604C285.074 365.525 238.351 384.9 184.346 383.796C113.769 382.358 75.8972 356.795 70.0362 331.282C68.4994 324.593 68.5259 317.747 70.1503 311.074C70.3112 312.042 70.505 313.014 70.7283 313.977C76.974 341.168 117.341 368.419 192.56 369.953C238.773 370.899 279.97 357.769 305.935 336.606L305.937 336.604Z" fill="#FFB6B8"/>
<path d="M280.309 257.656C294.04 258.719 307.984 266.692 314.566 279.284C321.029 292.014 321.276 307.467 316.694 320.849C300.181 364.751 244.749 382.902 201.72 385.509C166.386 387.097 125.518 382.997 94.7006 364.495C78.2107 354.481 64.9756 338.639 67.0716 318.248C68.6285 299.101 82.8166 283.75 99.443 275.696C88.1353 283.108 78.2711 293.003 73.6077 305.735C61.3878 340.561 91.9646 362.111 121.352 371.872C162.779 385.068 213.248 385.715 254.184 370.539C278.647 361.315 303.557 345.068 312.477 319.401C316.671 307.093 316.305 293.006 310.931 281.12C305.243 268.993 293.115 260.938 280.316 257.654L280.309 257.656Z" fill="#001F54"/>
<path d="M259.523 263.043C260.829 264.152 261.321 267.417 258.376 269.175C255.418 270.941 249.873 270.089 249.873 270.089C249.873 270.089 250.119 267.103 252.537 264.337C254.473 262.122 257.902 261.667 259.523 263.043Z" fill="#F48990"/>
<path d="M167.781 268.832C166.812 270.248 167.197 273.53 170.497 274.442C173.814 275.357 178.938 273.062 178.938 273.062C178.938 273.062 177.916 270.248 174.858 268.222C172.408 266.601 168.983 267.075 167.781 268.832Z" fill="#F48990"/>
<path d="M117.624 258.511C113.532 251.808 113.507 243.158 116.128 235.711C119.099 227.424 126.678 221.292 135.152 219.793C143.466 218.091 152.275 221.535 158.127 227.237C163.596 232.467 167.482 239.188 168.936 246.609C163.974 241.89 158.854 237.494 153.076 234.356C142.917 228.459 131.788 230.468 125.006 240.319C121.478 245.476 119.045 252.16 117.624 258.511Z" fill="#001F54"/>
<path d="M215.485 243.058C212.738 232.102 214.48 219.505 222.434 210.786C230.569 202.077 245.57 201.1 253.176 210.939C256.768 215.46 258.34 220.527 258.563 225.955C258.625 227.668 258.468 229.411 258.045 231.066C256.437 228.061 254.712 225.411 252.867 222.977C249.561 218.81 245.989 214.922 240.705 214.248C236.04 213.803 231.412 215.852 228.209 219.206C222.025 225.862 219.135 234.241 215.485 243.058Z" fill="#001F54"/>
</svg>
