<svg width="400" height="550" viewBox="0 0 400 550" fill="none" xmlns="http://www.w3.org/2000/svg">
<g id="Character 1" transform="translate(39, 25)">
<g id="Group">
<g id="Group_2">
<path id="Vector" d="M31.7848 421.272C42.3857 423.456 46.9602 429.387 48.303 433.692C49.3662 437.099 49.5986 440.716 47.0106 444.676C44.2828 448.851 37.2909 453.765 28.1304 454.147C24.393 454.303 19.6055 454.178 14.8147 457.371C13.7954 456.564 13.7825 455.009 14.3124 453.15C11.2611 452.814 7.6749 452.804 2.26476 453.942C2.20948 453.954 -0.630527 439.142 17.5783 424.69C15.7966 421.894 16.6794 419.358 19.0642 417.825C22.8536 422.327 24.6726 419.804 31.7816 421.27L31.7848 421.272Z" fill="#C4612B"></path>
<path id="Vector_2" d="M47.008 444.676C44.2835 448.849 37.2916 453.767 28.1327 454.145C24.4067 454.305 19.6371 454.175 14.8609 457.338C14.843 457.346 14.8236 457.359 14.8106 457.369C14.6577 457.245 14.5244 457.109 14.4171 456.953C14.1261 456.533 13.988 456.005 13.9684 455.397C13.9522 454.732 14.0839 453.971 14.3164 453.154C11.2618 452.819 7.67558 452.804 2.26868 453.944C2.25893 453.931 2.19227 453.619 2.14025 453.056C2.12887 452.964 2.12401 452.861 2.11751 452.747C2.08987 452.369 2.07687 451.908 2.07687 451.372C2.0785 451.265 2.07687 451.151 2.08175 451.034C2.09313 450.787 2.09962 450.528 2.11588 450.249C2.12076 450.125 2.13213 449.997 2.14513 449.87C2.21178 449 2.33858 448.017 2.54992 446.929C3.66674 441.269 7.21714 432.926 17.5822 424.692C15.8022 421.896 16.6833 419.363 19.0681 417.825C22.8575 422.33 24.675 419.808 31.7888 421.272C40.564 423.086 45.2085 427.456 47.3039 431.349C47.3039 431.349 47.3072 431.352 47.3137 431.357C47.751 432.165 48.0777 432.953 48.3053 433.695C49.3636 437.102 49.601 440.718 47.0097 444.678L47.008 444.676Z" fill="#C4612B"></path>
<path id="Vector_3" d="M47.0085 444.675C44.2839 448.848 37.2921 453.765 28.1332 454.144C24.4072 454.303 19.6375 454.173 14.8614 457.337C14.8435 457.345 14.824 457.358 14.811 457.368C14.6582 457.244 14.5249 457.108 14.4176 456.952C14.1266 456.532 13.9884 456.004 13.9689 455.396C13.9527 454.731 14.0844 453.97 14.3168 453.152C11.2622 452.818 7.67605 452.803 2.26915 453.942C2.2594 453.929 2.19274 453.617 2.14072 453.055C2.12934 452.962 2.12448 452.86 2.11798 452.746C2.09034 452.367 2.07734 451.907 2.07734 451.371C2.07896 451.263 2.07734 451.15 2.08222 451.033C2.0936 450.785 2.1001 450.527 2.11635 450.247C2.12123 450.124 2.1326 449.995 2.1456 449.869C2.21225 448.999 2.33905 448.015 2.55039 446.928C3.66721 441.267 7.21761 432.925 17.5827 424.691C17.5291 424.608 17.4819 424.531 17.4348 424.448C16.8203 423.405 16.583 422.402 16.6529 421.475C16.6594 421.408 16.6643 421.347 16.6708 421.28C16.8333 419.975 17.6136 418.843 18.8312 417.983C18.9093 417.93 18.9857 417.876 19.0686 417.822C22.858 422.327 24.6754 419.806 31.7893 421.269C40.5645 423.083 45.2089 427.453 47.3044 431.346C47.3044 431.346 47.3077 431.349 47.3142 431.354C47.7515 432.162 48.0782 432.951 48.3058 433.692C48.561 434.506 48.7675 435.335 48.8975 436.179C49.3153 438.848 48.9772 441.666 47.0101 444.675H47.0085Z" fill="#5F5F82"></path>
<g id="Group_3" opacity="0.4">
<path id="Vector_4" d="M17.4299 424.448C17.4429 424.549 17.4592 424.656 17.4852 424.765C17.5161 424.741 17.5485 424.713 17.5811 424.689C17.5274 424.609 17.4787 424.526 17.4299 424.446V424.448Z" fill="#F9F9F9"></path>
</g>
<g id="Group_4" opacity="0.4">
<path id="Vector_5" d="M48.8955 436.179C47.7088 435.015 46.644 434.15 45.5548 432.762C42.931 429.406 37.9842 425.682 32.7675 424.606C26.1625 423.24 23.9484 425.583 19.1592 422.267C17.7465 423.17 17.2572 423.219 17.4311 424.448C16.8167 423.405 16.5793 422.402 16.6492 421.475C16.6557 421.408 16.6606 421.347 16.6671 421.28C16.8297 419.974 17.61 418.843 18.8276 417.983C18.904 417.934 18.982 417.881 19.0649 417.829V417.824C22.8559 422.328 24.6718 419.807 31.7856 421.27C40.5608 423.084 45.2053 427.454 47.3007 431.347C47.3007 431.347 47.304 431.35 47.3105 431.356C47.7478 432.164 48.0745 432.952 48.3021 433.693C48.5573 434.508 48.7638 435.337 48.8939 436.181L48.8955 436.179Z" fill="#F9F9F9"></path>
</g>
<g id="Group_5" opacity="0.4">
<path id="Vector_6" d="M2.5514 446.92C1.71094 451.164 2.2344 453.895 2.26528 453.937C2.59204 453.868 2.91069 453.807 3.22444 453.746C3.2537 452.635 3.37723 451.244 3.69098 449.636C4.81105 443.972 8.35332 435.633 18.7266 427.402C18.0861 426.396 17.6553 425.528 17.4862 424.759C7.19101 432.967 3.66496 441.279 2.5514 446.918V446.92Z" fill="#F9F9F9"></path>
</g>
<g id="Group_6" opacity="0.2">
<path id="Vector_7" d="M47.008 444.676C44.2835 448.849 37.2916 453.767 28.1327 454.145C24.4067 454.305 19.6371 454.175 14.8609 457.338C14.843 457.346 14.8236 457.359 14.8106 457.369C14.6577 457.245 14.5244 457.109 14.4171 456.953C14.1261 456.533 13.9831 456.003 13.9684 455.397C13.9522 454.732 14.0839 453.971 14.3164 453.154C11.2618 452.819 7.67558 452.804 2.26868 453.944C2.25893 453.931 2.19227 453.619 2.14025 453.056C2.12887 452.963 2.12401 452.861 2.11751 452.747C2.08987 452.368 2.07687 451.908 2.07687 451.372C2.0785 451.265 2.07687 451.151 2.08175 451.034C2.09313 450.787 2.09962 450.528 2.11588 450.249C2.12076 450.125 2.13213 449.997 2.14513 449.87C2.21178 449 2.33858 448.017 2.54992 446.929C3.11239 449.551 4.58362 450.382 7.08549 449.493C12.086 447.716 15.9225 444.873 21.1701 444.665C20.0597 448.368 27.4971 448.361 29.3991 447.363C36.8527 443.452 36.6039 436.239 38.0264 430.9C39.4488 425.562 47.3088 431.354 47.3137 431.355C47.751 432.163 48.0777 432.952 48.3053 433.693C49.3636 437.1 49.601 440.716 47.0097 444.676H47.008Z" fill="#001F54"></path>
</g>
<path id="Vector_8" d="M14.8162 459.515C15.2292 459.515 15.6453 459.395 16.0062 459.154C19.872 456.578 23.7687 456.444 27.207 456.326L28.2197 456.29C37.9947 455.882 45.6027 450.751 48.8069 445.848C52.1671 440.708 51.2974 436.083 50.3512 433.051C49.5579 430.507 45.9051 421.989 32.2172 419.168C29.4422 418.596 27.4362 418.586 25.8235 418.578C23.2631 418.565 22.4909 418.562 20.7076 416.444C20.0134 415.618 18.8137 415.436 17.9066 416.021C14.9154 417.944 13.8311 421.035 14.9122 424.099C-3.28529 439.38 0.253735 454.705 0.317135 454.842C0.734928 455.741 1.71358 456.241 2.68734 456.045C6.7352 455.193 9.59795 455.029 11.83 455.111C11.7877 457.186 12.6346 458.377 13.4832 459.05C13.8718 459.358 14.3432 459.514 14.8162 459.514V459.515ZM19.0218 420.836C21.3822 422.847 23.4614 422.857 25.8024 422.868C27.298 422.876 28.9952 422.885 31.3523 423.371C42.74 425.718 45.6385 432.351 46.2546 434.329C47.3763 437.925 47.0658 440.668 45.2142 443.499C42.6961 447.354 36.2471 451.659 28.0409 452L27.059 452.036C24.1036 452.136 20.2573 452.268 16.281 454.097C16.3086 453.985 16.3395 453.866 16.3769 453.739C16.5508 453.131 16.4484 452.478 16.0957 451.953C15.7429 451.428 15.1772 451.085 14.5497 451.016C12.2234 450.76 9.01107 450.595 4.20729 451.392C4.21379 447.126 5.76794 436.805 18.9145 426.372C19.7761 425.689 19.9809 424.465 19.3908 423.538C18.7357 422.509 18.6105 421.615 19.0234 420.838L19.0218 420.836Z" fill="#001F54"></path>
<path id="Vector_9" d="M16.1247 426.268C18.6559 427.549 21.2098 428.902 24.0059 429.443C21.9689 427.687 20.4912 425.341 19.0363 423.114L16.1247 426.268Z" fill="#001F54"></path>
<path id="Vector_10" d="M16.2555 454.062C16.857 451.628 17.7754 449.099 19.1215 446.945C19.5945 446.218 20.1278 445.519 20.8105 444.924C18.1656 445.86 16.062 447.956 14.1958 449.993C13.5618 450.711 12.9733 451.4 12.3702 452.238L16.2555 454.062Z" fill="#001F54"></path>
</g>
<path id="Vector_11" d="M103.632 396.018C102.829 408.233 96.1376 447.835 67.1069 446.512C56.0216 446.007 53.1231 440.553 41.0608 438.145C37.7754 437.457 37.3949 432.954 40.5113 431.706C46.1247 428.976 51.725 430.608 57.8017 432.005C81.6109 437.478 87.1885 406.45 88.5654 379.778" fill="#F9F9F9"></path>
<path id="Vector_12" d="M41.0621 438.145C53.1244 440.556 56.0196 446.005 67.1033 446.513C96.134 447.839 102.832 408.232 103.63 396.02L96.7241 395.027C94.8059 410.327 91.4619 440.929 65.32 439.737C54.2363 439.23 53.6787 435.614 40.4199 434.73C39.742 434.587 39.1357 434.145 38.6366 433.511C37.8807 435.309 38.7586 437.669 41.0621 438.147V438.145Z" fill="#EFEFEF"></path>
<path id="Vector_13" d="M68.4963 449.118C81.191 449.118 91.465 441.658 98.2781 427.455C104.753 413.957 106.016 399.038 106.203 396.185L101.064 395.847C100.931 397.868 97.4409 445.327 67.225 443.939C61.7239 443.688 58.4287 442.1 54.6149 440.263C51.2287 438.631 47.3889 436.783 41.5659 435.62C41.2001 435.544 40.9855 435.307 40.9514 434.92C40.927 434.648 40.9985 434.284 41.4683 434.095C41.5252 434.073 41.5805 434.048 41.6357 434.021C46.0169 431.893 50.5898 432.962 55.8845 434.203L57.2224 434.515C64.0713 436.087 70.039 435.003 74.9599 431.29C84.4293 424.142 89.7191 407.336 91.135 379.909L85.9915 379.645C84.678 405.097 79.9213 421.09 71.8565 427.178C68.1565 429.973 63.7462 430.729 58.3767 429.495L57.0583 429.188C51.3555 427.853 45.4577 426.473 39.459 429.354C37.0514 430.365 35.5916 432.769 35.8192 435.368C36.0484 437.995 37.9423 440.123 40.532 440.665C45.7389 441.704 49.1137 443.331 52.3764 444.903C56.5202 446.899 60.4331 448.785 66.9877 449.084C67.4933 449.107 67.9956 449.118 68.4947 449.118H68.4963Z" fill="#001F54"></path>
<path id="Vector_14" opacity="0.1" d="M158.672 500C73.3397 500 4.16418 494.044 4.16418 486.696C4.16418 479.348 73.3397 473.392 158.672 473.392C244.004 473.392 313.18 479.348 313.18 486.696C313.18 494.044 244.004 500 158.672 500Z" fill="#001F54"></path>
<g id="Group_7">
<g id="Group_8">
<path id="Vector_15" d="M201.219 272.608L226.258 377.888L234.695 413.383C244.136 420.249 261.949 421.898 270.747 412.524C292.155 409.795 291.571 385.066 277.76 354.978C269.991 338.042 258.034 319.416 243.458 302.06C235.132 292.137 225.939 282.627 216.179 274.094L208.875 273.364L201.218 272.608H201.219Z" fill="#F9F9F9"></path>
<path id="Vector_16" d="M226.257 377.889L228.257 386.31L234.694 413.383C244.136 420.25 261.948 421.898 270.746 412.525C278.746 411.504 283.673 407.409 285.992 401.118C289.872 390.569 286.413 373.83 277.759 354.98C271.665 353.753 265.321 353.795 259.305 355.213C256.79 355.805 254.343 356.629 251.983 357.711C248.137 359.462 244.575 361.789 241.168 364.277C240.935 364.45 240.704 364.612 240.482 364.785C235.297 368.631 230.404 372.973 226.259 377.892L226.257 377.889Z" fill="#5F5F82"></path>
<path id="Vector_17" d="M208.875 273.361C210.909 278.546 213.15 283.653 215.605 288.667C216.077 289.628 216.576 290.606 217.382 291.31C218.128 291.954 219.073 292.307 219.991 292.65C227.889 295.525 236.077 298.152 243.459 302.057C235.132 292.134 225.939 282.624 216.179 274.091L208.875 273.361Z" fill="#E5E5E5"></path>
<g id="Group_9" opacity="0.2">
<path id="Vector_18" d="M228.257 386.309L234.695 413.382C244.137 420.249 261.949 421.898 270.747 412.524C278.747 411.503 283.674 407.408 285.992 401.117C281.057 404.181 274.619 404.679 269.279 402.413C263.88 400.112 259.743 395.048 258.576 389.297C258.147 387.211 258.095 385.021 258.644 382.962C259.356 380.284 261.039 377.948 261.871 375.305C262.996 371.777 262.541 367.949 261.803 364.317C261.167 361.227 260.335 358.188 259.304 355.21C257.501 350.016 255.107 345.031 252.163 340.378C252.12 342.73 251.158 344.952 250.153 347.074C247.277 353.16 243.922 358.988 240.479 364.782C236.273 371.898 231.946 378.945 228.256 386.311L228.257 386.309Z" fill="#001F54"></path>
</g>
<path id="Vector_19" d="M253.349 421.617C260.35 421.617 267.214 419.564 271.972 414.949C280.59 413.58 286.414 408.667 288.846 400.697C297.213 373.258 263.385 311.992 217.874 272.159C217.471 271.806 216.967 271.586 216.432 271.534L201.474 270.047C200.647 269.964 199.829 270.288 199.28 270.915C198.732 271.543 198.521 272.396 198.714 273.206L232.191 413.98C232.334 414.578 232.685 415.105 233.181 415.466C238.555 419.374 246.027 421.619 253.349 421.619V421.617ZM215.099 276.576C258.211 314.595 291.602 374.002 283.921 399.195C281.988 405.531 277.572 409.056 270.423 409.968C269.829 410.044 269.282 410.324 268.872 410.76C261.454 418.66 245.954 417.782 236.975 411.828L204.563 275.527L215.1 276.576H215.099Z" fill="#001F54"></path>
<path id="Vector_20" d="M275.385 370.987C265.776 369.87 254.104 374.731 251.097 384.808C248.465 392.663 252.807 401.708 260.462 404.629C262.79 405.572 265.236 405.998 267.613 405.901C268.002 405.884 268.304 405.556 268.288 405.168C268.276 404.891 268.107 404.659 267.872 404.553C263.79 402.682 260.392 400.185 258.487 396.955C252.94 387.367 260.327 378.652 269.385 374.888C271.339 373.965 273.441 373.297 275.584 372.502C276.353 372.238 276.198 371.042 275.385 370.987Z" fill="#001F54"></path>
</g>
<g id="Group_10">
<path id="Vector_21" d="M176.371 479.93C176.577 480.461 176.834 480.96 177.135 481.432C178.731 483.921 181.521 485.483 184.551 485.483H223.461C228.851 484.504 231.272 480.547 231.066 476.144C230.945 473.302 229.718 470.264 227.494 467.723C227.512 467.645 227.52 467.576 227.536 467.5C228.447 462.547 229.536 457.389 230.789 452.05C232.077 446.513 233.537 440.771 235.141 434.857C238.077 423.999 241.492 412.565 245.261 400.71L224.797 407.92L174.204 425.741C171.061 446.916 170.951 466.239 176.368 479.93H176.371Z" fill="#F9F9F9"></path>
<path id="Vector_22" d="M217.744 429.054C218.215 431.157 219.083 433.157 220.397 434.916C221.255 436.067 222.336 437.234 222.31 438.658C222.292 439.833 221.52 440.838 221.169 441.963C220.577 443.868 221.281 446.006 222.569 447.526C223.864 449.054 225.667 450.049 227.504 450.839C228.577 451.302 229.676 451.705 230.791 452.05C232.079 446.513 233.539 440.771 235.143 434.857C238.079 423.999 241.494 412.565 245.263 400.71L224.799 407.92C222.85 409.998 221.159 412.264 219.846 414.795C217.588 419.121 216.687 424.365 217.742 429.052L217.744 429.054Z" fill="#5F5F82"></path>
<path id="Vector_23" d="M177.134 481.432C178.73 483.921 181.52 485.483 184.55 485.483H223.46C227.348 484.779 229.683 482.521 230.609 479.671C230.687 479.439 230.755 479.2 230.816 478.949C231.03 478.057 231.116 477.112 231.064 476.142C230.944 473.3 229.717 470.262 227.493 467.721C227.511 467.643 227.519 467.575 227.535 467.498C225.072 465.507 222.162 464.081 219.054 463.447C216.746 462.976 214.385 462.916 212.025 462.984C204.368 463.19 196.523 464.863 189.81 468.427C186.265 470.316 183.03 472.726 180.308 475.731C179.201 476.95 178.163 478.288 177.579 479.834C177.373 480.349 177.228 480.881 177.132 481.43L177.134 481.432Z" fill="#5F5F82"></path>
<g id="Group_11" opacity="0.2">
<path id="Vector_24" d="M177.132 481.433C178.728 483.922 181.518 485.484 184.548 485.484H223.458C227.346 484.78 229.681 482.522 230.607 479.673C230.685 479.44 230.754 479.201 230.814 478.951C231.028 478.05 231.106 477.106 231.062 476.143C224.711 481.045 215.458 481.337 207.234 480.563C201.921 480.066 196.135 479.009 192.702 474.924C191.14 473.061 190.273 470.821 189.81 468.426C186.265 470.315 183.03 472.726 180.308 475.73C179.201 476.95 178.162 478.287 177.579 479.833C177.372 480.349 177.228 480.88 177.132 481.43V481.433Z" fill="#001F54"></path>
</g>
<path id="Vector_25" d="M184.55 488.118H223.46C223.618 488.118 223.776 488.103 223.932 488.075C228.436 487.258 231.673 484.644 233.045 480.716C234.537 476.446 233.46 471.19 230.311 467.007C233.586 449.631 239.304 428.185 247.772 401.507C248.074 400.554 247.812 399.512 247.094 398.816C246.377 398.12 245.327 397.891 244.384 398.223L173.335 423.251C172.413 423.575 171.747 424.384 171.604 425.35C168.05 449.333 168.827 468.021 173.916 480.897C175.648 485.283 179.823 488.116 184.552 488.116L184.55 488.118ZM223.208 482.847H184.55C182 482.847 179.748 481.323 178.815 478.96C174.18 467.231 173.431 449.988 176.588 427.693L241.162 404.945C233.305 430.12 227.978 450.539 224.904 467.244C224.758 468.036 224.982 468.851 225.512 469.457C228.066 472.377 229.069 476.112 228.067 478.978C227.359 481.006 225.681 482.342 223.207 482.847H223.208Z" fill="#001F54"></path>
<path id="Vector_26" d="M230.872 467.914C220.851 456.546 202.572 461.119 190.812 466.939C189.857 467.425 190.479 468.889 191.5 468.51C197.606 466.135 204.128 464.471 210.662 464.513C216.569 464.511 223.338 466.09 226.754 471.008C228.856 473.88 233.052 470.751 230.872 467.914Z" fill="#001F54"></path>
<path id="Vector_27" d="M213.124 486.236C215.855 482.033 216.723 475.358 212.295 472.034C211.612 471.532 210.759 472.452 211.304 473.092C212.542 474.637 212.728 476.635 212.203 478.465C211.694 480.265 210.583 481.892 209.237 483.113C206.514 485.862 211.016 489.489 213.124 486.236Z" fill="#001F54"></path>
</g>
<g id="Group_12">
<path id="Vector_28" d="M100.703 479.184C103.605 483.588 108.6 486.343 114.059 486.343H152.429C154.104 486.343 155.776 485.956 157.194 485.064C161.933 482.076 162.841 475.313 160.37 468.386C156.602 464.884 152.208 462.189 147.229 460.986C140.757 459.424 133.941 460.505 127.495 462.171C121.615 463.691 115.795 465.707 110.697 469.004C106.662 471.605 103.083 475.046 100.706 479.184H100.703Z" fill="#727272"></path>
<path id="Vector_29" d="M95.4835 450.213C95.6298 456.658 96.085 462.582 97.0035 467.758C97.4928 470.582 98.1284 473.183 98.9168 475.527C101.097 482.009 107.217 486.343 114.058 486.343H152.428C154.103 486.343 155.775 485.956 157.193 485.063C159.656 483.509 161.09 480.934 161.545 477.844C162 474.727 161.477 471.097 160.017 467.458C160.213 466.926 160.42 466.393 160.618 465.869C166.344 450.702 171.941 437.783 177.288 429.131C178.112 427.784 178.944 426.53 179.76 425.397C182.867 425.638 185.881 425.792 188.799 425.878C221.829 426.831 243.271 418.059 252.319 397.535C253.005 395.973 253.625 394.333 254.164 392.634C255.761 387.647 256.731 382.059 257.074 375.861C257.82 362.426 255.392 349.02 250.585 336.444C245.547 323.26 238.379 310.597 229.511 298.348C226.688 294.452 223.692 290.589 220.533 286.769L209.375 271.319L178.284 267.825L125.254 261.877C121.674 274.607 118.104 287.344 114.525 300.075L111.924 316.477L104.345 364.195L97.3578 408.229C96.1727 423.061 95.2201 437.619 95.4867 450.211L95.4835 450.213Z" fill="#F9F9F9"></path>
<path id="Vector_30" d="M95.4833 450.212C95.6296 456.658 96.0848 462.582 97.0033 467.758C97.1577 468.634 97.3203 469.493 97.5007 470.325C97.6812 471.165 97.8779 471.99 98.0925 472.78C98.1185 472.874 98.1445 472.96 98.1689 473.046C98.2713 473.458 98.3916 473.862 98.5119 474.256C98.6403 474.693 98.7785 475.114 98.915 475.525C101.095 482.007 107.216 486.341 114.056 486.341H152.426C154.101 486.341 155.774 485.954 157.191 485.061C159.654 483.507 161.088 480.932 161.543 477.842C153.894 481.293 145.379 482.811 137.036 481.997C129.827 481.285 122.076 478.331 118.959 471.791C118.179 470.161 117.75 468.434 117.569 466.667C117.192 463.148 117.766 459.448 118.47 455.938C119.689 449.895 121.243 443.911 123.114 438.031C124.247 434.452 125.569 430.812 128.076 428.006C133.579 421.86 143.046 421.5 151.209 422.71C160.077 424.023 168.676 426.606 177.286 429.131C178.11 427.783 178.942 426.53 179.758 425.397C182.865 425.638 185.879 425.792 188.797 425.878C221.827 426.831 243.269 418.059 252.317 397.535C234.507 410.986 211.992 418.376 190 415.321C163.253 411.613 138.721 390.72 134.351 364.076C130.402 339.912 143.69 314.437 164.806 302.041C184.11 290.703 208.703 289.999 229.51 298.351C226.686 294.455 223.69 290.592 220.531 286.772L209.373 271.322L178.282 267.828L125.252 261.88C121.672 274.61 118.103 287.347 114.523 300.078L111.922 316.48L104.343 364.198L97.356 408.232C96.1709 423.064 95.2184 437.622 95.485 450.214L95.4833 450.212Z" fill="#D3D3D3" fill-opacity="0.4"></path>
<path id="Vector_31" d="M97.0044 467.759C97.4937 470.583 98.1294 473.184 98.9178 475.528C101.098 482.009 107.218 486.343 114.059 486.343H152.429C154.104 486.343 155.776 485.956 157.194 485.064C159.657 483.51 161.091 480.935 161.546 477.844C162.001 474.728 161.477 471.098 160.018 467.458C160.214 466.926 160.421 466.393 160.619 465.87C159.735 465.2 158.782 464.616 157.804 464.111C153.983 462.154 149.641 461.407 145.348 461.339C143.864 461.313 142.352 461.365 140.918 460.97C139.965 460.713 139.055 460.266 138.068 460.248C137.338 460.24 136.626 460.481 135.914 460.66C134.498 461.012 133.03 461.123 131.588 461.372C126.404 462.256 121.708 464.873 116.884 466.977C112.069 469.089 106.721 470.737 101.589 469.544C99.9842 469.175 98.4642 468.539 97.0044 467.759Z" fill="#5F5F82"></path>
<g id="Group_13" opacity="0.2">
<path id="Vector_32" d="M97.0042 467.761C97.1587 468.637 97.3212 469.495 97.5017 470.328C97.6821 471.168 97.8788 471.992 98.0934 472.782C98.1194 472.877 98.1454 472.963 98.1698 473.049C98.2722 473.46 98.3925 473.865 98.5128 474.258C98.6413 474.696 98.7794 475.117 98.916 475.528C101.096 482.01 107.217 486.343 114.057 486.343H152.427C154.102 486.343 155.775 485.957 157.192 485.064C159.655 483.51 161.089 480.935 161.544 477.845C153.895 481.296 145.38 482.814 137.037 482C129.828 481.288 122.077 478.334 118.96 471.794C118.18 470.163 117.751 468.437 117.57 466.67C117.338 466.782 117.115 466.876 116.884 466.979C112.069 469.09 106.721 470.739 101.589 469.546C99.984 469.177 98.4641 468.541 97.0042 467.761Z" fill="#001F54"></path>
</g>
<path id="Vector_33" d="M171.526 400.754C172.128 404.557 173.329 408.128 175.038 411.397C178.154 417.346 182.943 422.307 188.797 425.879C190.411 425.921 192 425.947 193.562 425.947C194.318 425.947 195.056 425.939 195.794 425.929C196.061 425.929 196.335 425.921 196.6 425.911C196.721 425.911 196.841 425.911 196.961 425.903C197.623 425.895 198.275 425.869 198.918 425.851C199.013 425.843 199.115 425.843 199.209 425.833C199.965 425.807 200.712 425.773 201.45 425.731C202.497 425.671 203.527 425.602 204.54 425.516C207.097 425.31 209.57 425.019 211.94 424.65C211.958 424.65 211.982 424.642 212 424.642C212.78 424.521 213.554 424.393 214.318 424.255C214.825 424.16 215.323 424.066 215.82 423.962C215.906 423.944 215.983 423.928 216.069 423.91C216.37 423.858 216.671 423.79 216.962 423.721C216.996 423.721 217.022 423.713 217.056 423.704C218.283 423.447 219.485 423.154 220.661 422.837C220.858 422.785 221.057 422.725 221.253 422.675C221.915 422.494 222.567 422.297 223.202 422.099C223.88 421.893 224.55 421.678 225.202 421.455C225.228 421.437 225.244 421.429 225.27 421.429C227.288 420.734 229.201 419.953 231.03 419.085C231.064 419.067 231.098 419.051 231.132 419.033C231.734 418.75 232.317 418.458 232.891 418.157C233.381 417.9 233.862 417.633 234.333 417.367C234.445 417.307 234.556 417.246 234.66 417.178C235.227 416.851 235.775 416.517 236.316 416.174C236.858 415.831 237.389 415.478 237.913 415.119C237.931 415.101 237.955 415.093 237.973 415.076C238.488 414.715 238.994 414.346 239.493 413.961C239.527 413.943 239.553 413.919 239.587 413.893C240.059 413.524 240.524 413.155 240.987 412.768C241.468 412.365 241.94 411.944 242.411 411.514C242.848 411.111 243.277 410.698 243.69 410.279C243.751 410.227 243.803 410.177 243.845 410.125C244.198 409.773 244.531 409.413 244.866 409.052C244.978 408.939 245.08 408.819 245.183 408.7C245.535 408.314 245.869 407.92 246.204 407.515C246.272 407.429 246.342 407.343 246.41 407.259C247.14 406.366 247.836 405.43 248.496 404.461C248.548 404.393 248.598 404.314 248.65 404.228C248.917 403.825 249.182 403.412 249.44 403.001C249.543 402.829 249.655 402.658 249.749 402.486C249.972 402.125 250.186 401.756 250.393 401.379C250.505 401.19 250.607 400.992 250.72 400.795C250.746 400.753 250.772 400.701 250.798 400.649C250.994 400.28 251.193 399.902 251.381 399.516C251.484 399.309 251.588 399.104 251.682 398.898C251.905 398.451 252.111 397.997 252.308 397.542L252.316 397.534C253.002 395.972 253.621 394.331 254.161 392.633C254.135 391.036 254.007 389.44 253.75 387.834C250.513 367.276 229.492 353.498 206.788 357.06C184.076 360.632 168.29 380.193 171.526 400.751V400.754Z" fill="#FFD8BE"></path>
<g id="Group_14" opacity="0.3">
<path id="Vector_34" d="M244.276 344.067L244.111 344.009C244.119 343.957 244.13 343.905 244.138 343.853L244.276 344.067Z" fill="#66142E"></path>
</g>
<path id="Vector_35" d="M95.4824 450.214C96.4871 450.282 97.4901 450.308 98.4866 450.3C104.908 450.266 111.466 449.107 116.959 445.785C118.822 444.66 120.547 443.253 122.006 441.64C124.9 438.498 126.865 434.559 127.156 430.335C127.182 429.914 127.199 429.503 127.199 429.082C127.225 426.439 126.864 423.769 127.636 421.263C129.01 416.722 133.592 413.993 136.109 409.984C138.375 406.378 138.847 401.856 138.074 397.674C137.302 393.495 135.371 389.606 133.131 386.001C127.345 376.722 119.269 368.894 109.809 363.407L108.925 363.674C108.084 362.944 106.797 363.271 105.748 363.656C105.277 363.829 104.804 364.017 104.341 364.198L97.3536 408.231C96.1685 423.064 95.2158 437.621 95.4824 450.214Z" fill="#5F5F82"></path>
<path id="Vector_36" d="M175.038 411.397C178.155 417.346 182.944 422.307 188.798 425.879C190.412 425.921 192 425.947 193.563 425.947C194.319 425.947 195.057 425.939 195.795 425.929C196.061 425.929 196.336 425.921 196.601 425.911C196.721 425.911 196.842 425.911 196.962 425.903C197.624 425.895 198.275 425.869 198.919 425.851C199.013 425.843 199.116 425.843 199.21 425.833C199.966 425.807 200.712 425.773 201.45 425.731C202.497 425.671 203.528 425.602 204.541 425.516C207.098 425.302 209.562 425.019 211.941 424.65C211.958 424.65 211.983 424.642 212.001 424.642C212.781 424.521 213.555 424.393 214.319 424.255C214.826 424.16 215.324 424.066 215.821 423.962C215.907 423.944 215.984 423.928 216.07 423.91C216.37 423.858 216.671 423.79 216.962 423.721C216.996 423.721 217.022 423.713 217.056 423.704C218.284 423.437 219.485 423.146 220.662 422.837C220.859 422.785 221.057 422.725 221.254 422.674C221.916 422.494 222.567 422.297 223.203 422.099C223.881 421.893 224.551 421.678 225.203 421.455C225.229 421.437 225.245 421.429 225.271 421.429C227.288 420.725 229.202 419.943 231.031 419.085C231.065 419.067 231.099 419.051 231.133 419.033C231.734 418.75 232.318 418.458 232.892 418.157C233.381 417.9 233.862 417.633 234.334 417.367C234.446 417.307 234.557 417.246 234.661 417.178C235.228 416.851 235.776 416.517 236.317 416.174C236.858 415.831 237.39 415.478 237.914 415.118C237.931 415.101 237.956 415.092 237.974 415.076C238.489 414.715 238.995 414.346 239.494 413.961C239.528 413.943 239.554 413.919 239.588 413.893C240.059 413.524 240.524 413.155 240.988 412.768C241.469 412.365 241.94 411.944 242.412 411.514C242.849 411.111 243.278 410.698 243.691 410.279C243.751 410.227 243.803 410.177 243.845 410.125C244.198 409.773 244.532 409.412 244.866 409.052C244.979 408.939 245.081 408.819 245.183 408.7C245.536 408.314 245.869 407.92 246.204 407.515C246.273 407.429 246.342 407.343 246.411 407.258C247.141 406.366 247.836 405.43 248.496 404.461C248.548 404.392 248.599 404.314 248.651 404.228C248.917 403.825 249.182 403.412 249.441 403.001C249.543 402.829 249.656 402.658 249.75 402.486C249.973 402.125 250.187 401.756 250.394 401.379C250.506 401.19 250.608 400.992 250.72 400.795C250.746 400.753 250.772 400.701 250.798 400.649C250.995 400.28 251.193 399.902 251.382 399.516C251.484 399.309 251.588 399.104 251.683 398.898C251.905 398.451 252.112 397.997 252.309 397.542C234.498 410.984 211.991 418.375 189.999 415.318C184.891 414.606 179.862 413.275 175.038 411.396V411.397Z" fill="#FFB6B8"></path>
<g id="Group_15" opacity="0.2">
<path id="Vector_37" d="M95.4824 450.214C96.4871 450.282 97.4901 450.308 98.4866 450.3C104.908 450.266 111.466 449.107 116.959 445.785C118.822 444.66 120.547 443.253 122.006 441.64C122.367 440.439 122.736 439.237 123.114 438.034C124.108 434.892 125.241 431.707 127.199 429.082C127.225 426.439 126.864 423.769 127.636 421.263C129.01 416.722 133.592 413.993 136.109 409.984C138.375 406.378 138.847 401.856 138.074 397.674C137.302 393.495 135.371 389.606 133.131 386.001C127.345 376.722 119.269 368.894 109.809 363.407L108.925 363.674C108.084 362.944 106.797 363.271 105.748 363.656C105.277 363.829 104.804 364.017 104.341 364.198L97.3536 408.231C96.1685 423.064 95.2158 437.621 95.4824 450.214Z" fill="#001F54"></path>
</g>
<path id="Vector_38" d="M209.446 270.664C195.61 267.638 181.589 266.079 167.565 264.348C155.372 262.807 137.906 260.78 125.537 259.343C124.277 259.195 123.124 260.001 122.799 261.186L112.05 299.379C111.808 299.681 94.9308 407.624 94.765 408.021C93.7815 420.522 92.8744 433.066 92.8435 445.724C92.8597 454.836 93.284 464.231 95.4998 473.185C96.1094 475.22 96.6508 477.41 97.7204 479.281C100.52 484.525 105.998 488.178 111.896 488.822C114.219 489.071 118.059 488.924 120.408 488.962C126.701 488.97 142.507 488.962 148.574 488.968H150.921C156.037 489.365 160.769 487.078 162.956 482.269C165.284 477.22 164.359 471.325 162.463 466.476L162.484 468.378C167.995 454.181 173.295 439.542 181.875 426.922L179.562 427.997C183.855 428.296 188.16 428.511 192.481 428.54C219.541 428.845 248.307 421.725 256.796 392.543C267.343 353.957 246.922 314.037 221.203 286.213C220.873 285.862 220.322 285.842 219.969 286.172C219.644 286.476 219.605 286.972 219.86 287.323C234.541 307.771 248.512 329.424 253.267 354.362C255.987 370.189 255.688 388.169 247.029 402.043C235.577 420.017 212.319 423.445 192.513 423.334C188.321 423.302 184.12 423.087 179.923 422.791C178.995 422.726 178.146 423.164 177.64 423.868C175.273 427.19 173.279 430.647 171.437 434.152C166.02 444.606 161.696 455.571 157.547 466.533C157.307 467.173 157.331 467.846 157.569 468.436C158.593 471.052 159.199 473.842 159.041 476.457C158.895 479.076 157.881 481.362 156.092 482.612C154.116 484.21 151.042 483.594 148.574 483.716C142.564 483.729 126.608 483.713 120.408 483.722C118.083 483.633 113.658 483.932 111.53 483.474C106.644 482.589 102.464 478.801 101.186 473.99C101.046 473.44 100.7 472.414 100.559 471.87C95.9712 451.422 98.6812 428.649 99.9199 408.639C100.136 408.975 117.075 299.273 116.994 300.771L127.704 262.568L124.966 264.411C145.381 266.723 167.794 268.97 188.123 270.906C195.157 271.478 202.205 271.919 209.298 271.976C209.664 271.979 209.963 271.685 209.966 271.319C209.97 271 209.745 270.732 209.446 270.667V270.664Z" fill="#001F54"></path>
<path id="Vector_39" d="M163.032 468.275C156.253 453.702 129.111 458.427 118.476 466.036C118.176 466.239 118.096 466.649 118.299 466.952C118.489 467.233 118.86 467.32 119.153 467.164C122.475 465.44 126.096 464.38 129.731 463.637C138.236 462.131 148.323 461.849 155.561 466.955C156.791 467.946 157.721 469.096 158.345 470.409C159.854 473.36 164.263 471.355 163.03 468.275H163.032Z" fill="#001F54"></path>
<path id="Vector_40" d="M141.191 487.29C144.679 483.148 144.482 475.217 139.766 472.198C139.244 471.908 138.735 472.627 139.177 473.022C141.769 475.88 140.805 481.592 137.752 483.68C134.32 486.05 138.589 490.582 141.191 487.29Z" fill="#001F54"></path>
<path id="Vector_41" d="M194.155 423.371C189.283 423.585 184.419 423.281 179.594 422.711C177.486 422.62 174.428 422.646 172.285 422.566C169.816 422.571 167.351 422.477 164.877 422.532C164.437 422.498 164.032 422.833 164.051 423.288C164.063 423.618 164.292 423.891 164.598 423.971C174.218 426.46 184.154 427.809 194.108 428.521C197.717 428.64 197.784 423.325 194.155 423.371Z" fill="#001F54"></path>
</g>
<g id="Group_16">
<path id="Vector_42" d="M65.7332 425.514C72.4032 427.403 79.0472 427.498 84.5403 425.145C111.415 431.292 132.824 416.879 121.99 394.552C135.381 388.225 135.046 368.646 114.703 367.737C114.668 367.428 114.642 367.102 114.608 366.785C114.376 363.815 114.48 360.672 114.857 357.393C115.673 350.089 117.879 342.088 120.815 333.711L123.913 327.135L147.407 277.212L122.309 268.379C115.623 273.985 108.961 279.736 102.463 285.624C98.1031 289.565 93.8195 293.556 89.6562 297.591C74.0338 312.706 60.0597 328.398 49.9986 344.045C44.2812 352.947 39.8188 361.831 37.0536 370.577C29.7235 393.754 42.3418 418.912 65.7316 425.513L65.7332 425.514Z" fill="#F9F9F9"></path>
<path id="Vector_43" d="M65.7342 425.516C72.4042 427.405 79.0482 427.499 84.5413 425.147C111.416 431.293 132.825 416.88 121.991 394.554C135.382 388.227 135.047 368.647 114.704 367.739C114.625 367.043 114.575 366.349 114.541 365.635C114.523 365.282 114.515 364.931 114.507 364.57C114.499 364.227 114.489 363.884 114.489 363.531C114.489 361.548 114.617 359.497 114.858 357.395C110.909 352.475 105.914 348.665 100.291 345.893C85.2939 338.477 65.8529 338.383 49.998 344.048C44.2806 352.95 39.8182 361.834 37.0529 370.58C29.7229 393.757 42.3412 418.916 65.7309 425.516H65.7342Z" fill="#5F5F82"></path>
<g id="Group_17" opacity="0.4">
<path id="Vector_44" d="M90.8053 425.119C93.9526 425.839 97.0218 426.265 99.9756 426.44C96.4008 426.694 92.5789 426.533 88.5977 425.914C89.352 425.689 90.0884 425.426 90.8053 425.119Z" fill="#F9F9F9"></path>
<path id="Vector_45" d="M37.0563 370.579C39.8183 361.833 44.2791 352.944 50.0014 344.042C62.7431 324.227 81.7681 304.32 102.461 285.623C108.959 279.742 115.625 273.985 122.312 268.38L126.709 269.927C120.65 275.035 114.616 280.262 108.724 285.595C88.03 304.292 69.0068 324.2 56.265 344.015C50.5427 352.917 46.0819 361.806 43.3199 370.552C35.9883 393.725 48.6033 418.885 71.9979 425.49C74.16 426.102 76.3205 426.521 78.4404 426.734C74.4218 427.21 70.0829 426.749 65.7343 425.52C42.3397 418.915 29.7263 393.755 37.0563 370.581V370.579Z" fill="#F9F9F9"></path>
</g>
<g id="Group_18" opacity="0.2">
<path id="Vector_46" d="M100.178 360.099C100.736 363.789 102.796 368.133 106.514 368.091C107.518 368.083 108.487 367.714 109.45 367.447C111.132 366.976 112.875 366.751 114.608 366.785C114.574 366.408 114.556 366.021 114.539 365.634C114.522 365.282 114.505 364.931 114.505 364.57C114.487 364.227 114.487 363.884 114.487 363.531C114.487 361.548 114.616 359.496 114.856 357.394C110.908 352.475 105.912 348.664 100.289 345.893C99.6193 350.622 99.4486 355.368 100.177 360.099H100.178Z" fill="#001F54"></path>
</g>
<path id="Vector_47" d="M120.657 266.405C89.1746 293.001 49.3788 328.049 35.0455 367.473C30.7408 379.028 31.1342 392.321 36.2989 403.561C42.3837 417.197 55.5563 427.441 70.4505 429.498C75.4054 430.184 80.7522 429.914 85.6779 427.804L83.8962 427.965C89.264 429.174 94.8286 429.709 100.406 429.283C120.372 427.931 134.179 413.108 124.458 393.353L123.159 397.04C130.432 393.758 135.601 385.344 133.348 377.233C131.271 369.082 122.437 365.213 114.824 365.087L117.349 367.463C116.749 361.582 117.531 355.442 118.89 349.427C122.983 330.974 132.124 314.337 140.829 297.697C141.13 297.123 140.909 296.414 140.337 296.114C139.823 295.844 139.199 295.995 138.859 296.442C134.985 301.532 131.454 306.882 128.224 312.429C121.676 323.551 116.669 335.659 113.79 348.268C112.338 354.608 111.41 361.232 112.064 368.022C112.19 369.339 113.268 370.336 114.553 370.398C117.659 370.544 120.712 371.186 123.186 372.582C128.335 375.257 129.886 381.548 126.998 386.461C125.643 388.889 123.425 390.848 120.811 392.071C119.434 392.714 118.844 394.361 119.499 395.732C127.475 411.92 115.938 422.542 99.9754 423.593C95.0659 423.948 90.0557 423.455 85.1837 422.334C84.5627 422.191 83.9449 422.26 83.402 422.495C79.7426 424.05 75.4623 424.323 71.26 423.715C58.3589 421.906 46.9127 413.05 41.5968 401.15C35.8323 388.714 37.271 375.274 42.9771 363.089C48.4522 350.55 56.2716 339.229 64.8517 328.54C82.2965 307.02 102.877 288.322 123.965 270.355C126.454 268.195 123.381 264.284 120.657 266.408V266.405Z" fill="#001F54"></path>
<path id="Vector_48" d="M122.046 366.411C119.289 366.035 116.477 365.839 113.665 366.017C110.86 366.195 108.045 366.777 105.517 367.946C105.135 368.123 104.967 368.575 105.145 368.957C105.301 369.309 105.663 369.423 106.011 369.407C109.166 369.36 112.214 369.981 115.293 370.475C117.168 370.534 119.042 370.714 120.826 371.398C124.423 372.509 125.758 367.092 122.046 366.411Z" fill="#001F54"></path>
<path id="Vector_49" d="M122.963 391.119C121.258 391.644 119.561 391.935 117.807 391.901C116.006 391.774 114.13 392.293 112.733 393.421C110.802 394.887 109.716 397.517 110.239 399.892C110.664 401.97 112.319 404.199 114.56 404.389C115.508 404.474 115.936 403.222 115.18 402.682C113.671 401.263 113.457 398.22 115.427 397.181C115.916 396.9 116.453 396.8 116.984 396.854C119.546 397.184 122.243 396.895 124.633 395.993C127.709 394.765 126.137 390.199 122.962 391.12L122.963 391.119Z" fill="#001F54"></path>
<g id="Group_19" opacity="0.2">
<path id="Vector_50" d="M105.364 418.571C102.394 421.252 97.6337 420.447 94.3044 419.885C90.806 419.293 89.772 418.254 86.7581 418.536C84.7715 418.721 82.9525 419.682 81.0358 420.235C75.0469 421.961 68.7215 419.622 62.9326 417.315C60.2113 416.231 57.3615 415.055 55.5392 412.76C53.7168 410.466 53.4129 406.686 55.6904 404.845C57.0608 403.736 58.9612 403.593 60.7218 403.645C71.5209 403.96 82.3038 409.713 92.6998 406.771C95.8796 405.87 97.7783 404.173 100.911 404.875C103.567 405.47 106.926 407.67 107.631 411.406C108.114 413.961 107.28 416.84 105.362 418.571H105.364Z" fill="#001F54"></path>
</g>
</g>
<path id="Vector_51" d="M116.825 355.735C106.363 343.742 89.8915 338.737 74.4495 339.111C73.9309 339.114 73.5148 339.538 73.5196 340.055C73.5229 340.553 73.9146 340.956 74.4023 340.985C85.4957 341.678 96.5192 344.622 105.286 351.457C108.134 353.667 110.683 356.229 112.889 359.056C115.13 361.764 119.127 358.42 116.825 355.735Z" fill="#001F54"></path>
</g>
</g>
<g class="head" id="Group_20">
<g id="Group_21">
<g id="Group_22">
<g id="Group_23">
<path id="Vector_52" d="M243.951 87.1246C255.822 82.4933 272.345 92.1215 280.231 97.2369C301.482 111.021 305.719 107.836 310.433 113.479C314.581 118.447 305.114 135.224 289.806 141.13C274.439 147.057 255.969 142.051 241.328 121.2" fill="#5F5F82"></path>
<path id="Vector_53" d="M243.595 86.2128C256.993 80.7138 272.744 90.0968 283.84 97.1C289.701 100.763 295.712 104.062 302.106 106.481C307.768 108.417 314.812 111.45 313.175 118.784C311.078 127.962 304.103 135.294 296.404 140.246C283.515 148.395 266.699 146.72 255.031 137.346C249.318 132.927 244.811 127.282 241.33 121.199C245.893 126.519 250.945 131.352 256.678 135.001C267.856 142.468 282.659 143.713 294.201 136.598C300.967 132.431 307.379 125.955 309.304 118.089C310.542 112.983 304.258 111.717 300.678 110.232C293.963 107.759 287.637 104.331 281.664 100.58C275.831 96.7528 270.115 93.1451 263.731 90.4842C257.621 88.0029 250.779 86.0566 244.308 88.0354C243.177 88.4235 242.471 86.7189 243.597 86.213L243.595 86.2128Z" fill="#001F54"></path>
</g>
<g id="Group_24" opacity="0.25">
<path id="Vector_54" d="M297.721 122.928C289.228 128.304 275.871 116.446 268.942 111.476C258.777 104.183 248.586 107.561 249.719 121.858C249.719 121.858 256.634 134.967 274.833 134.974C291.989 134.979 297.721 122.93 297.721 122.93L297.721 122.928Z" fill="#3B0372"></path>
</g>
<path id="Vector_55" d="M297.722 122.928C293.441 126.766 286.681 124.927 282.007 122.753C277.053 120.462 272.671 117.275 268.491 114.27C263.543 110.438 255.3 107.353 251.842 114.57C250.733 116.664 250.204 119.215 249.717 121.859C248.868 119.308 248.51 116.519 249.081 113.637C250.361 106.66 257.652 103.819 263.956 106.031C266.714 106.88 269.311 108.497 271.49 110.221C275.676 113.471 279.532 116.799 283.755 119.561C287.922 122.184 292.679 124.901 297.719 122.928L297.722 122.928Z" fill="#001F54"></path>
</g>
<g id="Group_25">
<path id="Vector_56" d="M99.3076 103.442L67.9198 111.213L57.5397 113.274C41.1009 98.87 34.9935 62.0298 37.4145 39.8667C38.4722 30.0767 41.1894 23.1593 45.4111 22.2827C52.4015 20.8322 58.5945 44.4916 75.3014 58.2646C84.6252 65.9543 97.22 70.5801 115.059 66.0475C153.746 56.2395 99.3054 103.444 99.3054 103.444L99.3076 103.442Z" fill="#FFEEDD"></path>
<g id="Group_26" opacity="0.5">
<path id="Vector_57" d="M103.85 67.7712C90.9742 70.0012 80.7413 66.7893 72.4223 61.2896C56.4173 50.724 47.5123 31.7131 40.7096 26.7181C41.9767 24.2425 43.5477 22.6712 45.4122 22.284C52.4026 20.8335 58.5956 44.493 75.3025 58.266C82.535 64.2311 91.7419 68.3536 103.848 67.7711L103.85 67.7712Z" fill="#F9F9F9"></path>
</g>
<path id="Vector_58" d="M99.3075 103.441L67.9196 111.213L57.5395 113.274C41.1008 98.8698 34.9934 62.0296 37.4143 39.8665C37.4143 39.8665 42.1865 84.3428 58.0643 73.6363C65.9725 68.3097 70.0816 62.9786 75.3033 58.2646C84.6271 65.9543 97.2219 70.5801 115.061 66.0475C153.747 56.2395 99.3073 103.444 99.3073 103.444L99.3075 103.441Z" fill="#E2C3AF"></path>
<path id="Vector_59" d="M57.3647 115.224C56.966 115.189 56.5762 115.03 56.252 114.748C37.1158 97.9803 31.332 52.6239 36.9222 31.3946C38.6508 24.8322 41.3707 21.1222 45.012 20.3671C49.8093 19.3747 53.3139 25.1723 58.1672 33.1992C67.6172 48.8259 81.9007 72.4441 114.577 64.1517C120.232 62.7173 128.02 61.3216 130.327 65.7389C131.706 68.377 131.815 73.6935 116.906 89.3375C109.098 97.5286 100.678 104.85 100.594 104.924L100.238 105.234L68.386 113.11C67.3371 113.368 66.2767 112.728 66.017 111.681C65.7575 110.632 66.3971 109.572 67.4483 109.312L98.3855 101.663C113.819 88.2164 128.868 71.3981 126.86 67.5563C126.745 67.3324 125.43 65.439 115.542 67.95C80.0486 76.9565 64.2588 50.8352 54.8195 35.2304C51.413 29.5986 47.8961 23.7748 45.808 24.2047C43.8305 24.6152 41.9712 27.6008 40.7092 32.3965C35.3412 52.7832 41.3252 96.4704 58.8336 111.808C59.6468 112.52 59.7283 113.756 59.0167 114.569C58.5876 115.058 57.9687 115.283 57.3664 115.229L57.3647 115.224Z" fill="#001F54"></path>
</g>
<g id="Group_27">
<path id="Vector_60" d="M225.351 87.145L251.188 90.9136L259.691 91.7803C271.727 79.9854 273.646 52.1334 269.906 35.7701C268.264 28.5405 265.521 23.5608 262.059 23.1806C256.327 22.5504 253.271 40.5846 240.968 51.9243C234.102 58.2574 224.364 62.5152 209.667 60.288C177.803 55.4712 225.349 87.1449 225.349 87.1449L225.351 87.145Z" fill="#FFEEDD"></path>
<g id="Group_28" opacity="0.5">
<path id="Vector_61" d="M218.812 60.8489C229.334 61.6794 237.291 58.6264 243.525 53.9929C255.524 45.0856 261.136 30.3437 266.193 26.1822C264.974 24.4189 263.586 23.3479 262.056 23.1811C256.324 22.5508 253.267 40.5851 240.965 51.9248C235.639 56.8367 228.58 60.5021 218.81 60.8508L218.812 60.8489Z" fill="#F9F9F9"></path>
</g>
<path id="Vector_62" d="M225.35 87.1435L251.187 90.9121L259.69 91.7788C271.726 79.9839 273.645 52.1319 269.905 35.7686C269.905 35.7686 269.676 69.2259 256.058 62.2702C249.276 58.8095 245.542 55.1014 240.967 51.9248C234.101 58.2579 224.363 62.5158 209.666 60.2886C177.802 55.4717 225.348 87.1454 225.348 87.1454L225.35 87.1435Z" fill="#E2C3AF"></path>
<path id="Vector_63" d="M259.513 93.7298C259.067 93.6896 258.632 93.4957 258.292 93.1511C257.537 92.3798 257.548 91.1415 258.321 90.3841C270.752 78.2039 272.02 47.034 266.81 31.9642C265.394 27.8679 263.539 25.3126 261.848 25.1271C260.377 24.9698 257.973 29.5958 255.864 33.6852C249.749 45.535 239.674 65.0528 212.8 62.6397C211.687 62.5397 210.55 62.4019 209.377 62.2253C201.727 61.0688 200.65 62.3789 200.641 62.3927C200.635 62.4131 200.038 65.2357 212.44 75.239C218.345 80.0004 224.531 84.2387 226.07 85.2793L251.472 88.9773C252.541 89.134 253.283 90.126 253.126 91.1942C252.971 92.2647 251.973 93.0061 250.907 92.8495L224.628 89.0246L224.261 88.7802C224.188 88.7317 216.877 83.8481 209.956 78.2626C196.683 67.5531 196.058 63.4001 196.993 60.9784C198.479 57.1407 204.703 57.5619 209.963 58.3591C236.634 62.4035 246.118 44.0404 252.386 31.8926C255.687 25.4966 258.08 20.8612 262.171 21.2289C262.206 21.232 262.239 21.235 262.274 21.2382C264.629 21.498 267.972 23.3475 270.511 30.687C275.984 46.5172 275.005 79.5156 261.061 93.1802C260.634 93.5982 260.065 93.7815 259.515 93.732L259.513 93.7298Z" fill="#001F54"></path>
</g>
<path id="Vector_64" d="M198.52 228.265C198.52 228.265 282.729 189.997 282.862 188.705C285.216 165.539 282.885 109.388 248.322 76.8607C230.833 60.4006 202.806 49.8557 171.258 50.1626C117.364 50.6887 88.18 74.7675 74.923 97.0767C46.5743 144.779 48.8515 222.584 74.6897 250.662C75.5689 251.618 194.046 228.528 194.046 228.528" fill="#F9F9F9"></path>
<path id="Vector_65" d="M282.86 188.7C282.727 189.99 198.522 228.26 198.522 228.26L194.05 228.52C194.05 228.52 75.567 251.609 74.6875 250.657C48.8493 222.58 46.5738 144.779 74.9227 97.0743C88.1822 74.7611 117.367 50.6867 171.257 50.1602C179.81 50.0768 188.105 50.7909 195.998 52.2036C217.231 56.0043 235.571 64.8601 248.32 76.856C257.851 85.8225 264.925 96.5799 270.127 107.952L270.135 107.959C283.816 137.835 284.569 171.92 282.86 188.7Z" fill="#F9F9F9"></path>
<g id="Group_29" opacity="0.25">
<path id="Vector_66" d="M283.297 182.951C283.187 185.041 283.037 186.961 282.858 188.702C282.725 189.992 198.52 228.262 198.52 228.262L194.048 228.521C194.048 228.521 75.565 251.61 74.6855 250.658C48.8473 222.581 46.5718 144.78 74.9207 97.0756C78.319 91.3604 82.76 85.5274 88.3977 80.005C86.6859 82.3047 85.1549 84.6185 83.7957 86.9079C78.0143 96.6377 94.7052 99.9443 93.5072 114.392C82.869 135.794 66.0055 136.575 64.873 145.472C60.0273 183.551 66.8882 222.373 83.5605 240.491C84.44 241.443 202.923 218.354 202.923 218.354L207.395 218.094C207.395 218.094 261.946 193.301 283.299 182.951L283.297 182.951Z" fill="#3B0372"></path>
</g>
<path id="Vector_67" d="M270.136 107.962C260.93 111.911 248.122 114.085 234.573 111.238C204.41 104.902 193.437 75.0978 195.999 52.2063C217.232 56.007 235.572 64.8628 248.321 76.8587C257.852 85.8252 264.926 96.5825 270.128 107.955L270.136 107.962Z" fill="#5F5F82"></path>
<path id="Vector_68" d="M74.4511 252.589C73.7472 252.525 73.5372 252.299 73.2494 251.985C60.5437 238.18 52.7987 211.735 52.5285 181.245C52.2495 149.735 59.7996 118.694 73.2394 96.0747C83.7118 78.4515 110.369 48.7992 171.238 48.205C201.903 47.9023 231.225 58.0822 249.662 75.4334C283.291 107.085 287.577 161.65 284.808 188.9C284.666 190.294 284.651 190.439 270.47 197.195C263.46 200.534 253.702 205.092 241.462 210.743C220.629 220.364 199.541 229.949 199.329 230.043C198.345 230.49 197.184 230.055 196.739 229.071C196.292 228.087 196.727 226.926 197.711 226.481C228.616 212.438 274.928 191.121 281.001 187.626C283.52 160.81 279.146 108.555 246.982 78.2824C229.265 61.6092 200.96 51.8264 171.278 52.1169C112.326 52.693 86.659 81.1573 76.6061 98.073C47.843 146.473 52.11 222.054 75.5435 248.68C83.6281 247.797 149.647 235.182 193.672 226.603C194.727 226.399 195.76 227.088 195.968 228.15C196.174 229.211 195.483 230.237 194.422 230.445C194.126 230.502 164.457 236.283 135.064 241.873C117.797 245.157 104.001 247.733 94.0587 249.53C80.2907 252.019 76.0688 252.734 74.4532 252.589L74.4511 252.589Z" fill="#001F54"></path>
<path id="Vector_69" d="M265.112 164.867C275.595 166.512 293.692 174.103 298.688 193.983C311.316 244.244 250.493 285.729 174.352 284.176C107.596 282.815 71.7786 258.633 66.233 234.502C61.872 215.523 70.8222 195.201 94.0396 181.93C94.0396 181.93 107.706 174.73 133.026 171.117C151.078 168.542 182.684 168.64 203.84 167.728C221.082 166.985 236.891 163.79 248.062 163.697C256.995 163.622 265.112 164.865 265.112 164.865L265.112 164.867Z" fill="#FFD8BE"></path>
<g id="Group_30">
<path id="Vector_70" d="M135.053 249.374C122.021 246.206 100.31 240.641 98.9988 224.732C98.8937 223.173 97.5016 221.997 95.9448 222.191C94.6174 222.352 93.6281 223.443 93.5493 224.732C93.4039 227.122 93.7209 229.603 94.5316 231.945C100.095 246.863 121.133 250.295 135.053 249.375L135.053 249.374Z" fill="#001F54"></path>
<g id="Group_31">
<path id="Vector_71" d="M109.155 241.885C109.155 241.885 93.2267 234.829 95.5294 222.51C98.086 208.832 113.498 208.04 117.559 216.756C122.84 228.096 102.684 233.593 109.155 241.885Z" fill="#F27E80"></path>
<g id="Group_32" opacity="0.7">
<path id="Vector_72" d="M109.151 241.889C109.151 241.889 107.076 240.968 104.539 239.215C104.952 238.213 105.618 237.222 106.437 236.233C110.269 231.547 117.142 226.705 113.794 219.524C111.312 214.191 104.588 212.416 99.1525 214.972C104.7 208.992 114.456 210.085 117.56 216.762C120.909 223.943 114.035 228.785 110.204 233.471C107.989 236.186 106.782 238.854 109.151 241.887L109.151 241.889Z" fill="#F9F9F9"></path>
</g>
<path id="Vector_73" d="M109.149 241.885C109.149 241.885 93.2258 234.823 95.5338 222.507C95.9278 220.431 96.602 218.653 97.4985 217.163C97.4985 217.163 96.0941 225.399 104.356 223.572C104.356 223.572 101.395 231.004 110.201 233.468C107.986 236.182 106.78 238.851 109.149 241.884L109.149 241.885Z" fill="#FF5C64"></path>
<path id="Vector_74" d="M109.154 243.928C109.769 243.928 110.369 243.65 110.767 243.142C111.343 242.403 111.343 241.366 110.767 240.627C108.874 238.2 110.18 236.382 114.11 232.174C117.939 228.073 122.708 222.969 119.41 215.893C117.193 211.131 111.919 208.412 106.294 209.121C101.174 209.767 95.1311 213.525 93.52 222.134C90.9494 235.885 107.617 243.438 108.326 243.753C108.594 243.872 108.874 243.928 109.152 243.928L109.154 243.928ZM108.061 213.098C111.422 213.098 114.4 214.819 115.705 217.619C117.693 221.888 115.3 224.913 111.122 229.385C108.893 231.772 106.314 234.533 105.867 237.634C101.77 234.841 96.2623 229.712 97.5388 222.885C98.5633 217.409 102.027 213.781 106.806 213.176C107.228 213.124 107.648 213.098 108.061 213.098Z" fill="#001F54"></path>
<path id="Vector_75" d="M107.096 221.372C99.4398 225.655 97.7009 233.215 103.434 240.065C104.578 241.445 106.665 239.782 105.565 238.358C99.4555 232.803 100.776 226.076 107.096 221.372Z" fill="#001F54"></path>
</g>
</g>
<path id="Vector_76" d="M289.357 239.538C269.623 266.893 225.432 285.218 174.353 284.174C107.599 282.814 71.7783 258.635 66.2348 234.505C64.7812 228.177 64.8063 221.703 66.3428 215.391C66.4949 216.307 66.6782 217.226 66.8894 218.136C72.7968 243.855 110.977 269.63 182.121 271.081C225.831 271.976 264.796 259.557 289.354 239.54L289.357 239.538Z" fill="#FFB6B8"></path>
<path id="Vector_77" d="M265.113 164.867C278.101 165.873 291.29 173.414 297.515 185.324C303.628 197.364 303.861 211.98 299.527 224.637C283.909 266.16 231.479 283.329 190.782 285.795C157.362 287.296 118.708 283.418 89.5596 265.919C73.9629 256.447 61.4449 241.464 63.4273 222.177C64.8999 204.068 78.3193 189.548 94.0451 181.93C83.3499 188.941 74.0201 198.299 69.6093 210.342C58.0514 243.281 86.9718 263.664 114.767 272.896C153.95 285.378 201.686 285.989 240.404 271.635C263.541 262.911 287.102 247.544 295.539 223.267C299.505 211.626 299.16 198.302 294.076 187.06C288.697 175.59 277.225 167.971 265.12 164.865L265.113 164.867Z" fill="#001F54"></path>
<g id="Group_33">
<g id="Group_34">
<path id="Vector_78" d="M93.2967 90.1577C78.9205 85.7172 60.2555 98.5074 51.3912 105.224C27.5032 123.325 22.2437 119.934 17.1603 126.999C12.6866 133.218 25.2473 152.199 43.7796 157.844C62.3853 163.511 83.7297 156.011 99.239 130.14" fill="#F9F9F9"></path>
<path id="Vector_79" d="M93.0068 91.0907C77.7404 87.82 61.3995 100.256 49.7668 108.987C43.0561 113.916 35.9227 118.494 28.2465 121.985C23.954 124.115 16.61 126.263 18.5232 132.413C21.4566 141.656 29.6236 148.823 38.0451 153.228C52.3709 160.723 69.9453 157.879 82.4843 147.938C88.9217 143.067 94.4093 136.864 99.2339 130.14C95.5413 137.545 90.6586 144.519 84.299 150.155C67.2464 165.687 42.3773 165.494 25.5478 149.591C20.1833 144.386 14.4099 137.675 14.3036 129.727C14.6349 123.525 21.7259 120.536 26.545 118.346C33.9025 114.932 40.7332 110.507 47.3389 105.674C59.6288 96.5484 77.5349 84.0271 93.581 89.2205C94.7165 89.6533 94.2067 91.389 93.0047 91.0905L93.0068 91.0907Z" fill="#001F54"></path>
</g>
<g id="Group_35" opacity="0.25">
<path id="Vector_80" d="M32.9246 137.045C43.3834 142.657 58.132 127.51 65.8807 121.047C77.2482 111.564 89.542 114.67 89.401 131.637C89.401 131.637 82.3489 147.702 60.9044 149.281C40.6886 150.77 32.9246 137.045 32.9246 137.045Z" fill="#3B0372"></path>
</g>
<path id="Vector_81" d="M32.9262 137.042C38.8313 139.352 44.7749 135.878 49.5193 132.515C54.4272 128.987 58.8062 124.752 63.4541 120.6C66.9913 117.369 71.6444 114.371 76.7037 113.98C82.0721 113.294 87.4601 116.956 88.888 122.126C89.9197 125.298 89.9011 128.555 89.4026 131.634C88.8942 128.555 88.2321 125.533 86.867 122.974C82.1891 113.809 71.8803 118.035 65.9486 123.497C58.1395 129.888 43.6161 143.67 32.9281 137.045L32.9262 137.042Z" fill="#001F54"></path>
</g>
<path id="Vector_82" d="M245.461 169.959C246.696 171.008 247.162 174.095 244.377 175.758C241.578 177.429 236.334 176.622 236.334 176.622C236.334 176.622 236.566 173.798 238.853 171.182C240.685 169.088 243.928 168.657 245.461 169.959Z" fill="#F48990"></path>
<path id="Vector_83" d="M158.687 175.439C157.772 176.778 158.135 179.881 161.257 180.744C164.394 181.61 169.241 179.439 169.241 179.439C169.241 179.439 168.274 176.777 165.382 174.862C163.064 173.328 159.825 173.776 158.687 175.439Z" fill="#F48990"></path>
</g>
<path id="Vector_84" d="M111.24 165.676C107.37 159.336 107.347 151.155 109.826 144.111C112.636 136.272 119.804 130.473 127.818 129.055C135.683 127.446 144.014 130.702 149.55 136.096C154.722 141.043 158.397 147.4 159.773 154.419C155.08 149.955 150.237 145.798 144.772 142.829C135.163 137.252 124.637 139.152 118.222 148.47C114.885 153.347 112.584 159.669 111.24 165.676Z" fill="#001F54"></path>
<path id="Vector_85" d="M203.805 151.057C201.206 140.694 202.855 128.779 210.377 120.533C218.072 112.296 232.26 111.371 239.454 120.678C242.851 124.953 244.339 129.747 244.549 134.88C244.608 136.5 244.46 138.149 244.06 139.714C242.539 136.872 240.907 134.366 239.162 132.064C236.035 128.122 232.656 124.445 227.658 123.808C223.247 123.386 218.869 125.325 215.84 128.497C209.99 134.792 207.257 142.718 203.805 151.057Z" fill="#001F54"></path>
</g>
</g>
<defs>
<clipPath id="clip0_42_5077">
<rect width="321.551" height="500" fill="white"></rect>
</clipPath>
</defs>
</svg>