<svg width="94" height="24" viewBox="0 0 94 24" fill="none" xmlns="http://www.w3.org/2000/svg">
<g clip-path="url(#clip0_699_10951)">
<path d="M33.9925 18.7593C33.1754 18.7593 32.4352 18.629 31.772 18.3685C31.1207 18.0961 30.5581 17.6934 30.0844 17.1605C29.6225 16.6276 29.2673 15.9703 29.0186 15.1887C28.7699 14.3952 28.6455 13.4774 28.6455 12.4352C28.6455 11.3931 28.7699 10.4693 29.0186 9.66402C29.2673 8.84686 29.6225 8.1659 30.0844 7.62113C30.5581 7.06452 31.1207 6.6441 31.772 6.35987C32.4352 6.07565 33.1754 5.93353 33.9925 5.93353C35.1058 5.93353 36.0295 6.17039 36.7638 6.6441C37.498 7.11781 38.0842 7.8343 38.5224 8.79357L36.5151 9.85943C36.3374 9.30281 36.0473 8.85871 35.6446 8.52711C35.242 8.18367 34.6913 8.01195 33.9925 8.01195C33.1162 8.01195 32.4174 8.30802 31.8964 8.90016C31.3871 9.4923 31.1325 10.3213 31.1325 11.3871V13.3412C31.1325 14.4189 31.3871 15.2479 31.8964 15.8282C32.4174 16.3967 33.1162 16.6809 33.9925 16.6809C34.6913 16.6809 35.2597 16.4914 35.6979 16.1124C36.1479 15.7335 36.4736 15.2657 36.6749 14.7091L38.5757 15.8282C38.1257 16.7519 37.5276 17.4744 36.7815 17.9954C36.0354 18.5047 35.1058 18.7593 33.9925 18.7593Z" fill="white"/>
<path d="M43.7628 18.7593C43.0996 18.7593 42.5015 18.6468 41.9686 18.4217C41.4475 18.1967 40.9975 17.871 40.6185 17.4447C40.2514 17.0184 39.9672 16.5091 39.7659 15.917C39.5645 15.313 39.4639 14.638 39.4639 13.8919C39.4639 13.1458 39.5645 12.4766 39.7659 11.8845C39.9672 11.2924 40.2514 10.789 40.6185 10.3745C40.9975 9.94821 41.4475 9.62253 41.9686 9.39752C42.5015 9.1725 43.0996 9.06 43.7628 9.06C44.426 9.06 45.0241 9.1725 45.557 9.39752C46.0899 9.62253 46.5399 9.94821 46.9071 10.3745C47.286 10.789 47.5762 11.2924 47.7775 11.8845C47.9789 12.4766 48.0795 13.1458 48.0795 13.8919C48.0795 14.638 47.9789 15.313 47.7775 15.917C47.5762 16.5091 47.286 17.0184 46.9071 17.4447C46.5399 17.871 46.0899 18.1967 45.557 18.4217C45.0241 18.6468 44.426 18.7593 43.7628 18.7593ZM43.7628 16.9295C44.3668 16.9295 44.8405 16.746 45.1839 16.3789C45.5274 16.0117 45.6991 15.4729 45.6991 14.7623V13.0392C45.6991 12.3405 45.5274 11.8075 45.1839 11.4404C44.8405 11.0733 44.3668 10.8897 43.7628 10.8897C43.1707 10.8897 42.7029 11.0733 42.3594 11.4404C42.016 11.8075 41.8443 12.3405 41.8443 13.0392V14.7623C41.8443 15.4729 42.016 16.0117 42.3594 16.3789C42.7029 16.746 43.1707 16.9295 43.7628 16.9295Z" fill="white"/>
<path d="M50.8685 7.92311C50.3947 7.92311 50.0513 7.81653 49.8381 7.60335C49.6368 7.39018 49.5361 7.1178 49.5361 6.7862V6.43092C49.5361 6.09932 49.6368 5.82693 49.8381 5.61376C50.0513 5.40059 50.3947 5.29401 50.8685 5.29401C51.3303 5.29401 51.6678 5.40059 51.881 5.61376C52.0942 5.82693 52.2008 6.09932 52.2008 6.43092V6.7862C52.2008 7.1178 52.0942 7.39018 51.881 7.60335C51.6678 7.81653 51.3303 7.92311 50.8685 7.92311ZM49.7315 9.27319H52.0054V18.5461H49.7315V9.27319Z" fill="white"/>
<path d="M54.2793 18.5461V9.27317H56.5531V10.8187H56.6419C56.8314 10.3213 57.1275 9.90676 57.5302 9.57516C57.9446 9.23172 58.5131 9.06 59.2355 9.06C60.1948 9.06 60.929 9.37383 61.4383 10.0015C61.9475 10.6292 62.2021 11.5233 62.2021 12.6839V18.5461H59.9283V12.9148C59.9283 12.2516 59.8099 11.7542 59.573 11.4226C59.3362 11.091 58.9454 10.9252 58.4006 10.9252C58.1637 10.9252 57.9328 10.9608 57.7078 11.0318C57.4946 11.091 57.2992 11.1858 57.1216 11.3161C56.9558 11.4345 56.8196 11.5884 56.713 11.7779C56.6064 11.9556 56.5531 12.1687 56.5531 12.4174V18.5461H54.2793Z" fill="white"/>
<path d="M67.4074 18.7593C66.5192 18.7593 65.7731 18.6112 65.1691 18.3152C64.5651 18.0072 64.0322 17.5868 63.5703 17.0539L64.9559 15.7038C65.2994 16.0946 65.6724 16.4025 66.0751 16.6276C66.4896 16.8526 66.9633 16.9651 67.4962 16.9651C68.041 16.9651 68.4318 16.8703 68.6686 16.6808C68.9173 16.4914 69.0417 16.2308 69.0417 15.8992C69.0417 15.6268 68.9529 15.4137 68.7752 15.2597C68.6094 15.0939 68.3193 14.9814 67.9048 14.9222L66.981 14.7978C65.9744 14.6676 65.2046 14.3833 64.6717 13.9452C64.1506 13.4951 63.8901 12.8438 63.8901 11.9911C63.8901 11.5411 63.973 11.1384 64.1388 10.7831C64.3046 10.416 64.5414 10.1081 64.8493 9.85939C65.1573 9.59885 65.5244 9.40344 65.9507 9.27317C66.3889 9.13105 66.8745 9.06 67.4074 9.06C67.8574 9.06 68.2541 9.09553 68.5976 9.16658C68.9529 9.2258 69.2726 9.32054 69.5569 9.45081C69.8411 9.56924 70.1016 9.72319 70.3385 9.91268C70.5753 10.0903 70.8063 10.2917 71.0313 10.5167L69.699 11.849C69.4266 11.5648 69.1009 11.3279 68.7219 11.1384C68.343 10.9489 67.9285 10.8542 67.4784 10.8542C66.981 10.8542 66.6198 10.943 66.3948 11.1206C66.1816 11.2983 66.0751 11.5292 66.0751 11.8135C66.0751 12.1214 66.1639 12.3582 66.3415 12.524C66.531 12.678 66.8449 12.7905 67.283 12.8615L68.2245 12.9859C70.226 13.2701 71.2267 14.182 71.2267 15.7216C71.2267 16.1716 71.1319 16.5861 70.9425 16.9651C70.7648 17.3322 70.5102 17.652 70.1786 17.9243C69.847 18.1849 69.4443 18.3921 68.9706 18.5461C68.5088 18.6882 67.9877 18.7593 67.4074 18.7593Z" fill="white"/>
<path d="M78.4205 17.0006H78.3317C78.2488 17.2375 78.1363 17.4625 77.9942 17.6757C77.8639 17.877 77.6922 18.0606 77.479 18.2264C77.2777 18.3922 77.029 18.5224 76.7329 18.6172C76.4487 18.7119 76.1171 18.7593 75.7381 18.7593C74.7788 18.7593 74.0446 18.4455 73.5353 17.8178C73.0261 17.1901 72.7715 16.296 72.7715 15.1354V9.27319H75.0453V14.9045C75.0453 15.544 75.1697 16.0354 75.4184 16.3789C75.6671 16.7105 76.0638 16.8763 76.6086 16.8763C76.8336 16.8763 77.0527 16.8467 77.2658 16.7875C77.4909 16.7282 77.6863 16.6394 77.8521 16.521C78.0179 16.3907 78.154 16.2368 78.2606 16.0591C78.3672 15.8696 78.4205 15.6505 78.4205 15.4018V9.27319H80.6943V18.5461H78.4205V17.0006Z" fill="white"/>
<path d="M85.2426 18.5461C84.4609 18.5461 83.8866 18.3507 83.5194 17.9599C83.1523 17.5691 82.9688 17.0184 82.9688 16.3078V5.40057H85.2426V16.7341H86.4683V18.5461H85.2426Z" fill="white"/>
<path d="M90.643 18.5461C89.8613 18.5461 89.2633 18.3448 88.8488 17.9421C88.4461 17.5276 88.2448 16.9414 88.2448 16.1835V11.0851H86.877V9.27319H87.5875C87.931 9.27319 88.1619 9.19621 88.2803 9.04226C88.4106 8.87646 88.4757 8.63368 88.4757 8.31393V6.73291H90.5186V9.27319H92.4194V11.0851H90.5186V16.7342H92.2773V18.5461H90.643Z" fill="white"/>
<path d="M8.29669 0H24.4795V16.1828C24.4795 18.2561 23.6559 20.2444 22.1899 21.7104C20.7239 23.1764 18.7355 24 16.6623 24H0.479492V7.8172C0.479492 5.74395 1.30309 3.75561 2.7691 2.2896C4.23511 0.823595 6.22344 0 8.29669 0Z" fill="white"/>
<path d="M19.4426 9.4443L16.7116 10.6958L16.6614 10.7184L15.1126 11.4179C15.1126 11.4119 15.1101 11.4059 15.1081 11.3999C15.0167 11.0188 14.8404 10.6632 14.5923 10.3598L14.4492 10.0469L18.7561 8.0733C18.8458 8.21325 18.9295 8.35638 19.0072 8.50268L19.43 9.42522L19.4426 9.4443Z" fill="url(#paint0_linear_699_10951)"/>
<path d="M19.7031 13.6834C19.5842 14.1894 19.4116 14.6814 19.1884 15.1508L14.1699 14.2941L14.2171 14.0174C14.5832 13.72 14.8611 13.3282 15.0206 12.8844L19.7031 13.6834Z" fill="url(#paint1_linear_699_10951)"/>
<path d="M10.6577 14.4813L7.18102 16.9436C6.83498 16.5656 6.52948 16.1524 6.26953 15.7107L9.77185 13.2299L10.6577 14.4813Z" fill="url(#paint2_linear_699_10951)"/>
<path d="M10.8518 8.17529L10.2251 9.57441L9.30706 9.16311L6.50781 7.90862C6.80612 7.46621 7.15202 7.05783 7.53933 6.6908L10.6906 8.10348L10.8518 8.17529Z" fill="url(#paint3_linear_699_10951)"/>
<path d="M17.9662 13.3866C17.7211 14.3384 17.2282 15.2084 16.5376 15.9078C15.8471 16.6073 14.9835 17.1113 14.0349 17.3686C13.0863 17.6259 12.0864 17.6273 11.1371 17.3726C10.1877 17.1179 9.32283 16.6162 8.63036 15.9187C8.26907 15.5537 7.95982 15.1407 7.71134 14.6913L6.26953 15.7128C7.00949 16.9738 8.11028 17.9842 9.42992 18.6137C10.7496 19.2433 12.2275 19.463 13.6732 19.2446C15.1189 19.0262 16.4661 18.3797 17.5409 17.3885C18.6157 16.3972 19.3687 15.1067 19.7031 13.6834L17.9662 13.3866Z" fill="url(#paint4_linear_699_10951)"/>
<path d="M9.32408 7.49079C10.0276 6.98378 10.8398 6.64814 11.6959 6.51062C12.5521 6.37311 13.4286 6.43753 14.2554 6.69875C15.0823 6.95996 15.8367 7.41075 16.4585 8.01517C17.0803 8.61959 17.5523 9.36092 17.8368 10.1801L19.4413 9.44484C19.4383 9.43731 19.4358 9.42978 19.4328 9.42275L19.01 8.50021C18.9306 8.35424 18.8469 8.21111 18.7589 8.07083C18.106 7.04586 17.2083 6.19944 16.1468 5.60784C15.0853 5.01625 13.8932 4.69807 12.6781 4.68198C11.463 4.66589 10.2629 4.95239 9.18612 5.51567C8.1093 6.07895 7.18956 6.9013 6.50977 7.90862L8.14643 8.64233C8.47965 8.20216 8.87655 7.81406 9.32408 7.49079Z" fill="url(#paint5_linear_699_10951)"/>
<path d="M7.11877 10.9368C7.18014 10.6213 7.26852 10.3117 7.38292 10.0113L5.77589 9.29114C5.14337 10.8846 5.0883 12.6492 5.62021 14.279L7.14488 13.1992C6.98093 12.4549 6.97204 11.6848 7.11877 10.9368Z" fill="url(#paint6_linear_699_10951)"/>
<path d="M17.7562 9.96509L16.6498 10.521L16.6016 10.5456L15.084 11.3075" fill="url(#paint7_linear_699_10951)"/>
<path d="M9.69934 13.2691L8.71956 13.9631C8.47154 13.4775 8.31815 12.9492 8.26758 12.4063L8.81397 12.0196L9.69934 13.2691Z" fill="url(#paint8_linear_699_10951)"/>
<path d="M10.4352 9.69845L9.80845 11.0976L8.50977 10.514C8.68639 10.0268 8.94977 9.57557 9.28717 9.18219L10.4352 9.69845Z" fill="url(#paint9_linear_699_10951)"/>
<path d="M16.7463 13.1786C16.5096 14.016 16.0263 14.7626 15.3592 15.3212C14.6921 15.8798 13.8722 16.2245 13.0063 16.3104C12.1405 16.3962 11.2688 16.2193 10.505 15.8025C9.74117 15.3858 9.1206 14.7487 8.72416 13.9741C8.72183 13.9709 8.71997 13.9673 8.71864 13.9636C8.33034 13.2 8.17716 12.3385 8.27843 11.4878C8.37971 10.6372 8.73091 9.83572 9.28762 9.18467L9.30706 9.16311C9.81185 8.58138 10.4617 8.14518 11.1914 7.89855C11.921 7.65192 12.7033 7.60425 13.4575 7.76043C14.2117 7.91661 14.9106 8.27101 15.4823 8.78713C16.054 9.30324 16.4778 9.96242 16.7101 10.6968L16.6599 10.7189L15.1111 11.4179C15.1111 11.4119 15.1086 11.4059 15.1066 11.3999C14.9622 10.7924 14.604 10.2573 14.0976 9.89214C13.5911 9.52703 12.9702 9.35636 12.3482 9.41134C11.7263 9.46632 11.145 9.74327 10.7104 10.1916C10.2758 10.6399 10.0171 11.2296 9.98154 11.8529C9.94595 12.4763 10.1359 13.0916 10.5166 13.5864C10.8973 14.0813 11.4433 14.4226 12.055 14.548C12.6666 14.6734 13.3029 14.5745 13.8477 14.2694C14.3924 13.9643 14.8091 13.4734 15.0217 12.8864L16.7463 13.1786Z" fill="url(#paint10_linear_699_10951)"/>
</g>
<defs>
<linearGradient id="paint0_linear_699_10951" x1="5.25781" y1="4.97424" x2="19.7031" y2="19.0338" gradientUnits="userSpaceOnUse">
<stop stop-color="#368D75"/>
<stop offset="1" stop-color="#1E7B8F"/>
</linearGradient>
<linearGradient id="paint1_linear_699_10951" x1="5.25781" y1="4.97424" x2="19.7031" y2="19.0338" gradientUnits="userSpaceOnUse">
<stop stop-color="#368D75"/>
<stop offset="1" stop-color="#1E7B8F"/>
</linearGradient>
<linearGradient id="paint2_linear_699_10951" x1="5.25781" y1="4.97424" x2="19.7031" y2="19.0338" gradientUnits="userSpaceOnUse">
<stop stop-color="#368D75"/>
<stop offset="1" stop-color="#1E7B8F"/>
</linearGradient>
<linearGradient id="paint3_linear_699_10951" x1="5.25781" y1="4.97424" x2="19.7031" y2="19.0338" gradientUnits="userSpaceOnUse">
<stop stop-color="#368D75"/>
<stop offset="1" stop-color="#1E7B8F"/>
</linearGradient>
<linearGradient id="paint4_linear_699_10951" x1="5.25781" y1="4.97424" x2="19.7031" y2="19.0338" gradientUnits="userSpaceOnUse">
<stop stop-color="#368D75"/>
<stop offset="1" stop-color="#1E7B8F"/>
</linearGradient>
<linearGradient id="paint5_linear_699_10951" x1="5.25781" y1="4.97424" x2="19.7031" y2="19.0338" gradientUnits="userSpaceOnUse">
<stop stop-color="#368D75"/>
<stop offset="1" stop-color="#1E7B8F"/>
</linearGradient>
<linearGradient id="paint6_linear_699_10951" x1="5.25781" y1="4.97424" x2="19.7031" y2="19.0338" gradientUnits="userSpaceOnUse">
<stop stop-color="#368D75"/>
<stop offset="1" stop-color="#1E7B8F"/>
</linearGradient>
<linearGradient id="paint7_linear_699_10951" x1="5.25781" y1="4.97424" x2="19.7031" y2="19.0338" gradientUnits="userSpaceOnUse">
<stop stop-color="#368D75"/>
<stop offset="1" stop-color="#1E7B8F"/>
</linearGradient>
<linearGradient id="paint8_linear_699_10951" x1="5.25781" y1="4.97424" x2="19.7031" y2="19.0338" gradientUnits="userSpaceOnUse">
<stop stop-color="#368D75"/>
<stop offset="1" stop-color="#1E7B8F"/>
</linearGradient>
<linearGradient id="paint9_linear_699_10951" x1="5.25781" y1="4.97424" x2="19.7031" y2="19.0338" gradientUnits="userSpaceOnUse">
<stop stop-color="#368D75"/>
<stop offset="1" stop-color="#1E7B8F"/>
</linearGradient>
<linearGradient id="paint10_linear_699_10951" x1="5.25781" y1="4.97424" x2="19.7031" y2="19.0338" gradientUnits="userSpaceOnUse">
<stop stop-color="#368D75"/>
<stop offset="1" stop-color="#1E7B8F"/>
</linearGradient>
<clipPath id="clip0_699_10951">
<rect width="93.0412" height="24" fill="white" transform="translate(0.479492)"/>
</clipPath>
</defs>
</svg>
