<svg width="156" height="40" viewBox="0 0 156 40" fill="none" xmlns="http://www.w3.org/2000/svg">
<g clip-path="url(#clip0_747_1291)">
<path d="M56.5191 31.2649C55.1572 31.2649 53.9236 31.0478 52.8183 30.6136C51.7327 30.1596 50.7951 29.4885 50.0056 28.6003C49.2358 27.7121 48.6437 26.6166 48.2292 25.3139C47.8147 23.9915 47.6074 22.4618 47.6074 20.7248C47.6074 18.9879 47.8147 17.4483 48.2292 16.1061C48.6437 14.7442 49.2358 13.6093 50.0056 12.7013C50.7951 11.7737 51.7327 11.073 52.8183 10.5992C53.9236 10.1255 55.1572 9.88867 56.5191 9.88867C58.3745 9.88867 59.9141 10.2834 61.1378 11.073C62.3616 11.8625 63.3386 13.0566 64.0689 14.6554L60.7233 16.4318C60.4273 15.5041 59.9437 14.764 59.2726 14.2113C58.6015 13.6389 57.6837 13.3527 56.5191 13.3527C55.0585 13.3527 53.894 13.8461 53.0255 14.833C52.1768 15.8199 51.7524 17.2016 51.7524 18.978V22.2348C51.7524 24.031 52.1768 25.4126 53.0255 26.3798C53.894 27.3272 55.0585 27.8009 56.5191 27.8009C57.6837 27.8009 58.6311 27.4851 59.3614 26.8535C60.1115 26.2219 60.6543 25.4422 60.9898 24.5145L64.1577 26.3798C63.4077 27.9194 62.4109 29.1234 61.1674 29.9918C59.9239 30.8406 58.3745 31.2649 56.5191 31.2649Z" fill="#378E73"/>
<path d="M72.8026 31.265C71.6973 31.265 70.7005 31.0775 69.8123 30.7025C68.9438 30.3275 68.1938 29.7847 67.5622 29.0741C66.9503 28.3636 66.4766 27.5148 66.141 26.5279C65.8055 25.5213 65.6377 24.3962 65.6377 23.1527C65.6377 21.9092 65.8055 20.794 66.141 19.8071C66.4766 18.8202 66.9503 17.9814 67.5622 17.2905C68.1938 16.58 68.9438 16.0372 69.8123 15.6621C70.7005 15.2871 71.6973 15.0996 72.8026 15.0996C73.9079 15.0996 74.9047 15.2871 75.7929 15.6621C76.6811 16.0372 77.4312 16.58 78.043 17.2905C78.6747 17.9814 79.1582 18.8202 79.4938 19.8071C79.8293 20.794 79.9971 21.9092 79.9971 23.1527C79.9971 24.3962 79.8293 25.5213 79.4938 26.5279C79.1582 27.5148 78.6747 28.3636 78.043 29.0741C77.4312 29.7847 76.6811 30.3275 75.7929 30.7025C74.9047 31.0775 73.9079 31.265 72.8026 31.265ZM72.8026 28.2155C73.8092 28.2155 74.5988 27.9096 75.1712 27.2977C75.7436 26.6858 76.0298 25.7877 76.0298 24.6035V21.7316C76.0298 20.567 75.7436 19.6788 75.1712 19.067C74.5988 18.4551 73.8092 18.1491 72.8026 18.1491C71.8157 18.1491 71.036 18.4551 70.4636 19.067C69.8912 19.6788 69.605 20.567 69.605 21.7316V24.6035C69.605 25.7877 69.8912 26.6858 70.4636 27.2977C71.036 27.9096 71.8157 28.2155 72.8026 28.2155Z" fill="#378E73"/>
<path d="M84.6453 13.2051C83.8558 13.2051 83.2834 13.0274 82.9281 12.6722C82.5926 12.3169 82.4248 11.8629 82.4248 11.3102V10.7181C82.4248 10.1654 82.5926 9.71145 82.9281 9.35617C83.2834 9.00088 83.8558 8.82324 84.6453 8.82324C85.4151 8.82324 85.9776 9.00088 86.3329 9.35617C86.6882 9.71145 86.8659 10.1654 86.8659 10.7181V11.3102C86.8659 11.8629 86.6882 12.3169 86.3329 12.6722C85.9776 13.0274 85.4151 13.2051 84.6453 13.2051ZM82.7505 15.4552H86.5402V30.9101H82.7505V15.4552Z" fill="#378E73"/>
<path d="M90.3301 30.9098V15.4549H94.1198V18.0307H94.2678C94.5836 17.2017 95.0771 16.5109 95.7482 15.9582C96.439 15.3858 97.3864 15.0996 98.5904 15.0996C100.189 15.0996 101.413 15.6227 102.262 16.6688C103.11 17.7149 103.535 19.2051 103.535 21.1394V30.9098H99.7451V21.5243C99.7451 20.419 99.5477 19.59 99.153 19.0373C98.7582 18.4847 98.1069 18.2083 97.1989 18.2083C96.8041 18.2083 96.4193 18.2676 96.0442 18.386C95.6889 18.4847 95.3633 18.6426 95.0672 18.8597C94.7909 19.0571 94.5639 19.3137 94.3862 19.6295C94.2086 19.9256 94.1198 20.2808 94.1198 20.6953V30.9098H90.3301Z" fill="#378E73"/>
<path d="M112.21 31.265C110.729 31.265 109.486 31.0183 108.479 30.5249C107.472 30.0117 106.584 29.311 105.814 28.4228L108.124 26.1726C108.696 26.824 109.318 27.3372 109.989 27.7122C110.68 28.0872 111.469 28.2747 112.358 28.2747C113.266 28.2747 113.917 28.1168 114.312 27.801C114.726 27.4852 114.933 27.051 114.933 26.4983C114.933 26.0443 114.785 25.6891 114.489 25.4325C114.213 25.1561 113.729 24.9686 113.039 24.8699L111.499 24.6627C109.821 24.4456 108.538 23.9719 107.65 23.2415C106.782 22.4915 106.347 21.4059 106.347 19.9848C106.347 19.2347 106.486 18.5636 106.762 17.9715C107.038 17.3596 107.433 16.8464 107.946 16.4319C108.459 15.9977 109.071 15.672 109.782 15.4549C110.512 15.218 111.321 15.0996 112.21 15.0996C112.96 15.0996 113.621 15.1588 114.193 15.2773C114.785 15.3759 115.318 15.5338 115.792 15.751C116.266 15.9483 116.7 16.2049 117.095 16.5207C117.489 16.8168 117.874 17.1524 118.249 17.5274L116.029 19.7479C115.575 19.2742 115.032 18.8794 114.4 18.5636C113.769 18.2478 113.078 18.0899 112.328 18.0899C111.499 18.0899 110.897 18.238 110.522 18.534C110.167 18.8301 109.989 19.215 109.989 19.6887C109.989 20.2019 110.137 20.5966 110.433 20.873C110.749 21.1296 111.272 21.3171 112.002 21.4355L113.571 21.6428C116.907 22.1165 118.575 23.6363 118.575 26.2022C118.575 26.9523 118.417 27.6431 118.101 28.2747C117.805 28.8866 117.381 29.4195 116.828 29.8735C116.276 30.3078 115.605 30.6532 114.815 30.9098C114.045 31.1466 113.177 31.265 112.21 31.265Z" fill="#378E73"/>
<path d="M130.566 28.3341H130.418C130.28 28.7289 130.093 29.1039 129.856 29.4592C129.639 29.7948 129.353 30.1007 128.997 30.377C128.662 30.6534 128.247 30.8705 127.754 31.0284C127.28 31.1863 126.727 31.2652 126.096 31.2652C124.497 31.2652 123.273 30.7422 122.424 29.6961C121.576 28.6499 121.151 27.1597 121.151 25.2254V15.4551H124.941V24.8405C124.941 25.9064 125.148 26.7255 125.563 27.2979C125.977 27.8506 126.639 28.1269 127.546 28.1269C127.922 28.1269 128.287 28.0775 128.642 27.9789C129.017 27.8802 129.343 27.7321 129.619 27.5347C129.895 27.3176 130.122 27.061 130.3 26.765C130.478 26.4492 130.566 26.084 130.566 25.6695V15.4551H134.356V30.9099H130.566V28.3341Z" fill="#378E73"/>
<path d="M141.935 30.9102C140.632 30.9102 139.675 30.5845 139.063 29.9331C138.451 29.2818 138.146 28.364 138.146 27.1797V9.00098H141.935V27.8903H143.978V30.9102H141.935Z" fill="#378E73"/>
<path d="M150.936 30.9104C149.633 30.9104 148.636 30.5748 147.946 29.9037C147.274 29.2129 146.939 28.2359 146.939 26.9726V18.4754H144.659V15.4555H145.843C146.416 15.4555 146.801 15.3272 146.998 15.0706C147.215 14.7943 147.324 14.3896 147.324 13.8567V11.2217H150.729V15.4555H153.897V18.4754H150.729V27.8904H153.66V30.9104H150.936Z" fill="#378E73"/>
<path d="M13.6918 0H40.6631V26.9713C40.6631 30.4267 39.2904 33.7406 36.8471 36.184C34.4037 38.6273 31.0898 40 27.6344 40H0.663086V13.0287C0.663086 9.57325 2.03575 6.25936 4.47909 3.81601C6.92244 1.37266 10.2363 0 13.6918 0Z" fill="url(#paint0_linear_747_1291)"/>
<path d="M32.2656 15.7401L29.5914 16.9654L27.714 17.8259L27.6303 17.8635L25.049 19.0295C25.049 19.0194 25.0448 19.0094 25.0415 18.9993C24.8891 18.3642 24.5953 17.7716 24.1819 17.2659L23.9434 16.7445L26.5188 15.5643L28.4238 14.6913L31.1214 13.4551C31.271 13.6883 31.4105 13.9269 31.5399 14.1707L32.2447 15.7083L32.2656 15.7401Z" fill="white"/>
<path d="M32.7015 22.8053C32.5033 23.6487 32.2157 24.4686 31.8436 25.251L23.4795 23.8231L23.5582 23.3619C24.1683 22.8663 24.6314 22.2133 24.8974 21.4736L32.7015 22.8053Z" fill="white"/>
<path d="M17.6252 24.1356L14.2462 26.5286L11.8307 28.2394C11.2539 27.6094 10.7448 26.9207 10.3115 26.1846L12.7145 24.4821L14.4028 23.286L16.1487 22.0498L17.6252 24.1356Z" fill="white"/>
<path d="M17.948 13.6255L16.9034 15.9574L15.3734 15.2719L13.4358 14.4039L10.708 13.1811C11.2052 12.4437 11.7817 11.7631 12.4272 11.1514L15.4036 12.4847L17.6793 13.5058L17.948 13.6255Z" fill="white"/>
<path d="M29.806 22.3105C29.3975 23.897 28.5759 25.3468 27.425 26.5126C26.2741 27.6784 24.8349 28.5184 23.2538 28.9472C21.6728 29.376 20.0063 29.3783 18.4241 28.9538C16.8419 28.5294 15.4003 27.6933 14.2462 26.5307C13.6441 25.9224 13.1287 25.2341 12.7145 24.4851L10.3115 26.1875C11.5448 28.2892 13.3794 29.9733 15.5788 31.0225C17.7782 32.0717 20.2415 32.4379 22.651 32.0739C25.0605 31.7099 27.3057 30.6324 29.0971 28.9803C30.8884 27.3283 32.1437 25.1774 32.7011 22.8052L29.806 22.3105Z" fill="white"/>
<path d="M15.4034 12.4842C16.5759 11.6392 17.9296 11.0798 19.3565 10.8506C20.7835 10.6214 22.2442 10.7287 23.6224 11.1641C25.0005 11.5995 26.2578 12.3508 27.2941 13.3582C28.3305 14.3655 29.1171 15.6011 29.5913 16.9663L32.2655 15.7409C32.2605 15.7284 32.2563 15.7158 32.2513 15.7041L31.5465 14.1665C31.4143 13.9233 31.2748 13.6847 31.128 13.4509C30.0399 11.7426 28.5438 10.3319 26.7746 9.34594C25.0054 8.35995 23.0187 7.82965 20.9935 7.80283C18.9682 7.77601 16.9682 8.25351 15.1735 9.19231C13.3788 10.1311 11.8459 11.5017 10.7129 13.1806L13.4407 14.4034C13.996 13.6698 14.6575 13.023 15.4034 12.4842Z" fill="white"/>
<path d="M11.7285 18.2282C11.8308 17.7023 11.9781 17.1862 12.1688 16.6856L9.49042 15.4854C8.43622 18.1411 8.34442 21.082 9.23095 23.7984L11.7721 21.9988C11.4988 20.7583 11.484 19.4747 11.7285 18.2282Z" fill="white"/>
<path d="M29.4576 16.6084L27.6137 17.535L27.5333 17.576L25.0039 18.8457" fill="white"/>
<path d="M16.0269 22.1147L14.3939 23.2714C13.9806 22.4621 13.7249 21.5816 13.6406 20.6767L14.5513 20.0322L16.0269 22.1147Z" fill="white"/>
<path d="M17.2549 16.1641L16.2104 18.496L14.0459 17.5234C14.3403 16.7114 14.7792 15.9593 15.3416 15.3037L17.2549 16.1641Z" fill="white"/>
<path d="M27.774 21.9646C27.3797 23.3601 26.5741 24.6045 25.4623 25.5355C24.3504 26.4665 22.9839 27.041 21.5408 27.1841C20.0977 27.3272 18.645 27.0323 17.3719 26.3377C16.0989 25.6432 15.0646 24.5813 14.4039 23.2904C14.4 23.285 14.3969 23.2791 14.3947 23.2728C13.7475 22.0002 13.4922 20.5643 13.661 19.1466C13.8298 17.7289 14.4151 16.393 15.343 15.3079L15.374 15.2728C16.2153 14.3032 17.2998 13.5755 18.5159 13.1644C19.732 12.7534 21.0357 12.6739 22.2927 12.9342C23.5497 13.1945 24.7146 13.7852 25.6675 14.6454C26.6203 15.5056 27.3267 16.6042 27.7138 17.8281L27.6301 17.865L25.0488 19.0301C25.0488 19.02 25.0446 19.01 25.0412 18.9999C24.8006 17.9876 24.2037 17.0956 23.3596 16.4871C22.5155 15.8785 21.4806 15.5941 20.444 15.6857C19.4075 15.7774 18.4385 16.239 17.7143 16.9861C16.99 17.7333 16.5588 18.7161 16.4995 19.755C16.4402 20.7939 16.7567 21.8195 17.3912 22.6442C18.0257 23.469 18.9359 24.0378 19.9552 24.2468C20.9746 24.4559 22.0352 24.2911 22.943 23.7826C23.8509 23.2741 24.5455 22.4558 24.8998 21.4774L27.774 21.9646Z" fill="white"/>
</g>
<defs>
<linearGradient id="paint0_linear_747_1291" x1="1.30255" y1="0.997699" x2="59.852" y2="58.4633" gradientUnits="userSpaceOnUse">
<stop stop-color="#3B916F"/>
<stop offset="1" stop-color="#096AA5"/>
</linearGradient>
<clipPath id="clip0_747_1291">
<rect width="155.069" height="40" fill="white" transform="translate(0.663086)"/>
</clipPath>
</defs>
</svg>
