<svg width="345" height="400" viewBox="0 0 345 400" fill="none" xmlns="http://www.w3.org/2000/svg">
<ellipse cx="180.306" cy="221.999" rx="164.486" ry="164.486" fill="white"/>
<mask id="mask0_554_18840" style="mask-type:alpha" maskUnits="userSpaceOnUse" x="15" y="57" width="330" height="330">
<ellipse cx="180.306" cy="222.004" rx="164.486" ry="164.486" fill="white"/>
</mask>
<g mask="url(#mask0_554_18840)">
<ellipse cx="180.306" cy="222.004" rx="164.486" ry="164.486" fill="#FFB685"/>
<path d="M133.872 390.721C133.196 400.999 127.566 434.321 103.139 433.208C93.812 432.783 91.3731 428.194 81.2237 426.168C78.4593 425.589 78.1392 421.8 80.7614 420.75C85.4846 418.453 90.1968 419.826 95.3098 421.001C115.343 425.607 120.036 399.499 121.195 377.057" fill="#F9F9F9"/>
<path d="M104.313 435.415C114.995 435.415 123.64 429.138 129.372 417.187C134.82 405.83 135.883 393.277 136.041 390.877L131.717 390.592C131.605 392.293 128.668 432.225 103.244 431.057C98.6149 430.847 95.8423 429.51 92.6333 427.965C89.7841 426.591 86.5533 425.036 81.6536 424.058C81.3459 423.994 81.1653 423.794 81.1366 423.468C81.1161 423.24 81.1763 422.934 81.5716 422.775C81.6195 422.756 81.6659 422.735 81.7124 422.712C85.3988 420.922 89.2466 421.822 93.7016 422.865L94.8274 423.128C100.59 424.451 105.611 423.538 109.752 420.414C117.72 414.4 122.171 400.259 123.362 377.182L119.034 376.959C117.929 398.375 113.927 411.832 107.141 416.955C104.027 419.306 100.317 419.942 95.7985 418.904L94.6892 418.645C89.8908 417.522 84.9283 416.361 79.8809 418.785C77.8551 419.636 76.6268 421.659 76.8183 423.846C77.0112 426.056 78.6047 427.847 80.7837 428.302C85.1649 429.176 88.0045 430.546 90.7498 431.868C94.2364 433.548 97.5289 435.135 103.044 435.386C103.469 435.406 103.892 435.415 104.312 435.415H104.313Z" fill="#001F54"/>
<path d="M215.989 286.875L237.057 375.459L244.156 405.324C252.1 411.102 267.088 412.489 274.49 404.602C292.503 402.306 292.012 381.498 280.391 356.182C273.854 341.932 263.794 326.259 251.53 311.656C244.524 303.306 236.788 295.305 228.576 288.125L222.43 287.511L215.988 286.875H215.989Z" fill="#F9F9F9"/>
<path d="M237.055 375.464L238.738 382.55L244.155 405.33C252.099 411.108 267.086 412.495 274.489 404.608C281.22 403.749 285.366 400.303 287.317 395.009C290.582 386.134 287.671 372.049 280.39 356.189C275.262 355.156 269.925 355.192 264.862 356.384C262.746 356.882 260.688 357.576 258.702 358.487C255.465 359.96 252.468 361.917 249.601 364.011C249.406 364.156 249.211 364.293 249.024 364.438C244.662 367.674 240.545 371.328 237.057 375.467L237.055 375.464Z" fill="#5F5F82"/>
<path d="M222.437 287.518C224.148 291.88 226.034 296.177 228.099 300.396C228.496 301.204 228.916 302.028 229.595 302.62C230.222 303.162 231.017 303.458 231.79 303.747C238.435 306.167 245.325 308.377 251.536 311.663C244.53 303.313 236.795 295.312 228.582 288.132L222.437 287.518Z" fill="#E5E5E5"/>
<g opacity="0.2">
<path d="M238.74 382.533L244.157 405.313C252.101 411.091 267.089 412.478 274.492 404.591C281.223 403.732 285.369 400.287 287.319 394.993C283.167 397.571 277.75 397.99 273.257 396.083C268.714 394.148 265.233 389.887 264.251 385.047C263.89 383.292 263.846 381.45 264.308 379.717C264.907 377.464 266.323 375.499 267.023 373.274C267.97 370.306 267.587 367.085 266.966 364.029C266.431 361.429 265.731 358.872 264.863 356.366C263.346 351.996 261.332 347.801 258.854 343.886C258.819 345.866 258.009 347.735 257.164 349.52C254.744 354.642 251.921 359.545 249.024 364.42C245.485 370.407 241.844 376.337 238.739 382.535L238.74 382.533Z" fill="#001F54"/>
</g>
<path d="M259.854 412.251C265.745 412.251 271.52 410.523 275.524 406.64C282.775 405.488 287.676 401.354 289.722 394.648C296.762 371.56 268.299 320.01 230.005 286.494C229.665 286.197 229.241 286.012 228.791 285.968L216.206 284.717C215.509 284.647 214.821 284.919 214.359 285.447C213.898 285.975 213.72 286.693 213.883 287.375L242.051 405.824C242.171 406.328 242.467 406.771 242.884 407.075C247.406 410.363 253.693 412.252 259.854 412.252V412.251ZM227.67 290.21C263.945 322.2 292.04 372.186 285.577 393.384C283.951 398.716 280.236 401.681 274.22 402.449C273.721 402.513 273.26 402.748 272.915 403.115C266.674 409.762 253.631 409.024 246.077 404.013L218.805 289.328L227.671 290.21H227.67Z" fill="#001F54"/>
<path d="M278.4 369.646C270.314 368.707 260.493 372.797 257.963 381.276C255.748 387.885 259.402 395.496 265.843 397.954C267.802 398.747 269.86 399.106 271.86 399.024C272.187 399.01 272.441 398.734 272.428 398.407C272.418 398.174 272.276 397.979 272.077 397.89C268.643 396.315 265.784 394.214 264.181 391.496C259.514 383.429 265.729 376.096 273.351 372.929C274.995 372.152 276.764 371.59 278.566 370.921C279.213 370.7 279.084 369.693 278.4 369.646Z" fill="#001F54"/>
<path d="M127.022 436.316C127.145 441.74 127.528 446.724 128.301 451.079C128.713 453.455 129.248 455.644 129.911 457.616C131.745 463.07 136.895 466.716 142.651 466.716H174.936C176.345 466.716 177.753 466.391 178.946 465.64C181.018 464.332 182.224 462.166 182.607 459.565C182.99 456.943 182.55 453.889 181.322 450.826C181.487 450.379 181.661 449.93 181.828 449.49C186.645 436.728 191.355 425.858 195.854 418.578C196.547 417.444 197.247 416.389 197.934 415.436C200.548 415.638 203.084 415.768 205.539 415.841C233.331 416.642 251.373 409.262 258.986 391.992C259.564 390.678 260.085 389.298 260.539 387.868C261.882 383.672 262.699 378.971 262.987 373.755C263.615 362.451 261.572 351.17 257.527 340.589C253.288 329.496 247.257 318.841 239.796 308.535C237.42 305.256 234.899 302.006 232.241 298.792L222.852 285.792L196.692 282.852L152.072 277.847C149.06 288.559 146.056 299.276 143.044 309.987L140.855 323.789L134.478 363.939L128.599 400.99C127.602 413.47 126.801 425.719 127.025 436.315L127.022 436.316Z" fill="#F9F9F9"/>
<path d="M127.025 436.313C127.148 441.737 127.531 446.721 128.304 451.077C128.434 451.814 128.571 452.536 128.722 453.236C128.874 453.944 129.04 454.637 129.22 455.302C129.242 455.381 129.264 455.454 129.285 455.526C129.371 455.872 129.472 456.213 129.573 456.544C129.681 456.912 129.798 457.266 129.912 457.612C131.747 463.066 136.897 466.712 142.653 466.712H174.938C176.347 466.712 177.754 466.387 178.947 465.636C181.019 464.328 182.226 462.162 182.609 459.561C176.173 462.465 169.008 463.743 161.988 463.057C155.922 462.458 149.4 459.973 146.778 454.47C146.121 453.098 145.76 451.646 145.608 450.159C145.291 447.197 145.774 444.084 146.366 441.131C147.392 436.047 148.7 431.012 150.274 426.064C151.228 423.052 152.34 419.99 154.449 417.629C159.079 412.457 167.045 412.155 173.913 413.172C181.375 414.277 188.611 416.451 195.855 418.575C196.548 417.441 197.249 416.387 197.935 415.433C200.549 415.636 203.085 415.766 205.541 415.838C233.332 416.64 251.374 409.259 258.988 391.99C244.002 403.307 225.057 409.526 206.553 406.955C184.048 403.835 163.406 386.256 159.729 363.837C156.406 343.505 167.587 322.07 185.354 311.64C201.597 302.099 222.29 301.507 239.797 308.535C237.421 305.256 234.9 302.006 232.242 298.792L222.853 285.792L196.693 282.852L152.073 277.847C149.061 288.559 146.057 299.276 143.045 309.987L140.857 323.789L134.48 363.939L128.601 400.99C127.604 413.47 126.802 425.719 127.026 436.315L127.025 436.313Z" fill="#D3D3D3" fill-opacity="0.4"/>
<path d="M191 394.697C191.506 397.896 192.516 400.901 193.954 403.652C196.576 408.657 200.606 412.832 205.531 415.837C206.89 415.872 208.226 415.894 209.541 415.894C210.177 415.894 210.798 415.887 211.419 415.879C211.643 415.879 211.874 415.872 212.097 415.864C212.198 415.864 212.3 415.864 212.401 415.857C212.958 415.85 213.506 415.829 214.048 415.814C214.127 415.807 214.213 415.807 214.293 415.798C214.929 415.777 215.556 415.748 216.177 415.712C217.058 415.662 217.926 415.604 218.778 415.532C220.929 415.358 223.01 415.113 225.004 414.803C225.019 414.803 225.04 414.796 225.055 414.796C225.711 414.695 226.362 414.587 227.005 414.47C227.432 414.391 227.851 414.312 228.269 414.224C228.342 414.209 228.406 414.195 228.478 414.18C228.732 414.137 228.985 414.079 229.229 414.022C229.258 414.022 229.28 414.015 229.309 414.007C230.341 413.79 231.352 413.544 232.343 413.278C232.508 413.234 232.675 413.183 232.841 413.141C233.397 412.989 233.946 412.823 234.481 412.657C235.051 412.483 235.615 412.302 236.163 412.115C236.185 412.1 236.199 412.093 236.22 412.093C237.918 411.508 239.528 410.851 241.067 410.121C241.095 410.105 241.124 410.092 241.153 410.077C241.659 409.839 242.15 409.593 242.633 409.339C243.045 409.123 243.45 408.899 243.846 408.675C243.941 408.624 244.034 408.573 244.121 408.516C244.599 408.241 245.059 407.959 245.515 407.671C245.97 407.382 246.418 407.085 246.858 406.783C246.873 406.768 246.894 406.761 246.909 406.747C247.342 406.444 247.768 406.133 248.188 405.809C248.216 405.794 248.238 405.774 248.267 405.752C248.664 405.441 249.055 405.131 249.445 404.805C249.85 404.466 250.246 404.112 250.643 403.75C251.011 403.411 251.372 403.064 251.72 402.711C251.77 402.667 251.814 402.625 251.849 402.581C252.146 402.286 252.427 401.982 252.708 401.678C252.803 401.584 252.889 401.483 252.975 401.383C253.272 401.057 253.552 400.726 253.834 400.386C253.892 400.313 253.95 400.241 254.008 400.169C254.622 399.419 255.208 398.631 255.763 397.815C255.807 397.758 255.849 397.692 255.893 397.62C256.117 397.281 256.34 396.933 256.558 396.587C256.644 396.442 256.738 396.298 256.817 396.153C257.005 395.85 257.185 395.539 257.359 395.222C257.454 395.063 257.54 394.896 257.634 394.731C257.656 394.695 257.678 394.652 257.7 394.608C257.865 394.297 258.032 393.98 258.191 393.654C258.277 393.481 258.364 393.308 258.444 393.135C258.631 392.758 258.805 392.377 258.97 391.994L258.977 391.987C259.555 390.673 260.076 389.292 260.53 387.863C260.508 386.52 260.4 385.177 260.184 383.825C257.46 366.527 239.773 354.935 220.669 357.932C201.559 360.937 188.276 377.396 191 394.694V394.697Z" fill="#FFD8BE"/>
<g opacity="0.3">
<path d="M252.221 346.995L252.081 346.946C252.088 346.902 252.098 346.858 252.104 346.814L252.221 346.995Z" fill="#66142E"/>
</g>
<path d="M127.016 436.305C127.861 436.362 128.705 436.384 129.544 436.377C134.947 436.349 140.465 435.373 145.087 432.579C146.654 431.632 148.105 430.448 149.334 429.091C151.769 426.447 153.422 423.132 153.667 419.579C153.689 419.225 153.703 418.878 153.703 418.524C153.725 416.3 153.421 414.054 154.071 411.945C155.226 408.124 159.082 405.828 161.2 402.455C163.107 399.421 163.503 395.616 162.854 392.097C162.204 388.581 160.579 385.309 158.694 382.275C153.826 374.467 147.03 367.881 139.071 363.265L138.327 363.489C137.62 362.875 136.536 363.15 135.654 363.474C135.257 363.619 134.859 363.778 134.469 363.929L128.59 400.98C127.593 413.46 126.792 425.709 127.016 436.305Z" fill="#5F5F82"/>
<g opacity="0.2">
<path d="M127.017 436.306C127.862 436.363 128.706 436.385 129.545 436.378C134.948 436.35 140.466 435.374 145.088 432.58C146.655 431.633 148.106 430.449 149.335 429.092C149.638 428.081 149.949 427.07 150.266 426.058C151.103 423.414 152.057 420.734 153.704 418.525C153.726 416.301 153.422 414.055 154.072 411.946C155.227 408.125 159.083 405.829 161.201 402.456C163.108 399.422 163.504 395.616 162.855 392.098C162.205 388.582 160.58 385.31 158.695 382.276C153.827 374.468 147.031 367.882 139.072 363.266L138.328 363.49C137.621 362.876 136.537 363.151 135.655 363.475C135.258 363.62 134.86 363.779 134.47 363.93L128.591 400.981C127.594 413.461 126.793 425.71 127.017 436.306Z" fill="#001F54"/>
</g>
<path d="M222.912 285.239C211.27 282.694 199.472 281.382 187.672 279.925C177.413 278.628 162.717 276.923 152.309 275.713C151.249 275.589 150.279 276.267 150.006 277.265L140.961 309.401C140.758 309.655 126.557 400.48 126.417 400.814C125.59 411.333 124.826 421.887 124.8 432.538C124.814 440.205 125.171 448.11 127.035 455.644C127.548 457.356 128.004 459.199 128.904 460.773C131.259 465.186 135.869 468.259 140.831 468.801C142.786 469.01 146.017 468.887 147.993 468.919C153.288 468.926 166.588 468.919 171.693 468.924H173.668C177.973 469.258 181.954 467.333 183.794 463.287C185.753 459.039 184.975 454.079 183.38 449.999L183.397 451.599C188.034 439.654 192.494 427.336 199.713 416.718L197.767 417.622C201.379 417.874 205.001 418.054 208.637 418.079C231.406 418.336 255.61 412.345 262.753 387.791C271.627 355.323 254.445 321.735 232.804 298.323C232.526 298.027 232.063 298.011 231.766 298.288C231.492 298.544 231.459 298.961 231.674 299.257C244.027 316.462 255.782 334.681 259.783 355.664C262.072 368.981 261.82 384.11 254.535 395.784C244.898 410.907 225.329 413.792 208.664 413.699C205.137 413.672 201.602 413.491 198.07 413.242C197.289 413.187 196.575 413.555 196.15 414.148C194.158 416.943 192.48 419.851 190.93 422.801C186.372 431.597 182.734 440.823 179.243 450.047C179.041 450.586 179.061 451.152 179.261 451.648C180.123 453.849 180.633 456.196 180.5 458.397C180.377 460.601 179.524 462.524 178.019 463.576C176.356 464.921 173.769 464.402 171.693 464.505C166.636 464.516 153.21 464.502 147.993 464.51C146.037 464.435 142.314 464.687 140.524 464.301C136.412 463.557 132.895 460.37 131.82 456.321C131.702 455.859 131.411 454.996 131.292 454.537C127.432 437.333 129.712 418.17 130.755 401.334C130.936 401.617 145.189 309.312 145.121 310.572L154.132 278.427L151.829 279.978C169.006 281.923 187.865 283.814 204.97 285.443C210.888 285.924 216.819 286.295 222.787 286.343C223.095 286.346 223.347 286.098 223.349 285.79C223.352 285.522 223.163 285.297 222.912 285.242V285.239Z" fill="#001F54"/>
<path d="M101.979 415.537C107.591 417.126 113.181 417.206 117.803 415.226C140.417 420.398 158.43 408.271 149.314 389.485C160.581 384.161 160.3 367.687 143.182 366.922C143.154 366.662 143.132 366.387 143.103 366.121C142.907 363.622 142.995 360.977 143.312 358.219C143.999 352.073 145.855 345.34 148.325 338.292L150.933 332.759L170.701 290.752L149.583 283.321C143.957 288.037 138.351 292.877 132.884 297.831C129.215 301.147 125.611 304.505 122.108 307.9C108.963 320.618 97.205 333.822 88.7394 346.987C83.9287 354.478 80.174 361.953 77.8473 369.312C71.6796 388.813 82.2969 409.982 101.977 415.535L101.979 415.537Z" fill="#F9F9F9"/>
<path d="M101.978 415.539C107.59 417.128 113.18 417.207 117.802 415.228C140.416 420.4 158.429 408.273 149.313 389.487C160.58 384.163 160.299 367.689 143.181 366.924C143.116 366.339 143.073 365.754 143.045 365.154C143.03 364.857 143.023 364.562 143.016 364.258C143.009 363.969 143.001 363.681 143.001 363.384C143.001 361.715 143.109 359.989 143.311 358.22C139.989 354.081 135.785 350.875 131.054 348.543C118.436 342.303 102.078 342.223 88.7371 346.99C83.9264 354.481 80.1716 361.956 77.8449 369.315C71.6773 388.816 82.2945 409.985 101.975 415.539H101.978Z" fill="#5F5F82"/>
<g opacity="0.4">
<path d="M77.8528 369.314C80.1768 361.955 83.9302 354.476 88.745 346.985C99.4662 330.313 115.474 313.562 132.885 297.831C138.353 292.882 143.962 288.038 149.588 283.322L153.288 284.624C148.19 288.922 143.113 293.319 138.156 297.807C120.743 313.539 104.736 330.289 94.0153 346.962C89.2005 354.452 85.4471 361.932 83.1231 369.291C76.9542 388.789 87.5686 409.96 107.253 415.517C109.073 416.031 110.89 416.384 112.674 416.564C109.293 416.964 105.642 416.576 101.983 415.542C82.2983 409.984 71.6852 388.814 77.8528 369.315V369.314Z" fill="#F9F9F9"/>
</g>
<g opacity="0.2">
<path d="M130.956 360.514C131.425 363.619 133.158 367.274 136.286 367.238C137.132 367.231 137.947 366.921 138.757 366.696C140.172 366.3 141.639 366.111 143.097 366.14C143.068 365.822 143.053 365.497 143.039 365.171C143.024 364.874 143.011 364.579 143.011 364.275C142.996 363.987 142.996 363.698 142.996 363.401C142.996 361.732 143.104 360.006 143.306 358.238C139.984 354.098 135.78 350.892 131.049 348.56C130.485 352.539 130.342 356.533 130.955 360.514H130.956Z" fill="#001F54"/>
</g>
<path d="M148.195 281.665C121.705 304.043 88.2201 333.534 76.1598 366.706C72.5377 376.428 72.8687 387.613 77.2144 397.07C82.3342 408.544 93.4179 417.164 105.95 418.894C110.119 419.472 114.618 419.245 118.763 417.469L117.264 417.604C121.78 418.622 126.462 419.072 131.155 418.714C147.955 417.576 159.572 405.104 151.393 388.482L150.3 391.584C156.419 388.822 160.769 381.742 158.873 374.918C157.125 368.06 149.692 364.804 143.287 364.698L145.411 366.697C144.906 361.748 145.564 356.582 146.708 351.521C150.152 335.995 157.843 321.996 165.168 307.995C165.421 307.512 165.235 306.916 164.754 306.663C164.321 306.436 163.796 306.563 163.51 306.939C160.251 311.222 157.28 315.723 154.562 320.39C149.052 329.749 144.839 339.937 142.417 350.546C141.195 355.88 140.414 361.454 140.964 367.168C141.071 368.276 141.978 369.114 143.058 369.166C145.672 369.289 148.241 369.83 150.323 371.005C154.655 373.255 155.96 378.548 153.531 382.682C152.39 384.726 150.524 386.374 148.325 387.402C147.166 387.944 146.669 389.33 147.221 390.483C153.931 404.104 144.224 413.041 130.793 413.926C126.662 414.224 122.446 413.81 118.347 412.866C117.824 412.746 117.305 412.805 116.848 413.002C113.769 414.311 110.167 414.54 106.631 414.029C95.776 412.506 86.145 405.054 81.6722 395.042C76.8218 384.578 78.0324 373.27 82.8335 363.016C87.4404 352.466 94.0197 342.941 101.239 333.947C115.918 315.84 133.234 300.107 150.978 284.989C153.072 283.171 150.487 279.88 148.195 281.668V281.665Z" fill="#001F54"/>
<path d="M149.355 365.819C147.035 365.503 144.669 365.338 142.303 365.488C139.943 365.637 137.574 366.127 135.447 367.111C135.126 367.26 134.985 367.64 135.134 367.961C135.265 368.258 135.57 368.354 135.863 368.34C138.518 368.301 141.083 368.823 143.673 369.239C145.25 369.288 146.827 369.44 148.328 370.016C151.355 370.95 152.478 366.392 149.355 365.819Z" fill="#001F54"/>
<path d="M150.134 386.591C148.699 387.033 147.271 387.278 145.795 387.249C144.28 387.143 142.701 387.579 141.526 388.528C139.901 389.762 138.987 391.975 139.428 393.974C139.785 395.722 141.177 397.597 143.064 397.757C143.861 397.828 144.221 396.775 143.585 396.321C142.315 395.127 142.135 392.566 143.793 391.692C144.204 391.456 144.656 391.372 145.103 391.417C147.259 391.695 149.528 391.451 151.539 390.692C154.127 389.66 152.804 385.817 150.133 386.593L150.134 386.591Z" fill="#001F54"/>
<path d="M144.973 356.818C136.169 346.728 122.31 342.516 109.317 342.831C108.881 342.834 108.531 343.191 108.535 343.626C108.538 344.044 108.867 344.383 109.278 344.408C118.612 344.991 127.887 347.468 135.264 353.22C137.66 355.078 139.805 357.234 141.661 359.613C143.546 361.892 146.91 359.078 144.973 356.818Z" fill="#001F54"/>
</g>
<path d="M112.145 396.359C117.758 397.948 123.348 398.028 127.97 396.048C150.583 401.22 168.596 389.093 159.481 370.307C170.748 364.983 170.466 348.509 153.349 347.744C153.32 347.485 153.298 347.21 153.27 346.943C153.074 344.444 153.161 341.8 153.479 339.041C154.165 332.895 156.022 326.163 158.492 319.114L161.099 313.581L180.867 271.575L159.749 264.143C154.123 268.859 148.518 273.699 143.05 278.653C139.382 281.969 135.778 285.327 132.274 288.722C119.13 301.44 107.372 314.644 98.9059 327.809C94.0952 335.3 90.3405 342.775 88.0138 350.134C81.8461 369.635 92.4634 390.804 112.144 396.358L112.145 396.359Z" fill="#F9F9F9"/>
<path d="M112.144 396.361C117.757 397.95 123.347 398.03 127.969 396.05C150.582 401.222 168.595 389.095 159.48 370.309C170.747 364.985 170.465 348.511 153.348 347.746C153.282 347.161 153.24 346.577 153.211 345.976C153.196 345.679 153.189 345.384 153.182 345.08C153.176 344.792 153.167 344.503 153.167 344.206C153.167 342.537 153.275 340.811 153.478 339.043C150.155 334.904 145.952 331.697 141.221 329.365C128.602 323.125 112.244 323.046 98.9036 327.813C94.0929 335.303 90.3381 342.778 88.0114 350.137C81.8438 369.639 92.461 390.807 112.142 396.361H112.144Z" fill="#5F5F82"/>
<g opacity="0.4">
<path d="M133.226 396.019C135.875 396.625 138.457 396.983 140.942 397.131C137.934 397.344 134.719 397.209 131.369 396.688C132.004 396.499 132.623 396.278 133.226 396.019Z" fill="#F9F9F9"/>
<path d="M88.0081 350.131C90.3321 342.772 94.0854 335.292 98.9003 327.802C109.621 311.129 125.629 294.379 143.041 278.647C148.508 273.698 154.117 268.855 159.743 264.138L163.443 265.44C158.345 269.738 153.268 274.136 148.311 278.624C130.898 294.355 114.892 311.106 104.171 327.779C99.3558 335.269 95.6024 342.748 93.2784 350.107C87.1094 369.606 97.7239 390.776 117.409 396.334C119.228 396.848 121.046 397.201 122.829 397.38C119.448 397.781 115.797 397.392 112.138 396.358C92.4536 390.801 81.8405 369.631 88.0081 350.132V350.131Z" fill="#F9F9F9"/>
</g>
<g opacity="0.2">
<path d="M141.133 341.316C141.602 344.421 143.335 348.076 146.463 348.041C147.308 348.034 148.124 347.723 148.933 347.499C150.349 347.102 151.816 346.914 153.274 346.942C153.245 346.625 153.23 346.299 153.216 345.974C153.201 345.677 153.187 345.382 153.187 345.078C153.172 344.789 153.172 344.501 153.172 344.204C153.172 342.535 153.28 340.809 153.483 339.04C150.16 334.901 145.957 331.695 141.226 329.363C140.662 333.342 140.518 337.336 141.131 341.316H141.133Z" fill="#001F54"/>
</g>
<path d="M158.361 262.488C131.871 284.866 98.3866 314.356 86.3263 347.528C82.7042 357.25 83.0352 368.435 87.3809 377.893C92.5007 389.366 103.584 397.986 116.117 399.717C120.286 400.294 124.785 400.067 128.929 398.291L127.43 398.427C131.947 399.444 136.629 399.894 141.322 399.536C158.122 398.398 169.739 385.926 161.559 369.304L160.466 372.406C166.586 369.645 170.936 362.565 169.04 355.74C167.292 348.882 159.859 345.627 153.453 345.52L155.578 347.52C155.073 342.571 155.731 337.404 156.874 332.343C160.318 316.817 168.01 302.818 175.335 288.817C175.588 288.334 175.402 287.738 174.92 287.485C174.488 287.258 173.963 287.385 173.677 287.761C170.417 292.044 167.446 296.546 164.728 301.213C159.219 310.571 155.006 320.759 152.583 331.368C151.362 336.703 150.581 342.277 151.131 347.99C151.237 349.098 152.144 349.937 153.225 349.989C155.839 350.112 158.408 350.652 160.489 351.827C164.821 354.077 166.126 359.371 163.697 363.504C162.556 365.548 160.691 367.196 158.491 368.225C157.332 368.766 156.836 370.152 157.387 371.305C164.098 384.926 154.39 393.864 140.959 394.749C136.828 395.047 132.613 394.632 128.513 393.688C127.991 393.568 127.471 393.627 127.014 393.824C123.935 395.133 120.334 395.363 116.798 394.851C105.943 393.329 96.3115 385.877 91.8387 375.864C86.9883 365.4 88.1989 354.092 93 343.839C97.6069 333.289 104.186 323.763 111.406 314.769C126.084 296.662 143.401 280.929 161.145 265.811C163.239 263.994 160.654 260.703 158.361 262.49V262.488Z" fill="#001F54"/>
<path d="M159.522 346.642C157.202 346.326 154.836 346.16 152.469 346.311C150.11 346.46 147.741 346.949 145.614 347.933C145.292 348.082 145.151 348.462 145.3 348.784C145.432 349.081 145.737 349.176 146.029 349.163C148.684 349.123 151.249 349.645 153.84 350.061C155.417 350.11 156.994 350.262 158.494 350.838C161.522 351.772 162.645 347.215 159.522 346.642Z" fill="#001F54"/>
<path d="M160.3 367.414C158.866 367.856 157.438 368.1 155.962 368.072C154.446 367.965 152.868 368.401 151.693 369.351C150.068 370.584 149.154 372.798 149.594 374.796C149.951 376.544 151.344 378.419 153.23 378.579C154.028 378.651 154.387 377.597 153.751 377.143C152.482 375.949 152.301 373.388 153.959 372.514C154.371 372.278 154.822 372.194 155.27 372.24C157.425 372.517 159.695 372.274 161.705 371.515C164.293 370.482 162.97 366.64 160.299 367.415L160.3 367.414Z" fill="#001F54"/>
<g opacity="0.2">
<path d="M145.495 390.518C142.996 392.774 138.991 392.097 136.19 391.624C133.246 391.126 132.376 390.252 129.841 390.488C128.169 390.644 126.638 391.453 125.026 391.918C119.987 393.37 114.664 391.402 109.793 389.461C107.504 388.549 105.106 387.56 103.572 385.628C102.039 383.698 101.783 380.518 103.7 378.968C104.853 378.035 106.452 377.915 107.933 377.959C117.02 378.224 126.093 383.065 134.84 380.589C137.515 379.831 139.113 378.403 141.749 378.994C143.984 379.495 146.81 381.346 147.404 384.489C147.81 386.639 147.108 389.062 145.494 390.518H145.495Z" fill="#001F54"/>
</g>
<path d="M255.268 91.7424C267.771 86.8647 285.172 97.005 293.478 102.392C315.859 116.909 320.321 113.555 325.285 119.498C329.654 124.73 319.684 142.4 303.562 148.619C287.378 154.861 267.925 149.59 252.506 127.63" fill="#5F5F82"/>
<path d="M254.889 90.79C269 84.9986 285.589 94.8806 297.274 102.256C303.447 106.114 309.778 109.588 316.511 112.136C322.475 114.175 329.893 117.369 328.169 125.094C325.96 134.759 318.615 142.481 310.507 147.696C296.932 156.279 279.222 154.515 266.933 144.643C260.916 139.988 256.17 134.043 252.504 127.637C257.309 133.239 262.631 138.33 268.668 142.173C280.44 150.037 296.031 151.347 308.186 143.855C315.312 139.466 322.065 132.645 324.093 124.361C325.396 118.984 318.778 117.651 315.008 116.086C307.935 113.482 301.273 109.871 294.983 105.922C288.839 101.89 282.82 98.091 276.096 95.2886C269.661 92.6753 262.455 90.6255 255.641 92.7095C254.449 93.1183 253.706 91.323 254.892 90.7902L254.889 90.79Z" fill="#001F54"/>
<g opacity="0.25">
<path d="M311.897 129.456C302.953 135.118 288.885 122.63 281.588 117.395C270.882 109.715 260.149 113.272 261.343 128.33C261.343 128.33 268.625 142.135 287.793 142.143C305.86 142.148 311.897 129.458 311.897 129.458L311.897 129.456Z" fill="#3B0372"/>
</g>
<path d="M311.892 129.454C307.384 133.495 300.265 131.559 295.343 129.269C290.125 126.856 285.51 123.5 281.107 120.335C275.896 116.3 267.215 113.05 263.573 120.651C262.405 122.857 261.848 125.543 261.336 128.327C260.442 125.641 260.064 122.703 260.665 119.669C262.014 112.32 269.693 109.328 276.331 111.658C279.236 112.552 281.971 114.255 284.266 116.071C288.675 119.494 292.736 122.998 297.184 125.907C301.572 128.669 306.582 131.532 311.89 129.453L311.892 129.454Z" fill="#001F54"/>
<path d="M102.924 108.927L69.8669 117.112L58.9348 119.282C41.6219 104.112 35.1898 65.3131 37.7394 41.9715C38.8535 31.6609 41.7151 24.3757 46.1613 23.4524C53.5234 21.9248 60.0457 46.8423 77.641 61.3477C87.4606 69.4463 100.725 74.3181 119.513 69.5445C160.256 59.2149 102.921 108.929 102.921 108.929L102.924 108.927Z" fill="#FFEEDD"/>
<g opacity="0.5">
<path d="M107.702 71.3541C94.1414 73.7026 83.3644 70.3199 74.6031 64.5278C57.747 53.4003 48.3684 33.3785 41.204 28.118C42.5385 25.5107 44.1931 23.8559 46.1566 23.4481C53.5188 21.9204 60.0411 46.838 77.6364 61.3434C85.2535 67.6257 94.95 71.9674 107.7 71.3539L107.702 71.3541Z" fill="#F9F9F9"/>
</g>
<path d="M102.917 108.928L69.8599 117.113L58.9278 119.283C41.6149 104.113 35.1828 65.3141 37.7324 41.9725C37.7324 41.9725 42.7584 88.8139 59.4804 77.5381C67.8092 71.9281 72.1368 66.3136 77.6362 61.3489C87.4558 69.4475 100.72 74.3193 119.508 69.5457C160.252 59.2161 102.917 108.93 102.917 108.93L102.917 108.928Z" fill="#E2C3AF"/>
<path d="M58.7479 121.34C58.328 121.302 57.9175 121.135 57.576 120.838C37.4222 103.179 31.3309 55.4108 37.2184 33.0526C39.0389 26.1412 41.9034 22.2339 45.7383 21.4387C50.7907 20.3936 54.4817 26.4995 59.5931 34.9532C69.5456 51.4108 84.5886 76.2849 119.002 67.5515C124.958 66.0409 133.16 64.571 135.59 69.2231C137.043 72.0015 137.157 77.6007 121.455 94.0766C113.233 102.703 104.365 110.414 104.276 110.492L103.901 110.818L70.3553 119.114C69.2506 119.385 68.1338 118.711 67.8603 117.608C67.587 116.504 68.2606 115.387 69.3677 115.114L101.95 107.058C118.204 92.8959 134.054 75.1833 131.939 71.1372C131.817 70.9013 130.433 68.9074 120.018 71.5519C82.638 81.0372 66.0086 53.5269 56.0673 37.0924C52.4797 31.1611 48.7758 25.0276 46.5767 25.4804C44.4941 25.9127 42.5359 29.0571 41.2067 34.1077C35.5533 55.5786 41.8555 101.589 60.2949 117.742C61.1513 118.491 61.2372 119.793 60.4878 120.65C60.0358 121.165 59.384 121.402 58.7497 121.345L58.7479 121.34Z" fill="#001F54"/>
<path d="M235.667 91.7901L262.878 95.7591L271.833 96.6719C284.509 84.2498 286.53 54.9167 282.591 37.6834C280.861 30.0693 277.973 24.8248 274.327 24.4244C268.29 23.7606 265.071 42.7538 252.114 54.6965C244.883 61.3663 234.627 65.8506 219.149 63.505C185.59 58.432 235.665 91.7899 235.665 91.7899L235.667 91.7901Z" fill="#FFEEDD"/>
<g opacity="0.5">
<path d="M228.784 64.0941C239.865 64.9688 248.246 61.7534 254.811 56.8735C267.447 47.4926 273.358 31.9668 278.684 27.584C277.4 25.7269 275.938 24.599 274.327 24.4233C268.29 23.7595 265.071 42.7528 252.114 54.6954C246.506 59.8686 239.071 63.7289 228.781 64.0961L228.784 64.0941Z" fill="#F9F9F9"/>
</g>
<path d="M235.668 91.7779L262.879 95.7468L271.834 96.6597C284.51 84.2376 286.531 54.9045 282.592 37.6711C282.592 37.6711 282.351 72.9075 268.009 65.582C260.867 61.9373 256.934 58.032 252.115 54.6865C244.884 61.3563 234.628 65.8406 219.15 63.4949C185.591 58.422 235.665 91.7799 235.665 91.7799L235.668 91.7779Z" fill="#E2C3AF"/>
<path d="M271.649 98.7133C271.179 98.671 270.721 98.4667 270.363 98.1039C269.567 97.2916 269.579 95.9874 270.394 95.1898C283.485 82.3619 284.821 49.5345 279.334 33.6634C277.843 29.3492 275.889 26.658 274.107 26.4626C272.559 26.297 270.027 31.169 267.805 35.4758C261.366 47.9557 250.755 68.5114 222.452 65.97C221.28 65.8647 220.082 65.7196 218.847 65.5336C210.79 64.3156 209.656 65.6953 209.646 65.7098C209.64 65.7313 209.011 68.7041 222.073 79.2393C228.292 84.2539 234.807 88.7175 236.428 89.8135L263.181 93.7081C264.306 93.8732 265.087 94.9179 264.922 96.0429C264.759 97.1703 263.708 97.9511 262.585 97.7863L234.909 93.7579L234.522 93.5005C234.445 93.4495 226.746 88.3062 219.456 82.4236C205.478 71.1447 204.819 66.7709 205.805 64.2204C207.369 60.1786 213.924 60.6222 219.464 61.4618C247.553 65.7213 257.541 46.3817 264.143 33.588C267.619 26.8518 270.139 21.9699 274.448 22.3571C274.485 22.3605 274.52 22.3636 274.557 22.367C277.037 22.6406 280.557 24.5884 283.231 32.3182C288.995 48.9903 287.964 83.7433 273.279 98.1345C272.83 98.5747 272.23 98.7678 271.651 98.7157L271.649 98.7133Z" fill="#001F54"/>
<path d="M207.413 240.385C207.413 240.385 296.1 200.082 296.24 198.721C298.719 174.324 296.264 115.187 259.863 80.9299C241.444 63.5945 211.926 52.4889 178.701 52.8121C121.941 53.3662 91.2055 78.7253 77.2436 102.221C47.3874 152.46 49.7858 234.402 76.9979 263.973C77.9238 264.98 202.701 240.662 202.701 240.662" fill="#F9F9F9"/>
<path d="M296.239 198.72C296.099 200.078 207.416 240.383 207.416 240.383L202.707 240.657C202.707 240.657 77.9229 264.974 76.9966 263.971C49.7845 234.401 47.3879 152.463 77.2443 102.221C91.2088 78.7217 121.946 53.3672 178.701 52.8127C187.709 52.7249 196.445 53.4769 204.758 54.9647C227.12 58.9675 246.435 68.2943 259.862 80.928C269.9 90.3713 277.35 101.701 282.829 113.677L282.837 113.685C297.246 145.149 298.039 181.047 296.239 198.72Z" fill="#F9F9F9"/>
<g opacity="0.25">
<path d="M296.702 192.669C296.586 194.87 296.428 196.893 296.239 198.726C296.1 200.085 207.417 240.39 207.417 240.39L202.707 240.663C202.707 240.663 77.9236 264.98 76.9973 263.977C49.7852 234.407 47.3886 152.469 77.245 102.228C80.824 96.2087 85.5012 90.0656 91.4387 84.2496C89.6358 86.6715 88.0234 89.1083 86.5919 91.5195C80.5031 101.767 98.0815 105.249 96.8199 120.465C85.6159 143.005 67.8557 143.827 66.663 153.198C61.5596 193.302 68.7854 234.188 86.3443 253.269C87.2705 254.272 212.054 229.955 212.054 229.955L216.764 229.681C216.764 229.681 274.215 203.57 296.704 192.67L296.702 192.669Z" fill="#3B0372"/>
</g>
<path d="M282.839 113.696C273.143 117.856 259.654 120.145 245.386 117.147C213.618 110.473 202.062 79.0846 204.76 54.9759C227.122 58.9786 246.437 68.3054 259.864 80.9392C269.902 90.3824 277.352 101.712 282.831 113.689L282.839 113.696Z" fill="#5F5F82"/>
<path d="M76.7492 266.015C76.0078 265.949 75.7866 265.71 75.4835 265.379C62.1022 250.84 53.9454 222.989 53.6608 190.878C53.367 157.692 61.3185 125.001 75.473 101.179C86.5023 82.6184 114.577 51.3893 178.683 50.7634C210.978 50.4447 241.859 61.1659 261.277 79.4398C296.694 112.775 301.208 170.241 298.292 198.94C298.142 200.408 298.126 200.561 283.191 207.676C275.809 211.193 265.531 215.993 252.641 221.944C230.7 232.077 208.49 242.171 208.268 242.27C207.231 242.742 206.009 242.283 205.54 241.247C205.068 240.21 205.527 238.988 206.563 238.519C239.111 223.729 287.887 201.279 294.283 197.599C296.935 169.356 292.328 114.322 258.454 82.4403C239.795 64.8805 209.985 54.5775 178.725 54.8835C116.638 55.4902 89.6062 85.468 79.0187 103.283C48.7261 154.257 53.22 233.857 77.8996 261.899C86.4141 260.969 155.944 247.683 202.31 238.648C203.42 238.433 204.508 239.159 204.727 240.277C204.944 241.394 204.217 242.475 203.099 242.694C202.787 242.755 171.541 248.843 140.585 254.729C122.4 258.188 107.87 260.901 97.3994 262.794C82.8992 265.415 78.4529 266.168 76.7514 266.015L76.7492 266.015Z" fill="#001F54"/>
<path d="M277.543 173.632C288.583 175.365 307.643 183.359 312.905 204.296C326.205 257.23 262.146 300.921 181.957 299.285C111.652 297.853 73.9293 272.384 68.0889 246.97C63.4959 226.982 72.9221 205.579 97.3741 191.603C97.3741 191.603 111.767 184.02 138.433 180.214C157.446 177.503 190.732 177.606 213.014 176.645C231.171 175.863 247.822 172.498 259.586 172.4C268.994 172.322 277.544 173.63 277.544 173.63L277.543 173.632Z" fill="#FFD8BE"/>
<path d="M140.572 262.636C126.847 259.299 103.982 253.438 102.601 236.684C102.49 235.042 101.024 233.803 99.3848 234.008C97.9868 234.177 96.9449 235.326 96.8619 236.684C96.7088 239.201 97.0426 241.814 97.8965 244.28C103.756 259.991 125.912 263.606 140.572 262.638L140.572 262.636Z" fill="#001F54"/>
<path d="M113.289 254.733C113.289 254.733 96.5138 247.303 98.939 234.329C101.632 219.923 117.863 219.09 122.14 228.268C127.702 240.212 106.474 246.001 113.289 254.733Z" fill="#F27E80"/>
<g opacity="0.7">
<path d="M113.284 254.732C113.284 254.732 111.099 253.762 108.427 251.916C108.862 250.861 109.563 249.818 110.426 248.776C114.461 243.84 121.7 238.741 118.173 231.178C115.56 225.562 108.478 223.692 102.754 226.385C108.596 220.087 118.87 221.237 122.14 228.269C125.667 235.833 118.428 240.932 114.393 245.867C112.06 248.726 110.789 251.536 113.284 254.731L113.284 254.732Z" fill="#F9F9F9"/>
</g>
<path d="M113.291 254.746C113.291 254.746 96.5214 247.308 98.9521 234.337C99.367 232.15 100.077 230.278 101.021 228.708C101.021 228.708 99.5422 237.382 108.243 235.458C108.243 235.458 105.125 243.285 114.399 245.88C112.066 248.739 110.796 251.549 113.291 254.744L113.291 254.746Z" fill="#FF5C64"/>
<path d="M113.293 256.891C113.94 256.891 114.573 256.598 114.991 256.063C115.598 255.285 115.598 254.193 114.991 253.415C112.998 250.859 114.373 248.944 118.512 244.513C122.545 240.194 127.567 234.818 124.094 227.365C121.759 222.35 116.205 219.486 110.281 220.233C104.888 220.914 98.5239 224.872 96.8272 233.938C94.1199 248.421 111.673 256.375 112.42 256.707C112.702 256.832 112.997 256.891 113.291 256.891L113.293 256.891ZM112.142 224.422C115.681 224.422 118.818 226.234 120.192 229.183C122.285 233.68 119.766 236.865 115.365 241.575C113.018 244.089 110.301 246.997 109.831 250.263C105.515 247.322 99.7153 241.92 101.06 234.729C102.139 228.962 105.787 225.141 110.819 224.505C111.264 224.449 111.707 224.422 112.142 224.422Z" fill="#001F54"/>
<path d="M111.126 233.123C103.063 237.634 101.232 245.596 107.27 252.81C108.474 254.264 110.673 252.512 109.515 251.012C103.08 245.162 104.471 238.077 111.126 233.123Z" fill="#001F54"/>
<path d="M303.075 252.275C282.293 281.084 235.752 300.384 181.956 299.284C111.652 297.851 73.9273 272.387 68.089 246.973C66.5581 240.31 66.5845 233.491 68.2027 226.843C68.3629 227.808 68.5559 228.776 68.7784 229.735C74.9999 256.821 115.211 283.966 190.138 285.494C236.172 286.437 277.208 273.358 303.073 252.277L303.075 252.275Z" fill="#FFB6B8"/>
<path d="M277.551 173.63C291.229 174.69 305.12 182.632 311.676 195.175C318.114 207.855 318.36 223.249 313.795 236.578C297.346 280.31 242.129 298.391 199.267 300.988C164.07 302.57 123.361 298.486 92.6626 280.056C76.2365 270.08 63.0528 254.3 65.1406 233.988C66.6915 214.915 80.8246 199.624 97.3865 191.601C86.1227 198.984 76.2967 208.84 71.6514 221.523C59.4789 256.214 89.9371 277.681 119.211 287.404C160.477 300.549 210.751 301.194 251.528 286.076C275.896 276.887 300.709 260.704 309.595 235.136C313.772 222.876 313.408 208.843 308.054 197.003C302.389 184.924 290.307 176.9 277.558 173.629L277.551 173.63Z" fill="#001F54"/>
<path d="M96.6059 94.9292C81.4652 90.2526 61.8077 103.723 52.4721 110.797C27.3138 129.86 21.7746 126.289 16.4209 133.729C11.7094 140.279 24.938 160.27 44.4557 166.215C64.0508 172.183 86.5301 164.284 102.864 137.038" fill="#F9F9F9"/>
<path d="M96.2954 95.9197C80.2172 92.4751 63.0074 105.572 50.7561 114.767C43.6886 119.959 36.1759 124.78 28.0915 128.457C23.5708 130.701 15.8362 132.962 17.8512 139.44C20.9405 149.173 29.5419 156.722 38.4112 161.361C53.4987 169.254 72.0076 166.259 85.2134 155.79C91.9931 150.66 97.7725 144.127 102.854 137.045C98.9646 144.844 93.8224 152.189 87.1246 158.124C69.1652 174.483 42.9737 174.279 25.2493 157.531C19.5996 152.049 13.5192 144.981 13.4072 136.611C13.7561 130.079 21.2242 126.931 26.2995 124.625C34.0482 121.029 41.2422 116.368 48.1991 111.279C61.1426 101.668 80.0008 88.4805 96.9001 93.9501C98.096 94.4059 97.5591 96.2339 96.2932 95.9195L96.2954 95.9197Z" fill="#001F54"/>
<g opacity="0.25">
<path d="M33.0268 144.309C44.0417 150.22 59.5747 134.267 67.7354 127.46C79.7073 117.472 92.6549 120.744 92.5063 138.613C92.5063 138.613 85.0792 155.533 62.4945 157.196C41.2036 158.764 33.0268 144.309 33.0268 144.309Z" fill="#3B0372"/>
</g>
<path d="M33.0212 144.312C39.2403 146.744 45.4999 143.085 50.4966 139.543C55.6655 135.828 60.2774 131.368 65.1724 126.995C68.8977 123.592 73.7982 120.435 79.1266 120.023C84.7804 119.301 90.4549 123.158 91.9587 128.602C93.0453 131.942 93.0258 135.373 92.5007 138.616C91.9653 135.373 91.268 132.191 89.8302 129.495C84.9036 119.843 74.0467 124.293 67.7996 130.046C59.5752 136.777 44.2796 151.292 33.0232 144.314L33.0212 144.312Z" fill="#001F54"/>
<path d="M256.847 178.991C258.148 180.096 258.638 183.348 255.705 185.099C252.758 186.858 247.234 186.009 247.234 186.009C247.234 186.009 247.479 183.035 249.888 180.279C251.816 178.074 255.233 177.62 256.847 178.991Z" fill="#F48990"/>
<path d="M165.459 184.76C164.494 186.17 164.877 189.439 168.164 190.347C171.469 191.259 176.573 188.973 176.573 188.973C176.573 188.973 175.555 186.17 172.509 184.152C170.068 182.537 166.657 183.009 165.459 184.76Z" fill="#F48990"/>
<path d="M115.487 174.469C111.41 167.791 111.386 159.175 113.997 151.757C116.956 143.502 124.506 137.394 132.946 135.901C141.229 134.206 150.003 137.636 155.833 143.316C161.281 148.526 165.151 155.221 166.6 162.613C161.657 157.912 156.557 153.534 150.801 150.408C140.682 144.534 129.595 146.535 122.84 156.348C119.326 161.484 116.902 168.143 115.487 174.469Z" fill="#001F54"/>
<path d="M212.977 159.077C210.24 148.164 211.976 135.615 219.899 126.93C228.003 118.255 242.945 117.282 250.522 127.083C254.1 131.586 255.666 136.634 255.888 142.04C255.95 143.747 255.794 145.483 255.372 147.131C253.77 144.138 252.052 141.498 250.214 139.074C246.92 134.923 243.363 131.05 238.099 130.379C233.452 129.936 228.842 131.977 225.652 135.318C219.491 141.948 216.612 150.295 212.977 159.077Z" fill="#001F54"/>
</svg>
