<svg width="433" height="600" viewBox="0 0 433 600" fill="none" xmlns="http://www.w3.org/2000/svg">
<path d="M58.1081 379.626C70.5762 385.742 74.3561 394.578 74.641 400.356C74.8672 404.931 73.9958 409.497 69.5115 413.585C64.7839 417.895 54.5207 421.757 43.0197 419.291C38.3277 418.285 32.4195 416.592 25.4437 419.023C24.4377 417.694 24.9182 415.756 26.175 413.621C22.4924 412.223 18.0411 411.06 10.9563 410.739C10.8838 410.734 12.1083 391.425 39.3656 379.317C38.0504 375.27 39.9582 372.405 43.4145 371.266C46.6766 378.072 49.7469 375.524 58.1076 379.624L58.1081 379.626Z" fill="#C4612B"/>
<path d="M69.5088 413.583C64.7852 417.891 54.5211 421.758 43.0236 419.289C38.3444 418.291 32.4599 416.598 25.5124 418.997C25.4877 419.002 25.458 419.012 25.4399 419.017C25.2908 418.815 25.1688 418.601 25.084 418.374C24.8566 417.759 24.857 417.059 25.0263 416.297C25.2208 415.467 25.6281 414.561 26.1794 413.621C22.4928 412.225 18.0419 411.055 10.9602 410.737C10.9548 410.717 10.9686 410.309 11.0856 409.593C11.1013 409.475 11.1295 409.346 11.1554 409.201C11.243 408.722 11.374 408.147 11.5469 407.479C11.5846 407.346 11.6182 407.205 11.6613 407.059C11.7528 406.756 11.8466 406.438 11.9557 406.095C12.0018 405.945 12.0574 405.789 12.1129 405.634C12.4746 404.574 12.9465 403.394 13.5599 402.113C16.7642 395.439 23.8504 386.216 39.369 379.313C38.0563 375.268 39.9621 372.404 43.4199 371.261C46.681 378.073 49.7488 375.523 58.116 379.623C68.4333 384.691 72.8013 391.612 74.1564 397.12C74.1564 397.12 74.1597 397.125 74.1662 397.133C74.4491 398.277 74.6034 399.361 74.6474 400.355C74.8686 404.928 74.0017 409.494 69.5148 413.581L69.5088 413.583Z" fill="#C4612B"/>
<path d="M69.5088 413.583C64.7852 417.891 54.5211 421.758 43.0236 419.289C38.3444 418.291 32.4599 416.598 25.5124 418.997C25.4877 419.002 25.458 419.012 25.4399 419.017C25.2908 418.815 25.1688 418.601 25.084 418.374C24.8566 417.759 24.857 417.059 25.0263 416.297C25.2208 415.467 25.6281 414.561 26.1794 413.621C22.4928 412.225 18.0419 411.055 10.9602 410.737C10.9548 410.717 10.9686 410.309 11.0856 409.593C11.1013 409.475 11.1295 409.346 11.1554 409.201C11.243 408.722 11.374 408.147 11.5469 407.479C11.5846 407.346 11.6182 407.205 11.6613 407.059C11.7528 406.756 11.8466 406.438 11.9557 406.095C12.0018 405.945 12.0574 405.789 12.1129 405.634C12.4746 404.574 12.9465 403.394 13.5599 402.113C16.7642 395.439 23.8504 386.216 39.369 379.313C39.3306 379.194 39.2943 379.082 39.263 378.966C38.8346 377.472 38.8624 376.149 39.2472 375.022C39.2772 374.941 39.3028 374.867 39.3328 374.786C39.953 373.216 41.285 372.062 43.0748 371.384C43.189 371.342 43.3026 371.299 43.4219 371.261C46.683 378.072 49.7508 375.523 58.118 379.623C68.4353 384.691 72.8033 391.611 74.1584 397.12C74.1584 397.12 74.1617 397.124 74.1682 397.132C74.4511 398.277 74.6054 399.36 74.6495 400.355C74.7048 401.448 74.6944 402.545 74.5867 403.634C74.2481 407.085 72.9259 410.476 69.5148 413.581L69.5088 413.583Z" fill="#5F5F82"/>
<g opacity="0.4">
<path d="M39.258 378.967C39.2409 379.097 39.2281 379.234 39.2259 379.379C39.2727 379.36 39.3218 379.334 39.3686 379.315C39.3266 379.199 39.2948 379.08 39.258 378.967Z" fill="white"/>
</g>
<g opacity="0.4">
<path d="M74.5801 403.638C73.4797 401.812 72.4329 400.395 71.5272 398.321C69.3447 393.311 64.3951 387.096 58.2593 384.087C50.4928 380.27 46.9901 382.47 42.1055 376.813C40.0611 377.483 39.4386 377.385 39.2603 378.968C38.8319 377.474 38.8598 376.151 39.2446 375.025C39.2746 374.943 39.3001 374.869 39.3301 374.788C39.9504 373.218 41.2824 372.064 43.0722 371.386C43.1834 371.35 43.2955 371.309 43.4168 371.27L43.4192 371.263C46.6804 378.074 49.7481 375.525 58.1154 379.625C68.4327 384.693 72.8007 391.614 74.1557 397.122C74.1557 397.122 74.159 397.126 74.1656 397.135C74.4484 398.279 74.6028 399.363 74.6468 400.357C74.7021 401.45 74.6918 402.548 74.5841 403.637L74.5801 403.638Z" fill="white"/>
</g>
<g opacity="0.4">
<path d="M13.5583 402.112C11.1526 407.117 10.9251 410.676 10.9505 410.738C11.3788 410.757 11.7941 410.784 12.2038 410.806C12.5952 409.438 13.1982 407.748 14.1023 405.851C17.3107 399.176 24.3862 389.954 39.915 383.057C39.4407 381.601 39.186 380.384 39.2227 379.377C23.7985 386.269 16.7544 395.464 13.5597 402.11L13.5583 402.112Z" fill="white"/>
</g>
<path d="M69.5089 413.583C64.7854 417.891 54.5213 421.758 43.0237 419.289C38.3445 418.291 32.4601 416.598 25.5126 418.997C25.4879 419.002 25.4582 419.012 25.4401 419.017C25.2909 418.815 25.169 418.601 25.0842 418.374C24.8568 417.759 24.85 417.057 25.0265 416.297C25.221 415.467 25.6282 414.561 26.1796 413.621C22.4929 412.225 18.042 411.055 10.9603 410.737C10.9549 410.717 10.9688 410.309 11.0858 409.593C11.1015 409.475 11.1297 409.346 11.1556 409.201C11.2432 408.722 11.3741 408.147 11.5471 407.479C11.5848 407.346 11.6184 407.205 11.6614 407.059C11.753 406.756 11.8468 406.438 11.9559 406.095C12.0019 405.945 12.0575 405.789 12.1131 405.634C12.4747 404.574 12.9466 403.394 13.5601 402.113C13.4165 405.551 14.9795 407.056 18.3709 406.754C25.1518 406.151 30.8299 403.85 37.4162 405.276C34.8481 409.521 44.0905 411.899 46.7721 411.269C57.2859 408.802 59.0169 397.588 63.8506 395.012C70.1074 391.68 74.1547 397.13 74.1618 397.132C74.4446 398.276 74.599 399.36 74.643 400.354C74.8641 404.927 73.9973 409.493 69.5104 413.581L69.5089 413.583Z" fill="#515151"/>
<path d="M59.7419 421.514C54.6767 422.871 48.7247 423.239 42.4617 421.899L41.188 421.618C36.8692 420.659 31.9739 419.572 26.3216 421.542C25.2305 421.918 24.0187 421.554 23.3212 420.636C22.486 419.534 21.822 417.781 22.5705 415.207C19.8087 414.377 16.1793 413.646 10.8368 413.404C9.60186 413.348 8.56823 412.448 8.33782 411.234C8.30172 411.043 8.74415 390.934 36.3371 377.782C35.9538 373.643 38.2722 370.159 42.5839 368.738C43.8663 368.334 45.2405 368.909 45.8209 370.116C47.3736 373.356 48.4261 373.633 51.549 374.457C53.5448 374.983 56.029 375.639 59.2859 377.236C75.3415 385.111 77.1389 396.824 77.3079 400.227C77.5082 404.279 77.1051 410.277 71.3122 415.559C68.6083 418.024 64.5824 420.221 59.747 421.517L59.7419 421.514ZM28.152 415.551C33.7359 414.502 38.6083 415.585 42.3441 416.415L43.5787 416.687C53.9133 418.902 63.3346 415.613 67.7163 411.616C70.9459 408.671 72.2221 405.343 71.981 400.486C71.8496 397.82 70.3726 388.609 56.9352 382.019C54.1558 380.656 52.0457 380.099 50.1866 379.608C47.2751 378.839 44.6913 378.158 42.4028 374.848C41.5516 375.709 41.3867 376.915 41.8999 378.492C42.3215 379.791 41.6945 381.199 40.4475 381.751C20.6022 390.567 15.41 403.014 14.0721 408.272C20.3426 408.818 24.3029 410.059 27.1204 411.129C27.8536 411.408 28.4277 411.994 28.6885 412.734C28.9494 413.474 28.8706 414.292 28.4731 414.969C28.3516 415.176 28.2456 415.369 28.1535 415.549L28.152 415.551Z" fill="#001F54"/>
<path d="M41.6056 377.873C42.7253 381.093 43.8345 384.467 45.8217 387.281C42.5431 385.692 39.8329 383.177 37.1253 380.76L41.6051 377.871L41.6056 377.873Z" fill="#001F54"/>
<path d="M24.1221 411.921C27.8962 408.986 32.0566 406.057 36.886 405.489C32.9726 407.606 30.3762 411.584 28.227 415.322L24.1221 411.921Z" fill="#001F54"/>
<path d="M128.052 416.993C125.148 428.361 113.154 446.973 96.4722 439.018C80.9126 429.948 95.8228 406.429 76.7966 396.744C69.0246 393.141 62.8869 396.273 62.7896 400.987C62.6669 406.896 70.1358 406.741 71.9442 413.965C74.4926 425.144 70.8876 440.695 82.8044 452.626C96.1227 466.484 127.057 467.38 143.19 442.333L128.054 416.992L128.052 416.993Z" fill="white"/>
<path d="M64.3726 405.022C66.6313 407.464 70.6758 408.898 71.9419 413.961C74.4917 425.138 70.8822 440.687 82.8081 452.621C96.1238 466.477 127.058 467.375 143.189 442.328L128.055 416.985C126.098 424.633 120.037 435.56 111.198 439.47C106.895 441.375 101.933 441.616 96.4693 439.012C80.9137 429.941 95.8204 406.425 76.7988 396.741C69.0243 393.136 62.8871 396.271 62.7902 400.978C62.7523 402.755 63.3952 403.977 64.3726 405.022Z" fill="white"/>
<path d="M71.9418 413.966C74.4916 425.142 70.8821 440.692 82.808 452.625C96.1237 466.482 127.058 467.379 143.189 442.333L128.055 416.99C126.098 424.638 120.037 435.565 111.198 439.475C111.422 442.026 112.205 445.353 114.428 448.634C118.135 454.104 98.8683 461.292 86.0403 449.393C72.2182 436.564 83.4439 409.852 67.6018 404.442C66.4019 404.034 65.3351 404.259 64.3735 405.022C66.6322 407.464 70.6766 408.898 71.9427 413.962L71.9418 413.966Z" fill="#E8E8E8"/>
<path d="M119.163 463.444C116.827 464.069 114.424 464.506 111.957 464.744C99.9941 465.904 88.0859 461.967 80.8819 454.471C71.7395 445.319 71.0679 434.391 70.4757 424.75C70.2502 421.064 70.0343 417.582 69.3444 414.556C68.6838 411.921 67.0045 410.627 65.0581 409.125C62.8205 407.399 60.0335 405.25 60.1217 400.929C60.1795 398.171 61.6286 395.705 64.096 394.163C67.692 391.917 72.8564 391.978 77.914 394.324C89.351 400.145 90.0566 410.265 90.6789 419.196C91.1981 426.63 91.6462 433.057 97.7161 436.659C102.091 438.715 106.367 438.796 110.423 436.895C117.723 433.477 123.516 423.963 125.464 416.332L130.628 417.65C128.44 426.221 121.891 437.409 112.683 441.72C107.156 444.304 101.156 444.202 95.3205 441.419C95.2537 441.387 95.1883 441.353 95.1245 441.316C86.5284 436.305 85.9072 427.411 85.3599 419.565C84.7592 410.957 84.24 403.523 75.5827 399.114C71.648 397.292 68.5132 397.689 66.9179 398.682C66.261 399.092 65.475 399.833 65.4497 401.036C65.4193 402.535 66.1675 403.248 68.3122 404.901C70.4621 406.558 73.4045 408.827 74.5263 413.312C75.3249 416.817 75.554 420.508 75.7938 424.417C76.3556 433.542 76.9352 442.974 84.6881 450.737C90.8261 457.123 101.063 460.442 111.443 459.433C123.521 458.264 133.997 451.675 140.948 440.884L145.429 443.771C138.988 453.772 129.828 460.582 119.163 463.439L119.163 463.444Z" fill="#001F54"/>
<g opacity="0.3">
<path d="M243.321 600C347.974 600 432.811 590.334 432.811 578.411C432.811 566.488 347.974 556.822 243.321 556.822C138.669 556.822 53.8311 566.488 53.8311 578.411C53.8311 590.334 138.669 600 243.321 600Z" fill="#001F54"/>
</g>
<path d="M286.494 569.434C285.567 569.434 284.644 569.067 283.957 568.34C282.633 566.94 282.696 564.731 284.098 563.409C285.497 562.085 287.712 562.144 289.036 563.546C290.358 564.947 290.3 567.152 288.898 568.474L288.891 568.482C288.215 569.119 287.355 569.434 286.496 569.434H286.494Z" fill="#001F54"/>
<path d="M194.689 565.944L193.962 571.536C193.085 578.25 187.745 583.504 181.016 584.278C165.265 586.087 136.858 588.559 119.03 585.511C107.782 583.592 100.608 579.467 96.0984 575.432C91.0657 570.937 89.7398 563.583 92.8762 557.604L104.021 540.58C104.021 540.58 151.251 527.966 194.689 565.944Z" fill="#5F5F82"/>
<g opacity="0.64">
<path d="M98.354 560.204L111.701 539.245C106.832 539.829 104.024 540.577 104.024 540.577L92.8786 557.6C89.7422 563.579 91.07 570.933 96.1009 575.428C97.2208 576.43 98.5047 577.437 99.9737 578.414C95.7537 573.326 95.4103 566.698 98.3559 560.204H98.354Z" fill="white"/>
</g>
<path d="M385.085 575.432C380.575 579.469 373.402 583.591 362.161 585.511C344.325 588.559 315.918 586.087 300.167 584.278C293.437 583.504 288.104 578.252 287.229 571.536L286.502 565.935C330.738 523.248 382.076 546.96 382.929 547.355L382.937 547.363L388.307 557.6C391.444 563.579 390.124 570.933 385.085 575.428V575.432Z" fill="#5F5F82"/>
<g opacity="0.64">
<path d="M388.31 557.601L382.94 547.364L382.932 547.356C382.762 547.278 380.585 546.273 376.865 545.054L381.221 556.735C383.962 564.09 383.335 572.9 379.83 579.291C381.89 578.045 383.63 576.734 385.088 575.43C390.128 570.935 391.446 563.58 388.31 557.601Z" fill="white"/>
</g>
<path d="M382.931 547.357C382.078 546.962 330.739 523.248 286.503 565.937L281.589 528.296C257.938 519.362 241.128 499.622 236.666 493.966C228.506 507.875 215.598 522.356 196.947 528.976C196.947 528.976 193.101 548.408 194.688 565.945C151.25 527.965 104.02 540.581 104.02 540.581C104.02 540.581 101.145 468.657 118.413 439.572C132.197 416.341 353.077 451.208 353.077 451.208L377.732 537.444L382.929 547.357H382.931Z" fill="white"/>
<g opacity="0.3">
<path d="M387.213 573.084C386.604 573.921 385.893 574.711 385.088 575.43C380.578 579.467 373.404 583.59 362.163 585.509C344.327 588.558 315.92 586.086 300.17 584.277C293.439 583.502 288.107 578.25 287.231 571.535L286.504 565.933L281.59 528.293C257.939 519.358 241.129 499.618 236.667 493.962C228.507 507.872 215.599 522.352 196.948 528.972C196.948 528.972 193.102 548.405 194.689 565.941L193.962 571.533C193.085 578.246 187.745 583.5 181.016 584.275C165.265 586.084 136.858 588.556 119.03 585.507C107.782 583.588 100.608 579.464 96.0982 575.429C92.4162 572.143 90.7182 567.324 91.2963 562.631C96.495 569.377 105.744 576.201 121.97 576.707C154.633 577.726 176.254 576.201 178.671 565.939C181.089 555.677 180.362 521.522 180.362 521.522C180.362 521.522 221.019 486.876 173.767 471.589C152.643 464.755 130.542 458.248 112.547 453.144C114.19 448.041 116.126 443.428 118.418 439.565C130.44 419.294 300.07 443.245 343.177 449.691L291.073 468.373C291.073 468.373 262.636 489.36 294.793 517.458L298.514 538.793C302.825 563.514 324.658 581.53 349.732 580.551C359.985 580.15 372.34 577.949 387.215 573.078L387.213 573.084Z" fill="#001F54"/>
</g>
<path d="M140.06 590.429C132.248 590.429 124.722 590.021 118.441 588.947C108.217 587.201 99.9165 583.529 93.7696 578.029C87.535 572.46 85.8962 563.392 89.7843 555.978C89.8358 555.879 89.893 555.782 89.9541 555.688L101.099 538.665C101.571 537.948 102.29 537.427 103.118 537.206C105.121 536.672 152.655 524.555 196.983 563.316C197.861 564.083 198.297 565.237 198.147 566.393L197.42 571.985C196.334 580.305 189.751 586.783 181.412 587.743C171.123 588.924 155.065 590.431 140.058 590.431L140.06 590.429ZM95.893 559.361C93.5865 563.909 94.6167 569.424 98.4227 572.826C103.578 577.439 110.707 580.549 119.616 582.067C137.109 585.061 165.342 582.563 180.618 580.808C185.767 580.215 189.833 576.216 190.502 571.08L190.985 567.356C153.779 535.853 113.689 542.126 106.166 543.667L95.893 559.359V559.361Z" fill="#001F54"/>
<path d="M356.163 586.986C353.567 577.659 349.486 568.389 343.587 560.628C342.397 559.129 344.509 557.238 345.863 558.597C353.252 566.108 358.695 575.145 362.802 584.842C364.481 589.507 357.535 591.763 356.161 586.986H356.163Z" fill="#001F54"/>
<path d="M107.455 582.031C110.656 573.145 114.806 564.663 120.724 557.287C121.908 555.841 124.167 557.406 123.229 559.02C118.747 566.593 115.95 575.253 114.203 583.819C113.089 588.644 106.034 586.787 107.455 582.029V582.031Z" fill="#001F54"/>
<path d="M341.127 590.43C326.117 590.43 310.061 588.925 299.772 587.742C291.437 586.785 284.857 580.304 283.771 571.986L283.044 566.383C282.903 565.288 283.287 564.191 284.082 563.422C329.551 519.545 382.177 543.159 384.398 544.188C384.741 544.346 385.054 544.558 385.329 544.817C385.609 545.082 385.851 545.399 386.031 545.74L391.401 555.978C395.291 563.395 393.652 572.461 387.416 578.028C381.269 583.528 372.972 587.202 362.752 588.946C356.471 590.02 348.939 590.429 341.129 590.429L341.127 590.43ZM290.191 567.245L290.691 571.087C291.36 576.219 295.422 580.22 300.567 580.811C315.841 582.565 344.077 585.062 361.575 582.07C370.48 580.55 377.608 577.44 382.759 572.829C382.759 572.829 382.761 572.827 382.763 572.825C386.609 569.395 387.618 563.8 385.218 559.221L380.414 550.064C372.922 546.935 329.079 530.967 290.191 567.243V567.245Z" fill="#001F54"/>
<path d="M194.689 569.431C193.861 569.431 193.04 569.137 192.39 568.569C150.954 532.34 105.371 543.828 104.913 543.949C103.893 544.219 102.799 544.012 101.947 543.382C101.096 542.752 100.573 541.772 100.531 540.715C100.413 537.737 97.8163 467.419 115.41 437.785C118.087 433.273 125.676 428.094 160.863 428.094H160.894C181.046 428.094 208.089 429.813 241.267 433.201C297.654 438.957 353.068 447.668 353.621 447.756C354.963 447.967 356.06 448.938 356.432 450.243L380.987 536.136L386.018 545.732C386.712 547.056 386.487 548.676 385.455 549.758C384.423 550.84 382.818 551.147 381.462 550.519C379.421 549.575 330.991 527.847 288.924 568.443C287.976 569.359 286.595 569.662 285.349 569.225C284.105 568.79 283.212 567.691 283.042 566.382L278.395 530.785C258.808 522.797 244.053 507.95 237.08 499.92C229.636 511.337 217.714 524.653 200.032 531.546C199.149 536.777 196.924 551.921 198.165 565.627C198.292 567.046 197.545 568.403 196.274 569.049C195.772 569.305 195.23 569.429 194.69 569.429L194.689 569.431ZM236.664 490.475C237.728 490.475 238.738 490.961 239.403 491.803C243.841 497.427 260.088 516.444 282.821 525.031C284.025 525.487 284.882 526.567 285.048 527.843L289.1 558.871C322.845 530.17 359.32 536.138 375.668 541.022L374.64 539.061C374.529 538.849 374.441 538.628 374.374 538.399L350.334 454.309C339.506 452.641 290.393 445.232 240.533 440.142C136.941 429.569 123.165 438.392 121.412 441.347C107.197 465.292 107.123 520.744 107.401 536.31C119.586 534.213 155.504 531.14 190.82 558.257C190.64 543.081 193.387 528.986 193.525 528.293C193.763 527.086 194.62 526.094 195.78 525.683C214.812 518.928 226.881 503.746 233.655 492.198C234.239 491.204 235.275 490.561 236.425 490.483C236.506 490.477 236.586 490.475 236.664 490.475Z" fill="#001F54"/>
<path d="M235.526 422.232C295.415 422.232 343.964 382.581 343.964 333.67C343.964 284.759 295.415 245.109 235.526 245.109C175.637 245.109 127.087 284.759 127.087 333.67C127.087 382.581 175.637 422.232 235.526 422.232Z" fill="white"/>
<path d="M396.81 347.015C394.685 367.19 375.466 389.34 357.22 402.754C357.977 413.338 358.427 424.793 358.444 437.17V438.134C358.444 438.134 319.832 471.595 235.641 471.595H235.491C151.204 471.555 112.569 438.023 112.569 438.023V437.193C112.6 424.8 113.042 413.321 113.817 402.721C101.525 393.684 88.8 380.675 81.1536 366.977C77.5116 360.452 75.0238 353.761 74.297 347.277C73.9497 344.228 73.9898 341.218 74.4858 338.295C80.07 305.284 111.779 285.046 111.779 285.046C112.743 285.363 114.101 285.829 115.864 286.485C120.794 288.309 128.883 291.603 140.383 297.18C160.835 307.102 192.092 324.267 235.538 353.273C279.007 324.297 310.274 307.181 330.741 297.275C346.492 289.652 355.838 286.311 359.44 285.142C361.739 286.651 391.226 306.58 396.591 338.297C397.073 341.141 397.129 344.055 396.812 347.017L396.81 347.015Z" fill="#5F5F82"/>
<g opacity="0.4">
<path d="M186.049 373.048C199.715 376.763 239.555 385.319 283.375 373.508C284.676 373.157 285.504 374.855 284.42 375.654C269.047 386.984 228.696 413.573 184.929 375.139C183.962 374.29 184.807 372.71 186.049 373.048Z" fill="white"/>
</g>
<g opacity="0.64">
<path d="M115.862 286.482C105.72 294.896 91.3106 309.897 82.3536 332.481C77.7634 344.046 78.3014 356.029 81.1535 366.978C77.5116 360.453 75.0238 353.762 74.297 347.278C73.9497 344.229 73.9898 341.219 74.4858 338.296C80.0699 305.285 111.779 285.048 111.779 285.048C112.743 285.364 114.101 285.83 115.864 286.486L115.862 286.482Z" fill="white"/>
</g>
<g opacity="0.64">
<path d="M355.211 286.482C365.355 294.896 379.762 309.897 388.719 332.481C393.309 344.046 392.771 356.029 389.919 366.978C393.561 360.453 396.049 353.762 396.776 347.278C397.123 344.229 397.083 341.219 396.587 338.296C391.003 305.285 359.294 285.048 359.294 285.048C358.33 285.364 356.972 285.83 355.209 286.486L355.211 286.482Z" fill="white"/>
</g>
<path d="M205.781 404.8C207.626 414.875 204.118 425.558 196.723 432.747C189.342 439.968 178.252 442.513 168.446 440.563C167.895 440.456 167.536 439.924 167.643 439.373C167.725 438.955 168.051 438.646 168.446 438.569C173.061 437.64 177.439 436.505 181.429 434.794C189.518 431.425 195.271 425.236 199.03 417.401C200.957 413.511 202.466 409.224 203.786 404.798C203.996 403.748 205.579 403.741 205.78 404.798L205.781 404.8Z" fill="#001F54"/>
<path d="M361.143 284.61C361.143 284.61 360.582 284.76 359.437 285.138C355.836 286.308 346.491 289.648 330.738 297.272C310.272 307.177 279.007 324.296 235.536 353.27C192.089 324.263 160.832 307.097 140.38 297.176C124.763 289.601 115.434 286.245 111.777 285.043C110.577 284.648 109.983 284.49 109.983 284.49C109.983 284.49 110.069 264.513 141.344 274.172C178.328 285.602 235.543 330.922 235.543 330.929C235.551 330.922 292.806 285.659 329.79 274.268C361.072 264.631 361.143 284.608 361.143 284.608V284.61Z" fill="#5F5F82"/>
<path d="M235.535 344.168C234.859 344.168 234.184 343.972 233.596 343.581C188.79 313.664 157.344 309.286 138.855 300.316C123.261 292.749 113.96 289.434 110.686 288.358C109.664 288.022 109.134 287.875 109.076 287.86C107.55 287.448 106.486 286.057 106.491 284.475C106.491 284.157 106.602 276.626 113.161 271.809C119.516 267.141 129.343 266.815 142.373 270.838C158.04 275.68 178.862 286.818 204.262 303.94C214.101 310.574 222.661 316.807 228.11 320.866C231.58 323.451 233.947 325.216 235.561 326.483C246.712 317.837 295.272 281.247 328.761 270.932C341.793 266.918 351.618 267.252 357.973 271.924C364.529 276.745 364.63 284.277 364.632 284.593C364.637 286.177 363.577 287.564 362.048 287.976C361.991 287.991 361.491 288.131 360.534 288.447C357.271 289.506 348.03 292.778 332.258 300.409C313.718 309.381 282.222 313.748 237.469 343.579C236.883 343.97 236.208 344.164 235.535 344.164V344.168ZM113.953 282.094C118.604 283.683 127.704 287.15 141.902 294.039C160.32 302.973 191.426 307.151 235.537 336.487C270.941 312.978 302.451 307.086 329.217 294.131C343.781 287.081 353.021 283.628 357.176 282.213C356.691 280.747 355.718 278.901 353.759 277.491C349.333 274.303 341.4 274.343 330.816 277.603C294.82 288.689 238.646 332.924 237.717 333.658C236.7 334.471 235.308 334.652 234.111 334.114C233.829 333.986 233.568 333.826 233.335 333.635C232.103 332.655 176.341 288.644 140.311 277.508C129.73 274.24 121.796 274.194 117.368 277.378C115.41 278.786 114.435 280.629 113.949 282.092L113.953 282.094Z" fill="#001F54"/>
<path d="M354.255 460.352C315.263 494.178 235.481 492.417 235.481 492.417C235.481 492.417 155.707 494.107 116.738 460.244C110.686 454.974 108.847 445.67 112.472 438.205C112.505 438.142 112.535 438.079 112.568 438.023C112.568 438.023 151.202 471.557 235.489 471.595C319.783 471.635 358.443 438.134 358.443 438.134C358.475 438.197 358.506 438.26 358.538 438.323C362.155 445.788 360.316 455.093 354.257 460.354L354.255 460.352Z" fill="white"/>
<g opacity="0.3">
<path d="M112.473 447.347C112.506 447.284 112.536 447.221 112.569 447.166C112.569 447.166 151.204 480.699 235.49 480.737C319.784 480.777 358.444 447.276 358.444 447.276C358.476 447.339 358.507 447.402 358.539 447.465C359.1 448.623 359.514 449.829 359.817 451.054C360.838 446.889 360.485 442.343 358.539 438.325C358.507 438.262 358.476 438.199 358.444 438.136C358.444 438.136 319.784 471.637 235.49 471.597C151.204 471.557 112.569 438.025 112.569 438.025C112.536 438.081 112.506 438.144 112.473 438.207C110.522 442.226 110.167 446.776 111.189 450.947C111.493 449.718 111.911 448.509 112.473 447.349V447.347Z" fill="#001F54"/>
</g>
<path d="M238.03 495.927C236.708 495.927 235.838 495.914 235.48 495.906C231.214 495.99 153.719 497.003 114.449 462.877C107.184 456.55 105.034 445.533 109.334 436.679C109.42 436.507 109.479 436.393 109.538 436.29C110.055 435.383 110.954 434.756 111.982 434.58C113.014 434.407 114.065 434.7 114.853 435.385C115.227 435.708 153.708 468.066 235.489 468.104H235.634C317.332 468.104 355.78 435.816 356.159 435.49C356.972 434.79 358.063 434.504 359.12 434.712C360.173 434.922 361.074 435.603 361.556 436.562L361.656 436.761C365.971 445.661 363.811 456.674 356.541 462.987C320.543 494.216 252.474 495.927 238.028 495.927H238.03ZM235.48 488.926C235.504 488.926 235.531 488.926 235.556 488.926C236.342 488.943 314.453 490.25 351.966 457.716C355.78 454.406 357.506 448.952 356.665 443.867C344.636 452.355 305.868 475.081 235.638 475.081H235.485C165.156 475.048 126.356 452.256 114.331 443.755C113.491 448.828 115.214 454.29 119.028 457.609C156.541 490.21 234.619 488.947 235.405 488.926C235.43 488.926 235.453 488.926 235.48 488.926Z" fill="#001F54"/>
<path d="M235.536 344.739C234.86 344.739 234.185 344.542 233.597 344.151C191.031 315.731 160.523 311.015 141.728 301.722C139.539 305.646 135.298 314.113 130.92 327.618C130.327 329.452 128.36 330.455 126.525 329.862C124.691 329.267 123.688 327.3 124.281 325.466C130.916 304.998 137.227 295.604 137.492 295.213C138.465 293.782 140.343 293.282 141.899 294.037C160.317 302.972 191.424 307.722 235.534 337.058C270.938 313.548 302.448 307.085 329.214 294.129C330.771 293.375 332.648 293.877 333.621 295.308C333.886 295.697 340.168 305.066 346.775 325.468C347.37 327.302 346.365 329.269 344.531 329.862C342.704 330.455 340.731 329.452 340.138 327.616C335.782 314.168 331.566 305.73 329.384 301.812C310.54 311.106 279.987 315.809 237.47 344.149C236.883 344.54 236.209 344.735 235.534 344.735L235.536 344.739Z" fill="#001F54"/>
<path d="M235.637 475.084H235.489C191.037 475.063 160.932 465.629 146.01 447.045C133.405 431.346 136.801 415.114 136.951 414.431C137.127 413.636 137.575 412.928 138.218 412.428C171.425 386.608 172.432 365.065 172.438 364.851C172.472 363.707 173.066 362.637 174.027 362.013C174.987 361.389 176.195 361.263 177.253 361.698C190.791 367.259 210.399 370.085 235.533 370.098H235.693C260.752 370.098 280.305 367.292 293.819 361.753C294.886 361.314 296.101 361.433 297.066 362.072C298.03 362.709 298.616 363.781 298.631 364.935C298.637 365.124 299.625 386.667 332.813 412.52C333.454 413.019 333.902 413.729 334.076 414.523C334.226 415.206 337.613 431.441 324.993 447.129C310.072 465.676 280.005 475.084 235.639 475.084H235.637ZM143.585 417.087C143.142 420.654 142.656 431.821 151.561 442.811C164.952 459.339 193.973 468.086 235.493 468.105H235.632C277.077 468.105 306.054 459.388 319.443 442.892C328.35 431.916 327.879 420.759 327.438 417.173C301.22 396.406 294.21 378.095 292.335 369.764C278.286 374.617 259.264 377.075 235.691 377.075H235.529C211.88 377.063 192.804 374.589 178.728 369.709C176.847 378.04 169.823 396.343 143.587 417.085L143.585 417.087Z" fill="#001F54"/>
<path d="M267.251 404.832C270.799 417.359 276.952 429.775 289.585 434.85C293.575 436.567 297.955 437.707 302.572 438.64C303.638 438.833 303.638 440.453 302.564 440.632C286.861 443.769 271.013 435.34 266.266 419.69C265.507 417.267 265.042 414.782 264.847 412.298C264.67 409.8 264.723 407.341 265.259 404.832C265.377 404.283 265.917 403.932 266.467 404.05C266.875 404.138 267.163 404.453 267.253 404.834L267.251 404.832Z" fill="#001F54"/>
<path d="M140.36 418.666C140.325 418.666 140.293 418.666 140.26 418.666C133.215 418.467 122.821 413.681 111.748 405.53C110.197 404.388 109.864 402.203 111.006 400.652C112.149 399.099 114.333 398.767 115.885 399.91C125.547 407.022 134.962 411.536 140.455 411.691C142.382 411.744 143.898 413.351 143.845 415.277C143.792 417.17 142.241 418.668 140.36 418.668V418.666Z" fill="#001F54"/>
<path d="M175.929 368.412C174.714 368.412 173.531 367.775 172.89 366.642C161.195 345.977 141.158 335.211 126.407 329.818C124.596 329.156 123.665 327.153 124.327 325.342C124.989 323.533 126.995 322.602 128.803 323.263C144.655 329.058 166.224 340.69 178.965 363.202C179.915 364.879 179.323 367.008 177.646 367.958C177.103 368.265 176.513 368.412 175.931 368.412H175.929Z" fill="#001F54"/>
<path d="M114.853 322.806C119.487 322.571 124.155 322.811 128.801 323.267C130.756 323.466 132.181 325.211 131.985 327.167C131.664 329.937 128.751 331.131 126.405 329.821C122.494 328.23 118.377 326.772 114.302 325.746C112.495 325.236 113.006 322.678 114.853 322.806Z" fill="#001F54"/>
<path d="M235.64 475.085H235.488C150.873 475.045 111.899 442.063 110.281 440.659C109.518 439.995 109.079 439.034 109.079 438.023C109.087 426.465 109.464 415.156 110.201 404.379C87.7022 387.321 67.1953 360.474 71.0452 337.714C76.8221 303.569 108.554 282.966 109.901 282.106C110.785 281.543 111.874 281.406 112.866 281.732C117.099 283.123 126.503 286.57 141.905 294.041C160.323 302.975 191.429 306.199 235.539 335.536C270.944 312.026 302.453 307.089 329.22 294.133C345.381 286.313 354.983 282.919 358.361 281.822C359.365 281.493 360.468 281.642 361.353 282.222C364.726 284.435 394.463 304.801 400.03 337.712C403.885 360.478 383.357 387.34 360.832 404.409C361.57 415.297 361.94 426.633 361.933 438.135C361.933 439.146 361.492 440.108 360.729 440.77C359.111 442.172 320.158 475.083 235.642 475.083L235.64 475.085ZM116.06 436.34C123.162 441.726 161.698 468.072 235.49 468.107H235.635C309.335 468.107 347.836 441.832 354.95 436.449C354.92 425.021 354.512 413.776 353.737 403.005C353.651 401.809 354.185 400.653 355.151 399.943C375.854 384.726 396.575 359.126 393.148 338.878C388.56 311.745 364.94 293.324 358.894 289.005C354.687 290.462 345.925 293.801 332.261 300.415C313.721 309.387 282.225 312.8 237.472 342.631C236.301 343.413 234.772 343.413 233.599 342.631C188.793 312.715 157.346 309.29 138.858 300.32C125.332 293.759 116.54 290.391 112.311 288.913C106.364 293.144 82.5378 311.621 77.9248 338.878C74.5022 359.12 95.2018 384.705 115.882 399.91C116.848 400.622 117.382 401.778 117.296 402.976C116.518 413.639 116.104 424.855 116.062 436.342L116.06 436.34Z" fill="#001F54"/>
<path d="M330.713 418.666C328.832 418.666 327.281 417.168 327.228 415.276C327.175 413.349 328.691 411.744 330.616 411.689C336.107 411.534 345.506 407.032 355.15 399.941C356.703 398.798 358.888 399.132 360.029 400.685C361.171 402.238 360.837 404.422 359.285 405.563C348.233 413.692 337.856 418.467 330.815 418.666C330.78 418.666 330.748 418.666 330.713 418.666Z" fill="#001F54"/>
<path d="M359.434 288.626C358.768 288.626 358.097 288.438 357.501 288.041L357.379 287.959C355.769 286.9 355.323 284.738 356.38 283.128C357.438 281.518 359.6 281.07 361.21 282.127L361.372 282.233C362.975 283.302 363.408 285.469 362.34 287.072C361.666 288.081 360.56 288.626 359.434 288.626Z" fill="#001F54"/>
<path d="M295.142 368.411C294.559 368.411 293.969 368.264 293.427 367.957C291.75 367.007 291.161 364.878 292.109 363.201C304.847 340.693 326.413 329.059 342.263 323.264C344.071 322.602 346.076 323.533 346.738 325.343C347.401 327.154 346.469 329.157 344.659 329.819C329.912 335.212 309.876 345.978 298.183 366.639C297.542 367.772 296.359 368.409 295.144 368.409L295.142 368.411Z" fill="#001F54"/>
<path d="M356.861 326.234C352.484 327.149 348.052 328.569 343.834 330.124C338.79 331.673 337.041 324.078 342.262 323.269C347.045 322.8 351.849 322.557 356.622 322.826C358.623 322.945 358.81 325.846 356.862 326.234H356.861Z" fill="#001F54"/>
<g opacity="0.3">
<path d="M357.217 402.755C357.974 413.34 358.424 424.794 358.441 437.172C312.278 470.009 239.431 471.533 235.638 471.596H235.488C235.488 471.596 159.979 470.894 112.566 437.195C112.597 424.802 113.039 413.322 113.814 402.723C95.6613 389.372 76.5528 367.365 74.2939 347.278C78.8288 356.686 87.0113 367.421 101.413 378.322C142.742 409.604 163.676 391.783 164.378 391.165C164.361 391.192 164.319 391.253 164.252 391.35C151.464 409.961 159.576 435.737 180.85 443.305C213.647 454.973 255.998 455.054 289.791 442.735C310.804 435.075 319.051 409.766 306.608 391.182L306.597 391.165C307.301 391.781 328.233 409.602 369.562 378.322C384.097 367.325 392.297 356.487 396.807 347.017C394.682 367.192 375.463 389.341 357.217 402.755Z" fill="#4C4C7F"/>
</g>
<path d="M246.961 289.115C246.013 289.1 245.058 289.074 244.11 289.051C241.323 288.996 238.528 288.965 235.749 289.068C231.967 289.219 228.241 289.314 224.577 289.354H224.529C200.808 289.593 179.738 287.458 161.726 282.744C120.837 272.09 95.7297 248.193 91.1908 208.817C89.4779 193.99 90.6893 176.973 95.0682 157.64C95.4114 156.143 95.768 154.637 96.3179 153.196C117.961 -11.4842 341.979 -12.2807 368.082 149.247C368.759 153.419 370.057 157.488 370.702 161.668C382.719 238.629 363.775 288.731 246.96 289.115H246.961Z" fill="white"/>
<g opacity="0.6">
<path d="M97.3311 170.535C97.671 169.039 98.031 167.532 98.5791 166.096C120.219 1.40948 344.243 0.616343 370.347 162.14C370.693 164.281 371.202 166.396 371.703 168.51C371.4 166.253 371.07 163.972 370.71 161.664C370.059 157.485 368.764 153.416 368.089 149.24C341.987 -12.2837 117.961 -11.4889 96.3214 153.196C95.7732 154.632 95.4116 156.139 95.0734 157.635C89.4365 182.504 89.0632 203.533 93.3821 220.999C91.7925 206.339 93.0172 189.563 97.3311 170.535Z" fill="white"/>
</g>
<g opacity="0.2">
<path d="M246.961 265.483C243.225 265.409 239.478 265.308 235.746 265.443C151.307 268.487 97.5307 246.238 91.1073 191.58C83.7075 263.5 140.03 292.549 235.746 289.097C239.478 288.962 243.225 289.062 246.961 289.137C352.166 288.823 377.978 251.79 373.299 193.249C369.012 237.935 337.183 265.214 246.961 265.483Z" fill="#001F54"/>
</g>
<path d="M220.94 293.351C165.841 293.351 127.127 280.351 105.733 254.626C86.5845 231.6 81.6907 198.673 91.1916 156.759C91.5199 155.311 91.8848 153.776 92.4346 152.24C97.6666 113.15 114.584 80.4331 141.374 57.6072C165.544 37.0158 196.926 25.4071 229.74 24.9222C262.743 24.4373 294.742 35.1913 319.844 55.2112C347.693 77.4239 365.737 109.719 372.02 148.611C372.329 150.519 372.779 152.417 373.257 154.426C373.763 156.564 374.288 158.775 374.645 161.056C381.826 207.083 376.984 237.037 358.945 258.18C339.054 281.494 302.428 292.914 246.979 293.096C246.947 293.096 246.912 293.096 246.879 293.094L245.744 293.069C242.498 292.996 239.139 292.921 235.908 293.049C230.795 293.251 225.802 293.352 220.942 293.352L220.94 293.351ZM231.839 32.8685C231.176 32.8685 230.516 32.8735 229.856 32.8835C173.148 33.7216 111.085 71.4104 100.269 153.72C100.229 154.028 100.153 154.331 100.041 154.621C99.5811 155.822 99.2662 157.15 98.9563 158.518C90.0319 197.892 94.3725 228.514 111.855 249.534C131.663 273.352 168.292 285.389 220.832 285.391C225.623 285.391 230.536 285.291 235.592 285.091C239.071 284.955 242.555 285.033 245.922 285.108L247 285.131C299.964 284.951 334.598 274.444 352.885 253.009C369.283 233.791 373.567 205.81 366.775 162.282C366.467 160.31 366 158.343 365.507 156.264C365.017 154.204 364.512 152.073 364.157 149.88C351.059 68.8311 288.618 32.8702 231.838 32.8702L231.839 32.8685Z" fill="#001F54"/>
<path d="M173.359 197.479C181.861 197.479 188.754 189.318 188.754 179.25C188.754 169.183 181.861 161.022 173.359 161.022C164.857 161.022 157.965 169.183 157.965 179.25C157.965 189.318 164.857 197.479 173.359 197.479Z" fill="#001F54"/>
<path d="M178.933 187.041C180.846 187.041 182.397 184.258 182.397 180.824C182.397 177.391 180.846 174.608 178.933 174.608C177.02 174.608 175.469 177.391 175.469 180.824C175.469 184.258 177.02 187.041 178.933 187.041Z" fill="white"/>
<path d="M286.411 197.479C294.913 197.479 301.805 189.318 301.805 179.25C301.805 169.183 294.913 161.022 286.411 161.022C277.909 161.022 271.017 169.183 271.017 179.25C271.017 189.318 277.909 197.479 286.411 197.479Z" fill="#001F54"/>
<path d="M280.838 187.041C282.751 187.041 284.302 184.258 284.302 180.824C284.302 177.391 282.751 174.608 280.838 174.608C278.925 174.608 277.374 177.391 277.374 180.824C277.374 184.258 278.925 187.041 280.838 187.041Z" fill="white"/>
<path d="M346.233 272.081C346.233 272.081 324.901 289.867 234.57 312.88C217.57 311.123 173.058 296.78 125.416 272.081C107.893 262.123 92.8883 237.045 102.714 222.737C111.61 214.8 149.836 190.877 227.483 190.877C307.039 190.877 355.003 208.218 363.891 216.155C379.058 239.716 346.233 272.081 346.233 272.081Z" fill="#FFD8BE"/>
<path d="M359.067 252.576C358.277 255.961 356.773 259.314 354.396 262.588C335.239 282.995 268.34 303.628 234.345 303.628C190.816 303.043 131.624 279.819 114.3 262.59C111.924 259.316 110.419 255.968 109.63 252.578C131.712 274.812 189.336 288.141 234.345 288.747C279.353 288.141 340.33 273.244 359.067 252.576Z" fill="#FFB6B8"/>
<path d="M197.332 215.628C197.81 213.91 195.325 211.814 191.783 210.946C188.24 210.078 184.982 210.767 184.504 212.485C184.027 214.203 186.511 216.299 190.054 217.167C193.596 218.035 196.855 217.346 197.332 215.628Z" fill="#FFB6B8"/>
<path d="M176.816 212.988C174.548 206.413 180.611 200.269 187.768 200.264C194.401 200.236 200.308 204.024 203.367 209.256C200.598 207.995 198.03 206.832 195.439 205.964C187.497 203.075 179.434 204.455 176.816 212.988Z" fill="#001F54"/>
<path d="M278.151 217.167C281.693 216.299 284.178 214.203 283.7 212.485C283.223 210.767 279.964 210.078 276.422 210.946C272.879 211.814 270.395 213.91 270.872 215.628C271.35 217.346 274.609 218.035 278.151 217.167Z" fill="#FFB6B8"/>
<path d="M291.385 212.988C288.764 204.45 280.702 203.077 272.761 205.965C270.171 206.833 267.603 207.995 264.834 209.257C267.893 204.024 273.8 200.237 280.432 200.264C287.588 200.266 293.655 206.417 291.385 212.988Z" fill="#001F54"/>
<path d="M388.214 191.585C388.182 192.926 388.126 194.258 388.047 195.599C286.593 131.687 184.254 127.341 80.8318 195.599C79.4222 170.507 85.2107 145.842 95.4031 122.974C100.523 111.477 106.759 100.445 113.75 90.0359C128.88 67.4916 147.568 47.9116 166.202 33.0787C191.189 13.1754 216.073 1.81995 232.15 3.31957C277.507 -0.772722 390.873 91.4639 388.214 191.587V191.585Z" fill="#5F5F82"/>
<g opacity="0.6">
<path d="M80.7959 194.629C80.8109 194.954 80.8142 195.277 80.8326 195.6C91.9747 188.247 103.103 181.741 114.222 176.055C103.092 181.414 91.9497 187.601 80.7959 194.627V194.629Z" fill="white"/>
<path d="M232.151 3.31931C222.414 2.41121 209.442 6.22688 195.176 13.7949C206.764 8.47297 217.223 5.90364 225.401 6.66511C270.248 2.61782 381.571 92.7512 381.493 191.564C383.679 192.885 385.863 194.223 388.048 195.6C388.128 194.258 388.183 192.927 388.214 191.586C390.874 91.4632 277.508 -0.772972 232.151 3.31931Z" fill="white"/>
</g>
<path d="M388.047 198.787C387.455 198.787 386.867 198.622 386.349 198.297C281.754 132.402 182.392 132.39 82.5891 198.26C81.6377 198.887 80.423 198.958 79.4049 198.447C78.3869 197.935 77.7187 196.917 77.6554 195.779C76.0658 167.398 83.219 138.049 98.9133 108.546C115.726 76.9442 137.823 53.6801 153.403 39.7287C182.354 13.8019 212.826 -1.43923 232.14 0.12204C252.948 -1.59252 285.701 14.865 316.705 42.8112C366.315 87.5299 394.173 144.715 391.227 195.784C391.163 196.909 390.508 197.917 389.506 198.432C389.048 198.668 388.546 198.785 388.048 198.785L388.047 198.787ZM232.703 142.841C233.541 142.841 234.374 142.844 235.212 142.854C284.36 143.376 334.745 159.232 385.057 189.999C385.691 142.233 358.861 89.3911 312.437 47.545C284.59 22.443 254.692 6.57207 235.645 6.36546C235.189 6.61539 234.666 6.75869 234.112 6.75869H230.132C229.587 6.75869 229.072 6.62039 228.622 6.37879C211.04 6.70704 183.475 21.35 157.652 44.4758C139.768 60.4901 82.7341 117.396 83.8188 189.867C132.701 158.652 182.754 142.841 232.704 142.841H232.703Z" fill="#001F54"/>
<path d="M367.841 127.9L371.697 121.11C411.77 51.2347 343.126 -1.24011 291.684 37.9931C287.987 40.8124 283.749 42.6836 279.285 43.42L274.658 44.1832C268.825 69.8565 312.88 127.902 367.841 127.902V127.9Z" fill="#5F5F82"/>
<g opacity="0.6">
<path d="M276.53 55.4792C276.48 52.45 278.654 49.834 281.672 49.3374C286.136 48.601 290.373 46.7314 294.07 43.9105C326.777 18.9669 366.426 31.1005 380.678 61.201C369.076 26.8649 326.453 11.4755 291.681 37.9954C287.983 40.8146 283.746 42.6858 279.282 43.4223L274.655 44.1854C273.197 50.6038 274.857 59.0449 279.026 68.0959C277.456 63.5771 276.595 59.3049 276.531 55.4792H276.53Z" fill="white"/>
</g>
<g opacity="0.2">
<path d="M344.906 26.7932C367.778 42.2975 378.714 75.509 356.631 114.014C354.172 118.345 349.356 120.886 344.368 120.352C341.76 120.072 339.182 119.668 336.64 119.148C335.205 118.854 334.568 120.876 335.923 121.427C343.305 124.435 351.117 126.539 359.225 127.427C364.287 127.982 369.199 125.506 371.696 121.111C398.215 74.8691 377.117 36.2574 344.907 26.7932H344.906Z" fill="#001F54"/>
</g>
<path d="M190.998 41.5337C190.998 61.6968 182.311 79.2973 168.791 93.8069C151.735 112.117 126.978 125.499 102.301 132.895L97.7709 126.452C96.9428 125.292 96.1546 124.134 95.4065 122.974C68.2452 81.4801 85.0942 43.7798 115.226 31.0298C130.196 24.6814 148.448 24.5081 166.205 33.0792C168.474 34.1756 170.744 35.422 172.99 36.8099C177.027 39.3093 181.534 40.8156 186.185 41.1622L191.002 41.5321L190.998 41.5337Z" fill="#5F5F82"/>
<g opacity="0.6">
<path d="M114.902 38.1304C129.871 31.7821 148.123 31.6088 165.881 40.1799C168.15 41.2763 170.419 42.5226 172.665 43.9106C176.703 46.4099 181.21 47.9162 185.86 48.2628C188.54 48.4694 190.876 46.4299 190.964 43.7706C190.989 43.0292 191.001 42.2843 191.001 41.5362L186.184 41.1663C181.533 40.8197 177.026 39.3135 172.989 36.8141C170.743 35.4261 168.473 34.1798 166.204 33.0834C148.447 24.5123 130.196 24.6856 115.225 31.0339C95.4337 39.4084 81.374 58.5485 81.7506 82.4573C83.955 61.8876 97.1116 45.6601 114.904 38.1304H114.902Z" fill="white"/>
</g>
<path d="M274.139 41.0383C275.252 40.8667 277.636 40.4335 278.684 40.2669C282.732 39.5837 286.516 37.8591 289.781 35.3565L292.372 33.4636C314.918 17.1995 346.27 16.7413 367.451 35.6531C395.044 60.1817 390.219 101.566 369.367 128.767C368.113 130.427 365.522 128.972 366.307 127.043C367.91 123.24 369.819 119.553 371.527 115.966C376.709 105.325 380.535 93.7097 380.753 81.8695C381.744 58.0673 366.267 35.6764 343.024 29.6263C327.961 25.469 311.619 28.8181 298.541 37.186C294.99 39.3988 291.757 42.3363 287.903 44.0759C283.984 46.027 279.466 46.6835 275.175 47.325C271.056 47.8782 270.001 41.8748 274.139 41.04V41.0383Z" fill="#001F54"/>
<path d="M190.759 44.7083C189.611 44.64 187.168 44.4417 186.087 44.3751C180.905 44.0302 175.815 42.3639 171.396 39.653C170.116 38.8665 167.507 37.4002 166.172 36.7154C144.979 25.5749 117.703 27.5978 100.289 44.685C82.0922 61.9455 80.8942 88.8053 91.5931 110.551C95.0306 118.026 99.7127 124.628 103.74 131.882C104.746 133.672 102.259 135.485 100.866 133.907C98.0914 130.766 95.4938 127.557 92.9944 124.055C71.8999 93.9806 72.9313 52.6896 106.246 32.0149C125.091 20.3163 149.79 20.6529 169.14 30.9102C172.754 32.7131 176.081 35.2341 179.802 36.5221C183.391 37.9084 187.442 38.0567 191.241 38.3583C195.383 38.8149 194.973 44.8716 190.759 44.71V44.7083Z" fill="#001F54"/>
<g opacity="0.2">
<path d="M388.214 191.539C388.182 192.897 388.129 194.245 388.051 195.603C288.611 130.89 188.306 126.489 86.9389 195.603C85.5576 170.196 91.2311 145.221 101.222 122.067C74.6003 80.0527 91.1145 41.8791 120.647 28.969L123.715 29.9354C110.891 36.682 103.258 52.4514 105.779 66.9743C107.285 75.6371 112.342 83.4468 119.202 88.7155C123.846 92.2763 129.316 94.679 135.093 95.4138C147.05 96.9234 158.961 91.908 170.994 92.3879C171.712 92.4196 172.431 92.4679 173.149 92.5312C185.682 93.6809 197.164 100.348 209.003 104.963C234.4 114.856 262.286 115.422 288.626 122.217C328.368 132.476 364.082 157.708 388.214 191.538V191.539Z" fill="#001F54"/>
</g>
<path d="M244.844 130.537C237.383 130.6 229.914 130.6 222.453 130.537C142.857 129.851 35.4621 194.441 80.7856 260.806C88.3821 271.925 98.5595 280.409 110.002 285.771C147.834 303.49 185.721 329.667 223.648 339.571C230.233 341.283 237.066 341.283 243.651 339.571C281.578 329.667 319.465 303.49 357.297 285.771C368.739 280.409 378.917 271.925 386.513 260.806C431.838 194.441 324.444 129.851 244.846 130.537H244.844ZM359.803 256.09C353.56 264.038 345.192 270.11 335.788 273.936C304.669 286.599 273.518 303.889 242.336 310.962C236.921 312.192 231.301 312.192 225.894 310.962C194.703 303.889 163.553 286.599 132.443 273.936C123.038 270.112 114.662 264.04 108.419 256.09C71.1531 208.667 159.461 162.504 224.907 162.994C231.046 163.041 237.186 163.041 243.318 162.994C308.773 162.506 397.072 208.667 359.807 256.09H359.803Z" fill="#5F5F82"/>
<g opacity="0.6">
<path d="M222.452 138.949C229.914 139.012 237.382 139.012 244.843 138.949C309.602 138.391 392.757 181.04 397.103 232.7C401.757 177.344 313.086 129.95 244.843 130.538C237.382 130.601 229.914 130.601 222.452 130.538C154.209 129.95 65.5386 177.344 70.1925 232.7C74.538 181.042 157.694 138.391 222.452 138.949Z" fill="white"/>
</g>
<g opacity="0.2">
<path d="M386.512 245.035C378.915 256.154 368.738 264.638 357.296 270C319.464 287.719 281.577 301.496 243.649 311.4C237.064 313.111 230.231 313.111 223.646 311.4C185.719 301.496 147.832 287.719 110 270C98.5579 264.638 88.3805 256.154 80.7841 245.035C75.1772 236.827 71.9114 228.646 70.6367 220.611C68.6005 233.565 71.4565 247.148 80.7841 260.806C88.3805 271.925 98.5579 280.409 110 285.771C147.832 303.49 185.719 328.904 223.646 338.808C230.231 340.52 237.064 340.52 243.649 338.808C281.577 328.904 319.464 303.49 357.296 285.771C368.738 280.409 378.915 271.925 386.512 260.806C395.839 247.148 398.693 233.566 396.659 220.611C395.384 228.646 392.118 236.827 386.512 245.035Z" fill="#001F54"/>
</g>
<path d="M234.111 315.828C231.108 315.828 228.104 315.497 225.185 314.835C193.884 307.735 162.276 289.523 131.237 276.886C121.105 272.76 112.347 266.252 105.912 258.061C95.4627 244.761 93.5715 230.326 100.445 216.316C107.99 200.939 125.895 186.486 150.864 175.618C174.354 165.394 201.324 159.641 224.93 159.806C231.022 159.851 237.2 159.851 243.294 159.806C266.851 159.626 293.869 165.394 317.36 175.618C342.328 186.486 360.232 200.939 367.777 216.316C374.65 230.326 372.759 244.761 362.31 258.059C355.875 266.25 347.117 272.759 336.985 276.884C305.948 289.521 274.339 307.732 243.037 314.834C240.118 315.495 237.113 315.827 234.111 315.827V315.828ZM223.877 166.172C201.396 166.172 175.776 171.723 153.405 181.46C129.821 191.724 113.043 205.101 106.163 219.124C100.361 230.948 101.963 242.725 110.922 254.125C116.676 261.446 124.53 267.277 133.64 270.986C164.359 283.493 195.632 301.599 226.594 308.622C231.512 309.736 236.71 309.736 241.629 308.622C272.591 301.599 303.867 283.493 334.584 270.986C343.693 267.277 351.548 261.446 357.301 254.125C366.259 242.725 367.86 230.948 362.058 219.124C355.178 205.101 338.401 191.726 314.817 181.46C292.448 171.724 266.826 166.172 244.345 166.172C244.008 166.172 243.675 166.172 243.339 166.176C237.215 166.221 231.003 166.221 224.882 166.176C224.547 166.172 224.212 166.172 223.877 166.172Z" fill="#001F54"/>
<path d="M233.649 344.799C230.015 344.799 226.381 344.339 222.846 343.416C184.798 333.487 146.376 306.326 108.649 288.654C96.4319 282.931 85.8879 273.923 78.1548 262.601C64.5349 242.659 63.1936 221.138 74.2758 200.365C84.9564 180.345 106.858 161.666 135.942 147.772C163.598 134.56 195.118 127.125 222.482 127.35C229.891 127.413 237.406 127.413 244.818 127.35C272.147 127.105 303.701 134.56 331.356 147.772C360.442 161.666 382.343 180.343 393.022 200.365C404.104 221.138 402.762 242.659 389.143 262.601C381.41 273.923 370.866 282.932 358.65 288.654C320.923 306.326 282.501 333.485 244.451 343.416C240.917 344.339 237.283 344.799 233.649 344.799ZM221.142 133.717C164.585 133.717 100.139 165.415 79.8944 203.364C69.8586 222.174 71.0433 240.896 83.4135 259.008C90.5034 269.389 100.163 277.647 111.348 282.886C148.725 300.393 186.779 327.42 224.453 337.251C230.468 338.82 236.826 338.82 242.841 337.251C280.515 327.418 318.571 300.393 355.946 282.886C367.132 277.645 376.791 269.389 383.881 259.008C396.251 240.896 397.436 222.174 387.4 203.364C367.157 165.419 302.708 133.717 246.152 133.717C245.721 133.717 245.299 133.718 244.869 133.722C237.423 133.787 229.871 133.787 222.425 133.722C221.998 133.718 221.568 133.717 221.14 133.717H221.142Z" fill="#001F54"/>
<g opacity="0.3">
<path d="M230.76 4.84682C212.493 3.8804 194.318 16.0872 188.467 33.2511C187.973 34.7041 187.536 36.2237 186.561 37.4134C184.95 39.3779 182.136 40.0377 179.601 39.7095C177.069 39.3812 174.734 38.2165 172.455 37.0718C170.535 36.1071 168.308 34.5991 168.591 32.4863C168.729 31.4566 169.466 30.6152 170.182 29.857C185.055 14.1194 206.314 4.47691 228.062 3.60547" fill="#001F54"/>
</g>
<path d="M212.409 379.67C209.873 379.67 207.817 377.614 207.817 375.078C207.817 337.388 213.312 327.003 213.937 325.945C215.227 323.763 218.04 323.037 220.224 324.326C222.377 325.597 223.109 328.354 221.893 330.524C221.702 330.907 216.999 340.767 216.999 375.078C216.999 377.614 214.943 379.67 212.407 379.67H212.409Z" fill="#EEEEEE"/>
<path d="M212.408 381.321C208.968 381.321 206.169 378.522 206.169 375.08C206.169 337.728 211.457 326.897 212.518 325.104C214.266 322.144 218.1 321.155 221.065 322.905C223.961 324.618 224.979 328.395 223.334 331.329C223.323 331.354 218.65 341.16 218.65 375.078C218.65 378.518 215.851 381.319 212.41 381.319L212.408 381.321ZM217.896 325.34C216.888 325.34 215.908 325.856 215.358 326.786C215.119 327.194 209.469 337.177 209.469 375.082C209.469 376.704 210.788 378.024 212.41 378.024C214.033 378.024 215.352 376.704 215.352 375.082C215.352 340.34 220.213 330.205 220.421 329.791C221.234 328.339 220.754 326.556 219.388 325.75C218.921 325.475 218.406 325.342 217.896 325.342V325.34Z" fill="#001F54"/>
<path d="M212.442 375.794C210.682 375.794 209.087 375.102 207.909 373.976C207.309 373.404 206.333 373.642 206.108 374.441C205.821 375.447 205.771 376.554 206.023 377.699C206.577 380.207 208.631 382.204 211.156 382.682C215.354 383.475 219.022 380.276 219.022 376.221C219.022 375.594 218.933 374.988 218.767 374.414C218.542 373.629 217.563 373.414 216.974 373.978C215.796 375.104 214.201 375.796 212.442 375.796V375.794Z" fill="#63524B"/>
<path d="M212.428 384.449C211.904 384.449 211.376 384.4 210.85 384.299C207.693 383.702 205.105 381.191 204.411 378.052C204.108 376.68 204.145 375.312 204.518 373.99C204.781 373.062 205.488 372.357 206.412 372.107C207.35 371.85 208.335 372.103 209.044 372.782C209.966 373.66 211.17 374.144 212.439 374.144C213.707 374.144 214.913 373.66 215.833 372.782C216.544 372.103 217.529 371.852 218.472 372.105C219.385 372.353 220.088 373.043 220.351 373.955C220.563 374.691 220.669 375.453 220.669 376.219C220.669 378.677 219.581 380.989 217.687 382.559C216.199 383.792 214.341 384.447 212.426 384.447L212.428 384.449ZM207.525 375.811C207.483 376.313 207.519 376.827 207.632 377.342C208.045 379.211 209.583 380.705 211.46 381.059C212.967 381.345 214.431 380.975 215.582 380.019C216.719 379.079 217.371 377.694 217.371 376.219C217.371 376.082 217.365 375.945 217.354 375.808C215.94 376.867 214.229 377.441 212.441 377.441C210.652 377.441 208.939 376.867 207.525 375.808V375.811Z" fill="#001F54"/>
<path d="M258.663 379.674C261.198 379.674 263.254 377.618 263.254 375.082C263.254 337.392 257.762 327.007 257.135 325.949C255.845 323.766 253.031 323.04 250.847 324.33C248.694 325.601 247.962 328.358 249.178 330.528C249.37 330.911 254.073 340.771 254.073 375.082C254.073 377.618 256.129 379.674 258.665 379.674H258.663Z" fill="#EEEEEE"/>
<path d="M258.662 381.323C255.221 381.323 252.423 378.525 252.423 375.082C252.423 341.167 247.749 331.358 247.701 331.264C246.093 328.4 247.111 324.62 250.007 322.91C252.97 321.159 256.804 322.146 258.555 325.109C259.615 326.899 264.903 337.732 264.903 375.082C264.903 378.522 262.105 381.323 258.664 381.323H258.662ZM253.176 325.342C252.667 325.342 252.153 325.473 251.686 325.751C250.323 326.556 249.843 328.339 250.617 329.721C250.861 330.205 255.722 340.342 255.722 375.082C255.722 376.704 257.042 378.024 258.664 378.024C260.287 378.024 261.606 376.704 261.606 375.082C261.606 337.179 255.956 327.194 255.716 326.788C255.167 325.86 254.184 325.342 253.178 325.342H253.176Z" fill="#001F54"/>
<path d="M258.629 375.794C260.388 375.794 261.983 375.102 263.162 373.976C263.761 373.404 264.738 373.642 264.963 374.441C265.249 375.447 265.3 376.554 265.047 377.699C264.494 380.207 262.44 382.204 259.915 382.682C255.717 383.475 252.049 380.276 252.049 376.221C252.049 375.594 252.137 374.988 252.303 374.414C252.529 373.629 253.507 373.414 254.096 373.978C255.275 375.104 256.87 375.796 258.629 375.796V375.794Z" fill="#63524B"/>
<path d="M258.643 384.448C256.726 384.448 254.868 383.791 253.38 382.558C251.486 380.988 250.398 378.678 250.398 376.218C250.398 375.45 250.506 374.688 250.716 373.954C250.979 373.043 251.682 372.352 252.595 372.104C253.534 371.854 254.523 372.104 255.234 372.782C256.156 373.659 257.36 374.143 258.628 374.143C259.897 374.143 261.103 373.659 262.023 372.782C262.734 372.102 263.719 371.851 264.657 372.106C265.579 372.359 266.288 373.061 266.551 373.989C266.926 375.309 266.962 376.677 266.659 378.051C265.964 381.19 263.378 383.701 260.221 384.298C259.695 384.397 259.167 384.448 258.643 384.448ZM253.715 375.81C253.704 375.946 253.698 376.083 253.698 376.22C253.698 377.693 254.35 379.078 255.487 380.02C256.64 380.976 258.098 381.346 259.611 381.06C261.488 380.706 263.026 379.212 263.439 377.344C263.555 376.826 263.59 376.315 263.548 375.812C262.134 376.87 260.421 377.445 258.633 377.445C256.844 377.445 255.131 376.87 253.717 375.812L253.715 375.81Z" fill="#001F54"/>
<path d="M262.366 237.301C252.952 257.766 231.379 268.093 212.495 252.479C211.355 251.513 212.516 249.685 213.866 250.325C220.033 253.266 226.341 255.267 232.988 254.442C243.412 253.031 251.307 244.836 256.897 236.402C257.225 235.908 257.556 235.389 257.819 234.946C259.499 232.247 263.586 234.368 262.364 237.301H262.366Z" fill="#001F54"/>
<path d="M248.166 237.113C250.039 231.599 256.668 229.166 261.826 231.591C267.448 234.531 269.433 241.551 269.837 247.248C269.862 247.645 269.28 247.788 269.124 247.421C266.939 243.466 263.852 236.991 259.378 235.905C256.514 235.393 253.809 236.529 251.848 238.598C251.768 238.668 251.671 238.787 251.631 238.788L249.364 238.805C248.501 238.829 247.86 237.916 248.167 237.114L248.166 237.113Z" fill="#001F54"/>
</svg>
