<svg width="433" height="600" viewBox="0 0 433 600" fill="none" xmlns="http://www.w3.org/2000/svg">
<path d="M138.892 389.011C69.055 383.164 26.4299 322.82 21.2261 308.307C15.0311 291.027 61.9125 245.367 61.9125 245.367L162.913 322.404L138.892 389.011Z" fill="white"/>
<path d="M82.2956 260.918C81.3956 284.055 67.7387 326.445 30.1367 323.68C25.3926 317.025 22.3907 311.532 21.231 308.305C15.0306 291.027 61.9121 245.367 61.9121 245.367L82.2974 260.92L82.2956 260.918Z" fill="#F87B38"/>
<path d="M66.341 270.532C66.4673 297.875 56.5422 306.79 56.0808 316.967C49.1067 321.755 40.5361 324.447 30.1356 323.68C25.3914 317.025 22.3895 311.532 21.2298 308.305C15.6699 292.798 52.8771 254.413 60.5495 246.72C63.7093 251.588 66.2884 259.075 66.341 270.532Z" fill="#F9D3B7"/>
<path d="M82.2956 260.918C81.3956 284.055 67.7387 326.445 30.1367 323.68C25.3926 317.025 22.3907 311.532 21.231 308.305C15.0306 291.027 61.9121 245.367 61.9121 245.367L82.2974 260.92L82.2956 260.918Z" fill="#5F5F82"/>
<path d="M107.474 382.42C87.3113 375.559 70.3174 364.467 56.8535 352.817C62.4959 348.654 70.5841 345.918 75.8493 351.026C82.3759 357.352 88.7324 356.787 94.5766 356.505C99.1189 358.944 103.951 361.13 108.991 362.905C110.992 368.162 109.49 375.931 107.476 382.42H107.474Z" fill="#E8E8E8"/>
<path d="M107.474 382.427C87.3113 375.559 70.3086 364.465 56.8535 352.817C62.4959 348.654 70.5841 345.918 75.8493 351.026C86.9411 361.768 97.5346 352.631 105.951 358.795C111.883 363.144 110.128 373.887 107.476 382.427H107.474Z" fill="#5F5F82"/>
<path d="M107.474 382.42C87.3113 375.559 70.3174 364.467 56.8535 352.817C62.4959 348.654 70.5841 345.918 75.8493 351.026C82.3759 357.352 88.7324 356.787 94.5766 356.505C99.1189 358.944 103.951 361.13 108.991 362.905C110.992 368.162 109.49 375.931 107.476 382.42H107.474Z" fill="#001F54"/>
<path d="M66.341 270.532C66.4673 297.875 56.5422 306.79 56.0808 316.967C49.1067 321.755 40.5361 324.447 30.1356 323.68C25.3914 317.025 22.3895 311.532 21.2298 308.305C15.6699 292.798 52.8771 254.413 60.5495 246.72C63.7093 251.588 66.2884 259.075 66.341 270.532Z" fill="#001F54"/>
<path d="M138.645 391.976C100.471 388.779 71.4657 369.638 53.8577 354.14C33.2566 336.013 21.1928 317.023 18.4278 309.31C15.4417 300.985 21.4946 287.633 36.9305 268.49C47.8627 254.933 59.7195 243.352 59.837 243.236L61.6757 241.445L164.715 320.04L161.107 324.769L62.1599 249.294C44.6292 266.751 20.1226 296.414 24.0263 307.301C29.4354 322.386 71.9692 380.421 139.141 386.047L138.645 391.974V391.976Z" fill="#001F54"/>
<path d="M315.984 395.467C307.033 403.285 305.866 411.426 306.908 416.265C307.734 420.097 309.467 423.679 314.08 426.065C318.943 428.582 328.282 429.5 337.243 424.915C340.898 423.044 345.408 420.338 351.712 420.801C352.251 419.48 351.422 417.986 349.911 416.497C352.646 414.527 356.068 412.578 361.854 410.744C361.914 410.725 356.623 395.034 331.41 391.061C331.601 387.426 329.388 385.479 326.279 385.302C325.09 391.652 321.989 390.225 315.984 395.467Z" fill="#C4612B"/>
<path d="M314.079 426.056C318.938 428.572 328.28 429.494 337.237 424.906C340.885 423.044 345.372 420.342 351.648 420.784C351.67 420.782 351.696 420.784 351.713 420.784C351.793 420.583 351.847 420.381 351.865 420.172C351.917 419.613 351.763 419.035 351.453 418.442C351.109 417.799 350.572 417.142 349.908 416.486C352.646 414.514 356.067 412.563 361.852 410.731C361.852 410.714 361.749 410.379 361.495 409.813C361.456 409.718 361.404 409.617 361.35 409.504C361.172 409.127 360.936 408.681 360.646 408.168C360.586 408.068 360.527 407.958 360.458 407.846C360.315 407.616 360.168 407.373 360.001 407.114C359.928 406.999 359.848 406.884 359.769 406.767C359.235 405.971 358.583 405.1 357.791 404.176C353.664 399.369 345.763 393.313 331.407 391.046C331.597 387.411 329.387 385.467 326.277 385.287C325.089 391.64 321.99 390.211 315.982 395.455C308.575 401.93 306.497 408.618 306.597 413.473C306.597 413.473 306.596 413.478 306.592 413.486C306.61 414.495 306.724 415.425 306.908 416.257C307.736 420.087 309.465 423.67 314.081 426.054L314.079 426.056Z" fill="#C4612B"/>
<path d="M314.081 426.056C318.94 428.572 328.282 429.494 337.239 424.906C340.886 423.044 345.374 420.342 351.65 420.784C351.672 420.782 351.698 420.784 351.715 420.784C351.795 420.583 351.848 420.381 351.867 420.172C351.919 419.613 351.765 419.035 351.455 418.442C351.111 417.799 350.574 417.142 349.91 416.486C352.648 414.514 356.069 412.563 361.854 410.731C361.854 410.714 361.751 410.379 361.497 409.813C361.458 409.718 361.406 409.617 361.352 409.504C361.173 409.127 360.937 408.681 360.647 408.168C360.588 408.068 360.529 407.958 360.46 407.846C360.317 407.616 360.17 407.373 360.003 407.114C359.93 406.999 359.85 406.884 359.77 406.767C359.237 405.971 358.585 405.1 357.793 404.176C353.666 399.369 345.764 393.313 331.409 391.046C331.415 390.938 331.42 390.838 331.42 390.734C331.444 389.405 331.129 388.316 330.56 387.47C330.517 387.411 330.48 387.355 330.437 387.294C329.577 386.134 328.22 385.475 326.591 385.311C326.487 385.302 326.384 385.292 326.277 385.287C325.089 391.64 321.99 390.211 315.982 395.455C308.575 401.93 306.497 408.618 306.597 413.473C306.597 413.473 306.596 413.478 306.592 413.486C306.61 414.495 306.724 415.425 306.908 416.257C307.105 417.173 307.356 418.076 307.686 418.953C308.731 421.732 310.576 424.24 314.081 426.054V426.056Z" fill="#5F5F82"/>
<g opacity="0.4">
<path d="M331.412 390.748C331.455 390.852 331.496 390.964 331.531 391.083C331.489 391.077 331.442 391.068 331.399 391.06C331.409 390.954 331.409 390.848 331.412 390.748Z" fill="white"/>
</g>
<g opacity="0.4">
<path d="M307.678 418.967C308.184 417.213 308.734 415.811 309.026 413.896C309.719 409.27 312.436 403.038 316.84 399.191C322.415 394.317 325.797 395.359 328.582 389.6C330.42 389.701 330.915 389.483 331.413 390.752C331.437 389.424 331.121 388.335 330.552 387.489C330.509 387.43 330.472 387.374 330.43 387.313C329.569 386.153 328.213 385.494 326.583 385.33C326.484 385.324 326.38 385.315 326.273 385.31L326.269 385.304C325.081 391.657 321.982 390.228 315.974 395.472C308.567 401.947 306.489 408.635 306.59 413.49C306.59 413.49 306.588 413.495 306.584 413.503C306.603 414.512 306.716 415.442 306.9 416.274C307.097 417.19 307.348 418.093 307.678 418.971V418.967Z" fill="white"/>
</g>
<g opacity="0.4">
<path d="M357.785 404.18C360.881 407.783 361.859 410.675 361.851 410.734C361.502 410.844 361.164 410.959 360.831 411.069C360.205 410.024 359.333 408.761 358.164 407.395C354.033 402.588 346.141 396.53 331.779 394.268C331.847 392.96 331.79 391.897 331.535 391.072C345.811 393.352 353.673 399.393 357.785 404.18Z" fill="white"/>
</g>
<path d="M314.081 426.059C318.94 428.576 328.282 429.497 337.239 424.909C340.886 423.047 345.374 420.345 351.65 420.787C351.672 420.786 351.698 420.787 351.715 420.787C351.795 420.587 351.848 420.384 351.867 420.176C351.919 419.617 351.769 419.035 351.455 418.446C351.111 417.803 350.574 417.145 349.91 416.489C352.648 414.518 356.069 412.566 361.854 410.734C361.854 410.717 361.751 410.383 361.497 409.816C361.458 409.721 361.406 409.621 361.352 409.508C361.173 409.13 360.937 408.684 360.647 408.172C360.588 408.071 360.529 407.962 360.46 407.85C360.317 407.62 360.17 407.376 360.003 407.118C359.93 407.003 359.85 406.887 359.77 406.77C359.237 405.975 358.585 405.104 357.793 404.18C358.674 406.99 357.715 408.58 354.844 409.082C349.106 410.086 343.901 409.441 338.772 412.08C341.834 415.019 334.723 419.033 332.364 419.106C323.127 419.394 319.213 410.509 314.646 409.45C308.736 408.08 306.596 413.482 306.592 413.486C306.61 414.495 306.724 415.424 306.908 416.257C307.736 420.087 309.465 423.67 314.081 426.054V426.059Z" fill="#001F54"/>
<path d="M323.914 431.066C319.519 431.066 315.603 430.116 312.745 428.637C306.552 425.433 304.827 420.386 304.071 416.87C303.439 413.936 302.293 403.563 314.076 393.274C316.46 391.193 318.48 390.037 319.957 389.191C322.347 387.823 322.914 387.5 323.427 384.759C323.696 383.325 324.984 382.308 326.445 382.395C330.486 382.626 333.332 385.01 334.11 388.578C357.991 393.177 364.588 408.311 364.751 410.519C364.85 411.864 364.01 413.102 362.722 413.505C358.77 414.759 356.09 416.03 354.081 417.22C355.064 419.152 354.863 420.754 354.401 421.89C353.925 423.055 352.756 423.778 351.5 423.688C346.577 423.328 342.846 425.264 339.56 426.976L338.564 427.49C333.597 430.033 328.494 431.064 323.916 431.064L323.914 431.066ZM328.152 389.089C326.88 391.919 324.902 393.051 322.838 394.233C321.433 395.035 319.842 395.946 317.893 397.648C308.501 405.849 309.282 413.499 309.744 415.648C310.577 419.515 312.273 421.858 315.412 423.482C319.781 425.744 328.063 426.346 335.918 422.324L336.875 421.828C339.586 420.416 343.06 418.608 347.447 418.028C347.122 417.508 346.968 416.891 347.016 416.268C347.081 415.415 347.52 414.635 348.215 414.135C350.242 412.674 353.102 410.849 357.811 409.065C355.239 404.882 348.11 396.622 330.957 393.92C329.489 393.688 328.431 392.386 328.509 390.901C328.543 390.254 328.5 389.594 328.152 389.087V389.089Z" fill="#001F54"/>
<path d="M334.163 391.936C332.262 394.493 330.368 397.125 327.826 399.063C328.668 396.197 328.633 393.113 328.636 390.162L334.163 391.936Z" fill="#001F54"/>
<path d="M348.223 418.858C345.788 416.097 342.897 413.217 339.247 412.141C343.421 411.329 347.66 412.663 351.584 414.123L348.224 418.858H348.223Z" fill="#001F54"/>
<path d="M238.06 441.947C248.715 453.232 284.61 468.976 297.434 453.045C308.435 439.379 290.754 425.962 304.336 413.74C309.961 409.038 315.354 410.152 316.855 414.145C318.62 418.843 313.361 420.372 313.895 425.172C314.426 434.09 320.113 447.527 311.748 461.266C303.925 474.114 283.24 487.952 233.552 469.226" fill="white"/>
<path d="M275.939 481.29C264.665 481.29 250.446 478.702 232.521 471.947L234.568 466.515C284.519 485.339 302.806 470.363 309.262 459.76C315.082 450.201 313.454 440.902 312.016 432.698C311.563 430.113 311.135 427.669 310.996 425.417C310.663 422.178 312.128 419.965 313.198 418.344C314.315 416.655 314.517 416.196 314.133 415.17C313.841 414.394 313.282 413.89 312.471 413.678C310.801 413.236 308.471 414.083 306.233 415.94C300.465 421.158 301.545 426.398 302.912 433.027C304.286 439.685 305.841 447.233 299.692 454.871C295.762 459.754 289.865 462.384 282.167 462.687C265.135 463.365 243.761 452.225 235.945 443.946L240.166 439.96C247.058 447.261 266.75 457.489 281.936 456.885C287.884 456.651 292.337 454.748 295.169 451.229C299.601 445.723 298.501 440.382 297.226 434.197C295.762 427.095 294.102 419.045 302.39 411.588C302.416 411.564 302.444 411.541 302.47 411.517C306.216 408.386 310.399 407.128 313.951 408.062C316.569 408.752 318.617 410.599 319.566 413.126C321.031 417.021 319.232 419.744 318.041 421.544C317.121 422.936 316.647 423.715 316.773 424.854C316.779 424.902 316.783 424.952 316.786 425.001C316.902 426.943 317.307 429.251 317.734 431.694C319.187 439.99 321.178 451.351 314.22 462.778C309.288 470.876 298.542 481.286 275.938 481.288L275.939 481.29Z" fill="#001F54"/>
<path d="M176.972 283.596L167.734 303.122C157.175 299.683 148.33 295.591 142.053 291.947C153.301 288.217 164.462 284.958 176.972 283.594V283.596Z" fill="#EAEAEA"/>
<path d="M260.006 302.038C221.807 318.125 180.987 309.229 155.923 298.735C167.491 284.759 188.019 268.445 218.904 272.916C239.432 272.916 252.212 287.015 260.006 302.038Z" fill="#EAEAEA"/>
<path d="M269.863 297.286C248.862 308.781 226.555 311.857 206.127 310.572L180.758 284.412C185.169 284.281 251.35 290.304 251.35 290.304C255.19 290.921 259.724 292.56 264.847 294.883C266.458 295.615 268.134 296.422 269.861 297.286H269.863Z" fill="#EAEAEA"/>
<path d="M187.125 467.429C185.298 479.526 191.401 546.378 188.393 563.434C186.02 576.886 177.306 582.489 158.177 582.489H126.093C113.321 582.489 111.53 574.065 111.677 569.72C111.937 562.014 114.49 555.043 119.781 549.242C119.781 549.242 110.932 488.351 109.995 429.323L187.127 467.429H187.125Z" fill="white"/>
<path d="M189.128 554.767C189.005 558.316 188.773 561.269 188.388 563.432C186.015 576.886 177.3 582.489 158.171 582.489H126.089C113.317 582.489 111.526 574.063 111.671 569.717C111.933 562.01 114.486 555.043 119.777 549.238C119.777 549.238 119.754 549.064 119.704 548.731C118.855 542.773 110.874 485.213 109.987 429.323L187.119 467.427C185.53 477.993 189.985 530.328 189.13 554.768L189.128 554.767Z" fill="white"/>
<path d="M189.128 554.769C189.005 558.318 188.773 561.271 188.388 563.434C186.015 576.888 177.3 582.49 158.171 582.49H126.089C113.317 582.49 111.526 574.065 111.671 569.718C111.708 568.557 111.801 567.403 111.946 566.279C112.765 559.936 115.283 554.166 119.777 549.24C119.777 549.24 119.754 549.065 119.704 548.733C119.022 543.951 113.754 505.975 111.236 462.283C110.619 451.507 110.162 440.384 109.987 429.323L187.119 467.427C185.53 477.993 189.985 530.328 189.13 554.769H189.128Z" fill="white"/>
<path d="M189.128 554.769C189.005 558.318 188.773 561.271 188.388 563.434C186.015 576.888 177.3 582.49 158.171 582.49H126.089C113.317 582.49 111.526 574.065 111.671 569.718C111.708 568.557 111.801 567.403 111.946 566.279C112.765 559.936 115.283 554.166 119.777 549.24C119.777 549.24 119.754 549.065 119.704 548.733C119.262 545.62 116.874 528.45 114.566 504.794C113.325 492.101 112.113 477.546 111.236 462.283C110.619 451.507 110.162 440.384 109.987 429.323L130.676 439.547L187.117 467.427C185.529 477.993 189.983 530.328 189.128 554.769Z" fill="white"/>
<path d="M189.13 554.769C189.007 558.318 188.775 561.271 188.39 563.434C186.017 576.888 177.302 582.49 158.173 582.49H126.091C113.319 582.49 111.528 574.065 111.673 569.718C111.71 568.557 111.803 567.403 111.948 566.279C116.751 568.899 123.508 570.9 132.941 570.9C160.161 570.9 180.29 573.978 180.152 548.086C180 520.344 178.911 507.282 144.304 489.866C128.462 481.898 118.013 472.37 111.236 462.283C110.619 451.507 110.162 440.384 109.987 429.323L187.119 467.427C185.53 477.993 189.985 530.328 189.13 554.769Z" fill="#EAEAEA"/>
<path d="M134.777 484.496C124.123 477.754 116.549 470.192 111.236 462.283C110.619 451.507 110.162 440.384 109.987 429.323L130.676 439.547C131.278 445.512 132.242 452.929 133.796 460.838C136.524 474.741 136.923 481.034 134.775 484.494L134.777 484.496Z" fill="#001F54"/>
<path d="M129.442 504.017C125.952 506.52 119.45 506.73 114.566 504.794C113.325 492.101 112.113 477.546 111.236 462.283C110.619 451.507 110.162 440.384 109.987 429.323L130.676 439.547C131.278 445.512 132.242 452.929 133.796 460.838C137.525 479.865 136.908 484.633 131.343 487.411C125.785 490.199 136.698 498.804 129.442 504.015V504.017Z" fill="#5F5F82"/>
<path d="M134.777 484.496C124.123 477.754 116.549 470.192 111.236 462.283C110.619 451.507 110.162 440.384 109.987 429.323L130.676 439.547C131.278 445.512 132.242 452.929 133.796 460.838C136.524 474.741 136.923 481.034 134.775 484.494L134.777 484.496Z" fill="#001F54"/>
<path d="M189.133 554.766C189.01 558.315 188.778 561.268 188.393 563.431C186.02 576.885 177.305 582.488 158.176 582.488H126.094C113.322 582.488 111.531 574.063 111.676 569.716C111.691 569.209 111.718 568.707 111.756 568.207C111.793 567.787 111.828 567.365 111.871 566.945C111.901 566.721 111.921 566.496 111.951 566.278C116.754 568.898 123.511 570.9 132.944 570.9C157.616 570.9 176.463 573.425 179.663 554.623C183.045 554.965 186.295 555.045 189.133 554.768V554.766Z" fill="#001F54"/>
<path d="M189.133 554.765C189.01 558.314 188.778 561.267 188.393 563.43C186.02 576.884 177.305 582.487 158.176 582.487H126.094C113.322 582.487 111.531 574.061 111.676 569.715C111.938 562.008 114.491 555.041 119.782 549.236C119.782 549.236 119.759 549.062 119.709 548.729C134.497 543.728 146.377 545.027 160.564 550.427C168.567 553.228 180.694 555.593 189.133 554.766V554.765Z" fill="#5F5F82"/>
<g opacity="0.2">
<path d="M189.134 554.766C189.011 558.315 188.779 561.268 188.394 563.431C186.021 576.885 177.306 582.488 158.177 582.488H126.095C113.323 582.488 111.532 574.062 111.677 569.716C111.692 569.209 111.719 568.707 111.757 568.207C111.794 567.787 111.829 567.365 111.872 566.945C111.902 566.72 111.922 566.495 111.952 566.278C116.755 568.898 123.512 570.9 132.945 570.9C157.617 570.9 176.464 573.425 179.664 554.623C183.046 554.965 186.296 555.045 189.134 554.768V554.766Z" fill="#001F54"/>
</g>
<path d="M158.177 585.388H126.094C120.266 585.388 115.771 583.794 112.731 580.649C109.092 576.886 108.691 572.124 108.776 569.619C109.053 561.412 111.724 554.256 116.721 548.326C115.433 539.061 107.946 483.117 107.093 429.366L112.898 429.273C113.822 487.429 122.567 548.213 122.654 548.821L122.851 550.179L121.926 551.194C117.295 556.272 114.823 562.539 114.578 569.816C114.535 571.092 114.675 574.311 116.905 576.615C118.807 578.585 121.9 579.583 126.094 579.583H158.177C178.444 579.583 183.769 572.925 185.533 562.927C187.155 553.73 185.999 528.74 184.979 506.693C184.134 488.413 183.403 472.625 184.254 466.993L189.995 467.861C189.229 472.928 189.982 489.199 190.779 506.424C191.812 528.774 192.985 554.104 191.251 563.934C188.599 578.971 178.707 585.388 158.177 585.388Z" fill="#001F54"/>
<path d="M165.283 552.542C151.522 546.754 134.53 544.213 121.069 551.838L118.493 546.635C133.861 540.192 151.418 544.555 165.283 552.542Z" fill="#001F54"/>
<path d="M136.871 554.215C134.905 560.295 130.591 580.868 141.518 579.577V585.382C125.435 583.892 132.024 563.494 136.871 554.215Z" fill="#001F54"/>
<path d="M138.258 485.166C103.131 465.163 102.049 427.297 107.345 401.326C112.078 378.112 126.747 345.692 144.303 316.723C144.303 316.723 179.318 272.918 218.907 272.918C262.852 272.918 271.289 337.527 271.289 337.527C282.515 378.76 283.73 398.982 284.717 429.059C284.051 450.295 280.196 460.211 277.992 465.126C242.422 494.465 192.681 498.371 159.563 492.012C152.97 490.927 144.154 487.875 138.26 485.168L138.258 485.166Z" fill="white"/>
<path d="M284.711 429.05C284.044 450.291 280.19 460.203 277.984 465.116C242.418 494.462 192.674 498.366 159.556 492.002C152.966 490.92 144.15 487.865 138.258 485.16C115.167 472.018 106.786 451.147 105.262 431.011C104.463 420.517 105.53 410.22 107.345 401.325C112.076 378.111 126.742 345.688 144.303 316.719C144.303 316.719 166.935 265.389 218.902 272.917C262.848 272.917 271.287 337.524 271.287 337.524C280.14 370.028 282.76 389.475 283.957 410.992C284.284 416.76 284.501 422.69 284.711 429.054V429.05Z" fill="white"/>
<path d="M260.006 302.038C221.807 318.125 180.987 309.229 155.923 298.735C167.491 284.759 188.019 268.445 218.904 272.916C239.432 272.916 252.212 287.015 260.006 302.038Z" fill="#EAEAEA"/>
<path d="M284.713 429.051C284.046 450.291 280.192 460.203 277.986 465.116C242.42 494.462 192.676 498.367 159.557 492.002C152.968 490.92 144.152 487.865 138.259 485.16C115.168 472.018 106.787 451.148 105.264 431.011C136.163 479.145 252.756 464.901 283.96 410.99C284.287 416.758 284.505 422.688 284.715 429.053L284.713 429.051Z" fill="#EAEAEA"/>
<path d="M244.376 445.06C233.934 473.622 205.045 483.549 176.613 481.038C158.305 479.841 128.93 471.234 117.639 444.146C147.26 466.38 203.776 464.791 244.378 445.06H244.376Z" fill="#FFB6B8"/>
<path d="M113.006 419.225C113.002 381.385 143.56 327.442 180.884 326.493C202.93 325.932 240.38 343.36 247.737 407.856C254.269 465.115 215.022 484.414 176.622 481.028C153.582 479.515 113.011 466.273 113.006 419.225Z" fill="#FFD8BE"/>
<path d="M244.376 445.06C233.934 473.622 205.045 483.549 176.613 481.038C158.305 479.841 128.93 471.234 117.639 444.146C147.26 466.38 203.776 464.791 244.378 445.06H244.376Z" fill="#FFB6B8"/>
<path d="M269.975 336.437C278.466 362.425 285.254 389.294 287.003 416.668C287.347 422.188 287.815 427.863 287.371 433.397C286.644 444.593 285.219 455.836 280.644 466.303C279.992 467.768 278.275 468.425 276.81 467.773C275.342 467.119 274.684 465.395 275.346 463.928C280.042 453.128 281.252 440.865 281.761 429.115C281.621 419.727 280.343 410.352 279.326 401.007C277.052 379.356 273.703 357.915 269.974 336.435L269.975 336.437Z" fill="#001F54"/>
<path d="M138.257 485.154C105.531 471.48 97.0741 434.382 103.686 402.337C106.091 390.429 110.229 379.233 114.947 368.171C122.841 350.027 132.681 332.666 144.302 316.711C135.199 335.305 126.446 353.78 119.212 373.058C112.81 390.074 108.044 408.074 108.384 426.35C108.451 450.383 118.612 471.021 138.259 485.154H138.257Z" fill="#001F54"/>
<path d="M289.763 582.491H248.045C231.013 582.491 227.319 568.702 225.223 554.349C224.991 552.737 224.773 551.112 224.563 549.5C222.568 534.335 218.286 502.861 216.008 497.028C207.852 497.543 180.277 498.871 159.559 492.007C259.157 499.663 269.407 439.341 276.98 431.269C281.05 428.221 284.662 427.459 284.662 427.459C286.548 447.096 290.3 508.93 292.593 546.767C292.636 547.391 292.673 548.008 292.709 548.618C299.863 554.613 301.939 562.129 302.143 567.587C302.405 574.387 300.344 582.492 289.763 582.492V582.491Z" fill="white"/>
<path d="M302.158 569.371C301.983 575.721 299.43 582.49 289.763 582.49H248.045C231.013 582.49 227.319 568.702 225.223 554.349C224.991 552.737 224.773 551.111 224.563 549.5C222.568 534.335 218.286 502.861 216.008 497.028C207.852 497.543 180.277 498.871 159.559 492.007C259.157 499.663 269.409 439.345 276.978 431.269C281.05 428.221 284.662 427.459 284.662 427.459C285.772 439.034 287.535 465.259 289.263 492.596C290.467 511.645 291.651 531.23 292.593 546.767C292.636 547.391 292.673 548.008 292.709 548.618C299.863 554.612 301.939 562.129 302.143 567.587C302.165 568.174 302.173 568.771 302.158 569.373V569.371Z" fill="white"/>
<path d="M302.158 569.371C301.983 575.721 299.43 582.49 289.763 582.49H248.045C231.013 582.49 227.319 568.702 225.223 554.349C224.991 552.737 224.773 551.111 224.563 549.5C222.568 534.335 218.286 502.861 216.008 497.028C207.852 497.543 180.277 498.871 159.559 492.007C259.157 499.663 269.409 439.345 276.978 431.269C281.05 428.221 284.662 427.459 284.662 427.459C285.772 439.034 287.535 465.259 289.263 492.596C284.662 490.877 278.734 489.678 271.31 489.991C250.992 490.832 226.671 501.986 235.027 542.298C240.167 567.091 239.736 570.962 274.323 570.962C288.146 570.962 296.667 571.042 302.16 569.373L302.158 569.371Z" fill="#EAEAEA"/>
<path d="M302.159 569.364C302.129 570.438 302.029 571.52 301.839 572.579C301.789 572.899 301.724 573.211 301.649 573.523C301.562 573.908 301.46 574.292 301.337 574.662C301.308 574.772 301.272 574.88 301.235 574.982C301.192 575.104 301.148 575.229 301.105 575.344C301.04 575.534 300.96 575.721 300.88 575.911C300.793 576.121 300.705 576.325 300.605 576.52C300.525 576.688 300.445 576.848 300.358 577C300.263 577.182 300.163 577.355 300.053 577.522C299.951 577.689 299.843 577.857 299.726 578.016C299.639 578.146 299.544 578.278 299.451 578.401C299.386 578.488 299.314 578.576 299.241 578.663C299.198 578.721 299.146 578.773 299.096 578.83C299.009 578.94 298.914 579.048 298.814 579.15C298.726 579.245 298.639 579.332 298.546 579.418C298.416 579.548 298.277 579.68 298.139 579.795C298.109 579.825 298.089 579.845 298.059 579.867C297.914 579.99 297.762 580.114 297.602 580.23C297.45 580.352 297.283 580.462 297.115 580.577C297.1 580.592 297.078 580.599 297.05 580.62C296.913 580.707 296.775 580.795 296.63 580.874C296.58 580.912 296.521 580.939 296.463 580.969C296.326 581.049 296.181 581.122 296.036 581.194C295.985 581.224 295.926 581.244 295.876 581.267C295.761 581.324 295.644 581.382 295.521 581.434C295.426 581.477 295.326 581.514 295.224 581.556C295.071 581.614 294.911 581.672 294.752 581.724C294.607 581.781 294.454 581.833 294.294 581.869C294.127 581.926 293.967 581.971 293.795 582.014C293.265 582.151 292.691 582.261 292.089 582.333C291.639 582.398 291.167 582.443 290.68 582.463C290.383 582.478 290.078 582.486 289.766 582.486H248.047C231.016 582.486 227.322 568.697 225.226 554.344C228.39 554.808 232.387 554.634 237.468 553.625C241.118 568.34 245.886 570.953 274.325 570.953C288.149 570.953 296.669 571.033 302.162 569.364H302.159Z" fill="#001F54"/>
<path d="M289.766 582.492H248.047C231.016 582.492 227.322 568.704 225.226 554.35C231.65 555.29 241.493 553.613 256.807 547.703C270.391 542.461 283.003 543.052 292.598 546.767C292.641 547.391 292.678 548.008 292.713 548.617C299.867 554.612 301.943 562.129 302.148 567.587C302.41 574.386 300.349 582.492 289.768 582.492H289.766Z" fill="#5F5F82"/>
<g opacity="0.2">
<path d="M302.168 569.369C302.139 570.443 302.038 571.525 301.849 572.584C301.799 572.904 301.734 573.216 301.659 573.528C301.572 573.913 301.47 574.297 301.347 574.667C301.317 574.777 301.282 574.884 301.245 574.987C301.202 575.109 301.158 575.234 301.115 575.349C301.05 575.539 300.97 575.726 300.89 575.916C300.803 576.126 300.715 576.33 300.615 576.525C300.535 576.693 300.455 576.852 300.368 577.005C300.273 577.187 300.173 577.36 300.063 577.527C299.961 577.694 299.853 577.861 299.736 578.021C299.649 578.151 299.554 578.283 299.461 578.406C299.396 578.493 299.323 578.581 299.251 578.668C299.208 578.726 299.156 578.778 299.106 578.835C299.019 578.945 298.924 579.053 298.824 579.155C298.736 579.25 298.649 579.337 298.556 579.422C298.426 579.552 298.287 579.684 298.149 579.8C298.119 579.829 298.099 579.85 298.069 579.872C297.924 579.995 297.772 580.119 297.612 580.234C297.46 580.357 297.292 580.467 297.125 580.582C297.11 580.597 297.088 580.604 297.06 580.625C296.923 580.712 296.785 580.799 296.64 580.879C296.59 580.916 296.53 580.944 296.473 580.974C296.335 581.054 296.19 581.126 296.045 581.199C295.995 581.229 295.936 581.249 295.886 581.271C295.77 581.329 295.653 581.387 295.531 581.439C295.436 581.481 295.336 581.519 295.233 581.561C295.081 581.619 294.921 581.676 294.761 581.729C294.616 581.786 294.464 581.838 294.304 581.873C294.137 581.931 293.977 581.976 293.804 582.018C293.275 582.156 292.7 582.266 292.098 582.338C291.649 582.403 291.184 582.448 290.69 582.468C290.392 582.483 290.088 582.49 289.776 582.49H248.057C231.026 582.49 227.331 568.702 225.235 554.349C228.4 554.813 232.397 554.638 237.478 553.629C241.127 568.345 245.896 570.958 274.335 570.958C288.159 570.958 296.679 571.038 302.172 569.369H302.168Z" fill="#001F54"/>
</g>
<path d="M287.55 427.173C290.598 461.513 293.318 513.563 295.606 548.432L294.572 546.384C302.859 553.18 307.077 564.852 304.171 575.329C301.978 583.011 295.249 585.867 287.771 585.386C280.063 585.388 260.629 585.386 253.196 585.386C252.233 585.399 249.803 585.377 248.873 585.386C229.57 585.903 224.365 570.403 222.283 554.289C219.975 537.373 217.883 519.904 214.363 503.237C213.993 501.609 213.573 499.624 213.046 498.18L216.207 500.195C211.401 500.496 206.584 500.609 201.771 500.464C187.425 499.964 172.674 498.141 159.559 492.007C168.962 493.772 178.324 494.412 187.706 494.588C197.085 494.748 206.473 494.415 215.829 493.849C217.236 493.759 218.487 494.614 218.964 495.865C219.758 498.043 220.07 499.834 220.522 501.96C221.627 507.687 222.423 513.446 223.29 519.188C224.379 526.822 225.474 534.441 226.498 542.067C227.596 549.69 228.241 557.398 230.179 564.387C232.794 574.207 238.37 580.003 248.872 579.583C249.79 579.594 252.244 579.575 253.194 579.583C260.555 579.588 280.173 579.579 287.769 579.583C295.44 580.073 299.209 576.972 299.259 568.788C299.345 561.873 296.169 555.245 290.839 550.835C290.207 550.303 289.856 549.551 289.806 548.785C288.578 528.799 285.415 477.252 284.077 457.919C283.376 447.837 282.681 437.732 281.765 427.731L287.544 427.175L287.55 427.173Z" fill="#001F54"/>
<path d="M276.939 553.342C283.8 560.987 287.737 583.965 273.196 585.388V579.583C278.258 580.064 279.591 573.763 280.083 569.591C280.499 564.105 279.838 558.191 276.939 553.342Z" fill="#001F54"/>
<path d="M247.28 551.661C257.672 545.67 269.7 541.81 281.859 542.819C286.007 543.187 290.166 544.261 294.077 546.045C295.538 546.712 296.183 548.437 295.516 549.897C294.808 551.48 292.812 552.084 291.344 551.165C278.085 543.14 260.978 545.902 247.278 551.659L247.28 551.661Z" fill="#001F54"/>
<path d="M180.758 284.412C185.177 284.28 251.354 290.3 251.354 290.3C278.21 294.601 339.322 348.855 392.891 340.508C414.711 392.504 416.283 393.017 413.739 394.498C341.36 434.825 286.307 384.638 271.19 377.647" fill="white"/>
<path d="M413.735 394.502C341.357 434.827 286.307 384.64 271.184 377.653L180.758 284.412C185.169 284.281 251.35 290.304 251.35 290.304C255.19 290.921 259.724 292.56 264.847 294.883C276.058 299.984 290.042 308.409 305.521 316.697C332.392 331.081 363.756 345.049 392.885 340.513C414.705 392.508 416.281 393.023 413.733 394.502H413.735Z" fill="white"/>
<mask id="mask0_145_2738" style="mask-type:alpha" maskUnits="userSpaceOnUse" x="180" y="284" width="235" height="127">
<path d="M413.745 394.499C341.366 434.824 286.316 384.637 271.194 377.65L180.768 284.409C185.179 284.279 251.36 290.301 251.36 290.301C255.199 290.918 259.734 292.557 264.857 294.88C276.068 299.981 290.052 308.407 305.531 316.695C332.402 331.078 363.766 345.047 392.895 340.51C414.715 392.505 416.291 393.02 413.743 394.499H413.745Z" fill="white"/>
</mask>
<g mask="url(#mask0_145_2738)">
<path d="M305.355 318.212C304.186 322.196 301.103 326.353 293.912 328.741C285.806 331.426 282.309 341.388 271.925 337.536C263.464 334.394 265.335 327.697 262.919 321.027C260.496 314.358 248.284 318.545 249.131 307.181C249.711 299.358 258.963 297.065 264.681 296.397C275.892 301.498 289.876 309.924 305.355 318.212Z" fill="#5F5F82"/>
</g>
<path d="M269.863 297.286C248.862 308.781 226.555 311.857 206.127 310.572L180.758 284.412C185.169 284.281 251.35 290.304 251.35 290.304C255.19 290.921 259.724 292.56 264.847 294.883C266.458 295.615 268.134 296.422 269.861 297.286H269.863Z" fill="#EAEAEA"/>
<path d="M269.873 297.29C263.109 300.991 256.217 303.822 249.293 305.91C249.293 305.83 249.3 305.75 249.308 305.671C249.888 297.847 259.14 295.554 264.858 294.887C265.265 295.069 265.67 295.257 266.077 295.454C267.311 296.028 268.573 296.643 269.872 297.29H269.873Z" fill="#001F54"/>
<g opacity="0.2">
<path d="M269.866 297.28C263.102 300.982 256.209 303.812 249.285 305.901C249.285 305.821 249.293 305.741 249.3 305.661C249.88 297.838 259.132 295.545 264.85 294.878C265.257 295.06 265.662 295.247 266.069 295.444C267.303 296.019 268.565 296.634 269.864 297.28H269.866Z" fill="#001F54"/>
</g>
<path d="M180.672 281.509C182.71 281.548 185.866 281.767 187.94 281.923C206.385 283.321 232.109 285.677 250.594 287.316C255.526 287.795 260.296 289.752 264.784 291.67C290.097 303.546 313.339 319.57 339.36 329.427C356.468 336.042 375.119 340.532 393.368 337.495C394.511 337.308 395.577 338.226 395.568 339.383L405.87 363.682L411.085 375.811C412.82 379.875 414.584 383.863 416.236 388.108C416.713 389.319 417.228 390.754 417.488 392.298C417.639 393.331 417.511 394.498 416.929 395.422C416.492 396.173 415.621 396.801 414.92 397.157L414.548 397.36L411.568 398.979C376.944 417.409 339.167 418.009 304.174 400.173C296.144 396.251 288.542 391.479 281.525 385.987C278.009 383.261 274.729 380.351 271.189 377.645C272.282 377.911 273.348 378.29 274.391 378.703C280.124 380.94 289.53 386.132 295.126 388.968C332.249 409.281 370.501 413.884 408.871 393.801L411.707 392.291L412.062 392.101C412.168 392.043 412.337 391.956 412.345 391.945C412.408 391.91 412.38 391.917 412.333 391.962C412.004 392.151 411.67 393.064 411.746 393.134C410.367 388.137 407.773 383.085 405.755 378.104C402.442 370.495 393.574 349.556 390.216 341.626L393.34 343.371C383.744 344.852 373.993 344.399 364.594 342.738C336.621 337.618 311.347 323.313 286.955 309.773C278.825 305.276 270.737 300.675 262.446 296.981C258.417 295.277 254.416 293.56 250.071 293.095C234.557 291.694 209.983 289.522 194.457 288.251C192.1 288.087 184.894 287.483 182.354 287.364L180.847 287.309L180.674 281.505L180.672 281.509Z" fill="#001F54"/>
<path d="M406.652 396.369C397.53 396.963 379.204 387.88 378.668 376.83C378.423 371.751 381.437 367.335 384.902 365.19C381.464 361.606 379.711 356.945 380.357 353.494C382.579 341.625 399.009 334.73 410.661 336.092C424.707 337.86 431.459 357.166 428.189 373.082C426.028 383.604 418.064 395.4 406.65 396.371L406.652 396.369Z" fill="#5F5F82"/>
<g opacity="0.7">
<path d="M387.742 342.494C393.563 339.291 400.708 337.822 406.601 338.508C420.32 340.232 426.914 359.087 423.724 374.635C421.93 383.361 416.05 392.993 407.484 396.273C418.453 394.822 426.09 383.343 428.198 373.075C431.463 357.159 424.715 337.855 410.668 336.089C403.339 335.232 394.125 337.642 387.744 342.496L387.742 342.494Z" fill="white"/>
</g>
<g opacity="0.2">
<path d="M380.352 353.511C379.712 356.96 381.46 361.622 384.904 365.203C381.436 367.356 378.425 371.768 378.666 376.844C379.2 387.895 397.528 396.977 406.653 396.385C411.507 395.972 415.741 393.601 419.164 390.198C405.79 395.792 387.776 387.22 387.245 376.163C386.995 371.089 390.01 366.671 393.48 364.528C390.04 360.941 388.284 356.281 388.932 352.83C390.572 344.074 399.938 338.033 409.416 336.003C397.873 335.236 382.499 342.055 380.352 353.511Z" fill="#001F54"/>
</g>
<path d="M405.797 399.291C398.88 399.291 389.02 395.194 382.788 389.632C378.413 385.726 375.988 381.347 375.776 376.967C375.522 371.71 377.962 367.473 380.791 364.751C378.099 360.962 376.834 356.574 377.511 352.959C379.993 339.706 397.238 331.604 411.001 333.212C416.634 333.921 421.566 337.042 425.288 342.239C431.047 350.28 433.301 362.615 431.032 373.662C428.587 385.568 419.512 398.183 406.899 399.256L406.841 399.26C406.502 399.282 406.153 399.293 405.797 399.293V399.291ZM407.541 338.808C397.223 338.808 384.905 344.97 383.209 354.025C382.728 356.591 384.287 360.355 386.998 363.181L389.476 365.766L386.432 367.651C383.869 369.237 381.37 372.647 381.567 376.687C381.738 380.216 384.424 383.322 386.649 385.307C392.543 390.569 401.618 393.782 406.439 393.474C416.202 392.625 423.345 382.281 425.355 372.493C427.284 363.099 425.362 352.297 420.575 345.61C418.653 342.925 415.309 339.593 410.304 338.962C409.406 338.856 408.482 338.806 407.541 338.806V338.808Z" fill="#001F54"/>
<path d="M410.347 366.377L384.703 368.082L385.109 362.301L410.347 366.377Z" fill="#001F54"/>
<path d="M320.419 123.939C345.19 139.44 390.872 132.303 394.891 149.418C397.556 160.764 380.345 183.629 358.005 183.029C338.609 182.506 326.381 169.116 326.381 169.116" fill="white"/>
<path d="M321.205 122.683C334.281 127.95 347.925 130.334 361.905 132.354C371.607 134.008 386.601 135.378 394.003 142.242C400.956 148.605 397.87 158.976 393.554 165.71C387.413 175.482 377.539 183.062 366.123 185.402C358.582 186.927 350.576 185.792 343.465 183.035C336.441 180.242 330.117 175.954 325.277 170.122C324.178 168.714 326.035 166.919 327.4 168.054C328.663 169.131 330.126 170.198 331.563 171.175C341.216 177.619 353.262 181.641 364.86 179.309C374.499 177.212 383.097 170.743 388.42 162.497C391.287 157.813 394.444 150.797 389.868 146.579C385.213 142.533 377.697 141.377 371.488 140.217C360.856 138.433 350.206 137.368 339.616 134.62C336.065 133.719 332.519 132.631 329.117 131.112C325.733 129.58 322.426 127.717 319.622 125.201C319.003 124.645 318.95 123.69 319.506 123.069C319.943 122.581 320.627 122.444 321.199 122.68L321.205 122.683Z" fill="#001F54"/>
<path d="M384.19 154.413C357.831 168.245 339.551 151.184 332.079 150.89C328.789 150.76 324.235 152.335 324.15 159.322C324.15 159.322 329.651 166.068 339.774 169.24C379.82 181.793 384.19 154.413 384.19 154.413Z" fill="#E8E8E8"/>
<path d="M384.189 154.413C372.005 163.894 356.069 164.22 342.268 157.974C339.71 156.902 337.134 155.586 334.664 154.506C331.99 153.135 328.399 153.025 326.774 155.955C326.216 156.888 325.865 158.115 325.625 159.397C325.471 160.211 324.685 160.746 323.87 160.59C323.216 160.466 322.742 159.932 322.662 159.304C322.467 157.762 322.505 156.107 323.03 154.413C324.809 148.623 331.545 146.951 336.72 149.118C342.171 151.111 346.826 153.588 352.205 155.255C362.681 158.78 373.636 158.013 384.188 154.413H384.189Z" fill="#001F54"/>
<path d="M135.362 97.3586C107.881 107.296 64.7264 90.7004 57.1945 106.587C52.2012 117.118 64.2106 143.094 86.1785 147.21C105.25 150.783 120.024 140.268 120.024 140.268" fill="#5F5F82"/>
<g opacity="0.5">
<path d="M135.358 97.3579L133.186 103.437C105.747 112.62 63.6801 96.7105 56.0674 112.197C56.0902 110.064 56.4534 108.153 57.1973 106.585C64.7292 90.6997 107.881 107.302 135.358 97.3597V97.3579Z" fill="white"/>
</g>
<path d="M135.869 98.7566C120.828 106.946 98.5809 103.05 82.0063 102.516C75.6937 102.339 68.0968 101.888 62.7 104.866C57.333 108.027 58.9559 115.549 60.763 120.731C64.2317 129.913 71.2741 138.048 80.2571 142.127C91.105 146.849 103.727 145.452 114.52 141.187C116.131 140.534 117.785 139.799 119.247 139.013C120.819 138.187 122.265 140.343 120.887 141.482C114.929 146.166 107.843 149.024 100.388 150.275C92.8577 151.472 84.7924 150.896 77.7412 147.819C67.0739 143.127 59.0191 133.639 55.0715 122.791C52.2714 115.303 51.4345 104.508 59.5717 99.7549C66.3791 95.8196 74.7392 96.2178 82.2361 96.2898C92.8981 96.6477 103.653 97.7758 114.194 97.7039C121.18 97.5741 127.975 97.1319 134.858 95.9617C136.483 95.6775 137.334 97.925 135.869 98.7583V98.7566Z" fill="#001F54"/>
<path d="M66.6053 113.721C89.4609 132.794 110.923 119.963 118.29 121.248C121.533 121.813 125.656 124.313 124.264 131.16C124.264 131.16 117.466 136.598 106.904 137.568C65.1122 141.408 66.6053 113.721 66.6053 113.721Z" fill="#515151"/>
<path d="M66.6043 113.721C76.1592 119.462 86.7089 122.518 97.6919 121.279C103.304 120.783 108.371 119.341 114.123 118.539C119.633 117.509 125.874 120.567 126.392 126.597C126.548 128.364 126.237 129.99 125.721 131.457C125.446 132.238 124.59 132.65 123.807 132.375C123.179 132.154 122.79 131.557 122.806 130.925C122.841 129.62 122.756 128.346 122.407 127.316C121.435 124.109 117.902 123.462 115 124.237C112.358 124.776 109.564 125.518 106.835 126.029C92.0039 129.225 76.5382 125.562 66.6025 113.721H66.6043Z" fill="#001F54"/>
<path d="M177.662 110.61L149.022 108.423L139.678 107.363C129.3 94.0919 133.325 68.4941 140.929 54.5091C144.278 48.3298 148.319 44.4208 152.131 44.8261C158.44 45.4981 157.787 62.4639 168.551 75.3839C174.557 82.5966 184.112 88.5565 200.42 89.725C235.778 92.2725 177.662 110.61 177.662 110.61Z" fill="#F9E3D2"/>
<g opacity="0.5">
<path d="M190.452 88.2533C178.943 86.7252 171.044 82.2407 165.345 76.7001C154.376 66.0486 151.559 51.504 147.023 46.6458C148.722 45.3159 150.45 44.6492 152.132 44.8282C158.442 45.5001 157.789 62.4677 168.553 75.386C173.211 80.981 180.009 85.8251 190.454 88.2551L190.452 88.2533Z" fill="white"/>
</g>
<path d="M177.662 110.61L149.022 108.422L139.678 107.363C129.3 94.0918 133.325 68.494 140.929 54.509C140.929 54.509 133.858 84.8089 150.041 81.4684C158.1 79.8086 162.93 77.2646 168.549 75.3838C174.555 82.5965 184.11 88.5565 200.418 89.7249C235.776 92.2724 177.66 110.61 177.66 110.61H177.662Z" fill="#E2C3AF"/>
<path d="M178.014 113.626L148.795 111.384C147.158 111.259 145.932 109.829 146.058 108.192C146.182 106.554 147.621 105.326 149.249 105.455L177.317 107.608C191.927 102.953 205.251 97.0918 208.333 94.053C207.286 93.646 204.996 93.0389 200.205 92.6951C167.071 90.3125 159.983 68.9394 155.75 56.1685C154.595 52.6841 153.013 47.9137 151.814 47.7874C150.172 47.6049 147.072 49.5577 143.716 55.6071C136.805 68.0622 132.226 93.0091 142.023 105.536C143.035 106.831 142.805 108.699 141.512 109.71C140.219 110.721 138.35 110.492 137.338 109.199C125.827 94.4794 130.625 66.941 138.515 52.721C142.68 45.2153 147.623 41.3642 152.444 41.873C157.451 42.4064 159.192 47.6541 161.396 54.2983C165.404 66.3919 171.464 84.6665 200.631 86.7631C207.31 87.2439 214.212 88.3738 214.77 93.1179C215.2 96.7707 212.195 100.546 196.136 107.099C187.495 110.624 178.923 113.34 178.561 113.454L178.012 113.628L178.014 113.626Z" fill="#001F54"/>
<path d="M278.833 121.385L307.292 125.276L316.649 126.208C329.588 115.419 331.043 89.5477 326.555 74.2767C324.581 67.5307 321.454 62.8586 317.644 62.4515C311.335 61.7796 308.401 78.5033 295.158 88.867C287.768 94.6533 277.173 98.4692 260.985 96.1779C225.883 91.2232 278.835 121.386 278.835 121.386L278.833 121.385Z" fill="#F9E3D2"/>
<g opacity="0.5">
<path d="M271.037 96.8407C282.61 97.7706 291.277 95.0494 298.014 90.8334C310.98 82.7294 316.796 69.1041 322.254 65.3092C320.875 63.6512 319.326 62.6354 317.641 62.4564C311.332 61.7844 308.399 78.5082 295.156 88.8719C289.424 93.3598 281.757 96.6635 271.037 96.8407Z" fill="white"/>
</g>
<path d="M278.833 121.386L307.292 125.277L316.649 126.209C329.588 115.42 331.043 89.5488 326.555 74.2778C326.555 74.2778 327.088 105.387 311.97 98.7142C304.441 95.3948 300.255 91.8911 295.158 88.8681C287.768 94.6544 277.173 98.4703 260.985 96.179C225.883 91.2243 278.835 121.387 278.835 121.387L278.833 121.386Z" fill="#E2C3AF"/>
<path d="M316.651 129.184C315.8 129.184 314.954 128.821 314.365 128.116C313.314 126.854 313.484 124.979 314.744 123.926C326.959 113.741 327.734 88.3891 323.6 74.7585C321.592 68.1389 318.969 65.5861 317.332 65.4124C317.314 65.4106 317.297 65.4089 317.279 65.4089C316.06 65.4089 313.556 69.66 311.719 72.7777C304.891 84.3696 293.46 103.774 260.571 99.1247C255.816 98.4528 253.448 98.5633 252.339 98.7405C254.714 102.36 266.503 110.896 279.803 118.522L307.696 122.328C309.322 122.551 310.463 124.049 310.24 125.677C310.017 127.303 308.533 128.444 306.891 128.221L277.856 124.259L277.356 123.975C277.026 123.787 269.219 119.328 261.515 114.062C247.195 104.276 245.054 99.9511 246.242 96.472C247.786 91.9524 254.772 92.3015 261.402 93.2384C290.362 97.3246 300.129 80.7395 306.594 69.7618C310.147 63.7299 312.954 58.9664 317.96 59.4998C322.776 60.0121 326.801 64.8194 329.292 73.0356C334.012 88.5978 332.906 116.531 318.553 128.498C317.997 128.961 317.321 129.188 316.649 129.188L316.651 129.184Z" fill="#001F54"/>
<path d="M337.155 306.29C313.726 345.552 250.361 348.243 203.941 344.292C157.729 338.381 96.3525 322.409 81.7131 279.094C75.0707 259.432 79.3306 239.452 88.2872 221.054C92.3786 151.103 110.788 57.3998 233.098 70.4233C355.41 83.445 353.679 178.924 342.948 248.168C347.831 268.037 347.787 288.467 337.155 306.29Z" fill="white"/>
<path d="M337.153 306.291C313.722 345.554 250.36 348.24 203.94 344.295C157.731 338.377 96.3469 322.409 81.7092 279.093C75.0703 259.432 79.3284 239.445 88.2833 221.051C91.0501 173.847 100.331 115.828 143.66 87.0949C164.538 73.2362 193.329 66.185 233.1 70.4186C272.87 74.6521 299.531 87.6072 317.024 105.552C353.333 142.765 350.189 201.436 342.946 248.165C347.827 268.031 347.79 288.469 337.151 306.289L337.153 306.291Z" fill="white"/>
<path d="M337.152 306.295C313.723 345.553 250.356 348.241 203.941 344.295C157.728 338.377 96.3479 322.415 81.7033 279.095C75.0696 259.436 79.3295 239.447 88.2791 221.051C89.93 192.834 93.9162 160.748 106.113 133.371C114.314 114.949 126.228 98.6589 143.656 87.1022C162.592 74.5331 188.039 67.5573 222.27 69.5363C225.786 69.7363 229.392 70.0276 233.094 70.4223C272.868 74.6577 299.525 87.6075 317.023 105.554C353.33 142.767 350.188 201.442 342.944 248.169C347.821 268.036 347.789 288.467 337.15 306.295H337.152Z" fill="white"/>
<path d="M222.272 69.5363C220.146 87.7899 213.589 104.858 204.227 113.028C183.216 131.371 173.329 112.69 133.639 132.384C120.24 139.037 111.157 138.024 106.113 133.371C114.314 114.949 126.228 98.6589 143.656 87.1022C162.592 74.5331 188.039 67.5573 222.27 69.5363H222.272Z" fill="#5F5F82"/>
<path d="M89.4703 205.115C88.9703 210.524 88.5895 215.859 88.2825 221.051C88.1193 221.381 87.9562 221.719 87.8105 222.052C88.2334 216.491 88.7773 210.826 89.4703 205.115Z" fill="white"/>
<path d="M343.195 249.246C343.123 248.89 343.034 248.525 342.946 248.167C343.741 243.019 344.49 237.721 345.143 232.321C344.617 238.058 343.955 243.719 343.197 249.244L343.195 249.246Z" fill="white"/>
<path d="M87.8356 222.106C87.6181 224.945 87.4356 227.761 87.2742 230.529C86.2741 232.587 85.332 234.67 84.4548 236.758C81.7441 243.225 79.6861 249.869 78.5264 256.585C78.9071 246.632 81.4914 236.779 85.4636 227.282C86.2057 225.506 87.0093 223.729 87.8497 221.973L87.8356 222.106Z" fill="white"/>
<path d="M345 284.99C345.261 278.758 344.766 272.437 343.701 266.131C343.223 263.294 342.628 260.462 341.937 257.645C342.366 254.862 342.786 252.037 343.175 249.167C343.775 251.657 344.289 254.153 344.71 256.657C346.321 266.192 346.621 275.758 345 284.992V284.99Z" fill="white"/>
<path d="M88.8434 212.628C88.6259 215.467 88.4434 218.283 88.282 221.052C88.1329 221.355 87.989 221.667 87.8486 221.971C88.2802 216.176 88.8346 210.262 89.5557 204.288C89.282 207.086 89.054 209.874 88.8434 212.628Z" fill="white"/>
<path d="M343.176 249.163C343.111 248.828 343.029 248.502 342.946 248.165C343.776 242.816 344.555 237.319 345.22 231.699C344.664 237.624 343.967 243.465 343.176 249.163Z" fill="white"/>
<path d="M337.154 306.291C313.725 345.553 250.358 348.246 203.94 344.295C157.729 338.384 96.3517 322.409 81.7123 279.095C75.8085 261.632 78.5086 243.921 85.4669 227.283C95.0692 218.983 147.174 199.733 217.641 207.261C288.113 214.739 334.996 244.528 342.628 254.662C343.179 255.392 343.889 256.055 344.716 256.655C347.607 273.787 346.279 290.999 337.158 306.291H337.154Z" fill="#FFD8BE"/>
<path d="M338.91 284.893C337.526 290.241 335.418 295.462 332.434 300.462C309.973 338.101 249.219 340.682 204.726 336.894C160.43 331.229 101.592 315.914 87.5579 274.391C85.6946 268.875 84.7314 263.336 84.5068 257.807C99.827 300.241 160.704 314.33 206.505 320.19C252.512 324.104 315 323.149 338.91 284.893Z" fill="#FFB6B8"/>
<path d="M233.971 348.605C223.589 348.605 213.355 348.081 203.688 347.258C203.646 347.254 203.604 347.251 203.564 347.245C154.949 341.027 93.8578 324.323 78.8956 280.051C72.7936 261.985 74.9656 241.882 85.3539 220.295C87.0171 192.379 90.4858 170.496 96.258 151.47C104.102 125.62 116.449 105.418 132.955 91.4247C157.051 70.9973 190.853 62.939 233.414 67.4708C275.978 72.0026 307.324 86.9982 326.579 112.04C339.769 129.195 347.585 151.544 349.81 178.466C351.447 198.28 350.229 220.405 345.978 248.044C351.587 271.334 349.478 291.444 339.708 307.819C320.502 340.005 276.022 348.609 233.971 348.609V348.605ZM204.255 341.336C251.386 345.345 312.236 342.245 334.601 304.768C343.62 289.648 345.457 270.845 340.06 248.879C339.967 248.498 339.95 248.101 340.01 247.714C346.013 208.966 350.665 153.119 321.863 115.661C303.637 91.9598 273.667 77.7345 232.785 73.3816C191.903 69.0288 159.607 76.6239 136.8 95.9583C100.758 126.513 93.5456 182.086 91.256 221.228C91.2332 221.619 91.1331 222.004 90.9612 222.356C81.0607 242.692 78.8956 261.464 84.531 278.143C98.5037 319.486 157.335 335.327 204.257 341.335L204.255 341.336Z" fill="#001F54"/>
<path d="M180.749 223.567C181.4 221.844 179.221 219.425 175.882 218.164C172.544 216.903 169.31 217.278 168.659 219.001C168.008 220.724 170.187 223.143 173.525 224.404C176.864 225.665 180.098 225.29 180.749 223.567Z" fill="#FFB6B8"/>
<path d="M161.158 218.725C159.71 211.683 166.209 206.024 173.169 206.738C176.529 207.021 179.515 208.505 181.896 210.433C184.275 212.384 186.191 214.811 187.301 217.616C182.671 214.756 178.024 211.719 172.792 211.179C167.486 210.663 163.262 213.544 161.158 218.727V218.725Z" fill="#001F54"/>
<path d="M258.881 233.523C262.409 232.993 265.048 231.088 264.775 229.266C264.502 227.444 261.42 226.397 257.891 226.926C254.363 227.455 251.724 229.361 251.998 231.182C252.271 233.004 255.353 234.052 258.881 233.523Z" fill="#FFB6B8"/>
<path d="M272.204 230.548C271.239 225.039 267.716 221.332 262.419 220.72C257.187 220.148 252.012 222.136 246.878 223.959C248.553 221.451 250.938 219.481 253.673 218.076C256.407 216.693 259.638 215.87 262.982 216.302C269.935 217.067 275.1 223.974 272.202 230.55L272.204 230.548Z" fill="#001F54"/>
<path d="M184.791 180.003C186.788 161.259 175.248 144.662 159.016 142.933C142.785 141.204 128.008 154.998 126.012 173.742C124.015 192.486 135.555 209.083 151.786 210.812C168.018 212.541 182.794 198.747 184.791 180.003Z" fill="#001F54"/>
<path d="M172.628 181.962C173.341 175.263 169.63 169.375 164.338 168.811C159.047 168.247 154.179 173.221 153.465 179.921C152.751 186.62 156.463 192.508 161.754 193.072C167.046 193.635 171.914 188.661 172.628 181.962Z" fill="white"/>
<g opacity="0.2">
<path d="M151.143 163.129C151.626 158.595 149.641 154.666 146.71 154.354C143.779 154.042 141.012 157.465 140.529 161.999C140.046 166.533 142.03 170.462 144.961 170.774C147.892 171.086 150.66 167.664 151.143 163.129Z" fill="white"/>
</g>
<path d="M260.958 213.953C260.842 199.352 268.757 182.988 283.986 178.984C295.422 175.952 308.047 181.746 314.187 191.392C318.77 198.341 320.575 206.815 319.098 214.828C315.752 208.359 312.001 202.294 306.684 197.761C299.599 191.739 291.441 189.636 283.495 193.227C274.396 197.64 268.273 206.717 260.958 213.953Z" fill="#001F54"/>
<path d="M208.041 305.779C252.647 310.528 244.62 263.577 244.62 263.577C244.62 263.577 225.182 264.213 212.61 262.875C200.037 261.536 181.169 256.82 181.169 256.82C181.169 256.82 163.437 301.029 208.041 305.779Z" fill="white"/>
<path d="M214.131 309.088C212.081 309.088 209.946 308.971 207.727 308.734C194.054 307.278 184.455 302.105 179.195 293.361C169.772 277.699 178.053 256.601 178.411 255.71C178.964 254.331 180.446 253.575 181.892 253.931C182.078 253.978 200.707 258.612 212.927 259.914C225.145 261.214 244.332 260.607 244.525 260.6C246.001 260.57 247.304 261.607 247.553 263.072C247.715 264.017 251.369 286.385 238.858 299.714C233.009 305.946 224.71 309.088 214.134 309.088H214.131ZM183.104 260.347C181.385 265.925 178.067 279.98 184.301 290.315C188.554 297.365 196.645 301.572 208.355 302.818C220.08 304.069 228.877 301.653 234.518 295.642C242.801 286.819 242.502 272.418 241.986 266.614C236.149 266.739 222.249 266.888 212.294 265.828C202.34 264.768 188.789 261.696 183.104 260.345V260.347Z" fill="#001F54"/>
<path d="M180.216 273.869C182.244 277.609 186.909 279.574 190.739 281.345C194.111 282.762 197.66 283.936 201.199 284.957L204.794 285.938C202.564 285.787 199.52 285.599 197.336 285.329C190.128 284.373 180.007 283.118 175.159 277.004L180.214 273.869H180.216Z" fill="#001F54"/>
<path d="M246.239 284.572C239.106 290.577 224.035 288.277 215.389 287.065L219.11 286.863C225.103 286.412 231.36 285.745 236.969 283.661C238.774 282.94 240.906 281.908 241.958 280.443L246.239 284.573V284.572Z" fill="#001F54"/>
<path d="M306.454 299.163C305.808 299.17 305.203 298.763 304.989 298.117C304.724 297.317 305.157 296.454 305.956 296.187C313.753 293.599 353.342 279.79 367.227 261.971C379.646 246.035 375.882 227.147 375.844 226.957C375.672 226.133 376.2 225.324 377.024 225.152C377.851 224.98 378.658 225.508 378.83 226.333C379.003 227.161 382.911 246.806 369.633 263.847C355.207 282.358 314.858 296.447 306.917 299.082C306.764 299.133 306.607 299.158 306.454 299.159V299.163Z" fill="#D8E6EA"/>
<path d="M377.34 225.121C378.047 225.121 378.682 225.616 378.831 226.335C379.003 227.163 382.912 246.808 369.636 263.85C355.21 282.361 314.861 296.45 306.918 299.085C306.764 299.136 306.608 299.16 306.454 299.162H306.436C305.796 299.162 305.201 298.757 304.988 298.116C304.724 297.316 305.157 296.453 305.955 296.186C313.752 293.599 353.342 279.789 367.227 261.971C379.645 246.035 375.882 227.146 375.841 226.956C375.669 226.132 376.198 225.323 377.022 225.151C377.127 225.128 377.233 225.118 377.336 225.118M377.34 219.174C376.829 219.174 376.315 219.226 375.813 219.331C371.79 220.174 369.197 224.118 370.015 228.137C370.095 228.565 373.011 244.877 362.537 258.318C352.584 271.09 324.828 283.659 304.083 290.544C300.172 291.844 298.048 296.081 299.344 299.99C300.362 303.053 303.211 305.112 306.438 305.112H306.531C307.282 305.103 308.038 304.978 308.766 304.74C320.351 300.894 359.237 286.87 374.327 267.506C380.48 259.609 384.24 249.947 385.2 239.561C385.937 231.601 384.787 225.762 384.654 225.121C383.935 221.675 380.859 219.174 377.34 219.174Z" fill="#001F54"/>
<path d="M334.255 297.418L305.238 306.947C303.971 307.362 302.606 306.673 302.19 305.406L296.997 289.591C296.581 288.325 297.271 286.96 298.538 286.544L327.555 277.015C328.822 276.599 330.187 277.289 330.602 278.556L335.796 294.37C336.211 295.637 335.522 297.002 334.255 297.418Z" fill="#6C758C"/>
<g opacity="0.5">
<path d="M332.807 285.28L333.588 287.659C333.698 287.996 333.784 288.34 333.855 288.677C331.881 284.331 326.907 282.077 322.268 283.601L306.692 288.717C302.053 290.24 299.383 295.005 300.37 299.674C300.228 299.362 300.093 299.032 299.983 298.697L299.202 296.318C297.568 291.342 300.281 285.977 305.257 284.343L320.833 279.227C325.809 277.592 331.174 280.305 332.807 285.282V285.28Z" fill="white"/>
</g>
<path d="M332.807 285.277L333.588 287.656C335.221 292.632 332.506 297.985 327.53 299.62L311.954 304.736C306.978 306.369 301.616 303.669 299.983 298.693L299.202 296.314C298.898 295.39 298.751 294.453 298.727 293.528C301.076 296.832 305.381 298.386 309.432 297.056L325.009 291.94C329.06 290.611 331.604 286.805 331.539 282.752C332.067 283.51 332.504 284.352 332.807 285.279V285.277Z" fill="#4E5A75"/>
<path d="M309.094 308.449C307.094 308.449 305.108 307.979 303.273 307.051C300.19 305.491 297.899 302.826 296.821 299.545L296.148 297.494C295.071 294.211 295.335 290.708 296.893 287.623C298.451 284.541 301.118 282.249 304.399 281.172L319.654 276.163C322.937 275.084 326.441 275.351 329.523 276.909C332.606 278.467 334.897 281.133 335.974 284.414L336.648 286.465C337.725 289.746 337.46 293.252 335.902 296.334C334.345 299.417 331.678 301.708 328.397 302.785L313.143 307.794C311.817 308.231 310.452 308.447 309.096 308.447L309.094 308.449ZM323.693 282.063C323.023 282.063 322.351 282.17 321.696 282.384L306.441 287.393C304.822 287.925 303.506 289.057 302.736 290.578C301.967 292.099 301.836 293.829 302.367 295.448L303.041 297.499C303.573 299.119 304.704 300.434 306.225 301.203C307.747 301.971 309.477 302.103 311.098 301.571L326.351 296.562C327.971 296.031 329.286 294.899 330.057 293.378C330.825 291.857 330.957 290.127 330.425 288.507L329.751 286.456C329.22 284.837 328.088 283.521 326.567 282.751C325.66 282.293 324.681 282.061 323.693 282.061V282.063Z" fill="#001F54"/>
<path d="M362.614 202.898C364.072 196.831 365.146 190.61 365.809 184.367C374.218 105.397 316.812 34.3104 237.842 25.9012C158.872 17.4919 87.7854 74.8985 79.3761 153.868C78.7112 160.108 78.4498 166.416 78.5972 172.655L64.7648 171.181C64.6876 164.949 64.9859 158.643 65.6491 152.404C74.8636 65.8665 152.764 2.95958 239.302 12.1741C325.835 21.3886 388.738 99.2893 379.524 185.827C378.859 192.066 377.822 198.293 376.436 204.369L362.612 202.897L362.614 202.898Z" fill="#D8E6EA"/>
<path d="M379.529 185.831C378.866 192.064 377.824 198.291 376.436 204.372L362.612 202.9C364.076 196.828 365.144 190.61 365.807 184.371C374.216 105.398 316.812 34.3104 237.844 25.9029C158.872 17.4937 87.7835 74.8985 79.3743 153.873C78.7094 160.114 78.4515 166.416 78.5953 172.66L64.7648 171.188C64.6876 164.951 64.9876 158.645 65.6508 152.411C74.8653 65.8665 152.768 2.95958 239.304 12.1741C325.835 21.3886 388.742 99.2893 379.527 185.833L379.529 185.831Z" fill="#D8E6EA"/>
<path d="M372.741 185.107C372.32 189.058 371.741 193.015 371.009 196.925L370.874 196.911C371.601 192.992 372.18 189.044 372.599 185.091L365.809 184.369C374.218 105.396 316.814 34.3079 237.846 25.9005C158.874 17.4913 87.7855 74.8961 79.3763 153.87L72.5865 153.148C72.1654 157.099 71.8987 161.081 71.7917 165.066L71.6426 165.05C71.7566 161.073 72.0233 157.083 72.4444 153.132C81.2606 70.3362 155.789 10.1453 238.585 18.9615C321.373 27.7778 381.557 102.312 372.741 185.107Z" fill="#A1BECE"/>
<path d="M378.839 207.726L358.794 205.591L359.615 202.173C361.04 196.24 362.093 190.139 362.744 184.037C370.972 106.759 314.797 37.1961 237.519 28.9676C160.242 20.7426 90.6782 76.9158 82.4496 154.192C81.8005 160.292 81.5443 166.478 81.6882 172.581L81.7707 176.095L61.717 173.96L61.6836 171.217C61.6064 164.873 61.91 158.432 62.5854 152.076C67.1295 109.402 88.0692 71.012 121.546 43.979C155.024 16.9459 196.965 4.55931 239.635 9.10341C282.308 13.6475 320.694 34.5872 347.727 68.0627C374.758 101.54 387.145 143.479 382.601 186.151C381.925 192.504 380.866 198.864 379.451 205.052L378.841 207.725L378.839 207.726ZM366.396 200.193L374.014 201.003C375.085 195.901 375.904 190.697 376.458 185.497C380.829 144.463 368.918 104.135 342.92 71.9401C316.924 39.7454 280.009 19.6092 238.979 15.2406C197.949 10.8719 157.617 22.7831 125.422 48.781C93.2274 74.7788 73.0912 111.695 68.7208 152.729C68.1664 157.931 67.8734 163.189 67.8436 168.401L75.4703 169.214C75.4721 163.992 75.751 158.734 76.3055 153.537C84.8936 72.8752 157.506 14.2405 238.168 22.827C318.831 31.4169 377.467 104.028 368.879 184.69C368.325 189.888 367.491 195.087 366.395 200.191L366.396 200.193Z" fill="#001F54"/>
<path d="M348.861 86.4275C370.941 118.889 379.452 160.014 372.287 198.611C371.452 198.525 369.887 198.353 369.048 198.265L369.354 196.625C370.077 192.749 370.648 188.845 371.066 184.924C371.155 184.077 371.917 183.462 372.764 183.552C373.612 183.641 374.226 184.403 374.136 185.25C373.71 189.252 373.126 193.235 372.389 197.19L371.034 195.372L371.173 195.386L369.492 196.639C377.173 159.023 369.591 118.756 348.861 86.4275Z" fill="#001F54"/>
<path d="M74.1223 153.305C73.6398 157.772 73.3854 162.279 73.2854 166.772L71.6257 166.595L71.4783 166.579L70.0361 166.411L70.0975 165.002C71.2853 135.976 80.8736 107.252 97.7464 83.5873C103.32 75.7097 109.631 68.3725 116.561 61.6914C109.812 68.5549 103.717 76.0413 98.3833 84.0242C82.3386 107.857 73.596 136.401 73.1837 165.088C73.1837 165.088 71.8012 163.509 71.8047 163.511L71.952 163.527L70.2449 165.02C70.3555 160.998 70.6239 156.981 71.0502 152.98C71.1397 152.133 71.9012 151.519 72.7486 151.608C73.596 151.698 74.21 152.459 74.1206 153.307L74.1223 153.305Z" fill="#001F54"/>
<path d="M240.172 3.99008H240.169C208.627 0.63201 176.076 6.76041 144.32 22.5665C138.909 25.2596 135.705 31.2126 136.697 36.7901C137.174 39.4727 145.808 51.5207 157.307 50.4241C170.488 49.1662 178.101 42.1658 181.631 37.2199C196.795 38.834 207.274 35.5444 217.275 30.2932C222.64 33.118 229.526 35.1865 236.769 35.9585H236.772C244.015 36.7304 251.184 36.1567 257.022 34.5268C265.693 41.7658 275.244 47.1889 290.408 48.803C292.819 54.3822 298.786 62.8283 311.406 66.832C322.417 70.3252 333.395 60.365 334.427 57.8438C336.571 52.6014 334.691 46.1064 329.97 42.3342C302.253 20.1962 271.723 7.34991 240.181 3.99008H240.178H240.174H240.172Z" fill="#608096"/>
<path d="M334.426 57.8434C333.396 60.3628 322.418 70.3265 311.405 66.8316C298.784 62.8296 292.817 54.3801 290.409 48.8026C275.24 47.1867 265.691 41.7618 257.018 34.5281C251.179 36.158 244.012 36.7282 236.773 35.9563H236.766C229.522 35.1843 222.634 33.1193 217.27 30.2946C207.27 35.5405 196.79 38.8336 181.628 37.2195C178.095 42.1654 170.482 49.1622 157.301 50.4237C145.805 51.5203 137.173 39.4705 136.696 36.7896C136.445 35.4036 136.459 33.9895 136.701 32.6087C137.433 28.4489 140.254 24.596 144.314 22.5696C176.074 6.76524 208.623 0.631586 240.163 3.98966H240.177C271.723 7.34949 302.25 20.2011 329.964 42.3373C333.515 45.1743 335.461 49.5359 335.3 53.7555V53.7625C335.24 55.1643 334.956 56.5416 334.424 57.8452L334.426 57.8434Z" fill="#608096"/>
<g opacity="0.5">
<path d="M179.967 14.5795C199.812 9.04231 219.762 7.30712 239.588 9.41776C259.424 11.5302 278.566 17.427 296.8 27.0187C307.016 32.3927 268.633 14.8075 239.36 11.6898C210.088 8.57211 168.851 17.6796 179.967 14.5777V14.5795Z" fill="white"/>
</g>
<path d="M334.426 57.8423C333.396 60.3618 322.418 70.3255 311.405 66.8305C298.784 62.8286 292.817 54.379 290.409 48.8015C275.24 47.1856 265.691 41.7608 257.018 34.5271C251.179 36.157 244.012 36.7272 236.773 35.9552H236.766C229.522 35.1832 222.634 33.1182 217.27 30.2935C207.27 35.5394 196.79 38.8325 181.628 37.2184C178.095 42.1643 170.482 49.1612 157.301 50.4226C145.805 51.5192 137.173 39.4694 136.696 36.7886C136.445 35.4025 136.459 33.9884 136.701 32.6077C138.673 34.7955 142.851 37.7395 151.446 39.0396C165.413 41.159 169.382 31.3076 162.885 26.2143C162.885 26.2143 186.707 32.3971 198.848 27.8057C207.907 24.3827 206.891 15.0787 206.856 14.7664C207.237 14.9997 219.413 22.5861 237.977 24.5634H237.984C256.548 26.5407 270.05 21.6825 270.472 21.5334C270.372 21.8316 267.419 30.7181 275.554 35.9728C286.457 43.0187 311.047 41.9906 311.047 41.9906C303.624 45.6013 305.428 56.0668 319.53 56.937C328.208 57.4774 332.905 55.4843 335.298 53.7614C335.238 55.1632 334.954 56.5405 334.424 57.8441L334.426 57.8423Z" fill="#40657A"/>
<path d="M316.221 70.6543C314.332 70.6543 312.403 70.3859 310.472 69.7736C297.092 65.5277 290.874 56.636 288.346 51.6673C273.014 49.6883 263.499 43.7529 256.274 37.9087C250.267 39.3526 243.31 39.7509 236.492 39.0333C236.475 39.0316 236.457 39.0298 236.441 39.0281C229.606 38.3 222.876 36.442 217.293 33.7576C208.998 37.9491 198.45 41.7493 183.042 40.4562C179.523 44.781 171.573 52.1639 157.6 53.4973C144.442 54.7482 134.434 41.7036 133.657 37.3297C132.436 30.4592 136.341 23.0886 142.943 19.8025C175.082 3.80864 207.894 -2.54608 240.47 0.91726C240.494 0.919014 240.519 0.922519 240.543 0.924274C273.115 4.40165 303.852 17.5217 331.896 39.9211C337.657 44.5249 339.924 52.5533 337.284 59.0116C335.861 62.4925 326.65 70.6543 316.223 70.6543H316.221ZM257.02 31.4382C257.734 31.4382 258.436 31.6873 258.999 32.1558C266.271 38.2263 275.149 44.0722 290.734 45.7319C291.841 45.8495 292.799 46.5548 293.241 47.5776C294.785 51.1498 299.736 59.8906 312.338 63.889C321.476 66.7927 330.669 58.2554 331.587 56.6272C333.182 52.6551 331.696 47.6671 328.041 44.7477C300.922 23.0869 271.256 10.4072 239.861 7.0632C239.847 7.0632 239.831 7.0597 239.817 7.0597C208.429 3.72092 176.759 9.87037 145.693 25.3326C141.503 27.4169 139.001 31.9803 139.726 36.1998C140.28 37.9859 147.472 48.2619 157.013 47.3531C170.176 46.0969 176.856 38.5965 179.117 35.4296C179.765 34.5226 180.847 34.0348 181.956 34.1541C197.539 35.8121 207.452 31.9663 215.839 27.5643C216.739 27.0923 217.812 27.0923 218.712 27.5643C223.872 30.282 230.383 32.1698 237.049 32.8874C237.064 32.8874 237.08 32.8909 237.096 32.8927C243.779 33.6032 250.558 33.1278 256.188 31.5575C256.462 31.4803 256.741 31.4435 257.018 31.4435L257.02 31.4382ZM331.571 56.6676C331.571 56.6676 331.569 56.6729 331.568 56.6746C331.568 56.6729 331.569 56.6694 331.571 56.6676Z" fill="#001F54"/>
<path d="M170.939 31.4746C174.641 32.8992 178.735 34.1063 182.593 34.287L180.666 40.1523C176.812 37.7785 173.794 34.7958 170.939 31.4746Z" fill="#001F54"/>
<path d="M209.267 20.8484C212.293 23.6485 215.723 26.1522 219.33 27.9909L215.216 32.5946C212.655 28.919 210.725 24.9942 209.267 20.8484Z" fill="#001F54"/>
<path d="M266.84 26.9771C264.54 30.7229 261.829 34.1511 258.55 37.2074L255.497 31.8405C259.411 30.8036 263.289 29.0772 266.84 26.9788V26.9771Z" fill="#001F54"/>
<path d="M302.066 45.4358C298.576 48.0815 294.999 50.3606 290.732 51.8712L290.083 45.7305C293.895 46.3657 298.147 46.0499 302.068 45.4358H302.066Z" fill="#001F54"/>
<path d="M370.177 214.27L355.572 129.63C355.572 129.63 363.031 125.71 366.761 123.751C378.038 117.824 391.986 123.252 396.224 135.269C403.075 154.701 406.529 174.732 406.587 195.335C406.624 208.076 395.301 217.864 382.688 216.059C378.517 215.463 370.177 214.27 370.177 214.27Z" fill="#D8E6EA"/>
<path d="M406.59 195.329C406.62 208.074 395.304 217.86 382.686 216.055C378.519 215.465 370.178 214.269 370.178 214.269L365.379 186.453L355.568 129.625C355.568 129.625 363.032 125.711 366.757 123.746C378.041 117.82 391.984 123.251 396.223 135.264C401.12 149.16 404.281 163.362 405.708 177.854C406.28 183.63 406.576 189.453 406.59 195.329Z" fill="#D8E6EA"/>
<path d="M406.59 195.33C406.62 208.074 395.303 217.861 382.685 216.056C378.518 215.466 370.177 214.27 370.177 214.27L365.379 186.454C376.785 184.078 393.137 180.81 395.28 181.108C397.996 181.485 403.016 183.677 405.707 177.854C406.279 183.629 406.576 189.452 406.59 195.328V195.33Z" fill="#B1BFC4"/>
<path d="M385.663 219.242C384.535 219.242 383.402 219.163 382.27 219L367.617 216.905L352.275 128.002L365.378 121.115C371.534 117.88 378.782 117.485 385.258 120.024C391.709 122.558 396.729 127.751 399.029 134.276C405.959 153.936 409.503 174.474 409.563 195.323C409.582 202.241 406.594 208.817 401.364 213.366C396.978 217.18 391.397 219.242 385.663 219.242ZM372.741 211.631L383.11 213.113C388.284 213.852 393.514 212.31 397.46 208.878C401.385 205.465 403.629 200.53 403.613 195.34C403.557 175.162 400.125 155.282 393.418 136.255C391.692 131.36 387.925 127.461 383.082 125.561C378.215 123.651 372.769 123.949 368.143 126.381L358.87 131.255L372.74 211.631H372.741Z" fill="#001F54"/>
<path d="M359.283 172.57C352.425 132.829 346.688 118.469 351.23 116.083C364.964 108.865 381.949 115.476 387.107 130.108C395.45 153.773 399.657 178.165 399.729 203.252C399.773 218.767 385.986 230.685 370.627 228.489C365.548 227.762 366.143 212.311 359.285 172.568L359.283 172.57Z" fill="#B3E538"/>
<path d="M399.729 203.253C399.774 218.763 385.984 230.686 370.629 228.488C365.979 227.826 366.081 214.822 360.867 182.133C360.386 179.117 359.863 175.929 359.281 172.567C352.426 132.825 346.692 118.466 351.229 116.078C364.964 108.862 381.949 115.471 387.105 130.103C392.423 145.19 396.067 160.574 398.018 176.243C399.139 185.152 399.711 194.154 399.73 203.251L399.729 203.253Z" fill="#B3E538"/>
<path d="M399.729 203.253C399.774 218.763 385.984 230.686 370.629 228.488C365.98 227.826 366.081 214.822 360.867 182.133C360.613 180.555 360.351 178.924 360.071 177.25C359.823 175.729 359.555 174.165 359.281 172.567C357.539 162.472 355.872 154.014 354.418 146.975C350.179 126.305 347.844 117.857 351.23 116.078C364.964 108.862 381.949 115.471 387.105 130.103C388.939 135.307 390.572 140.544 392 145.815H392.007C394.139 153.649 395.829 161.563 397.073 169.551C397.427 171.776 397.739 174.006 398.018 176.245C399.139 185.154 399.711 194.156 399.731 203.253H399.729Z" fill="#32D4F9"/>
<g opacity="0.5">
<path d="M397.07 169.555C393.109 173.652 382.476 181.2 360.07 177.256C359.823 175.734 359.554 174.171 359.28 172.573C357.538 162.478 355.871 154.019 354.417 146.98C365.297 140.831 381.362 138.366 392 145.819H392.007C394.138 153.653 395.828 161.567 397.072 169.553L397.07 169.555Z" fill="white"/>
</g>
<g opacity="0.5">
<path d="M388.564 134.393C381.195 125.159 367.918 121.918 356.784 127.771C355.812 128.284 353.762 129.505 351.213 131.503C349.29 121.834 348.864 117.33 351.229 116.083C364.963 108.867 381.948 115.476 387.105 130.108C387.606 131.535 388.096 132.961 388.564 134.395V134.393Z" fill="white"/>
</g>
<path d="M399.728 203.252C399.774 218.762 385.983 230.685 370.628 228.487C365.979 227.826 366.081 214.821 360.866 182.132C363.507 179.721 365.651 185.825 370.123 192.245C377.237 202.454 399.579 195.678 398.016 176.242C399.137 185.151 399.709 194.155 399.728 203.251V203.252Z" fill="#34ADF7"/>
<path d="M374.246 231.721C372.902 231.721 371.553 231.626 370.206 231.433C365.937 230.823 364.723 225.887 364.139 223.513C363.2 219.696 362.432 214.057 361.372 206.253C360.203 197.663 358.751 186.971 356.352 173.076C353.954 159.178 351.742 148.618 349.961 140.134C348.345 132.424 347.176 126.856 346.783 122.943C346.538 120.513 346.029 115.455 349.847 113.45C357.177 109.599 365.804 109.123 373.515 112.151C381.196 115.166 387.173 121.35 389.912 129.119C398.328 152.992 402.632 177.932 402.702 203.244C402.725 211.48 399.167 219.31 392.942 224.724C387.719 229.266 381.073 231.721 374.246 231.721ZM371.204 225.568C377.643 226.442 384.131 224.503 389.038 220.236C393.96 215.955 396.774 209.769 396.755 203.26C396.684 178.618 392.496 154.338 384.303 131.096C382.138 124.957 377.415 120.071 371.343 117.687C365.29 115.309 358.523 115.66 352.754 118.641C351.917 120.476 353.712 129.033 355.782 138.914C357.477 146.995 359.798 158.063 362.214 172.065C364.63 186.066 366.153 197.272 367.265 205.453C368.625 215.457 369.802 224.121 371.206 225.57L371.204 225.568Z" fill="#001F54"/>
<path d="M364.375 171.689C364.375 171.689 369.645 218.314 368.326 230.151C367.628 236.41 354.494 239.882 349.153 234.883C343.116 229.234 340.458 203.652 335.793 176.619C331.127 149.586 325.059 124.593 328.854 117.247C332.21 110.749 345.751 109.619 348.504 115.28C353.715 125.992 364.373 171.687 364.373 171.687L364.375 171.689Z" fill="#D8E6EA"/>
<path d="M368.331 230.156C367.627 236.407 354.496 239.882 349.152 234.884C343.117 229.234 340.462 203.652 335.799 176.623C332.153 155.529 327.662 135.684 327.667 124.488C327.667 121.33 328.023 118.862 328.857 117.248C332.218 110.747 345.757 109.619 348.51 115.281C349.491 117.302 350.666 120.562 351.928 124.518C357.355 141.588 364.378 171.691 364.378 171.691C364.378 171.691 369.646 218.313 368.332 230.157L368.331 230.156Z" fill="#D8E6EA"/>
<path d="M368.33 230.156C367.627 236.407 354.496 239.882 349.152 234.884C344.747 230.763 342.145 216.039 339.25 197.88C338.173 191.145 337.057 183.936 335.797 176.623C332.151 155.529 327.66 135.684 327.665 124.488C327.665 121.33 328.021 118.862 328.855 117.248C332.216 110.747 345.755 109.619 348.508 115.281C349.489 117.302 350.665 120.562 351.926 124.518C357.353 141.588 364.376 171.691 364.376 171.691C364.376 171.691 365.446 181.192 366.5 192.703C367.792 206.698 369.048 223.659 368.329 230.157L368.33 230.156Z" fill="#D8E6EA"/>
<g opacity="0.5">
<path d="M343.519 128.518C344.963 128.525 350.174 149.128 352.56 163.595C355.337 180.438 357.445 199.915 355.846 200.337C354.009 200.823 342.075 128.511 343.519 128.516V128.518Z" fill="white"/>
</g>
<path d="M368.331 230.157C367.627 236.408 354.496 239.884 349.152 234.886C344.747 230.764 342.145 216.041 339.25 197.882C341.699 202.366 345.775 206.314 352.454 205.395C361.881 204.103 365.295 197.768 366.502 192.703C367.794 206.698 369.05 223.659 368.331 230.157Z" fill="#B0C3D1"/>
<path d="M351.926 124.518C344.448 121.243 333.877 122.969 327.663 124.488C327.663 121.33 328.019 118.862 328.853 117.248C332.214 110.747 345.754 109.619 348.506 115.281C349.489 117.302 350.663 120.562 351.924 124.517L351.926 124.518Z" fill="#B0C3D1"/>
<path d="M356.28 240.245C352.912 240.245 349.554 239.335 347.122 237.059C341.885 232.161 339.462 218.242 335.63 194.064C334.762 188.583 333.863 182.914 332.87 177.161C331.877 171.408 330.825 165.766 329.805 160.309C325.314 136.245 322.933 122.321 326.224 115.951C328.851 110.873 335.376 108.652 340.715 108.728C345.683 108.787 349.599 110.777 351.191 114.047C356.486 124.929 366.837 169.17 367.276 171.049L367.335 171.391C367.551 173.307 372.623 218.46 371.283 230.485C370.879 234.099 367.857 237.285 363.195 239.007C361.111 239.777 358.693 240.245 356.28 240.245ZM340.48 114.675C336.534 114.675 332.698 116.382 331.509 118.683C328.993 123.55 332.377 141.684 335.651 159.22C336.672 164.696 337.73 170.357 338.73 176.151C339.73 181.946 340.632 187.632 341.504 193.134C344.297 210.754 347.185 228.974 351.185 232.715C353.103 234.51 357.381 234.813 361.135 233.427C363.528 232.543 365.232 231.096 365.374 229.824C366.602 218.811 361.795 175.34 361.447 172.229C360.732 169.182 350.694 126.613 345.845 116.649C345.285 115.498 343.196 114.705 340.645 114.675C340.59 114.675 340.536 114.675 340.48 114.675Z" fill="#001F54"/>
<path d="M335.745 123.088C340.614 121.253 346.223 119.23 351.211 122.195C352.985 123.228 354.42 124.749 355.553 126.367L350.26 129.078C349.869 127.832 349.33 126.683 348.511 125.746C345.437 122.325 340.019 122.928 335.747 123.09L335.745 123.088Z" fill="#001F54"/>
<path d="M341.868 126.214C349.018 123.793 353.927 126.974 357.571 133.136L352.044 135.336C351.567 132.957 350.841 130.546 349.14 128.784C347.342 126.869 344.486 126.386 341.868 126.214Z" fill="#001F54"/>
<path d="M340.946 151.668C346.083 150.166 351.759 147.387 356.93 150.761C358.763 151.949 360.1 153.689 361.118 155.465L355.593 157.665C355.294 156.368 354.861 155.161 354.096 154.205C351.01 150.582 345.268 151.854 340.946 151.666V151.668Z" fill="#001F54"/>
<path d="M349.785 215.057C353.831 213.832 358.957 212.604 361.482 209.093C362.091 208.107 362.201 207.198 362.04 206.214L367.97 206.665C367.532 208.834 366.424 210.878 364.656 212.227C360.224 215.494 354.887 215.157 349.783 215.057H349.785Z" fill="#001F54"/>
<path d="M366.853 171.259C370.453 192.127 375.006 226.313 373.028 229.083C371.613 231.067 369.421 230.674 368.325 230.15C365.546 228.818 366.139 212.307 359.28 172.566C352.422 132.825 346.331 117.467 348.503 115.28C349.359 114.419 351.292 113.314 353.292 114.709C356.082 116.656 363.251 150.391 366.853 171.259Z" fill="#7EC927"/>
<path d="M373.025 229.08C371.613 231.069 369.419 230.673 368.326 230.152C366.054 229.061 366.037 217.865 362.372 192.169C361.545 186.385 360.537 179.865 359.277 172.565C352.422 132.822 346.327 117.463 348.504 115.277C349.362 114.414 351.294 113.309 353.289 114.707C356.08 116.653 363.252 150.39 366.851 171.256C367.883 177.226 368.986 184.284 369.998 191.383C372.518 209.107 374.436 227.103 373.023 229.078L373.025 229.08Z" fill="#34B1F7"/>
<path d="M373.024 229.081C371.612 231.071 369.419 230.674 368.326 230.153C366.054 229.062 366.036 217.866 362.371 192.17C364.761 193.24 367.635 193.895 370 191.386C372.519 209.11 374.437 227.105 373.024 229.081Z" fill="#208FE2"/>
<path d="M370.202 233.562C369.09 233.562 367.997 233.294 367.042 232.836C364.126 231.439 363.737 228.011 362.282 215.251C361.238 206.096 359.663 192.262 356.352 173.075C353.041 153.888 349.89 140.326 347.804 131.351C344.899 118.842 344.116 115.48 346.397 113.187C348.417 111.154 351.859 110.082 354.998 112.275C356.205 113.117 357.857 114.272 362.67 135.227C365.116 145.882 367.844 159.495 369.786 170.757C371.728 182.019 373.723 195.76 374.988 206.617C377.478 227.972 376.308 229.615 375.453 230.813C374.051 232.778 372.1 233.56 370.204 233.56L370.202 233.562ZM370.091 227.613C370.239 227.616 370.355 227.585 370.437 227.534C371.253 223.063 368.105 195.992 363.924 171.769C359.745 147.547 353.638 120.986 351.371 117.047C351.276 117.026 351.161 117.03 351.02 117.088C351.02 118.914 352.224 124.09 353.599 130.004C355.701 139.045 358.875 152.707 362.214 172.062C365.553 191.418 367.142 205.354 368.191 214.575C368.879 220.609 369.481 225.89 370.091 227.611V227.613Z" fill="#001F54"/>
<path d="M68.7997 182.175L100.9 102.509C100.9 102.509 94.4344 97.1075 91.2009 94.4056C81.4232 86.2367 66.6452 88.607 59.9729 99.4602C49.1846 117.016 41.5877 135.869 37.1928 155.997C34.4751 168.445 43.4826 180.396 56.192 181.289C60.394 181.584 68.7997 182.175 68.7997 182.175Z" fill="#D8E6EA"/>
<path d="M37.1913 155.993C34.4789 168.445 43.4794 180.396 56.1959 181.288C60.3943 181.588 68.8001 182.177 68.8001 182.177L79.348 155.997L100.905 102.51C100.905 102.51 94.433 97.1112 91.2065 94.4058C81.4235 86.2352 66.6491 88.609 59.975 99.4605C52.2623 112.012 46.1813 125.232 41.7355 139.098C39.9599 144.624 38.444 150.253 37.1931 155.995L37.1913 155.993Z" fill="#D8E6EA"/>
<path d="M37.1913 155.993C34.4789 168.444 43.4794 180.396 56.1959 181.287C60.3943 181.587 68.8001 182.177 68.8001 182.177L79.348 155.996C68.6983 151.272 53.4027 144.633 51.2412 144.475C48.506 144.271 43.1373 145.355 41.7337 139.097C39.9582 144.624 38.4423 150.252 37.1913 155.995V155.993Z" fill="#B1BFC4"/>
<path d="M70.7479 185.294L55.9822 184.257C49.0432 183.771 42.6727 180.297 38.5006 174.728C34.346 169.181 32.809 162.124 34.2863 155.364C38.7339 134.998 46.5238 115.666 57.4384 97.9049C61.0614 92.0099 67.0617 87.9886 73.9042 86.871C80.7712 85.7517 87.7699 87.6658 93.1052 92.1239L104.465 101.614L70.7479 185.292V185.294ZM77.7658 92.5047C76.8009 92.5047 75.8289 92.5819 74.8604 92.7398C69.725 93.5784 65.2213 96.5961 62.5036 101.017C51.9381 118.208 44.3991 136.919 40.0936 156.631C38.9865 161.701 40.141 166.996 43.2587 171.16C46.394 175.344 51.1819 177.955 56.3963 178.322L66.8459 179.055L97.33 103.402L89.291 96.6856C86.0329 93.9626 81.9485 92.5029 77.7658 92.5029V92.5047Z" fill="#001F54"/>
<path d="M88.2281 143.708C103.301 106.302 111.933 93.4717 107.996 90.1838C96.0899 80.2359 78.0924 83.122 69.9692 96.3402C56.8316 117.717 47.5803 140.676 42.2291 165.186C38.9201 180.343 49.8874 194.898 65.3637 195.986C70.4815 196.346 73.1553 181.115 88.2281 143.709V143.708Z" fill="#B3E538"/>
<path d="M42.2276 165.185C38.9169 180.339 49.8876 194.897 65.3604 195.984C70.0431 196.315 72.6836 183.581 84.6649 152.723C85.7702 149.876 86.9528 146.869 88.23 143.707C103.301 106.3 111.93 93.4693 107.996 90.1796C96.0901 80.2335 78.0926 83.1161 69.9729 96.3361C61.597 109.965 54.7949 124.236 49.5894 139.144C46.6173 147.618 44.1628 156.297 42.2276 165.187V165.185Z" fill="#B3E538"/>
<path d="M42.2276 165.185C38.9169 180.339 49.8876 194.897 65.3604 195.984C70.0431 196.315 72.6836 183.581 84.6649 152.723C85.2457 151.236 85.8439 149.695 86.472 148.118C87.0335 146.683 87.6247 145.211 88.23 143.707C92.0583 134.205 95.4708 126.287 98.3727 119.713C106.87 100.399 110.931 92.6341 107.994 90.1796C96.0883 80.2335 78.0909 83.1161 69.9712 96.3361C67.0833 101.036 64.3831 105.812 61.8777 110.665H61.8707C58.1372 117.872 54.8195 125.253 51.9211 132.799C51.107 134.9 50.3297 137.014 49.5876 139.144C46.6155 147.618 44.161 156.297 42.2258 165.187L42.2276 165.185Z" fill="#32D4F9"/>
<g opacity="0.5">
<path d="M51.9256 132.8C54.9363 137.639 63.7403 147.255 86.4748 148.118C87.0362 146.683 87.6275 145.211 88.2328 143.708C92.061 134.205 95.4735 126.287 98.3754 119.713C89.0346 111.411 73.8478 105.618 61.8805 110.665H61.8735C58.1399 117.873 54.8222 125.254 51.9238 132.8H51.9256Z" fill="white"/>
</g>
<g opacity="0.5">
<path d="M67.6455 100.22C76.7934 92.7444 90.4573 92.3724 100.109 100.438C100.953 101.143 102.698 102.769 104.769 105.259C108.685 96.2112 110.05 91.8987 108 90.1811C96.0944 80.235 78.0969 83.1176 69.9772 96.3376C69.1859 97.6271 68.407 98.9184 67.6473 100.22H67.6455Z" fill="white"/>
</g>
<path d="M42.2276 165.185C38.9169 180.339 49.8876 194.897 65.3604 195.983C70.0431 196.315 72.6836 183.581 84.6649 152.723C82.5911 149.811 79.2103 155.327 73.4854 160.659C64.3796 169.141 43.9662 157.813 49.5876 139.142C46.6155 147.616 44.161 156.295 42.2258 165.185H42.2276Z" fill="#34ADF7"/>
<path d="M65.5588 198.963C65.4272 198.963 65.2921 198.958 65.1553 198.949C56.8934 198.368 49.307 194.233 44.3419 187.603C39.396 180.999 37.566 172.595 39.324 164.549C44.7243 139.818 54.1827 116.345 67.4361 94.7804C71.7503 87.7625 78.8946 82.9745 87.0389 81.6446C95.2148 80.3112 103.547 82.5903 109.903 87.8993C113.21 90.6626 111.649 95.4997 110.898 97.8244C109.689 101.565 107.375 106.763 104.171 113.959C100.645 121.88 96.2569 131.737 90.9865 144.818C85.716 157.898 82.0456 168.042 79.0946 176.195C76.4137 183.601 74.4768 188.952 72.7539 192.487C71.717 194.614 69.5976 198.965 65.5588 198.965V198.963ZM91.6391 87.2186C90.4285 87.2186 89.2109 87.3168 87.9986 87.5133C81.5596 88.5643 75.912 92.3487 72.5048 97.8928C59.6023 118.887 50.393 141.741 45.1349 165.818C43.7471 172.176 45.1928 178.816 49.1035 184.038C53.0002 189.242 58.9391 192.503 65.4149 193.005C67.0922 191.884 70.0678 183.662 73.5031 174.171C76.3137 166.407 80.1613 155.773 85.4704 142.595C90.7812 129.416 95.3797 119.085 98.7377 111.541C102.843 102.319 106.398 94.333 105.966 92.3627C101.901 89.0134 96.8306 87.2203 91.6374 87.2203L91.6391 87.2186Z" fill="#001F54"/>
<path d="M83.4359 141.773C83.4359 141.773 68.4649 186.242 67.2613 198.093C66.6262 204.357 78.7356 210.519 85.0079 206.757C92.0995 202.506 100.084 178.057 110.337 152.612C120.59 127.167 131.786 104.013 129.623 96.0317C127.71 88.9717 114.711 85.0154 110.827 89.9718C103.477 99.346 83.4359 141.773 83.4359 141.773Z" fill="#D8E6EA"/>
<path d="M67.2589 198.096C66.6308 204.356 78.7349 210.52 85.0124 206.756C92.1023 202.504 100.085 178.055 110.335 152.613C118.341 132.76 126.909 114.306 129.264 103.361C129.929 100.274 130.101 97.7857 129.625 96.033C127.709 88.9695 114.709 85.0166 110.826 89.9713C109.44 91.7398 107.605 94.6803 105.54 98.2805C96.6411 113.825 83.4369 141.774 83.4369 141.774C83.4369 141.774 68.4695 186.241 67.2606 198.096H67.2589Z" fill="#D8E6EA"/>
<path d="M67.2589 198.096C66.6308 204.356 78.7349 210.52 85.0124 206.756C90.1864 203.655 95.8306 189.81 102.485 172.667C104.956 166.31 107.565 159.496 110.337 152.613C118.342 132.76 126.911 114.306 129.266 103.361C129.931 100.274 130.103 97.7857 129.627 96.033C127.711 88.9695 114.711 85.0166 110.828 89.9713C109.442 91.7398 107.607 94.6803 105.542 98.2805C96.6429 113.825 83.4387 141.774 83.4387 141.774C83.4387 141.774 80.3911 150.836 76.9366 161.866C72.7276 175.276 67.9273 191.592 67.2624 198.096H67.2589Z" fill="#D8E6EA"/>
<g opacity="0.5">
<path d="M112.917 103.956C111.505 103.658 102.071 122.703 96.6938 136.344C90.4321 152.224 84.2703 170.821 85.7441 171.57C87.4372 172.432 114.332 104.253 112.917 103.956Z" fill="white"/>
</g>
<path d="M67.2589 198.098C66.6308 204.358 78.7349 210.521 85.0124 206.758C90.1864 203.656 95.8306 189.811 102.485 172.668C99.1465 176.537 94.3305 179.537 87.9951 177.233C79.0525 173.986 77.0489 167.073 76.9348 161.868C72.7258 175.277 67.9273 191.592 67.2606 198.098H67.2589Z" fill="#B0C3D1"/>
<path d="M105.538 98.2823C113.539 96.6541 123.509 100.568 129.262 103.361C129.927 100.274 130.099 97.7857 129.624 96.033C127.708 88.9695 114.707 85.0166 110.824 89.9713C109.438 91.7398 107.603 94.6803 105.538 98.2805V98.2823Z" fill="#B0C3D1"/>
<path d="M80.4319 210.885C76.8791 210.885 73.2122 209.606 70.4138 207.829C66.2206 205.164 63.9363 201.413 64.3029 197.795C65.5223 185.758 79.9897 142.683 80.6056 140.857L80.7354 140.536C81.5582 138.792 100.996 97.7213 108.463 88.1998C110.707 85.3382 114.953 84.2188 119.823 85.2066C125.04 86.2646 130.971 89.7998 132.47 95.3177C134.347 102.239 129.085 115.352 119.625 137.934C117.481 143.052 115.265 148.343 113.083 153.758C110.9 159.172 108.83 164.521 106.826 169.695C97.9872 192.528 92.6869 205.625 86.5357 209.311C84.6865 210.419 82.5794 210.887 80.4301 210.887L80.4319 210.885ZM86.1866 142.918C85.1918 145.887 71.3367 187.37 70.2208 198.395C70.0927 199.667 71.4524 201.441 73.6052 202.809C76.9826 204.955 81.2284 205.557 83.4829 204.208C88.1814 201.392 94.8432 184.186 101.284 167.548C103.294 162.355 105.374 156.986 107.568 151.533C109.765 146.082 111.99 140.771 114.141 135.636C121.036 119.179 128.164 102.162 126.729 96.8757C126.041 94.3422 122.566 91.8316 118.643 91.035C116.143 90.528 113.934 90.8631 113.144 91.8702C106.305 100.59 87.5288 140.09 86.1883 142.918H86.1866Z" fill="#001F54"/>
<path d="M121.657 100.288C117.517 99.2315 112.343 97.4999 108.62 100.196C107.621 100.94 106.855 101.949 106.207 103.086L101.604 99.321C103.051 97.9788 104.776 96.7946 106.727 96.1577C112.227 94.3102 117.282 97.4683 121.655 100.288H121.657Z" fill="#001F54"/>
<path d="M115.015 102.056C112.422 101.672 109.527 101.542 107.365 103.037C105.332 104.4 104.114 106.604 103.146 108.83L98.207 105.516C103.07 100.256 108.539 98.1877 115.015 102.056Z" fill="#001F54"/>
<path d="M110.556 127.136C106.296 126.41 100.945 123.957 97.1671 126.849C96.2179 127.622 95.5407 128.712 94.974 129.915L90.0352 126.601C91.4054 125.08 93.0774 123.661 95.1196 122.885C100.888 120.675 105.847 124.585 110.554 127.136H110.556Z" fill="#001F54"/>
<path d="M88.5688 187.24C83.558 186.263 78.27 185.47 74.6259 181.343C73.1803 179.652 72.5311 177.42 72.5574 175.208L78.4507 176.015C78.084 176.945 78.0016 177.855 78.3893 178.947C80.121 182.912 84.8686 185.189 88.5688 187.24Z" fill="#001F54"/>
<path d="M81.1025 140.835C73.1881 160.476 61.5401 192.938 62.8875 196.063C63.8542 198.301 66.0789 198.379 67.2614 198.096C70.2598 197.38 73.1565 181.113 88.2292 143.707C103.302 106.302 112.492 92.5711 110.827 89.9762C110.171 88.9534 108.515 87.4656 106.265 88.4095C103.127 89.7253 89.0152 121.194 81.1008 140.837L81.1025 140.835Z" fill="#7EC927"/>
<path d="M62.8937 196.061C63.857 198.303 66.0834 198.378 67.2606 198.097C69.7117 197.51 72.0855 186.569 81.0807 162.22C83.1071 156.741 85.4651 150.577 88.2354 143.707C103.306 106.3 112.498 92.5673 110.828 89.9724C110.172 88.9478 108.515 87.46 106.27 88.4074C103.131 89.7215 89.0162 121.192 81.1035 140.833C78.8367 146.453 76.2734 153.12 73.7873 159.846C67.5922 176.642 61.927 193.831 62.892 196.059L62.8937 196.061Z" fill="#34B1F7"/>
<path d="M62.8939 196.059C63.8572 198.302 66.0836 198.377 67.2608 198.096C69.7119 197.509 72.0857 186.568 81.0809 162.219C78.5193 162.763 75.5736 162.796 73.7893 159.847C67.5942 176.643 61.929 193.831 62.8939 196.059Z" fill="#208FE2"/>
<path d="M66.2256 201.188C63.8536 201.188 61.3727 200.05 60.1604 197.237C59.5779 195.886 58.7779 194.035 65.708 173.682C69.231 163.335 74.0734 150.321 78.3456 139.72C82.6177 129.118 88.1496 116.384 92.7849 106.485C101.901 87.0121 103.761 86.2314 105.117 85.6629C108.644 84.1822 111.786 85.9542 113.333 88.3666C115.077 91.0878 113.607 94.209 108.131 105.824C104.203 114.157 98.2659 126.753 90.9884 144.813C83.7108 162.872 79.2579 176.064 76.3104 184.795C72.2031 196.962 71.0978 200.232 67.9538 200.983C67.3976 201.116 66.8151 201.187 66.2239 201.187L66.2256 201.188ZM65.7537 195.086C65.8221 195.153 65.9221 195.213 66.073 195.235C67.0327 193.683 68.7328 188.646 70.675 182.893C73.6436 174.099 78.1315 160.809 85.4705 142.592C92.8112 124.374 98.7923 111.685 102.75 103.288C105.338 97.7952 107.605 92.9896 107.991 91.2053C107.866 91.1176 107.752 91.0913 107.658 91.0913C104.614 94.4634 93.0499 119.144 83.8634 141.943C74.677 164.744 65.8993 190.547 65.7554 195.086H65.7537Z" fill="#001F54"/>
<path d="M81.7032 267.852C79.7557 282.937 73.2203 302.436 59.9512 313.982C37.3798 304.05 30.125 295.56 30.125 295.56C30.125 295.56 30.497 280.305 44.8083 261.095C59.1125 241.885 78.9995 262.195 78.9995 262.195C79.8031 263.936 80.7102 265.83 81.7049 267.853L81.7032 267.852Z" fill="#FFF3E9"/>
<path d="M66.3425 270.539C66.4548 293.92 59.2123 303.831 56.8192 312.573C36.7024 303.266 30.123 295.564 30.123 295.564C30.123 295.564 30.3529 286.017 37.5427 272.51C43.0746 265.469 48.9837 258.867 53.5927 253.939C57.035 252.579 60.5141 252.6 63.7406 253.344C65.2863 257.737 66.3127 263.358 66.3425 270.539Z" fill="#B25B36"/>
<path d="M66.2821 267.945L40.3281 247.38C40.3281 247.38 40.5369 243.656 41.2282 238.303L49.0198 237.82C49.0198 237.82 65.1979 240.615 66.2821 267.945Z" fill="#B25B36"/>
<path d="M66.3406 270.54C66.3932 281.297 64.8826 289.201 63.0106 295.452C52.8258 285.267 46.6992 281.067 30.1211 295.564C30.1211 295.564 30.5001 280.309 44.8043 261.099C50.7591 253.092 57.6875 251.948 63.7404 253.338C65.2791 257.731 66.3125 263.359 66.3423 270.54H66.3406Z" fill="#B25B36"/>
<path d="M141.292 335.96C107.145 317.194 87.6171 280.802 78.9991 262.196C78.9991 262.196 59.1069 241.879 44.8026 261.091C30.4983 280.302 30.1211 295.558 30.1211 295.558C66.4599 263.788 52.5767 321.833 141.294 335.958L141.292 335.96Z" fill="#C97043"/>
<path d="M141.292 335.96C107.145 317.194 87.6171 280.802 78.9991 262.196C78.9991 262.196 59.1069 241.879 44.8026 261.091C30.4983 280.302 30.1211 295.558 30.1211 295.558C30.1211 295.558 37.7706 304.507 61.7772 314.769C78.9027 322.089 98.7985 361.856 141.292 335.958V335.96Z" fill="white"/>
<path d="M141.294 335.962C139.198 337.241 137.161 338.357 135.168 339.322C127.325 333.39 121.086 326.23 116.991 317.83C124.092 324.677 132.173 330.951 141.294 335.962Z" fill="#E8E8E8"/>
<path d="M81.7032 267.852C79.7557 282.937 73.2203 302.436 59.9512 313.982C37.3798 304.05 30.125 295.56 30.125 295.56C30.125 295.56 30.497 280.305 44.8083 261.095C59.1125 241.885 78.9995 262.195 78.9995 262.195C79.8031 263.936 80.7102 265.83 81.7049 267.853L81.7032 267.852Z" fill="#5F5F82"/>
<path d="M66.3425 270.539C66.4548 293.92 59.2123 303.831 56.8192 312.573C36.7024 303.266 30.123 295.564 30.123 295.564C30.123 295.564 30.3529 286.017 37.5427 272.51C39.4376 268.948 41.8167 265.113 44.8063 261.099C47.5871 257.367 50.575 255.121 53.5927 253.939C57.035 252.579 60.5141 252.6 63.7406 253.344C65.2863 257.737 66.3127 263.358 66.3425 270.539Z" fill="#001F54"/>
<path d="M141.295 335.961C117.964 327.869 99.9085 306.272 87.4359 285.704C83.1918 278.547 79.4407 271.112 76.3019 263.447L76.8756 264.276C72.7544 260.366 67.3664 256.881 61.7748 255.987C53.9814 254.688 48.8724 259.892 44.9511 266.01C39.0771 274.752 34.3032 284.641 33.1224 295.189L33.0944 295.631L27.1484 295.483C27.2291 293.673 27.5186 291.931 27.8607 290.173C29.9047 280.249 34.3822 270.991 40.0386 262.657C45.1985 254.53 52.3936 248.49 62.6679 250.104C69.8963 251.316 75.944 255.218 81.1268 260.113L81.4127 260.392L81.7005 260.945C87.2955 271.694 93.1712 282.211 100.012 292.18C111.276 309.072 125.434 323.206 141.297 335.957L141.295 335.961Z" fill="#001F54"/>
<path d="M40.3262 247.38C40.3262 247.38 42.5737 207.118 56.9007 200.858C69.833 195.209 78.7493 205.692 76.1123 217.433C73.5192 228.977 69.0172 238.025 69.7084 239.092C70.2874 239.987 89.9341 246.312 79.3142 278.268L40.3262 247.378V247.38Z" fill="#5F5F82"/>
<g opacity="0.4">
<path d="M81.0596 272.147C79.835 241.981 66.5308 246.937 65.1377 240.339C64.4254 236.965 67.2905 233.894 69.8766 222.357C72.5153 210.611 68.8818 201.81 55.946 207.46C47.3824 211.198 43.1366 227.101 41.0996 239.279C42.5857 227.183 46.6525 205.333 56.8969 200.864C69.8327 195.215 78.7472 205.696 76.1067 217.436C73.5189 228.982 69.0151 238.03 69.7064 239.091C70.2485 239.931 87.3705 245.484 81.0596 272.144V272.147Z" fill="white"/>
</g>
<path d="M66.2821 267.945L40.3281 247.38C40.3281 247.38 40.5369 243.656 41.2282 238.303L49.0198 237.82C49.0198 237.82 65.1979 240.615 66.2821 267.945Z" fill="#001F54"/>
<path d="M37.3574 247.215C38.0627 233.238 40.6787 210.464 51.1248 200.364C54.011 197.646 57.7655 196.286 61.671 195.758C67.652 194.878 74.1664 197.764 77.3175 202.992C80.4229 207.873 80.7826 213.949 79.2807 219.4C77.7438 226.063 75.0577 232.42 72.9277 238.833C72.9067 238.892 72.9207 238.966 72.9137 238.671C72.8891 237.889 72.3786 236.996 71.7487 236.554C71.5417 236.415 71.8768 236.638 72.0382 236.724C80.4667 241.21 85.4284 250.279 85.1073 259.692C84.9301 266.355 82.837 272.717 79.3123 278.268C79.5193 275.033 79.8193 271.913 79.9439 268.848C80.3966 257.793 79.1193 247.273 68.1924 242.036C67.1222 241.44 66.3783 240.164 66.3625 238.945C66.352 237.513 66.6713 236.715 67.0099 235.506C68.6942 230.371 71.2943 222.958 72.4084 217.761C73.04 215.305 73.2348 212.593 72.5734 210.147C70.6539 202.811 63.5641 201.26 57.4182 204.74C49.237 210.433 46.0947 228.702 44.4596 238.433C43.9999 241.459 43.57 244.563 43.2946 247.547L37.3574 247.215Z" fill="#001F54"/>
<path d="M7.97862 305.959C-0.3306 291.851 1.00631 251.412 17.3879 239.378C30.1219 230.023 53.3828 233.555 59.2673 249.159C64.0886 261.944 63.7483 305.666 41.0786 313.305C29.5289 317.198 12.8719 314.272 7.97686 305.959H7.97862Z" fill="#5F5F82"/>
<g opacity="0.4">
<path d="M59.5819 250.048C51.0324 239.007 31.7997 237.313 20.6413 245.506C5.7352 256.457 3.28947 290.929 9.23014 307.672C8.75467 307.13 8.33885 306.557 7.98094 305.955C-0.331788 291.852 1.00689 251.408 17.385 239.372C30.1207 230.019 53.3816 233.551 59.2696 249.155C59.3732 249.438 59.4784 249.734 59.5819 250.047V250.048Z" fill="white"/>
</g>
<path d="M41.0797 313.302C29.5335 317.197 12.8729 314.269 7.98144 305.958C6.43574 303.333 5.22339 299.787 4.37598 295.683C10.1307 303.028 25.6754 305.475 36.6198 301.78C58.2911 294.48 56.3875 254.364 51.9645 239.68C55.2068 242.067 57.7929 245.226 59.2719 249.16C64.0897 261.947 63.7476 305.668 41.0797 313.304V313.302Z" fill="#001F54"/>
<path d="M29.864 317.99C19.8231 317.99 9.56465 314.507 5.41531 307.465C0.976472 299.929 -0.967497 285.848 0.464159 271.591C2.08179 255.485 7.6084 242.868 15.6264 236.979C23.1636 231.443 34.4502 229.768 44.3823 232.715C52.995 235.27 59.269 240.735 62.0481 248.107C65.8501 258.183 66.3449 283.43 58.469 300.052C54.5302 308.365 48.9983 313.772 42.0278 316.121C38.3328 317.367 34.1168 317.992 29.8622 317.992L29.864 317.99ZM34.2923 237.21C28.6692 237.21 23.2092 238.789 19.1494 241.772C4.52579 252.515 2.68708 291.113 10.5419 304.447C14.4386 311.063 29.3727 314.111 40.1312 310.484C45.5139 308.67 49.8756 304.303 53.0968 297.505C60.2024 282.507 59.8428 259.104 56.4864 250.206C54.3776 244.616 49.4808 240.428 42.6945 238.416C39.9575 237.603 37.1047 237.208 34.294 237.208L34.2923 237.21Z" fill="#001F54"/>
<rect x="270.84" y="294.834" width="127.607" height="127.607" rx="63.8035" fill="#FF7A7A"/>
<rect x="270.84" y="294.834" width="127.607" height="127.607" rx="63.8035" stroke="#001F54" stroke-width="6"/>
<path d="M353.829 342.477C348.748 337.466 340.514 338.365 335.432 343.376L334.642 344.155L333.852 343.376C328.77 338.365 320.536 337.469 315.455 342.477C310.373 347.488 310.373 355.607 315.455 360.618L316.245 361.397L332.218 377.148C333.556 378.468 335.728 378.468 337.069 377.148L353.042 361.397L353.832 360.618C358.914 355.607 358.914 347.488 353.832 342.477H353.829Z" fill="white"/>
<path d="M406.967 396.458C397.792 397.055 379.357 387.919 378.818 376.803C378.571 371.694 381.602 367.252 385.089 365.095C381.63 361.489 379.867 356.801 380.516 353.329C382.752 341.39 399.279 334.454 411 335.824C425.129 337.603 431.92 357.023 428.632 373.033C426.457 383.617 418.447 395.483 406.965 396.46L406.967 396.458Z" fill="#5F5F82"/>
<g opacity="0.7">
<path d="M387.948 342.27C393.803 339.049 400.991 337.571 406.918 338.261C420.718 339.995 427.352 358.961 424.143 374.602C422.338 383.379 416.424 393.068 407.807 396.368C418.841 394.908 426.523 383.361 428.643 373.032C431.928 357.022 425.14 337.604 411.009 335.827C403.637 334.965 394.369 337.39 387.95 342.272L387.948 342.27Z" fill="white"/>
</g>
<g opacity="0.2">
<path d="M380.514 353.344C379.87 356.814 381.628 361.504 385.092 365.106C381.604 367.271 378.575 371.71 378.817 376.816C379.355 387.932 397.791 397.068 406.97 396.473C411.853 396.057 416.112 393.672 419.555 390.249C406.102 395.876 387.981 387.253 387.448 376.131C387.196 371.027 390.228 366.583 393.719 364.427C390.258 360.819 388.493 356.131 389.144 352.659C390.794 343.852 400.216 337.775 409.749 335.733C398.138 334.962 382.673 341.821 380.514 353.344Z" fill="#001F54"/>
</g>
<path d="M406.108 399.399C399.15 399.399 389.232 395.278 382.963 389.683C378.562 385.754 376.123 381.349 375.91 376.943C375.654 371.655 378.109 367.392 380.955 364.654C378.247 360.843 376.974 356.429 377.655 352.793C380.152 339.462 397.499 331.311 411.343 332.929C417.01 333.642 421.971 336.782 425.715 342.009C431.508 350.098 433.776 362.506 431.493 373.619C429.033 385.595 419.905 398.285 407.217 399.364L407.159 399.367C406.817 399.39 406.467 399.401 406.108 399.401V399.399ZM407.863 338.558C397.484 338.558 385.093 344.757 383.387 353.865C382.903 356.446 384.471 360.233 387.198 363.075L389.691 365.675L386.629 367.571C384.051 369.167 381.537 372.598 381.735 376.661C381.907 380.211 384.609 383.335 386.847 385.332C392.777 390.625 401.905 393.858 406.754 393.548C416.575 392.693 423.761 382.288 425.782 372.443C427.723 362.993 425.789 352.127 420.974 345.401C419.04 342.7 415.677 339.348 410.642 338.713C409.738 338.607 408.809 338.557 407.863 338.557V338.558Z" fill="#001F54"/>
<path d="M410.684 366.288L384.889 368.003L385.297 362.188L410.684 366.288Z" fill="#001F54"/>
<path opacity="0.1" d="M216.211 600C116.298 600 35.3029 593.026 35.3029 584.422C35.3029 575.819 116.298 568.845 216.211 568.845C316.123 568.845 397.118 575.819 397.118 584.422C397.118 593.026 316.123 600 216.211 600Z" fill="#001F54"/>
</svg>
