<svg width="463" height="600" viewBox="0 0 463 600" fill="none" xmlns="http://www.w3.org/2000/svg">
<path opacity="0.1" d="M231.592 595.93C129.193 595.93 46.1824 588.783 46.1824 579.965C46.1824 571.148 129.193 564 231.592 564C333.99 564 417.001 571.148 417.001 579.965C417.001 588.783 333.99 595.93 231.592 595.93Z" fill="#001F54"/>
<path d="M377.967 352.507C366.767 362.287 365.306 372.474 366.613 378.529C367.647 383.324 369.813 387.804 375.584 390.79C381.668 393.937 393.354 395.087 404.565 389.349C409.14 387.009 414.781 383.621 422.67 384.201C423.342 382.549 422.308 380.677 420.416 378.817C423.838 376.351 428.119 373.914 435.358 371.618C435.431 371.594 428.814 351.962 397.267 346.992C397.506 342.443 394.738 340.008 390.848 339.787C389.36 347.732 385.478 345.947 377.967 352.505L377.967 352.507Z" fill="#C4612B"/>
<path d="M375.588 390.79C381.667 393.937 393.355 395.092 404.562 389.352C409.125 387.022 414.742 383.641 422.593 384.197C422.619 384.195 422.653 384.197 422.673 384.197C422.771 383.947 422.838 383.692 422.863 383.433C422.928 382.734 422.733 382.01 422.347 381.269C421.916 380.465 421.244 379.641 420.413 378.821C423.839 376.355 428.118 373.912 435.354 371.621C435.354 371.598 435.227 371.18 434.908 370.472C434.859 370.354 434.794 370.229 434.727 370.086C434.504 369.615 434.209 369.057 433.845 368.413C433.769 368.286 433.695 368.15 433.61 368.011C433.431 367.723 433.246 367.419 433.038 367.096C432.949 366.953 432.849 366.807 432.748 366.662C432.08 365.666 431.265 364.576 430.276 363.422C425.112 357.407 415.227 349.831 397.263 346.992C397.5 342.445 394.735 340.011 390.842 339.787C389.357 347.736 385.477 345.949 377.96 352.509C368.693 360.61 366.093 368.978 366.219 375.051C366.219 375.051 366.216 375.056 366.212 375.067C366.236 376.329 366.377 377.492 366.607 378.533C367.646 383.324 369.808 387.806 375.581 390.79L375.588 390.79Z" fill="#C4612B"/>
<path d="M375.588 390.79C381.667 393.937 393.355 395.092 404.562 389.352C409.125 387.022 414.742 383.641 422.593 384.197C422.619 384.195 422.653 384.197 422.673 384.197C422.771 383.947 422.838 383.692 422.863 383.433C422.928 382.734 422.733 382.01 422.347 381.269C421.916 380.465 421.244 379.641 420.413 378.821C423.839 376.355 428.118 373.912 435.354 371.621C435.354 371.598 435.227 371.18 434.908 370.472C434.859 370.354 434.794 370.229 434.727 370.086C434.504 369.615 434.209 369.057 433.845 368.413C433.769 368.286 433.695 368.15 433.61 368.011C433.431 367.723 433.246 367.419 433.038 367.096C432.949 366.953 432.849 366.807 432.748 366.662C432.08 365.666 431.265 364.576 430.276 363.422C425.112 357.407 415.227 349.831 397.263 346.992C397.27 346.858 397.277 346.733 397.277 346.604C397.306 344.94 396.91 343.58 396.2 342.521C396.147 342.445 396.1 342.376 396.046 342.3C394.97 340.848 393.272 340.024 391.233 339.819C391.103 339.807 390.974 339.794 390.84 339.787C389.355 347.736 385.475 345.949 377.957 352.509C368.691 360.61 366.091 368.978 366.216 375.051C366.216 375.051 366.214 375.056 366.21 375.067C366.234 376.329 366.375 377.492 366.605 378.533C366.851 379.679 367.165 380.811 367.579 381.908C368.885 385.383 371.192 388.523 375.581 390.79L375.588 390.79Z" fill="#5F5F82"/>
<g opacity="0.4">
<path d="M397.28 346.597C397.334 346.726 397.385 346.865 397.428 347.014C397.374 347.008 397.316 346.994 397.262 346.988C397.274 346.856 397.274 346.724 397.28 346.597Z" fill="white"/>
</g>
<g opacity="0.4">
<path d="M367.586 381.909C368.218 379.715 368.908 377.96 369.27 375.563C370.139 369.777 373.536 361.977 379.048 357.164C386.023 351.065 390.256 352.369 393.74 345.164C396.04 345.291 396.657 345.017 397.28 346.605C397.309 344.941 396.913 343.581 396.203 342.522C396.15 342.446 396.103 342.377 396.049 342.301C394.973 340.849 393.275 340.025 391.236 339.819C391.111 339.813 390.984 339.802 390.847 339.795L390.843 339.788C389.358 347.737 385.478 345.95 377.961 352.51C368.694 360.611 366.094 368.979 366.219 375.052C366.219 375.052 366.217 375.057 366.213 375.068C366.237 376.329 366.378 377.493 366.608 378.534C366.854 379.68 367.169 380.812 367.582 381.909L367.586 381.909Z" fill="white"/>
</g>
<g opacity="0.4">
<path d="M430.274 363.417C434.149 367.926 435.37 371.545 435.361 371.616C434.924 371.755 434.501 371.897 434.084 372.034C433.3 370.727 432.208 369.146 430.747 367.435C425.579 361.42 415.705 353.842 397.732 351.013C397.819 349.376 397.746 348.047 397.429 347.015C415.292 349.869 425.125 357.427 430.271 363.415L430.274 363.417Z" fill="white"/>
</g>
<path d="M375.588 390.789C381.667 393.936 393.355 395.09 404.562 389.35C409.125 387.021 414.742 383.64 422.593 384.196C422.619 384.193 422.653 384.196 422.673 384.196C422.771 383.946 422.838 383.691 422.863 383.432C422.928 382.733 422.74 382.005 422.347 381.268C421.916 380.464 421.244 379.639 420.413 378.82C423.839 376.354 428.118 373.911 435.354 371.619C435.354 371.597 435.227 371.179 434.908 370.471C434.859 370.353 434.794 370.228 434.727 370.085C434.504 369.614 434.209 369.055 433.845 368.412C433.769 368.285 433.695 368.148 433.61 368.01C433.431 367.722 433.246 367.418 433.038 367.094C432.949 366.951 432.849 366.806 432.748 366.661C432.08 365.665 431.265 364.575 430.276 363.42C431.377 366.936 430.177 368.926 426.586 369.553C419.406 370.808 412.895 370.002 406.478 373.303C410.311 376.982 401.411 382.002 398.463 382.094C386.905 382.456 382.007 371.338 376.294 370.013C368.899 368.3 366.223 375.059 366.216 375.063C366.241 376.325 366.382 377.489 366.612 378.529C367.65 383.32 369.812 387.803 375.586 390.787L375.588 390.789Z" fill="#001F54"/>
<path d="M387.887 396.283C393.502 396.283 399.76 395.014 405.866 391.892L407.106 391.248C411.307 389.06 416.068 386.578 422.46 387.05C423.693 387.137 424.846 386.424 425.313 385.281C425.871 383.909 426.072 381.913 424.584 379.458C427.211 377.834 430.762 376.072 436.221 374.341C437.483 373.942 438.302 372.724 438.204 371.404C438.188 371.197 432.158 350.522 399.974 344.565C399.224 340.179 395.86 337.217 391.007 336.943C389.569 336.88 388.307 337.856 388.041 339.265C387.333 343.046 386.321 343.625 383.32 345.342C381.401 346.439 379.013 347.806 376.088 350.361C361.664 362.955 363.051 375.568 363.819 379.134C364.735 383.38 366.814 389.473 374.27 393.33C377.749 395.13 382.522 396.287 387.882 396.287L387.887 396.283ZM418.907 381.361C412.841 381.823 408.102 384.294 404.468 386.188L403.266 386.811C393.191 391.965 382.536 391.175 376.896 388.256C372.74 386.105 370.497 383.016 369.401 377.926C368.798 375.132 367.773 365.196 379.844 354.656C382.341 352.476 384.369 351.315 386.156 350.292C388.954 348.69 391.438 347.27 392.888 343.212C394.007 343.866 394.511 345.068 394.417 346.841C394.342 348.302 395.38 349.584 396.823 349.809C419.792 353.427 428.611 364.863 431.452 369.93C425.118 372.233 421.366 374.614 418.749 376.501C418.067 376.992 417.636 377.759 417.571 378.596C417.507 379.434 417.815 380.258 418.413 380.847C418.597 381.028 418.76 381.198 418.905 381.359L418.907 381.361Z" fill="#001F54"/>
<path d="M394.551 346.118C394.286 349.758 394.073 353.555 392.798 357.017C395.749 354.464 397.855 351.112 399.985 347.862L394.551 346.115L394.551 346.118Z" fill="#001F54"/>
<path d="M422.069 376.49C417.352 374.5 412.238 372.624 407.085 373.374C411.72 374.48 415.507 377.875 418.766 381.145L422.069 376.49Z" fill="#001F54"/>
<path d="M315.984 410.541C322.138 421.494 339.701 437.421 354.75 424.569C368.329 410.876 346.39 390.684 363.385 375.394C370.424 369.513 377.641 371.052 379.048 375.901C380.812 381.978 373.044 383.887 373.176 391.861C373.638 404.129 381.676 419.214 372.658 434.857C362.724 452.88 330.978 462.379 307.35 440.945L315.982 410.541L315.984 410.541Z" fill="white"/>
<path d="M378.53 380.512C376.87 383.664 373.085 386.268 373.178 391.856C373.639 404.122 381.681 419.204 372.654 434.852C362.721 452.874 330.975 462.375 307.35 440.94L315.98 410.534C320.123 417.902 329.421 427.524 339.646 429.119C344.624 429.896 349.823 428.77 354.753 424.563C368.327 410.869 346.393 390.679 363.383 375.391C370.425 369.508 377.641 371.049 379.046 375.891C379.577 377.718 379.251 379.161 378.53 380.512Z" fill="white"/>
<path d="M373.18 391.859C373.64 404.125 381.683 419.207 372.655 434.854C362.723 452.876 330.977 462.377 307.352 440.943L315.982 410.537C320.125 417.905 329.423 427.527 339.647 429.121C340.123 431.821 340.235 435.48 338.846 439.489C336.527 446.174 358.446 448.268 368.416 432.407C379.157 415.307 360.144 390.791 375.03 380.805C376.157 380.05 377.323 379.988 378.529 380.511C376.87 383.662 373.084 386.266 373.178 391.854L373.18 391.859Z" fill="#E8E8E8"/>
<path d="M338.052 456.119C340.641 456.119 343.247 455.904 345.865 455.467C358.559 453.352 369.785 445.979 375.158 436.23C382.077 424.23 379.743 412.741 377.684 402.606C376.896 398.731 376.154 395.07 376.029 391.749C375.982 388.841 377.36 387.036 378.957 384.944C380.793 382.538 383.08 379.543 381.792 375.099C380.967 372.262 378.785 370.114 375.806 369.203C371.464 367.876 366.14 369.37 361.559 373.198C351.343 382.389 353.418 393.051 355.249 402.461C356.773 410.293 358.09 417.065 352.81 422.472C348.855 425.811 344.455 427.08 339.734 426.238C331.236 424.726 322.608 416.491 318.478 409.139L313.502 411.933C318.141 420.192 328.015 429.947 338.733 431.855C345.165 432.996 351.343 431.227 356.607 426.731C356.668 426.68 356.726 426.626 356.782 426.571C364.284 419.006 362.461 409.634 360.853 401.368C359.089 392.298 357.565 384.466 365.298 377.506C368.862 374.531 372.215 374.074 374.14 374.659C374.933 374.9 375.951 375.449 376.311 376.687C376.757 378.228 376.181 379.173 374.421 381.477C372.657 383.787 370.242 386.949 370.325 391.899C370.47 395.745 371.256 399.626 372.092 403.736C374.039 413.329 376.054 423.245 370.187 433.423C365.608 441.729 355.94 447.998 344.924 449.832C332.109 451.969 319.447 448.058 309.267 438.823L305.433 443.051C314.867 451.61 326.228 456.114 338.05 456.114L338.052 456.119Z" fill="#001F54"/>
<path d="M91.3803 263.637C110.234 279.027 191.918 321.191 238.165 320.688C252.638 320.53 196.811 361.35 186.435 364.586C176.06 367.823 94.4308 363.79 45.4609 352.564" fill="#C97043"/>
<path d="M225.47 338.272C211.527 349.702 192.133 362.807 186.438 364.586C176.06 367.823 94.4329 363.794 45.4609 352.569L91.3783 263.637C99.3567 270.149 118.593 281.469 141.638 292.304C173.032 307.075 211.495 320.978 238.167 320.69C244.694 320.618 236.918 328.883 225.468 338.274L225.47 338.272Z" fill="white"/>
<path d="M286.931 370.455C286.931 370.455 332.017 411.416 334.239 438.385C330.478 443.045 327.149 449.154 329.256 454.897C330.724 458.902 335.097 459.911 339.689 460.292C335.928 470.446 339.476 477.522 343.939 480.126C349.307 483.259 358.08 482.251 362.711 476.801C370.012 476.617 375.681 474.893 379.196 471.022C386.265 463.234 386.933 447.05 383.935 430.321C372.888 372.619 311.079 332.866 288.029 327.55L249.774 321.193" fill="#FFAD40"/>
<path d="M379.194 471.022C375.683 474.899 370.014 476.619 362.709 476.801C358.08 482.255 349.303 483.263 343.941 480.13C339.476 477.522 335.93 470.446 339.691 460.292C335.094 459.913 330.725 458.906 329.253 454.897C327.304 449.58 330.011 443.958 333.411 439.452C333.68 439.086 333.954 438.733 334.235 438.385C332.017 411.418 286.931 370.457 286.931 370.457L249.776 321.193L288.031 327.55C311.081 332.866 372.888 372.623 383.933 430.323C383.96 430.466 383.987 430.618 384.011 430.761C386.92 447.332 386.208 463.299 379.192 471.022H379.194Z" fill="white"/>
<path d="M384.41 459.986C383.39 464.478 381.689 468.278 379.198 471.023C375.68 474.901 370.009 476.621 362.712 476.803C358.075 482.257 349.307 483.264 343.939 480.132C339.473 477.523 335.927 470.448 339.688 460.293C335.098 459.914 330.723 458.907 329.251 454.899C327.146 449.158 330.479 443.051 334.24 438.387C332.547 417.86 306.018 389.22 293.443 376.717C293.685 363.887 301.573 357.436 301.573 357.436C317.696 393.112 340.7 406.027 342.303 436.458C335.272 438.798 329.466 446.464 332.547 451.25C334.994 455.042 339.471 451.957 344.266 453.023C349.059 454.082 348.594 462.367 348.189 467.273C348.103 468.286 345.638 466.343 345.73 467.273C345.986 469.922 347.116 471.83 349.823 472.282C357.113 473.498 361.593 468.255 361.593 468.255C361.593 468.255 371.872 473.134 384.408 459.99L384.41 459.986Z" fill="#E8E8E8"/>
<path d="M384.414 459.986C383.394 464.478 381.693 468.278 379.201 471.023C375.684 474.901 370.013 476.621 362.716 476.803C358.079 482.257 349.31 483.264 343.942 480.132C339.477 477.523 335.931 470.448 339.692 460.293C335.102 459.914 330.727 458.907 329.255 454.898C327.306 449.582 330.02 443.96 333.413 439.453C336.271 438.375 339.258 437.367 342.306 436.44V436.46C335.276 438.8 329.47 446.466 332.551 451.252C334.998 455.044 339.475 451.959 344.27 453.025C349.063 454.084 348.598 462.369 348.193 467.275C348.107 468.288 345.642 466.345 345.734 467.275C345.99 469.924 347.12 471.832 349.826 472.284C357.117 473.5 361.596 468.257 361.596 468.257C361.596 468.257 371.876 473.136 384.412 459.992L384.414 459.986Z" fill="#F9D3B7"/>
<path d="M310.775 337.502C303.458 338.927 295.592 340.334 292.12 341.007C291.753 341.079 279.65 343.845 268.461 345.964L249.779 321.193L288.034 327.55C293.709 328.859 301.74 332.259 310.777 337.502H310.775Z" fill="#E8E8E8"/>
<path d="M379.193 471.023C375.682 474.9 370.013 476.62 362.708 476.802C358.079 482.256 349.302 483.264 343.94 480.131C339.475 477.523 335.929 470.447 339.69 460.293C335.094 459.914 330.725 458.907 329.253 454.898C327.304 449.581 330.01 443.959 333.411 439.453C350.367 433.057 371.821 429.024 384.011 430.762C386.92 447.333 386.207 463.3 379.191 471.023H379.193Z" fill="#5F5F82"/>
<path d="M384.413 459.985C383.393 464.477 381.692 468.277 379.2 471.022C375.683 474.9 370.012 476.62 362.715 476.802C358.078 482.256 349.309 483.263 343.941 480.131C339.476 477.523 335.93 470.447 339.691 460.292C335.101 459.914 330.726 458.906 329.254 454.898C327.305 449.581 330.019 443.959 333.412 439.453C336.27 438.374 339.257 437.366 342.306 436.439V436.459C335.275 438.8 329.469 446.465 332.55 451.251C334.997 455.043 339.474 451.958 344.269 453.024C349.062 454.083 348.597 462.368 348.192 467.274C348.106 468.287 345.641 466.344 345.733 467.274C345.989 469.923 347.119 471.831 349.825 472.283C357.116 473.5 361.595 468.256 361.595 468.256C361.595 468.256 371.875 473.135 384.411 459.991L384.413 459.985Z" fill="#001F54"/>
<path d="M351.016 484.482C347.923 484.482 344.956 483.751 342.618 482.388C337.469 479.38 333.809 472.215 336.257 462.519C332.828 461.917 328.475 460.371 326.799 455.799C324.815 450.392 326.408 444.273 331.528 437.601C328.391 411.939 285.609 372.791 285.17 372.393C284.102 371.421 284.022 369.769 284.994 368.698C285.965 367.629 287.619 367.549 288.69 368.522C290.561 370.223 334.566 410.496 336.845 438.174L336.931 439.216L336.274 440.031C331.855 445.505 330.32 450.204 331.71 453.998C332.519 456.203 334.892 457.271 339.904 457.687L343.337 457.971L342.141 461.202C339.019 469.637 341.455 475.65 345.257 477.871C349.405 480.291 356.773 479.753 360.719 475.112L361.476 474.221L362.645 474.192C369.633 474.016 374.413 472.405 377.259 469.269C383.01 462.934 384.543 448.548 381.36 430.787C370.415 373.618 309.095 335.157 287.519 330.12L249.346 323.776C247.921 323.538 246.959 322.191 247.195 320.766C247.432 319.341 248.779 318.381 250.204 318.614L288.616 325.004C300.142 327.663 321.838 338.922 342.235 357.354C359.001 372.504 380.289 397.377 386.503 429.833C388.574 441.402 390.626 462.324 381.13 472.784C377.443 476.846 371.797 479.01 363.894 479.38C360.42 482.889 355.582 484.482 351.014 484.482H351.016Z" fill="#001F54"/>
<path d="M348.188 467.268C347.048 464.711 345.807 461.534 343.387 460.076C343.023 459.929 342.849 460.035 342.818 460.146C342.743 460.307 342.161 460.981 341.758 461.892L337.62 458.692C339.549 456.637 343.131 455.013 345.435 457.527C347.779 460.275 347.945 463.909 348.188 467.266V467.268Z" fill="#001F54"/>
<path d="M190.44 362.755C188.773 363.651 187.406 364.284 186.438 364.585C176.06 367.822 94.4329 363.793 45.4609 352.567L88.4752 272.935L101.115 278.446C111.104 299.787 98.6811 328.48 104.907 340.306C114.529 358.578 169.598 358.701 177.765 350.88C180.486 348.278 185.625 354.445 190.438 362.755H190.44Z" fill="#E8E8E8"/>
<path d="M225.47 338.272C213.367 336.311 200.61 333.224 193.698 330.484C177.952 324.246 151.703 304.661 141.641 292.302C173.034 307.073 211.497 320.977 238.17 320.688C244.697 320.616 236.921 328.881 225.47 338.272Z" fill="#E8E8E8"/>
<path d="M169.95 368.248C140.5 368.248 82.4642 363.729 44.8774 355.112C43.4689 354.788 42.5906 353.386 42.912 351.978C43.2355 350.569 44.6399 349.689 46.0465 350.012C95.3972 361.326 176.442 364.96 185.657 362.085C189.668 360.834 202.441 352.606 214.742 343.352C228.504 332.997 235.264 326.273 237.283 323.303C190.921 323.264 110.255 282.414 89.7261 265.658C88.6062 264.745 88.4403 263.097 89.3534 261.977C90.2666 260.859 91.9147 260.692 93.0346 261.605C111.076 276.329 192.678 318.586 238.139 318.066C238.173 318.066 238.208 318.066 238.243 318.066C242.264 318.066 242.989 320.651 243.113 321.452C243.382 323.147 244.092 327.649 218.951 346.728C207.33 355.546 192.698 365.369 187.217 367.079C184.714 367.861 178.551 368.246 169.952 368.246L169.95 368.248Z" fill="#001F54"/>
<path d="M307.998 477.998L175.532 464.184C145.4 429.149 163.932 379.683 179.023 348.236C179.023 348.236 202.503 309.845 238.162 309.845C273.82 309.845 297.3 348.236 297.3 348.236C312.393 379.683 338.124 442.962 307.998 477.998Z" fill="white"/>
<path d="M292.119 341.007C274.913 344.176 225.434 343.196 193.7 330.488C204.07 320.438 219.437 309.849 238.166 309.849C263.923 309.849 283.332 329.884 292.119 341.007Z" fill="#E8E8E8"/>
<path d="M168.325 478.001C150.098 462.003 149.199 434.397 153.625 412.258C158.277 389.563 167.404 368.115 179.022 348.236C171.005 369.477 163.174 390.963 159.454 413.318C155.666 435.267 155.891 458.738 168.325 478.001Z" fill="#001F54"/>
<path d="M307.999 478.001C320.432 458.734 320.658 435.269 316.87 413.318C313.15 390.963 305.321 369.479 297.302 348.236C308.92 368.117 318.047 389.563 322.701 412.258C327.127 434.391 326.226 462.007 308.001 478.001H307.999Z" fill="#001F54"/>
<path d="M342.303 436.454C338.429 438.376 334.899 441.154 332.916 444.965L328.872 441.644C332.6 438.434 337.526 436.8 342.303 436.454Z" fill="#001F54"/>
<path d="M104.079 581.023L177.491 584.237C180.35 584.368 183.096 583.09 184.821 580.805C187.565 577.18 190.633 574.654 194.087 573.424C196.807 572.457 199.589 574.77 199.242 577.635L199.068 579.084C198.71 581.997 200.942 584.585 203.885 584.663L224.84 585.235C226.983 585.287 228.999 584.179 230.075 582.33C233.279 576.833 233.253 571.257 231.832 564.178C231.756 563.821 231.679 563.458 231.604 563.086C227.606 554.348 230.199 544.587 229.208 533.321C205.176 512.021 180.118 503.908 153.511 515.47C152.879 515.74 152.255 516.019 151.631 516.313C128.825 524.66 94.3831 512.482 86.1355 543.716C86.107 543.81 86.0763 543.914 86.0561 544.008C83.4023 545.699 81.298 547.715 79.7532 549.931C71.5394 561.718 79.239 579.011 104.081 581.027L104.079 581.023Z" fill="#C1603E"/>
<path d="M104.079 581.023L177.491 584.237C180.35 584.368 183.096 583.09 184.821 580.805C187.565 577.18 190.633 574.654 194.087 573.424C196.807 572.457 199.589 574.77 199.242 577.635L199.068 579.084C198.71 581.997 200.942 584.585 203.885 584.663L224.84 585.235C226.983 585.287 228.999 584.179 230.075 582.33C233.279 576.833 233.253 571.257 231.832 564.178C231.756 563.821 231.679 563.458 231.604 563.086C227.606 554.348 230.199 544.587 229.208 533.321C205.176 512.021 180.118 503.908 153.511 515.47C152.879 515.74 152.255 516.019 151.631 516.313C128.825 524.66 94.3831 512.482 86.1355 543.716C86.107 543.81 86.0763 543.914 86.0561 544.008C83.4023 545.699 81.298 547.715 79.7532 549.931C71.5394 561.718 79.239 579.011 104.081 581.027L104.079 581.023Z" fill="#C1603E"/>
<g opacity="0.6">
<path d="M199.244 577.634C199.25 577.585 199.249 577.534 199.252 577.484C201.076 577.939 202.475 579.721 202.222 581.8L202.048 583.249C202.007 583.586 202.004 583.919 202.03 584.245C200.072 583.393 198.793 581.338 199.071 579.082L199.244 577.633L199.244 577.634Z" fill="white"/>
<path d="M79.7528 549.926C81.2975 547.711 83.4019 545.694 86.0558 544.002C86.0776 543.908 86.1066 543.804 86.1351 543.711C94.3827 512.477 128.823 524.655 151.63 516.308C152.255 516.014 152.879 515.735 153.511 515.464C180.119 503.902 205.175 512.017 229.207 533.315C229.258 533.888 229.293 534.455 229.327 535.021C206.169 515.577 182.044 508.524 156.49 519.63C155.858 519.9 155.235 520.179 154.61 520.473C131.804 528.82 97.3624 516.642 89.1147 547.876C89.0863 547.97 89.0556 548.073 89.0354 548.168C86.3816 549.859 84.2772 551.875 82.7324 554.091C78.9773 559.48 78.5589 566.015 81.5725 571.72C75.5774 565.257 75.0403 556.688 79.7528 549.926Z" fill="white"/>
</g>
<path d="M104.078 581.023L177.49 584.237C180.35 584.368 183.095 583.09 184.821 580.805C187.564 577.179 190.632 574.654 194.086 573.424C196.806 572.457 199.588 574.77 199.241 577.635L199.067 579.084C198.709 581.997 200.941 584.584 203.884 584.663L224.84 585.235C226.983 585.287 228.998 584.178 230.075 582.33C233.279 576.833 233.252 571.256 231.831 564.178C221.205 565.446 211.21 564.706 202.3 560.452C197.694 558.256 192.315 558.318 187.761 560.619C184.534 562.246 181.364 564.134 178.017 565.875C175.289 567.29 172.248 567.99 169.18 567.985C147.178 567.974 126.455 565.933 108.437 559.633C101.858 548.873 94.6253 542.347 86.1331 543.714C86.1046 543.808 86.074 543.912 86.0538 544.006C69.2489 554.688 74.5705 578.629 104.078 581.023Z" fill="#E59A67"/>
<path d="M103.95 583.419L103.973 583.42L177.387 586.634C181.042 586.8 184.54 585.162 186.736 582.25C189.252 578.925 191.998 576.715 194.892 575.684C195.535 575.455 196.034 575.743 196.273 575.933C196.482 576.098 196.953 576.568 196.859 577.348L196.684 578.797C196.433 580.847 197.063 582.927 198.415 584.497C199.77 586.069 201.723 587.007 203.818 587.06L224.772 587.632C227.807 587.706 230.629 586.137 232.145 583.536C236.079 576.787 235.448 570.018 234.182 563.705C234.1 563.325 234.026 562.968 233.95 562.602C233.913 562.425 233.857 562.251 233.781 562.085C231.438 556.962 231.586 551.353 231.758 544.859C231.856 541.12 231.959 537.253 231.593 533.107C231.539 532.495 231.254 531.93 230.794 531.522C203.542 507.369 177.345 501.666 150.704 514.093C143.735 516.62 135.328 517.181 127.195 517.723C108.998 518.936 90.1871 520.189 83.972 542.503C76.2464 547.792 72.7169 556.031 74.7405 564.208C76.7972 572.516 85.5316 581.927 103.88 583.415C103.902 583.416 103.923 583.417 103.945 583.419L103.95 583.419ZM195.699 570.809C194.892 570.765 194.074 570.88 193.283 571.162C189.49 572.514 185.999 575.269 182.908 579.355C181.662 581.006 179.679 581.934 177.601 581.839L104.229 578.627C88.4476 577.332 81.057 569.736 79.4043 563.053C77.8241 556.669 80.8661 550.146 87.3425 546.028C87.876 545.689 88.2545 545.153 88.395 544.535C88.4037 544.497 88.416 544.455 88.428 544.418C88.4381 544.386 88.4465 544.355 88.4549 544.324C93.6194 524.769 110.086 523.67 127.52 522.508C136.026 521.94 144.822 521.354 152.455 518.559C152.52 518.536 152.585 518.51 152.648 518.48C177.165 507.004 201.46 512.234 226.893 534.472C227.143 538.007 227.053 541.419 226.966 544.729C226.789 551.432 226.621 557.767 229.308 563.823C229.367 564.113 229.427 564.397 229.487 564.678C230.978 572.106 230.563 576.723 228.004 581.116C227.37 582.204 226.18 582.863 224.899 582.83L203.952 582.259C203.194 582.251 202.537 581.92 202.055 581.36C201.577 580.806 201.362 580.098 201.452 579.371L201.627 577.916C201.893 575.716 201.014 573.571 199.274 572.179C198.227 571.342 196.98 570.873 195.701 570.804L195.699 570.809Z" fill="#001F54"/>
<path d="M103.991 582.619L104.008 582.62L177.421 585.834C180.814 585.989 184.06 584.469 186.097 581.769C188.709 578.317 191.578 576.015 194.622 574.93C195.362 574.669 196.145 574.805 196.771 575.309C197.422 575.829 197.75 576.626 197.651 577.444L197.476 578.893C197.252 580.722 197.814 582.576 199.019 583.976C200.228 585.379 201.99 586.198 203.838 586.261L224.792 586.833C227.533 586.899 230.085 585.482 231.453 583.135C235.253 576.617 234.632 570.022 233.398 563.865C233.233 563.046 232.468 562.492 231.64 562.591C220.253 563.947 210.881 562.777 202.988 559.009C197.964 556.615 192.002 556.684 187.038 559.192C185.251 560.093 183.455 561.088 181.718 562.049C180.273 562.848 178.78 563.675 177.278 564.457C174.834 565.723 172.033 566.392 169.184 566.387C144.456 566.375 125.472 563.806 109.499 558.309C101.912 546.091 94.1791 540.802 85.8778 542.135C85.3767 542.215 84.95 542.528 84.719 542.966C77.0727 548.055 73.5535 556.073 75.5195 564.017C77.5087 572.056 86.0219 581.165 103.947 582.62L103.991 582.623L103.991 582.619ZM195.653 571.609C194.951 571.571 194.238 571.671 193.551 571.915C189.908 573.213 186.541 575.878 183.545 579.838C182.14 581.699 179.904 582.744 177.563 582.639L104.178 579.426C87.9638 578.1 80.3487 570.201 78.627 563.247C76.9617 556.518 80.1371 549.663 86.9131 545.356C86.9876 545.308 87.0572 545.256 87.1224 545.196C93.8473 544.528 100.386 549.528 107.075 560.467C107.267 560.781 107.563 561.02 107.911 561.142C124.344 566.888 143.812 569.57 169.181 569.584C172.543 569.591 175.854 568.799 178.755 567.295C180.297 566.492 181.808 565.655 183.27 564.848C185.059 563.857 186.749 562.922 188.482 562.047C192.57 559.983 197.479 559.925 201.612 561.895C209.716 565.763 219.19 567.09 230.536 565.93C231.563 571.702 231.538 576.639 228.692 581.523C227.91 582.864 226.45 583.671 224.878 583.633L203.928 583.062C202.967 583.04 202.077 582.619 201.447 581.885C200.819 581.156 200.538 580.231 200.656 579.277L200.832 577.825C201.065 575.902 200.296 574.026 198.775 572.808C197.861 572.076 196.772 571.667 195.657 571.607L195.653 571.609Z" fill="#001F54"/>
<path d="M96.93 548.312C103.05 553.693 108.602 560.522 109.57 568.779C109.708 569.815 111.264 569.64 111.157 568.589C110.922 564.281 109.457 560.023 107.244 556.227C105.033 552.413 102.154 549.014 99.0435 545.911C98.4166 545.287 97.4046 545.287 96.7786 545.914C96.0965 546.59 96.1773 547.725 96.93 548.312Z" fill="#001F54"/>
<g opacity="0.25">
<path d="M104.078 581.021L177.49 584.235C180.349 584.366 183.095 583.087 184.82 580.802C187.564 577.177 190.632 574.652 194.086 573.422C196.806 572.455 199.588 574.768 199.241 577.632L199.067 579.082C198.709 581.994 200.941 584.582 203.884 584.661L224.839 585.233C226.982 585.285 228.998 584.176 230.074 582.327C233.278 576.83 233.252 571.254 231.831 564.176C231.755 563.819 231.678 563.455 231.603 563.083C227.605 554.345 230.199 544.585 229.207 533.318C205.175 512.018 180.117 503.905 153.51 515.467L158.526 518.102C171.529 516.561 184.8 522.798 193.255 532.794C201.702 542.798 205.627 556.121 205.705 569.222C205.709 570.328 205.599 571.612 204.678 572.219C202.992 573.337 201.191 571.109 199.548 569.94C196.556 567.791 192.296 569.244 189.35 571.456C186.404 573.667 183.857 576.631 180.344 577.739C178.25 578.402 176.003 578.337 173.813 578.267C160.899 577.85 147.986 577.424 135.073 577.007C124.487 576.668 113.836 576.316 103.47 574.139C94.5919 572.274 85.1304 568.302 81.4039 560.035C79.9595 556.833 79.5587 553.416 79.7552 549.934C71.5414 561.72 79.2411 579.013 104.083 581.029L104.078 581.021Z" fill="#001F54"/>
</g>
<path d="M380.677 584.149L303.03 585.322C300.005 585.373 297.143 583.941 295.39 581.474C292.602 577.562 289.438 574.802 285.826 573.397C282.981 572.293 279.972 574.653 280.253 577.691L280.394 579.225C280.684 582.312 278.248 584.979 275.138 584.973L252.984 584.943C250.718 584.933 248.623 583.701 247.541 581.715C244.323 575.811 244.519 569.921 246.234 562.488C246.326 562.114 246.417 561.73 246.508 561.341C250.995 552.23 248.55 541.841 249.941 529.969C275.973 508.196 302.687 500.383 330.446 513.401C331.105 513.706 331.756 514.019 332.407 514.348C356.247 523.856 392.997 512.034 400.765 545.277C400.793 545.377 400.821 545.487 400.84 545.587C403.593 547.454 405.754 549.648 407.32 552.036C415.64 564.736 406.982 582.77 380.679 584.147L380.677 584.149Z" fill="#C1603E"/>
<path d="M380.677 584.149L303.03 585.322C300.005 585.373 297.143 583.941 295.39 581.474C292.602 577.562 289.438 574.802 285.826 573.397C282.981 572.293 279.972 574.653 280.253 577.691L280.394 579.225C280.684 582.312 278.248 584.979 275.138 584.973L252.984 584.943C250.718 584.933 248.623 583.701 247.541 581.715C244.323 575.811 244.519 569.921 246.234 562.488C246.326 562.114 246.417 561.73 246.508 561.341C250.995 552.23 248.55 541.841 249.941 529.969C275.973 508.196 302.687 500.383 330.446 513.401C331.105 513.706 331.756 514.019 332.407 514.348C356.247 523.856 392.997 512.034 400.765 545.277C400.793 545.377 400.821 545.487 400.84 545.587C403.593 547.454 405.754 549.648 407.32 552.036C415.64 564.736 406.982 582.77 380.679 584.147L380.677 584.149Z" fill="#C1603E"/>
<g opacity="0.6">
<path d="M280.25 577.687C280.244 577.634 280.249 577.582 280.245 577.528C278.305 577.954 276.774 579.794 276.976 581.996L277.117 583.531C277.151 583.889 277.144 584.242 277.107 584.584C279.2 583.744 280.615 581.613 280.389 579.22L280.248 577.686L280.25 577.687Z" fill="white"/>
<path d="M407.317 552.034C405.752 549.648 403.59 547.452 400.838 545.586C400.818 545.484 400.791 545.376 400.763 545.276C392.995 512.033 356.244 523.854 332.405 514.347C331.753 514.017 331.103 513.703 330.444 513.4C302.684 500.38 275.97 508.193 249.938 529.968C249.867 530.573 249.813 531.17 249.761 531.766C274.815 511.928 300.511 505.207 327.172 517.711C327.831 518.015 328.481 518.328 329.132 518.658C352.972 528.165 389.723 516.343 397.491 549.587C397.519 549.687 397.546 549.797 397.566 549.897C400.318 551.763 402.48 553.957 404.045 556.345C407.849 562.151 408.093 569.068 404.736 575.002C411.266 568.357 412.092 559.321 407.317 552.034Z" fill="white"/>
</g>
<path d="M380.678 584.147L303.03 585.321C300.005 585.371 297.143 583.939 295.39 581.472C292.602 577.56 289.438 574.8 285.826 573.395C282.982 572.292 279.972 574.651 280.253 577.689L280.394 579.224C280.684 582.31 278.249 584.977 275.138 584.971L252.984 584.942C250.718 584.931 248.624 583.699 247.542 581.714C244.323 575.809 244.519 569.919 246.234 562.487C257.419 564.148 268.003 563.668 277.543 559.443C282.476 557.263 288.155 557.491 292.896 560.06C296.256 561.878 299.547 563.967 303.03 565.908C305.869 567.485 309.06 568.317 312.3 568.405C335.543 569.058 357.497 567.53 376.721 561.42C383.996 550.252 391.835 543.577 400.764 545.279C400.792 545.379 400.819 545.489 400.839 545.589C418.268 557.381 411.92 582.51 380.678 584.149L380.678 584.147Z" fill="#E59A67"/>
<path d="M252.531 587.464C252.677 587.472 252.822 587.476 252.969 587.478L275.131 587.508C277.327 587.513 279.436 586.584 280.915 584.963C282.391 583.345 283.121 581.169 282.916 578.988L282.776 577.458C282.7 576.633 283.213 576.151 283.438 575.981C283.696 575.785 284.232 575.5 284.907 575.76C287.932 576.938 290.766 579.355 293.325 582.946C295.559 586.087 299.203 587.918 303.072 587.858L380.716 586.684C380.748 586.684 380.78 586.683 380.81 586.681C400.239 585.664 409.75 575.986 412.175 567.272C414.56 558.695 411.08 549.887 403.079 544.063C397.187 520.305 377.353 518.41 358.167 516.579C349.592 515.761 340.728 514.914 333.444 512.034C319.218 504.896 304.589 502.846 289.965 505.948C276.402 508.823 262.387 516.25 248.312 528.024C247.814 528.44 247.496 529.03 247.42 529.673C246.908 534.043 246.899 538.132 246.89 542.085C246.875 548.951 246.861 554.879 244.23 560.22C244.146 560.393 244.079 560.575 244.035 560.763C243.946 561.145 243.858 561.518 243.768 561.883C242.23 568.549 241.361 575.684 245.311 582.931C246.763 585.595 249.501 587.304 252.531 587.467L252.531 587.464ZM284.716 570.593C283.188 570.511 281.66 570.969 280.384 571.93C278.504 573.347 277.511 575.587 277.727 577.92L277.868 579.455C277.941 580.231 277.692 580.971 277.17 581.543C276.643 582.118 275.922 582.436 275.139 582.435L252.984 582.405C251.638 582.395 250.401 581.669 249.765 580.5C247.193 575.782 246.895 570.892 248.702 563.054C248.768 562.787 248.839 562.495 248.911 562.191C251.932 555.874 251.947 549.178 251.962 542.094C251.971 538.595 251.978 534.986 252.35 531.259C279.888 508.536 305.711 503.746 331.265 516.611C331.33 516.645 331.398 516.673 331.466 516.7C339.444 519.883 348.718 520.769 357.685 521.625C376.068 523.381 393.43 525.038 398.294 545.852C398.302 545.886 398.31 545.92 398.319 545.952C398.33 545.99 398.341 546.03 398.347 546.067C398.479 546.72 398.866 547.313 399.416 547.686C406.133 552.23 409.15 559.213 407.288 565.909C405.338 572.919 397.301 580.721 380.591 581.611L302.99 582.786C300.785 582.824 298.72 581.784 297.455 580.004C294.311 575.593 290.707 572.575 286.743 571.032C286.083 570.776 285.4 570.632 284.716 570.595L284.716 570.593Z" fill="#001F54"/>
<path d="M252.577 586.62C252.709 586.627 252.841 586.631 252.973 586.632L275.132 586.661C277.092 586.665 278.971 585.839 280.291 584.393C281.606 582.95 282.256 581.01 282.074 579.067L281.934 577.534C281.854 576.666 282.227 575.835 282.928 575.304C283.606 574.792 284.437 574.673 285.212 574.971C288.395 576.208 291.355 578.727 294.012 582.453C296.084 585.367 299.466 587.068 303.057 587.011L380.703 585.838C380.725 585.839 380.745 585.836 380.767 585.836C399.748 584.841 409.017 575.477 411.361 567.045C413.678 558.713 410.202 550.137 402.279 544.531C402.047 544.061 401.607 543.718 401.079 543.618C392.349 541.955 384.021 547.311 375.637 559.988C358.598 565.311 338.463 567.45 312.346 566.716C309.332 566.637 306.394 565.844 303.849 564.432C302.285 563.561 300.733 562.641 299.23 561.752C297.425 560.684 295.559 559.58 293.7 558.575C288.534 555.776 282.237 555.522 276.86 557.899C268.407 561.642 258.472 562.594 246.483 560.815C245.613 560.693 244.785 561.249 244.587 562.108C243.095 568.576 242.243 575.526 246.058 582.525C247.369 584.931 249.844 586.474 252.58 586.622L252.577 586.62ZM284.672 571.439C283.339 571.367 282.005 571.767 280.892 572.607C279.248 573.847 278.379 575.806 278.567 577.845L278.708 579.38C278.804 580.395 278.479 581.365 277.794 582.115C277.106 582.871 276.162 583.283 275.139 583.283L252.985 583.254C251.325 583.261 249.809 582.346 249.025 580.907C246.166 575.663 246.29 570.448 247.548 564.379C259.5 565.944 269.547 564.835 278.227 560.99C282.653 559.036 287.835 559.245 292.091 561.549C293.895 562.524 295.65 563.562 297.509 564.663C299.029 565.563 300.603 566.493 302.206 567.387C305.226 569.066 308.703 570.006 312.254 570.096C339.051 570.848 359.7 568.605 377.232 563.031C377.605 562.912 377.924 562.67 378.138 562.342C385.533 550.99 392.585 545.895 399.675 546.815C399.742 546.879 399.814 546.936 399.892 546.989C406.919 551.744 410.067 559.082 408.105 566.139C406.076 573.434 397.79 581.549 380.622 582.459L303.006 583.633C300.528 583.677 298.196 582.502 296.769 580.496C293.723 576.22 290.248 573.304 286.439 571.822C285.864 571.599 285.271 571.473 284.675 571.441L284.672 571.439Z" fill="#001F54"/>
<path d="M387.379 547.094C380.343 553.205 374.77 561.209 373.616 570.843C373.559 571.306 373.889 571.727 374.352 571.784C374.817 571.841 375.232 571.508 375.293 571.052C376.127 566.565 377.367 562.417 380.071 558.9C382.777 555.367 386.081 552.352 389.602 549.642C391.422 548.142 389.133 545.493 387.379 547.094Z" fill="#001F54"/>
<g opacity="0.25">
<path d="M380.676 584.146L303.028 585.32C300.003 585.371 297.142 583.938 295.388 581.472C292.601 577.559 289.436 574.799 285.824 573.395C282.98 572.291 279.971 574.651 280.252 577.688L280.393 579.223C280.683 582.309 278.247 584.976 275.136 584.97L252.982 584.941C250.717 584.93 248.622 583.698 247.54 581.713C244.322 575.809 244.518 569.918 246.232 562.486C246.325 562.111 246.416 561.728 246.507 561.338C250.993 552.227 248.549 541.839 249.94 529.966C275.971 508.194 302.685 500.381 330.445 513.398L325.066 516.03C311.376 514.009 297.167 520.196 287.933 530.499C278.708 540.812 274.157 554.769 273.679 568.604C273.641 569.771 273.718 571.131 274.674 571.8C276.422 573.032 278.393 570.733 280.163 569.548C283.388 567.369 287.845 569.031 290.89 571.457C293.937 573.883 296.537 577.09 300.213 578.365C302.404 579.129 304.781 579.129 307.098 579.12C320.753 579.07 334.406 579.012 348.059 578.962C359.253 578.923 370.514 578.874 381.532 576.887C390.967 575.185 401.082 571.276 405.269 562.656C406.893 559.316 407.419 555.718 407.317 552.035C415.637 564.735 406.979 582.769 380.676 584.146Z" fill="#001F54"/>
</g>
<path d="M143.728 512.538C145.144 515.522 148.49 517.064 151.721 516.405C187.41 509.195 206.229 539.223 230.546 538.19L230.049 532.557C233.667 530.069 236.419 527.47 237.785 524.717L237.786 524.709C237.974 524.343 238.129 523.983 238.261 523.614C238.573 522.734 238.742 521.83 238.752 520.917C238.756 520.685 238.745 520.444 238.726 520.212C238.512 519.12 238.168 518.091 237.685 517.103L237.685 517.095C236.772 515.179 235.374 513.469 233.567 511.923C233.252 503.247 228.178 496.63 230.774 487.43C230.815 487.272 230.864 487.107 230.912 486.949L240.411 489.065L247.37 507.776L247.405 507.867C237.303 516.933 239.678 532.279 251.658 532.926C303.461 538.057 308.044 509.701 337.232 513.985C339.409 514.303 341.644 513.559 343.157 511.967C347.345 507.54 346.744 501.603 341.667 497.741C332.188 486.848 326.512 444.827 320.493 405.621C320.02 402.52 318.008 399.895 315.172 398.55C304.003 393.261 295.249 384.218 287.849 373.085L275.84 371.347L261.303 369.248C243.08 374.16 225.805 373.081 209.603 365.182C206.004 363.434 202.465 361.352 198.976 358.913C198.852 358.826 198.721 358.738 198.597 358.651L198.274 358.674L198.266 358.674L179.869 359.842L170.465 360.44C149.296 381.619 143.663 441.388 150.314 496.214C149.992 496.381 149.687 496.549 149.389 496.733C149.381 496.733 149.38 496.741 149.38 496.741C143.21 500.477 141.457 507.735 143.729 512.543L143.728 512.538Z" fill="#FFF1E8"/>
<g opacity="0.5">
<path d="M239.336 372.187C246.493 372.25 253.816 371.26 261.301 369.243L266.225 369.954C257.012 372.279 248.043 373.059 239.336 372.187Z" fill="white"/>
<path d="M339.503 513.925C338.761 514.063 337.994 514.091 337.232 513.979C337.038 513.95 336.85 513.93 336.659 513.905C337.582 513.876 338.529 513.88 339.503 513.925Z" fill="white"/>
<path d="M230.541 538.112L230.547 538.188C210.401 539.043 194.027 518.58 168.711 515.635C194.873 515.464 211.569 534.909 230.541 538.112Z" fill="white"/>
<path d="M149.38 496.731C149.38 496.731 149.38 496.722 149.389 496.723C149.686 496.538 149.993 496.371 150.313 496.204C143.663 441.378 149.296 381.61 170.465 360.429L179.869 359.832L198.266 358.663L198.274 358.664L198.597 358.641C198.721 358.728 198.851 358.815 198.975 358.902C199.187 359.051 199.4 359.184 199.611 359.33L186.258 360.177L176.854 360.775C155.685 381.954 150.052 441.723 156.702 496.549L155.904 496.506C154.551 496.522 150.172 496.745 146.902 500.024C142.813 504.125 141.493 511.975 145.283 515.156C147.996 517.43 152.226 516.397 153.296 516.106C152.774 516.196 152.249 516.293 151.721 516.4C148.489 517.058 145.145 515.516 143.727 512.533C141.457 507.725 143.21 500.465 149.378 496.731L149.38 496.731Z" fill="white"/>
</g>
<path d="M227.573 540.571C228.588 540.626 229.612 540.635 230.649 540.59C231.303 540.562 231.92 540.268 232.351 539.776C232.782 539.284 232.995 538.635 232.938 537.983L232.563 533.719C235.821 531.331 238.14 528.944 239.54 526.524C239.541 526.529 239.544 526.534 239.546 526.539C241.369 531.714 245.825 534.993 251.474 535.318C281.305 538.263 296.205 530.176 308.177 523.679C317.522 518.608 324.902 514.601 336.885 516.359C339.862 516.794 342.858 515.77 344.9 513.612C347.351 511.025 348.558 507.834 348.297 504.63C348.032 501.364 346.271 498.307 343.331 495.994C335.179 486.272 329.68 450.073 324.36 415.062C323.862 411.787 323.365 408.514 322.865 405.259C322.273 401.398 319.779 398.08 316.196 396.381C306.396 391.737 297.778 383.681 289.852 371.755C289.474 371.188 288.873 370.806 288.197 370.709L261.648 366.871C261.326 366.824 260.997 366.843 260.681 366.928C238.199 372.984 218.345 369.631 199.983 356.687C199.535 356.371 198.993 356.218 198.449 356.254L170.318 358.041C169.736 358.078 169.185 358.326 168.773 358.739C158.435 369.084 151.107 388.674 147.584 415.393C144.458 439.102 144.52 467.286 147.75 494.926C140.817 499.406 138.888 507.9 141.567 513.565C143.435 517.511 147.807 519.651 152.202 518.759C171.937 514.776 186.103 522.568 199.801 530.107C209.064 535.204 217.865 540.045 227.576 540.57L227.573 540.571ZM227.925 535.782L227.887 535.78C219.206 535.31 210.88 530.729 202.11 525.903C188.328 518.319 172.705 509.722 151.247 514.058C149.018 514.506 146.822 513.461 145.9 511.512C143.998 507.496 145.759 501.247 151.409 498.345C152.303 497.887 152.815 496.919 152.695 495.923C145.497 436.567 153.243 382.109 171.541 362.772L197.912 361.096C216.934 374.232 238.303 377.797 261.444 371.691L286.452 375.307C294.715 387.492 303.78 395.809 314.139 400.718C316.28 401.733 317.769 403.702 318.119 405.986C318.619 409.238 319.117 412.511 319.612 415.783C325.317 453.334 330.705 488.801 339.854 499.315C339.961 499.438 340.08 499.551 340.212 499.65C342.178 501.146 343.35 503.053 343.511 505.02C343.662 506.875 342.936 508.706 341.414 510.313C340.443 511.336 339.014 511.822 337.58 511.611C324.017 509.62 315.21 514.402 305.886 519.461C293.893 525.972 280.292 533.351 251.895 530.537C251.86 530.535 251.823 530.531 251.788 530.529C248.009 530.325 245.267 528.342 244.073 524.946C242.626 520.837 243.591 514.514 249.009 509.65C249.742 508.993 249.999 507.953 249.656 507.029L242.661 488.229C242.378 487.468 241.728 486.901 240.934 486.724L231.436 484.609C230.212 484.337 228.991 485.048 228.622 486.243C226.614 492.756 228.062 498.02 229.461 503.11C230.283 506.098 231.059 508.92 231.173 512.012C231.197 512.682 231.501 513.313 232.011 513.748C234.411 515.8 235.83 518.021 236.346 520.531C236.52 523.633 234.016 526.921 228.693 530.583C227.981 531.073 227.588 531.91 227.663 532.77L227.929 535.782L227.925 535.782ZM244.608 507.232C242.259 509.672 240.555 512.537 239.586 515.524C238.692 513.838 237.462 512.258 235.907 510.797C235.662 507.568 234.862 504.659 234.086 501.836C232.946 497.69 231.939 494.027 232.684 489.803L238.614 491.123L244.607 507.231L244.608 507.232Z" fill="#001F54"/>
<path d="M237.676 486.002C229.334 483.994 220.928 482.257 212.85 479.233C204.692 476.284 196.774 472.655 189.017 468.734C188.103 468.249 187.294 469.586 188.193 470.159C203.224 479.418 219.4 487.152 236.863 490.731C240.071 491.258 240.891 486.619 237.674 486.001L237.676 486.002Z" fill="#001F54"/>
<path d="M238.753 514.138C234.999 510.26 229.244 507.674 223.924 509.049C222.509 509.359 222.78 511.461 224.22 511.407C228.832 511.116 232.493 513.671 235.164 517.344C237.337 519.971 241.122 516.599 238.753 514.138Z" fill="#001F54"/>
<path d="M146.452 503.142C149.111 499.139 153.067 496.767 157.931 496.55C158.32 496.542 158.728 496.519 159.131 496.486C159.783 496.456 159.908 495.476 159.293 495.279C155.045 493.629 149.562 494.181 145.8 497.144C144.477 498.133 143.322 499.341 142.343 500.66C140.482 503.562 144.593 506.074 146.451 503.143L146.452 503.142Z" fill="#001F54"/>
<path d="M345.563 498.161C340.28 492.948 331.851 493.547 325.608 496.131C324.246 496.71 324.954 498.771 326.383 498.39C329.167 497.622 332.141 497.376 334.934 497.778C337.824 498.193 340.469 499.356 341.966 501.346C344.122 503.876 347.817 500.616 345.563 498.161Z" fill="#001F54"/>
<g opacity="0.25">
<path d="M220.087 469.408C187.283 466.739 186.929 440.033 188.693 408.574C211.47 412.941 234.345 415.483 257.319 416.203C262.845 416.376 267.187 420.978 266.986 426.502C266.118 450.358 261.672 469.724 241.75 469.683C235.592 470.418 228.12 470.131 220.087 469.409L220.087 469.408Z" fill="#001F54"/>
</g>
<path d="M244.779 515.351C247.063 511.228 250.367 507.797 254.455 505.453C255.025 505.123 255.22 504.394 254.889 503.824C254.553 503.237 253.828 503.085 253.254 503.376C250.847 504.307 248.512 505.582 246.368 507.213C244.221 508.838 242.276 510.812 240.592 513.009C239.781 514.066 239.981 515.58 241.038 516.39C242.307 517.387 244.169 516.807 244.781 515.351L244.779 515.351Z" fill="#001F54"/>
<path d="M217.702 464.609C187.397 462.171 187.026 438.294 188.604 410.172C212.657 414.675 236.825 417.05 261.109 417.293C261.044 442.539 258.655 464.967 237.711 464.889C232.025 465.535 225.123 465.268 217.702 464.609Z" fill="#FEBD1C"/>
<g opacity="0.5">
<path d="M261.11 417.297C261.105 418.961 261.09 420.611 261.062 422.246C240.231 421.846 219.483 419.88 198.821 416.343C195.357 415.75 192.153 418.34 192.014 421.852C191.477 435.399 191.979 447.561 196.912 456.251C187.372 446.463 187.533 429.304 188.607 410.173C212.66 414.676 236.828 417.051 261.112 417.294L261.11 417.297Z" fill="white"/>
</g>
<g opacity="0.25">
<path d="M188.617 410.174C187.413 436.168 189.176 457.506 215.866 459.704C222.798 460.336 229.248 460.581 234.564 459.913C252.839 459.917 256.065 440.361 256.534 417.223C258.058 417.255 259.582 417.278 261.107 417.294C261.042 442.54 258.653 464.968 237.709 464.89C232.023 465.536 225.121 465.269 217.7 464.61C187.395 462.172 187.024 438.295 188.602 410.173C188.607 410.174 188.611 410.174 188.615 410.176L188.617 410.174Z" fill="#001F54"/>
</g>
<path d="M217.768 463.803C196.091 460.464 190.574 448.336 190.189 427.871C190.094 422.053 190.328 416.18 190.601 410.285L188.238 412.138C212.249 416.638 236.658 419.053 261.09 419.294L259.111 417.29C258.405 429.989 259.117 449.027 250.253 458.741C247.01 462.164 242.424 463.796 237.714 464.262C237.366 464.299 237.113 464.609 237.151 464.958C237.182 465.257 237.422 465.487 237.71 465.521C240.248 465.807 242.897 465.698 245.473 464.992C250.726 463.691 255.089 459.573 257.53 454.842C263.32 443.278 263.255 429.872 263.108 417.302C263.104 416.206 262.215 415.315 261.129 415.299C236.931 415.06 212.76 412.668 188.972 408.212C187.887 408.009 186.843 408.724 186.639 409.809C185.754 426.661 183.664 450.441 199.972 460.908C202.651 462.59 205.604 463.725 208.594 464.422C211.588 465.127 214.629 465.408 217.637 465.42C218.085 465.423 218.449 465.061 218.452 464.611C218.454 464.205 218.156 463.866 217.766 463.807L217.768 463.803Z" fill="#001F54"/>
<path d="M263.781 361.603C263.59 364.709 263.533 367.837 263.611 370.974L290.722 373.24C290.731 353.352 293.173 334.846 299.29 318.435L274.403 319.494C272.558 323.696 270.929 327.917 269.537 332.158C266.354 341.838 264.383 351.649 263.781 361.603Z" fill="#FFF1E8"/>
<g opacity="0.25">
<path d="M263.781 361.604C263.59 364.71 263.533 367.838 263.611 370.975L290.722 373.241C290.731 353.352 293.173 334.846 299.29 318.436L274.403 319.495C272.558 323.697 270.929 327.917 269.537 332.159L269.692 332.256C273.884 328.783 280.784 330.084 284.233 334.291C287.69 338.499 287.955 344.712 285.897 349.744C283.766 354.94 279.326 359.129 274.013 360.949C270.741 362.062 267.172 362.269 263.781 361.606L263.781 361.604Z" fill="#001F54"/>
</g>
<path d="M290.614 375.236C291.151 375.265 291.678 375.076 292.076 374.711C292.488 374.332 292.722 373.799 292.723 373.24C292.736 352.034 295.497 334.335 301.164 319.132C301.399 318.505 301.303 317.802 300.909 317.259C300.515 316.716 299.873 316.405 299.207 316.436L274.32 317.495C273.557 317.527 272.882 317.989 272.575 318.688C264.852 336.268 261.164 353.877 261.614 371.026C261.641 372.046 262.431 372.882 263.446 372.967L290.558 375.233C290.578 375.234 290.596 375.235 290.616 375.236L290.614 375.236ZM296.405 320.558C291.434 335.03 288.917 351.609 288.734 371.066L265.579 369.131C265.441 353.51 268.856 337.478 275.738 321.437L296.405 320.558Z" fill="#001F54"/>
<g opacity="0.25">
<path d="M176.013 382.157C176.049 384.313 176.288 386.69 177.85 388.191C178.436 388.759 179.176 389.152 179.918 389.497C187.299 392.851 196.702 391.061 202.328 385.222C207.046 380.335 208.919 373.388 209.843 366.652L209.601 365.18C206.003 363.432 202.464 361.351 198.974 358.911C198.746 358.835 198.509 358.757 198.275 358.672L198.267 358.672L179.87 359.84C177.202 366.954 175.886 374.563 176.013 382.156L176.013 382.157Z" fill="#001F54"/>
</g>
<g opacity="0.25">
<path d="M247.404 507.867C237.302 516.933 239.677 532.279 251.657 532.926C303.46 538.057 308.043 509.701 337.231 513.985C339.408 514.303 341.643 513.559 343.156 511.967C347.344 507.54 346.743 501.603 341.666 497.741C332.187 486.848 326.511 444.827 320.492 405.621C320.019 402.52 318.007 399.895 315.171 398.55C304.003 393.261 295.248 384.218 287.848 373.085L275.839 371.347C275.138 371.878 274.497 372.475 273.923 373.15C272.101 375.303 271.159 378.055 270.483 380.79C268.781 387.683 268.561 395.304 271.958 401.535L267.645 401.15C273.294 406.59 281.948 407.282 288.824 411.049C295.803 414.87 300.676 421.773 303.599 429.172C306.523 436.563 307.696 444.516 308.841 452.387C309.789 458.869 310.743 465.354 311.691 471.836C313.083 481.372 314.43 491.408 311.003 500.426C308.128 507.976 302.09 514.033 295.102 518.086C288.114 522.146 280.209 524.362 272.278 525.872C265.618 527.138 258.33 527.849 252.405 524.565C246.471 521.272 243.277 512.498 247.833 507.482C247.676 507.577 247.526 507.681 247.369 507.778L247.404 507.868L247.404 507.867Z" fill="#001F54"/>
</g>
<path d="M292.209 368.896C284.417 364.666 271.963 363.518 263.24 365.907C260.709 366.6 258.92 368.853 258.778 371.472L258.12 383.645C257.59 393.469 265.152 402.034 274.987 402.316C275.446 402.329 275.908 402.329 276.37 402.315C284.385 402.078 291.128 396.203 292.831 388.367L295.503 376.065C296.124 373.209 294.778 370.291 292.209 368.896Z" fill="#FEBD1C"/>
<g opacity="0.25">
<path d="M143.728 512.539C145.144 515.523 148.49 517.065 151.722 516.407C187.411 509.196 206.229 539.224 230.546 538.192L230.049 532.558C233.668 530.071 236.419 527.471 237.786 524.719L237.786 524.71C237.797 524.35 237.793 523.99 237.796 523.629C237.793 521.457 237.767 519.278 237.684 517.103L237.684 517.094C236.771 515.178 235.373 513.469 233.566 511.922C233.251 503.246 228.177 496.63 230.773 487.43C230.396 487.298 230.002 487.196 229.622 487.095C215.644 483.408 202.232 477.558 190.018 469.816L188.683 469.913C192.245 473.678 195.805 477.435 199.367 481.2C202.625 484.645 205.928 488.138 208.137 492.335C209.778 495.451 210.764 498.853 211.744 502.23C212.6 505.2 213.457 508.17 214.322 511.132C215.28 514.452 216.191 518.209 214.451 521.183C211.945 525.468 205.67 525.387 200.975 523.778C192.198 520.788 184.617 514.493 175.493 512.886C171.772 512.228 167.943 512.389 164.221 511.732C160.492 511.073 156.674 509.385 154.794 506.104C152.921 502.823 153.961 497.81 157.522 496.544C154.827 496.182 152.067 496.249 149.39 496.73C149.381 496.729 149.381 496.738 149.381 496.738C143.211 500.474 141.458 507.732 143.73 512.54L143.728 512.539Z" fill="#001F54"/>
</g>
<g opacity="0.25">
<path d="M269.881 398.839C270.329 398.854 270.777 398.858 271.227 398.849C279.019 398.708 285.532 393.828 287.13 387.269L289.639 376.97C290.221 374.578 288.892 372.123 286.384 370.934C279.373 367.611 268.533 366.463 260.25 367.822C261.02 366.922 262.044 366.235 263.242 365.908C271.965 363.519 284.419 364.667 292.211 368.897C294.78 370.292 296.126 373.21 295.505 376.066L292.833 388.368C291.13 396.204 284.388 402.079 276.372 402.316C275.91 402.33 275.448 402.33 274.989 402.317C270.587 402.191 266.642 400.401 263.672 397.584C265.58 398.321 267.672 398.765 269.881 398.838L269.881 398.839Z" fill="#001F54"/>
</g>
<path d="M274.438 404.297C274.601 404.306 274.765 404.313 274.929 404.317C275.428 404.332 275.93 404.331 276.432 404.316C285.31 404.053 292.857 397.67 294.785 388.792L297.457 376.491C298.26 372.794 296.495 368.949 293.162 367.139C285.136 362.782 272.046 361.422 262.712 363.979C259.354 364.898 256.971 367.867 256.782 371.364L256.124 383.537C255.836 388.86 257.741 394.162 261.349 398.083C264.798 401.831 269.43 404.025 274.438 404.295L274.438 404.297ZM275.747 366.734C281.427 367.041 287.101 368.399 291.254 370.656C293.033 371.622 293.978 373.672 293.549 375.642L290.877 387.944C289.34 395.021 283.35 400.11 276.31 400.319C275.885 400.331 275.463 400.331 275.043 400.319C270.931 400.205 267.115 398.445 264.291 395.375C261.407 392.244 259.887 388.007 260.116 383.754L260.774 371.581C260.87 369.807 262.074 368.301 263.768 367.838C267.357 366.856 271.552 366.509 275.745 366.735L275.747 366.734Z" fill="#001F54"/>
<path d="M197.797 358.607C197.981 344.256 202.24 325.022 208.465 309.427L186.901 308.262C185.747 310.787 184.437 317.396 183.42 319.904C179.4 329.819 176.469 339.576 174.872 349.151C174.42 351.881 174.071 354.61 173.838 357.312L197.797 358.607Z" fill="#FFF1E8"/>
<g opacity="0.25">
<path d="M197.798 358.607C197.981 344.255 202.262 324.613 208.487 309.018L186.923 307.853C185.77 310.378 184.592 314.534 183.575 317.041C191.795 321.454 193.488 325.846 194.744 331.36C196.238 337.944 192.788 345.328 186.775 348.398C183.127 350.26 178.743 350.432 174.872 349.149C174.42 351.879 174.072 354.608 173.839 357.31L197.798 358.605L197.798 358.607Z" fill="#001F54"/>
</g>
<path d="M173.73 359.309L197.689 360.604C198.233 360.633 198.765 360.44 199.163 360.068C199.561 359.696 199.79 359.177 199.797 358.634C199.963 345.73 204.637 322.264 211.405 305.308C211.643 304.709 211.58 304.033 211.233 303.489C210.886 302.947 210.299 302.604 209.655 302.569L188.091 301.404C187.27 301.36 186.504 301.822 186.163 302.571C178.625 319.092 173.064 342.965 171.845 357.142C171.799 357.681 171.973 358.216 172.328 358.625C172.683 359.034 173.19 359.28 173.73 359.309ZM195.85 356.499L176.027 355.428C177.392 342.677 182.602 320.276 189.241 305.47L206.676 306.412C200.74 321.851 196.31 344.305 195.85 356.499Z" fill="#001F54"/>
<path d="M199.335 354.484C190.106 353.548 181.329 353.41 173.49 354.926C171.864 355.241 170.671 356.641 170.581 358.295L169.641 375.69C169.424 379.707 170.761 383.705 173.53 386.623C173.744 386.848 173.963 387.066 174.187 387.276C182.236 394.832 195.501 390.806 198.616 380.212C200.839 372.648 202.057 365.4 202.593 358.365C202.742 356.405 201.292 354.681 199.336 354.481L199.335 354.484Z" fill="#FEBD1C"/>
<g opacity="0.25">
<path d="M192.948 381.371C195.131 374.557 196.31 368.024 196.808 361.682C196.947 359.915 195.488 358.349 193.531 358.159C185.433 357.376 177.688 357.149 170.623 358C170.831 356.48 171.964 355.223 173.491 354.927C181.33 353.411 190.107 353.549 199.336 354.485C201.293 354.683 202.743 356.409 202.594 358.37C202.058 365.404 200.84 372.651 198.617 380.217C196.322 388.026 188.509 392.26 181.336 390.921C186.576 389.996 191.278 386.576 192.948 381.371Z" fill="#001F54"/>
</g>
<path d="M183.122 393.145C184.888 393.24 186.69 393.053 188.469 392.569C194.32 390.978 198.83 386.571 200.533 380.78C202.674 373.494 204.001 366.213 204.586 358.522C204.816 355.506 202.55 352.802 199.535 352.497C188.789 351.41 180.391 351.557 173.108 352.964C170.583 353.454 168.722 355.601 168.582 358.189L167.642 375.584C167.391 380.242 169.008 384.768 172.078 388.004C172.318 388.257 172.564 388.502 172.816 388.738C175.673 391.421 179.311 392.941 183.12 393.146L183.122 393.145ZM199.133 356.475C200.008 356.564 200.665 357.347 200.6 358.218C200.037 365.628 198.76 372.639 196.698 379.651C195.391 384.1 191.923 387.487 187.421 388.711C183.089 389.888 178.765 388.835 175.556 385.821C175.36 385.637 175.168 385.448 174.981 385.25C172.665 382.808 171.446 379.366 171.638 375.8L172.578 358.405C172.619 357.653 173.151 357.031 173.871 356.891C180.761 355.557 188.79 355.426 199.135 356.475L199.133 356.475Z" fill="#001F54"/>
<g opacity="0.25">
<path d="M238.263 523.617C238.575 522.738 238.744 521.833 238.753 520.921C238.545 521.806 238.384 522.711 238.263 523.617Z" fill="#001F54"/>
</g>
<path d="M370.095 108.862C394.63 126.15 441.881 121.395 445.042 139.175C447.138 150.96 428.204 173.445 405.324 171.573C385.463 169.948 373.672 155.53 373.672 155.53" fill="white"/>
<path d="M371.032 107.531C384.201 113.517 397.991 116.763 412.217 119.607C422.194 121.887 437.337 124.07 444.686 131.62C451.524 138.565 447.782 149.227 442.926 155.92C436.049 165.648 425.45 172.904 413.551 174.667C405.696 175.81 397.507 174.185 390.345 170.931C383.278 167.645 377.029 162.861 372.41 156.558C371.305 154.958 373.426 153.115 374.851 154.421C376.09 155.583 377.54 156.753 378.963 157.828C388.495 164.898 400.565 169.666 412.539 167.929C422.482 166.325 431.617 160.208 437.509 152.102C440.66 147.523 444.279 140.62 439.906 136.115C435.411 131.756 427.772 130.147 421.514 128.625C410.705 126.203 399.845 124.515 389.129 121.088C385.532 119.958 381.951 118.639 378.547 116.869C375.161 115.088 371.872 112.969 369.155 110.189C368.516 109.536 368.527 108.487 369.183 107.848C369.688 107.356 370.428 107.248 371.032 107.527L371.032 107.531Z" fill="#001F54"/>
<path d="M433.788 143.694C405.979 156.402 388.188 137.877 380.54 137.154C377.173 136.836 372.413 138.196 371.935 145.358C371.935 145.358 377.199 152.586 387.402 156.407C427.769 171.53 433.788 143.694 433.788 143.694Z" fill="#E8E8E8"/>
<path d="M433.789 143.694C420.818 152.896 404.339 152.372 390.505 145.177C387.201 143.603 384.352 141.75 381.251 140.433C378.972 139.55 376.349 139.954 374.942 142.112C374.318 143.012 373.878 144.242 373.544 145.535C373.314 146.414 372.416 146.943 371.537 146.713C370.842 146.531 370.368 145.928 370.312 145.252C370.183 143.651 370.308 141.938 370.942 140.203C373.07 134.287 380.247 132.876 385.484 135.421C390.98 137.764 395.589 140.553 401.006 142.578C411.528 146.795 422.735 146.674 433.788 143.696L433.789 143.694Z" fill="#001F54"/>
<path d="M181.797 71.2067C153.056 79.8568 109.729 60.4137 101.113 76.2831C95.4003 86.8027 106.26 114.119 128.557 119.573C147.914 124.308 163.658 114.354 163.658 114.354" fill="#5F5F82"/>
<g opacity="0.5">
<path d="M181.792 71.2098L179.223 77.3224C150.566 85.2004 108.318 66.5226 99.6409 81.9771C99.7836 79.7912 100.263 77.8514 101.114 76.2833C109.73 60.4138 153.054 79.8646 181.792 71.2098Z" fill="white"/>
</g>
<path d="M182.267 72.7686C166.402 80.4937 143.747 75.1892 126.765 73.7138C120.349 73.1763 112.585 72.2919 106.949 75.008C101.372 77.9005 102.638 85.5941 104.171 90.9324C107.697 102.034 116.23 112.026 127.421 115.77C138.968 119.428 151.801 117.78 162.785 112.979C163.614 112.539 164.658 112.881 165.044 113.74C165.37 114.455 165.136 115.284 164.526 115.731C162.883 116.936 161.277 117.875 159.553 118.76C154.377 121.39 148.778 123.076 142.966 123.699C135.143 124.523 126.861 123.477 119.768 119.91C109.034 114.477 101.273 104.244 97.8211 92.8405C95.3324 84.961 95.1463 73.6539 103.83 69.2292C111.17 65.527 119.608 66.4333 127.384 66.9166C138.296 67.8778 149.267 69.6365 160.067 70.1664C167.23 70.43 174.193 70.3763 181.323 69.6493C183.105 69.4558 183.888 71.9362 182.261 72.7677L182.267 72.7686Z" fill="#001F54"/>
<path d="M110.359 84.1279C132.73 104.971 155.461 93.0196 162.945 94.7484C166.24 95.5107 170.327 98.305 168.517 105.251C168.517 105.251 161.239 110.445 150.351 110.848C107.273 112.44 110.359 84.1279 110.359 84.1279Z" fill="#001F54"/>
<path d="M110.361 84.1297C119.907 90.4478 130.504 94.1044 141.819 93.429C147.6 93.2203 152.851 92.0296 158.807 91.544C164.574 90.7812 170.949 94.3965 171.093 100.676C171.105 102.584 170.563 107.572 167.938 106.537C167.277 106.257 166.894 105.594 166.938 104.915C167.034 103.583 167.002 102.275 166.694 101.223C166.043 98.7336 163.679 97.5215 161.239 97.6389C157.88 97.9107 154.592 98.766 150.96 99.2174C135.573 101.676 119.744 96.9506 110.361 84.1316L110.361 84.1297Z" fill="#001F54"/>
<path d="M224.435 87.1778L195.185 83.3261L185.661 81.7166C175.763 67.5234 181.328 41.4966 189.912 27.5825C193.694 21.4325 198.057 17.6509 201.944 18.2811C208.377 19.3243 206.754 36.6882 217.067 50.5416C222.823 58.2749 232.286 64.9258 248.946 67.039C285.065 71.6359 224.435 87.1797 224.435 87.1797L224.435 87.1778Z" fill="#F9E3D2"/>
<g opacity="0.5">
<path d="M238.809 64.9672C227.09 62.7554 219.241 57.7121 213.708 51.7087C203.056 40.1682 200.983 25.094 196.604 19.856C198.42 18.5869 200.23 18.0008 201.946 18.2791C208.379 19.3223 206.756 36.6862 217.069 50.5395C221.534 56.5387 228.235 61.8884 238.809 64.9672Z" fill="white"/>
</g>
<path d="M224.436 87.1784L195.185 83.3267L185.662 81.7172C175.764 67.524 181.328 41.4972 189.912 27.5831C189.912 27.5831 180.959 58.2602 197.744 55.7437C206.103 54.4952 211.199 52.1578 217.068 50.5422C222.824 58.2755 232.287 64.9264 248.946 67.0396C285.065 71.6365 224.435 87.1803 224.435 87.1803L224.436 87.1784Z" fill="#E2C3AF"/>
<path d="M194.662 86.5389C192.93 86.258 191.725 84.6497 191.957 82.8976C192.191 81.1135 193.827 79.8601 195.61 80.0941L224.237 83.8731C239.053 80.0275 252.739 74.9237 256.433 71.972C255.291 71.5078 252.995 70.8363 248.533 70.2694C247.623 70.1545 246.728 70.0236 245.857 69.8824C214.224 64.7527 208.362 43.1903 204.82 30.1643C203.957 26.9867 202.51 21.6705 201.417 21.4932C199.809 21.2323 196.607 23.0321 192.876 28.9664C185.117 41.3062 179.037 66.5266 188.331 79.8544C189.36 81.3304 188.999 83.3586 187.523 84.3876C186.047 85.4147 184.019 85.0552 182.99 83.5792C171.96 67.7652 178.443 39.6885 187.363 25.499C192.102 17.9609 197.465 14.2538 202.46 15.0638C207.695 15.9128 209.275 21.725 211.105 28.4553C214.728 41.7836 219.685 60.0312 249.353 63.806C256.61 64.7303 263.359 66.2747 263.673 71.3036C263.914 75.1661 260.601 78.9388 243.642 84.7987C234.575 87.9316 225.623 90.2383 225.245 90.3338L224.634 90.4911L194.755 86.5477C194.723 86.5426 194.689 86.5371 194.657 86.532L194.662 86.5389Z" fill="#001F54"/>
<path d="M327.588 103.904L356.557 109.491L366.101 110.972C379.977 100.634 382.921 74.1819 379.176 58.2685C377.531 51.2384 374.586 46.2716 370.7 45.6414C364.266 44.5982 360.319 61.5851 346.156 71.4694C338.251 76.9895 327.171 80.307 310.698 77.0492C274.977 69.9964 327.59 103.904 327.59 103.904L327.588 103.904Z" fill="#F9E3D2"/>
<g opacity="0.5">
<path d="M320.976 78.2875C332.793 79.8903 341.833 77.5878 348.98 73.6406C362.731 66.0573 369.463 52.411 375.273 48.8253C373.951 47.0473 372.42 45.9194 370.704 45.6412C364.27 44.5979 360.323 61.5848 346.16 71.4691C340.03 75.7501 331.981 78.708 320.978 78.2878L320.976 78.2875Z" fill="white"/>
</g>
<path d="M327.588 103.904L356.558 109.492L366.102 110.972C379.978 100.634 382.922 74.1825 379.177 58.2691C379.177 58.2691 377.976 90.2034 362.847 82.5115C355.311 78.6855 351.215 74.8574 346.157 71.47C338.252 76.9901 327.172 80.3076 310.698 77.0498C274.978 69.997 327.59 103.905 327.59 103.905L327.588 103.904Z" fill="#E2C3AF"/>
<path d="M356.04 112.705C356.009 112.7 355.977 112.695 355.945 112.689L326.351 106.99L325.82 106.648C325.494 106.436 317.728 101.421 310.115 95.5829C295.878 84.6641 293.926 80.0376 295.375 76.4492C297.263 71.7754 304.162 72.4443 311.332 73.8593C340.664 79.6684 351.142 63.9054 358.791 52.405C362.654 46.598 365.99 41.5829 371.223 42.4315C376.456 43.2801 380.135 48.4514 382.249 57.1007C386.229 73.3802 383.507 102.069 368.045 113.589C366.603 114.664 364.562 114.364 363.489 112.923C362.414 111.481 362.712 109.44 364.155 108.367C377.185 98.6594 379.384 72.8076 375.922 58.6503C374.259 51.8432 371.789 49.1237 370.18 48.8628C369.087 48.6856 366.036 53.2726 364.211 56.0142C356.735 67.2516 344.355 85.8557 312.726 80.7286C311.853 80.5871 310.971 80.4277 310.067 80.2506C305.652 79.3779 303.264 79.2899 302.034 79.3693C304.605 83.337 315.978 92.5024 328.819 100.833L357.173 106.294C358.941 106.634 360.095 108.342 359.755 110.109C359.421 111.842 357.77 112.987 356.038 112.709L356.04 112.705Z" fill="#001F54"/>
<path d="M377.022 296.819C350.789 335.769 285.652 334.973 238.267 328.315C191.205 319.659 129.152 299.832 116.572 254.588C110.863 234.048 116.354 213.797 126.572 195.431C134.695 123.919 158.836 28.853 283.545 49.0742C408.254 69.2973 401.119 167.119 386.227 237.533C390.12 258.186 388.927 279.135 377.022 296.819Z" fill="white"/>
<path d="M377.019 296.815C350.785 335.768 285.652 334.965 238.265 328.313C191.205 319.652 129.148 299.828 116.565 254.581C110.86 234.046 116.351 213.785 126.566 195.425C132.052 147.167 144.827 88.1854 190.879 61.1484C213.07 48.1073 242.993 42.4909 283.545 49.067C324.097 55.643 350.711 70.4256 367.644 89.8111C402.792 130.014 396.275 190.01 386.224 237.528C390.116 258.176 388.93 279.135 377.02 296.813L377.019 296.815Z" fill="white"/>
<path d="M377.021 296.823C350.787 335.771 285.649 334.971 238.267 328.317C191.203 319.653 129.149 299.838 116.563 254.586C110.864 234.052 116.354 213.791 126.566 195.428C129.843 166.581 135.733 133.899 149.779 106.505C159.224 88.0721 172.357 72.0332 190.88 61.1581C211.007 49.3316 237.495 43.6041 272.493 47.5571C276.088 47.9589 279.769 48.4622 283.544 49.0743C324.098 55.6507 350.709 70.4287 367.648 89.8171C402.796 130.02 396.278 190.02 386.226 237.535C390.111 258.184 388.934 279.139 377.021 296.823Z" fill="white"/>
<path d="M272.494 47.554C269.288 66.1556 261.604 83.292 251.546 91.1462C228.966 108.778 219.874 89.0642 178.064 107.035C163.948 113.105 154.691 111.557 149.78 106.502C159.225 88.069 172.358 72.0301 190.881 61.155C211.008 49.3286 237.496 43.601 272.494 47.554Z" fill="#5F5F82"/>
<path d="M128.681 179.148C127.865 184.667 127.175 190.117 126.569 195.425C126.383 195.755 126.198 196.093 126.03 196.424C126.776 190.745 127.652 184.965 128.683 179.146L128.681 179.148Z" fill="white"/>
<path d="M386.421 238.65C386.367 238.281 386.296 237.901 386.226 237.531C387.329 232.296 388.397 226.905 389.368 221.403C388.507 227.257 387.51 233.028 386.423 238.652L386.421 238.65Z" fill="white"/>
<path d="M126.051 196.478C125.668 199.376 125.322 202.256 125.003 205.087C123.861 207.142 122.779 209.224 121.761 211.317C118.618 217.796 116.134 224.497 114.568 231.318C115.518 221.131 118.721 211.17 123.328 201.656C124.191 199.876 125.112 198.099 126.072 196.345L126.051 196.48L126.051 196.478Z" fill="white"/>
<path d="M386.267 275.41C386.883 269.033 386.732 262.522 385.995 255.996C385.663 253.059 385.211 250.121 384.662 247.192C385.259 244.363 385.847 241.488 386.409 238.566C386.883 241.151 387.271 243.741 387.564 246.333C388.681 256.203 388.452 266.03 386.271 275.41L386.267 275.41Z" fill="white"/>
<path d="M127.616 186.819C127.233 189.717 126.886 192.597 126.568 195.428C126.397 195.73 126.234 196.042 126.071 196.345C126.839 190.427 127.741 184.39 128.813 178.306C128.377 181.16 127.984 184.006 127.616 186.819Z" fill="white"/>
<path d="M386.407 238.568C386.359 238.222 386.292 237.882 386.227 237.531C387.377 232.092 388.484 226.498 389.482 220.772C388.579 226.817 387.536 232.768 386.405 238.568L386.407 238.568Z" fill="white"/>
<path d="M377.023 296.816C350.789 335.766 285.652 334.972 238.267 328.314C191.205 319.658 129.153 299.829 116.572 254.585C111.499 236.345 115.263 218.33 123.331 201.657C133.645 193.684 188.162 176.868 260.01 188.543C331.866 200.169 378.277 233.35 385.533 244.173C386.058 244.952 386.748 245.673 387.563 246.334C389.567 264.068 387.238 281.646 377.025 296.816L377.023 296.816Z" fill="#FFD8BE"/>
<path d="M380.021 274.969C378.301 280.377 375.848 285.612 372.507 290.573C347.357 327.914 284.906 327.15 239.485 320.77C194.375 312.473 134.889 293.464 122.828 250.089C121.226 244.328 120.549 238.593 120.63 232.91C133.96 277.288 195.603 295.155 242.247 303.737C289.213 310.335 353.352 312.863 380.023 274.971L380.021 274.969Z" fill="#FFB6B8"/>
<path d="M237.744 331.528C237.722 331.524 237.698 331.52 237.676 331.517C188.112 322.4 126.32 301.805 113.432 255.458C108.176 236.545 111.532 216.012 123.408 194.419C126.683 165.885 131.468 143.632 138.461 124.438C147.97 98.3278 161.789 78.2713 179.537 64.8232C205.443 45.1937 240.61 38.8113 284.066 45.8583C327.521 52.9049 358.871 70.072 377.247 96.8823C389.833 115.249 396.607 138.645 397.378 166.42C397.945 186.841 395.457 209.464 389.546 237.57C393.991 261.81 390.686 282.35 379.723 298.633C352.851 338.532 287.719 338.549 237.814 331.535C237.79 331.531 237.768 331.528 237.746 331.524L237.744 331.528ZM283.022 52.2893C241.394 45.5389 207.899 51.5023 183.469 70.0172C144.849 99.2815 134.348 155.818 129.806 195.8C129.757 196.228 129.625 196.64 129.416 197.016C118.147 217.268 114.88 236.344 119.708 253.716C131.689 296.796 191.06 316.312 238.788 325.101C286.845 331.845 349.341 332.091 374.322 295C384.39 280.046 387.32 260.913 383.028 238.138C382.948 237.716 382.954 237.281 383.042 236.862C391.368 197.495 399.267 140.537 371.875 100.568C354.547 75.2831 324.653 59.0403 283.024 52.2896L283.022 52.2893Z" fill="#001F54"/>
<path d="M221.256 203.178C222.02 201.447 219.922 198.844 216.569 197.363C213.216 195.883 209.879 196.087 209.114 197.818C208.35 199.549 210.448 202.152 213.801 203.633C217.154 205.113 220.491 204.909 221.256 203.178Z" fill="#FFB6B8"/>
<path d="M201.436 197.131C200.188 189.796 207.322 184.206 214.45 185.362C217.912 185.844 220.91 187.558 223.243 189.695C225.572 191.856 227.381 194.485 228.313 197.462C223.661 194.358 219.079 191.04 213.772 190.195C208.386 189.385 203.995 191.994 201.437 197.133L201.436 197.131Z" fill="#001F54"/>
<path d="M300.851 217.784C304.5 217.439 307.313 215.632 307.135 213.748C306.957 211.864 303.855 210.616 300.206 210.961C296.557 211.306 293.744 213.113 293.922 214.997C294.1 216.881 297.202 218.128 300.851 217.784Z" fill="#FFB6B8"/>
<path d="M314.659 215.49C313.858 209.806 310.512 205.943 305.148 205.01C299.842 204.135 294.454 205.835 289.056 207.309C290.879 204.779 293.428 202.857 296.321 201.543C299.209 200.252 302.593 199.575 306.032 200.21C313.156 201.366 318.163 208.931 314.661 215.488L314.659 215.49Z" fill="#001F54"/>
<path d="M291.501 294.417C284.727 302.303 269.093 292.801 244.667 288.84C220.241 284.879 202.393 288.952 198.459 279.329C193.969 268.36 207.47 230.806 216.871 223.462C218.393 222.288 221.133 233.099 223.462 233.363C225.853 233.649 234.031 225.94 234.648 226.04C235.265 226.14 242.236 237.943 243.979 237.908C245.735 237.875 252.64 229.263 254.283 229.529C255.926 229.796 259.744 240.147 261.4 240.733C263.044 241.317 273.387 232.31 274.006 232.41C274.625 232.51 279.946 242.421 282.303 242.905C284.598 243.391 290.612 233.999 291.683 235.606C298.284 245.533 299.225 285.429 291.499 294.417L291.501 294.417Z" fill="#001F54"/>
<path d="M208.411 289.249C201.899 288.193 197.24 286.024 195.071 280.717C189.891 268.065 203.964 228.9 214.618 220.576C215.633 219.796 216.897 219.533 218.108 219.833C220.538 220.441 221.574 222.742 223.143 226.224C223.507 227.03 224.017 228.165 224.478 229.054C226.095 228.009 228.438 226.129 229.608 225.191C232.461 222.901 233.421 222.131 235.24 222.426C237.059 222.721 237.585 223.543 240.27 227.525C241.258 228.99 242.999 231.575 244.294 233.247C245.02 232.569 245.838 231.761 246.439 231.168C250.152 227.501 252.196 225.481 254.876 225.915C257.556 226.35 258.857 228.912 261.217 233.567C261.598 234.319 262.117 235.339 262.59 236.212C264.345 235.033 266.814 233.13 268.212 232.05C272.019 229.117 272.81 228.506 274.597 228.796C276.385 229.086 277.087 230.128 279.07 233.206C279.883 234.468 281.509 236.994 282.713 238.498C283.428 237.804 284.269 236.889 284.866 236.243C287.458 233.432 289.17 231.576 291.673 231.772C292.92 231.877 294.04 232.529 294.737 233.576C302.222 244.835 303.201 286.431 294.282 296.808C288.35 303.713 278.964 301.126 265.979 297.55C259.604 295.794 252.38 293.804 244.085 292.459C235.791 291.114 228.306 290.718 221.703 290.37C216.717 290.107 212.244 289.871 208.413 289.249L208.411 289.249ZM245.256 285.225C253.941 286.634 261.368 288.679 267.922 290.485C279.351 293.633 285.952 295.257 288.725 292.032C294.203 285.656 294.699 254.103 290.28 241.179C290.27 241.189 290.26 241.2 290.252 241.209C287.303 244.407 284.752 247.18 281.547 246.489C278.984 245.964 276.936 243.4 273.127 237.511C272.978 237.628 272.827 237.742 272.683 237.853C265.454 243.425 262.893 245.152 260.177 244.186C258.08 243.445 256.977 241.409 254.678 236.879C254.342 236.214 253.899 235.344 253.471 234.542C252.81 235.167 252.114 235.855 251.583 236.379C247.967 239.95 246.275 241.531 244.049 241.571C241.176 241.626 239.291 239.187 234.191 231.619C234.089 231.468 233.984 231.312 233.877 231.153C228.401 235.532 225.651 237.313 223.031 237C219.824 236.635 218.251 233.204 216.46 229.232C216.454 229.219 216.45 229.208 216.444 229.195C208.178 240.054 198.669 270.166 201.853 277.943C203.464 281.881 210.244 282.427 222.088 283.052C228.876 283.41 236.571 283.817 245.256 285.225Z" fill="#001F54"/>
<path d="M295.544 283.806C294.653 288.521 293.314 292.315 291.5 294.419C284.726 302.305 269.086 292.802 244.666 288.842C220.246 284.882 202.393 288.954 198.458 279.331C197.415 276.764 197.342 272.755 197.973 267.998C210.674 257.838 229.763 252.951 249.954 256.225C270.144 259.499 286.701 270.165 295.54 283.806L295.544 283.806Z" fill="#FC9595"/>
<path d="M278.934 300.688C275.103 300.066 270.786 298.878 265.972 297.552C259.598 295.795 252.375 293.805 244.083 292.461C235.791 291.116 228.302 290.72 221.697 290.372C208.237 289.659 198.515 289.147 195.071 280.72C193.814 277.623 193.575 273.307 194.345 267.517L194.539 266.058L195.688 265.139C209.63 253.985 230.136 249.301 250.543 252.611C270.95 255.92 288.91 266.836 298.617 281.816L299.415 283.047L299.143 284.489C298.07 290.164 296.432 294.309 294.275 296.813C290.544 301.157 285.44 301.743 278.932 300.687L278.934 300.688ZM201.434 269.955C200.942 274.748 201.47 277.004 201.857 277.954C203.463 281.883 210.242 282.429 222.083 283.054C228.874 283.412 236.569 283.819 245.256 285.228C253.943 286.637 261.366 288.681 267.918 290.487C279.35 293.636 285.952 295.26 288.725 292.035C289.397 291.254 290.617 289.281 291.65 284.577C282.87 271.933 267.189 262.733 249.372 259.844C231.556 256.955 213.759 260.728 201.434 269.955Z" fill="#001F54"/>
<path d="M233.748 161.696C233.972 156.75 183.041 120.666 180.559 121.07C178.079 121.472 156.831 158.179 189.005 177.587C215.478 193.554 233.524 166.642 233.748 161.696Z" fill="#FF1B40"/>
<path d="M200.602 185.455C196.511 184.791 192.061 183.231 187.323 180.374C172.134 171.212 165.626 156.555 168.999 139.1C170.543 131.105 175.733 118.552 180.036 117.854C181.394 117.636 182.929 117.388 201.88 130.816C213.538 139.077 224.107 147.222 230.154 152.607C236.023 157.832 237.089 159.884 237 161.842C236.797 166.37 229.838 176.775 219.812 182.142C215.102 184.664 208.525 186.741 200.602 185.457L200.602 185.455ZM181.383 124.939C178.98 128.572 173.625 139.506 174.81 151.295C175.8 161.135 181.141 169.041 190.687 174.797C199.34 180.016 207.737 180.74 215.65 176.952C224.38 172.773 229.481 164.613 230.367 162C226.321 156.254 190.524 129.938 181.383 124.939Z" fill="#001F54"/>
<path d="M209.138 103.212C210.546 97.8457 223.564 92.4666 230.437 100.053C235.609 105.762 235.952 117.657 239.492 126.926C233.595 122.464 222.597 111.562 209.14 103.212L209.138 103.212Z" fill="#001F54"/>
<path d="M294.505 171.544C295.855 166.781 355.579 148.641 357.806 149.808C360.032 150.973 368.592 192.514 331.933 200.76C301.77 207.542 293.154 176.307 294.505 171.544Z" fill="#FF1B40"/>
<path d="M318.444 204.562C310.523 203.277 304.939 199.23 301.266 195.349C293.45 187.088 290.135 175.017 291.371 170.657C291.907 168.771 293.567 167.161 300.791 164.057C308.229 160.86 320.831 156.472 334.499 152.32C356.729 145.568 358.103 146.289 359.317 146.926C363.178 148.949 364.135 162.498 363.074 170.572C360.757 188.198 349.951 200.047 332.646 203.939C327.249 205.153 322.534 205.227 318.442 204.563L318.444 204.562ZM297.616 172.903C297.632 175.665 299.894 185.018 306.856 191.742C313.166 197.834 321.361 199.803 331.219 197.584C342.094 195.139 349.66 189.324 353.709 180.303C358.558 169.493 356.934 157.428 355.802 153.221C345.552 155.075 303.276 168.731 297.616 172.903Z" fill="#001F54"/>
<path d="M336.333 123.835C336.694 118.298 326.042 109.081 317.124 114.107C310.413 117.889 306.329 129.065 300.041 136.741C307.046 134.371 320.925 127.503 336.331 123.834L336.333 123.835Z" fill="#001F54"/>
<path d="M55.0077 254.269C48.659 237.254 44.3186 198.428 72.5553 194.131C82.8165 193.056 87.6563 197.812 86.9541 206.018C86.0512 216.568 79.8561 232.574 88.4282 244.393C104.729 266.899 109.286 279.302 100.552 309.788C100.552 309.788 102.573 329.873 96.9369 343.379C90.9014 357.841 71.0178 372.191 30.1532 363.578C17.3984 360.343 10.3884 350.387 14.1943 336.786C7.94182 332.475 -1.95904 317.234 10.4743 299.064C3.49093 293.874 -1.95903 275.41 12.4152 263.439C24.4801 253.393 55.0057 254.269 55.0057 254.269H55.0077Z" fill="#5F5F82"/>
<path d="M63.4713 302.094C49.7707 304.195 15.8138 301.775 10.5358 288.748C7.7166 281.789 36.3382 297.218 70.2029 288.654C75.7287 287.255 73.1306 298.69 63.4693 302.096L63.4713 302.094Z" fill="#001F54"/>
<path d="M63.508 332.656C38.6454 338.372 12.671 330.713 11.8091 321.463C11.3116 316.12 40.1481 329.139 70.7085 318.759C73.8184 317.702 70.6839 328.75 63.508 332.658V332.656Z" fill="#001F54"/>
<path d="M66.2057 356.253C50.1875 365.116 20.7715 356.492 20.0018 348.221C19.5575 343.445 45.3353 355.082 72.6527 345.803C75.433 344.859 72.2167 352.926 66.2057 356.253Z" fill="#001F54"/>
<path d="M103.22 299.097C103.214 299.111 103.214 299.117 103.214 299.129C102.532 302.434 101.645 305.972 100.55 309.788C100.55 309.788 102.573 329.872 96.9385 343.374C92.2338 354.641 79.1248 365.833 54.2539 366.167C86.6446 360.807 83.4815 336.872 71.8281 330.711C83.4753 323.128 81.6921 308.173 73.7895 299.901C82.4722 292.173 83.807 273.851 63.1434 266.903C82.7997 271.734 107.603 261.062 103.218 299.095L103.22 299.097Z" fill="#001F54"/>
<path d="M100.132 330.714C101.469 356.072 79.2965 368.161 56.7084 369.148C55.2978 369.203 52.0548 369.234 50.6872 369.25C49.4097 369.232 46.0152 368.984 44.6967 368.941C40.1803 368.552 35.3466 367.789 30.8814 366.931C15.637 363.991 6.82127 351.255 11.6775 336.082C11.6775 336.082 12.7155 338.946 12.7094 338.938C3.16886 331.811 -0.235847 318.72 3.34492 307.653C4.44843 303.992 6.32173 300.716 8.31787 297.586L8.91569 301.163C-1.10186 292.705 -1.63212 276.122 6.19889 266.174C10.271 260.71 16.3557 257.272 22.8211 255.444C33.3423 252.377 44.1685 251.593 55.0808 251.654L52.5543 255.184C45.6528 236.69 42.4467 205.731 62.2955 194.19C68.6954 190.777 76.3647 189.299 83.299 192.366C91.3491 196.34 90.8331 205.139 89.2956 212.524C87.4203 222.824 84.6482 234.346 91.3552 243.26C102.384 258.576 111.046 274.912 106.024 294.325C105.033 298.481 103.5 302.452 101.53 306.232C101.565 301.949 102.007 297.832 102.159 293.749C103.809 272.762 98.0643 262.636 85.9626 246.192C84.8161 244.53 83.731 242.638 82.953 240.777C80.8299 235.476 80.5003 229.382 81.0285 223.985C81.4196 219.638 82.2241 215.439 82.912 211.408C83.5815 206.857 85.3095 200.717 80.4368 198.219C75.8181 196.246 69.8174 197.511 65.4525 199.853C49.0452 209.248 52.3722 238.023 57.4577 253.354L58.725 256.932C45.2249 256.717 21.5149 257.184 11.8741 267.527C8.69458 270.987 6.51418 275.428 6.12724 280.151C5.55194 285.992 7.53784 293.268 12.0358 296.966L13.9337 298.487L12.6336 300.542C9.05286 305.886 6.67182 312.132 7.23893 318.579C7.76304 325.335 11.4114 332.02 17.1295 335.699L16.7139 337.492C13.6675 349.637 20.2087 358.531 32.2224 360.736C53.5227 365.064 81.1575 365.096 94.287 344.715C96.8932 340.602 98.5352 335.687 100.13 330.716L100.132 330.714Z" fill="#001F54"/>
<path d="M30.5733 360.959C43.6987 363.911 65.3491 365.068 74.8139 353.91C80.5771 346.914 78.8123 336.483 70.8584 331.994L67.2285 329.811L70.8155 327.533C74.7299 324.986 77.4959 319.966 77.6105 315.23C77.9176 309.066 73.9499 303.724 69.8553 299.396L72.4308 297.664C77.3874 293.111 78.6792 284.51 75.7352 278.438C72.1032 271.184 64.1821 267.929 56.6807 265.554C71.0529 265.026 85.1918 273.856 82.7882 289.829C81.8649 294.732 79.7807 299.421 75.1455 302.135L75.7331 298.151C83.8794 306.822 85.7281 319.431 77.3812 328.712C76.29 329.926 75.0595 331.029 73.5875 331.965L73.5445 327.504C80.1533 331.257 84.4322 339.167 83.3082 346.814C79.4674 370.416 47.3716 370.203 29.2651 366.022C25.8849 365.095 27.1522 360.128 30.5733 360.957V360.959Z" fill="#001F54"/>
<path d="M33.9316 300.743C43.4026 301.605 69.9666 303.413 75.2343 294.445C76.7534 291.342 81.3701 293.457 80.0005 296.64C73.1031 308.345 45.196 303.009 33.9316 300.745V300.743Z" fill="#001F54"/>
<path d="M33.9316 333.631C46.2893 334.579 64.8462 334.409 73.8217 324.856C74.7798 323.765 76.4463 323.661 77.5314 324.627C78.7066 325.655 78.7004 327.528 77.5232 328.554C74.3785 331.324 70.677 333.027 66.9795 334.035C56.1021 336.87 44.7702 335.818 33.9316 333.631Z" fill="#001F54"/>
<path d="M95.7453 461.586C93.0705 516.015 26.1898 526.512 26.1898 526.512L26.2069 525.732L26.2112 525.483L26.5799 509.684C26.7942 500.554 24.7881 491.509 20.7418 483.322L16.9698 475.693C8.48696 458.538 13.6221 446.588 16.3482 440.454C17.4755 437.921 19.0658 435.619 20.8875 433.532L28.5216 424.77H79.577C84.7635 429.957 96.5597 444.963 95.7453 461.586Z" fill="#C0603E"/>
<path d="M79.5811 424.339L62.084 424.485L43.0395 424.644L28.5215 424.768L28.5429 424.348L29.7517 399.234L43.6225 111.56C44.004 104.411 49.0405 98.5684 55.7016 96.9052C55.7444 96.8924 55.7916 96.8838 55.8387 96.8709C56.6403 96.678 57.4676 96.5452 58.3163 96.4809C58.3205 96.4809 58.3291 96.4809 58.3377 96.4766C58.7492 96.4466 59.1607 96.4294 59.5808 96.4294C59.9451 96.4294 60.3094 96.4423 60.6652 96.4637C60.9652 96.4809 61.2653 96.5109 61.5611 96.5452C65.4831 96.9909 69.0066 98.7698 71.6727 101.406C74.7761 104.484 76.7135 108.736 76.7521 113.446L79.3539 399.234L79.4311 407.635L79.5811 424.339Z" fill="#6B9FC6"/>
<path d="M79.6075 399.235L79.4318 407.636L79.0931 423.552L61.7718 423.826L43.0402 424.122L28.5436 424.349L28.3164 424.353L29.3409 399.235H79.6075Z" fill="white"/>
<g opacity="0.2706">
<path d="M60.6641 96.4646C64.9462 96.7304 68.804 98.5692 71.6716 101.407C74.7749 104.484 76.7124 108.737 76.7509 113.447L79.3528 399.235H79.6057L79.4299 407.636L79.58 424.34L62.0829 424.486C61.9757 424.267 61.8728 424.044 61.77 423.826C61.2513 423.191 61.3842 414.066 61.8814 399.235C64.3161 326.379 75.4693 115.783 60.6641 96.4646Z" fill="#4C7FB6"/>
<path d="M95.7449 461.586C93.0702 516.015 26.1895 526.512 26.1895 526.512L26.2066 525.732C38.0456 514.93 51.3678 502.315 57.866 488.157C70.8195 459.927 69.6664 441.046 62.2124 424.77H79.5766C84.7631 429.957 96.5593 444.963 95.7449 461.586Z" fill="#905044"/>
</g>
<path opacity="0.2902" d="M60.9869 97.8394C60.9741 97.8566 60.9655 97.878 60.9527 97.8951C60.4169 98.8253 60.5283 98.521 60.7469 98.058C59.5938 98.3967 55.7747 93.6259 54.043 129.447C49.7823 217.353 44.3942 326.009 43.2583 399.234C43.1212 408.081 43.044 416.41 43.0397 424.121V424.768C32.6752 432.835 25.594 445.215 26.1898 458.335C26.7857 471.452 31.3164 483.475 31.4407 496.609C31.535 506.39 31.0721 517.565 26.2113 525.482L26.5799 509.682C26.7942 500.552 24.7882 491.508 20.7418 483.321L16.9698 475.691C8.48695 458.537 13.6221 446.586 16.3482 440.452C17.4756 437.919 19.0658 435.617 20.8876 433.53L28.5217 424.768L28.5431 424.348L28.3159 424.353L29.3404 399.234H29.7519L43.6227 111.56C44.0042 104.41 49.0407 98.5681 55.7018 96.905C55.7447 96.8921 55.7918 96.8835 55.839 96.8707C56.6405 96.6778 57.4678 96.5449 58.3165 96.4806C58.3208 96.4806 58.3294 96.4806 58.3379 96.4763C58.7494 96.4463 59.1609 96.4292 59.581 96.4292C59.9453 96.4292 60.3097 96.442 60.6655 96.4635C60.9655 96.4806 61.2656 96.5106 61.5613 96.5449C61.587 97.175 61.5056 97.9423 60.9869 97.8394Z" fill="white"/>
<path fill-rule="evenodd" clip-rule="evenodd" d="M47.6236 111.704C47.6235 111.707 47.6234 111.709 47.6232 111.711L32.6674 421.91L77.8957 421.53L75.0968 113.472C75.0252 105.604 68.6247 99.2612 60.7576 99.2612C53.7699 99.2612 48.001 104.728 47.6236 111.704ZM41.9668 111.408C42.5017 101.423 50.7564 93.5967 60.7576 93.5967C71.7335 93.5967 80.6612 102.445 80.7611 113.42L83.6116 427.147L26.7207 427.625L41.9664 111.416L41.9668 111.408Z" fill="#001F54"/>
<path fill-rule="evenodd" clip-rule="evenodd" d="M79.4661 402.067H29.6367V396.402H79.4661V402.067Z" fill="#001F54"/>
<path fill-rule="evenodd" clip-rule="evenodd" d="M28.4053 421.942H81.9264L82.7559 422.771C85.5153 425.53 89.9355 430.796 93.5782 437.548C97.2158 444.29 100.187 452.72 99.7461 461.724L99.7461 461.724C98.3416 490.305 80.0156 507.259 62.5068 516.938C53.7448 521.782 45.0927 524.866 38.6442 526.741C35.4151 527.679 32.7258 528.318 30.8347 528.723C29.8889 528.926 29.1418 529.071 28.6256 529.166C28.3675 529.213 28.1671 529.248 28.0283 529.272C27.9589 529.284 27.905 529.293 27.8669 529.299C27.8479 529.302 27.8328 529.304 27.8218 529.306L27.8083 529.308L27.8039 529.309C27.8023 529.309 27.801 529.31 27.3618 526.512L27.801 529.31L24.4517 529.835L24.9204 509.617C25.1239 500.945 23.2187 492.354 19.3748 484.577C19.3748 484.577 19.3747 484.577 19.3747 484.577L15.6032 476.948C11.1264 467.9 10.1915 460.095 10.8066 453.67C11.4178 447.287 13.5506 442.411 14.932 439.303L14.9326 439.302C16.2016 436.45 17.967 433.913 19.9256 431.669L28.4053 421.942ZM30.2751 523.048C32.0051 522.664 34.3269 522.096 37.0632 521.301C43.2384 519.506 51.4737 516.565 59.7662 511.981C76.3664 502.804 92.8182 487.294 94.0884 461.446C94.4614 453.833 91.9443 446.45 88.5929 440.237C85.5929 434.677 82.012 430.218 79.5541 427.606H30.9819L24.1935 435.393C22.5089 437.324 21.0939 439.389 20.1084 441.604C20.1082 441.604 20.108 441.605 20.1078 441.605C18.7631 444.631 16.9636 448.797 16.4454 454.21C15.931 459.582 16.67 466.33 20.6803 474.436L24.4527 482.067L24.4528 482.067C28.7016 490.663 30.8084 500.161 30.5833 509.75L30.2751 523.048Z" fill="#001F54"/>
<path d="M26.0508 523.302C27.8211 521.622 29.5656 519.907 31.0873 518.051C32.609 516.195 33.9678 514.236 35.0136 512.132C36.0638 510.031 36.7796 507.781 37.1397 505.428C37.5083 503.075 37.5255 500.627 37.3669 498.158C37.2854 496.919 37.174 495.676 37.0068 494.463C36.8311 493.237 36.6125 491.998 36.3896 490.747C35.9395 488.248 35.5366 485.693 35.3951 483.121C35.2494 480.549 35.3737 477.965 35.7852 475.44C36.1924 472.915 36.8782 470.455 37.7398 468.072C37.084 470.524 36.6168 473.014 36.4239 475.517C36.231 478.021 36.3253 480.532 36.6768 482.997C37.024 485.47 37.6155 487.888 38.2756 490.335C38.6014 491.557 38.9314 492.791 39.2229 494.056C39.5101 495.338 39.7287 496.606 39.9259 497.884C40.3116 500.443 40.526 503.092 40.3374 505.775C40.1616 508.458 39.5487 511.159 38.5456 513.683C37.5469 516.217 36.1924 518.566 34.6793 520.765C33.1619 522.963 31.4474 524.965 29.6985 526.928L26.0508 523.302Z" fill="#001F54"/>
<path d="M56.2813 425.865C55.2526 427.773 54.751 430.216 54.6096 432.771C54.4767 435.338 54.6439 438.008 54.9096 440.696C55.454 446.076 56.4056 451.524 57.04 457.036C57.3615 459.792 57.6144 462.57 57.7001 465.364C57.7858 468.155 57.6872 470.967 57.2672 473.744C56.8471 476.513 56.0798 479.257 54.8025 481.747C53.5423 484.246 51.7334 486.436 49.5859 488.159C51.5963 486.273 53.1908 483.984 54.2195 481.477C55.2611 478.969 55.7884 476.29 55.9898 473.598C56.3756 468.198 55.5354 462.784 54.4981 457.434C53.4523 452.072 52.0892 446.753 51.0862 441.232C50.5975 438.471 50.186 435.655 50.1089 432.715C50.1217 431.973 50.096 431.236 50.1432 430.482C50.2075 429.723 50.2246 428.973 50.3703 428.201L50.5589 427.048L50.859 425.887L51.0133 425.304L51.2319 424.725L51.682 423.568L56.2813 425.865Z" fill="#001F54"/>
<path d="M74.178 272.511C74.178 272.511 87.0617 286.468 74.178 300.425C74.178 300.425 86.6713 314.187 74.178 329.414C90.9659 349.422 70.2078 372.214 29.3432 363.601C16.5884 360.366 9.57839 350.41 13.3844 336.81C7.13184 332.498 -2.76902 317.258 9.66437 299.088C2.68095 293.898 1.33907 276.283 15.7133 264.312C41.7824 254.621 74.178 272.511 74.178 272.511Z" fill="#5F5F82"/>
<path d="M62.6627 302.118C48.9621 304.219 15.0052 301.799 9.72717 288.772C6.90801 281.813 35.5296 297.241 69.3943 288.677C74.9201 287.279 72.322 298.713 62.6607 302.12L62.6627 302.118Z" fill="#001F54"/>
<path d="M62.6995 332.683C37.8368 338.399 11.8624 330.74 11.0005 321.491C10.503 316.147 39.3395 329.166 69.8999 318.786C73.0098 317.73 69.8753 328.777 62.6995 332.685V332.683Z" fill="#001F54"/>
<path d="M65.3971 356.28C49.3789 365.143 19.963 356.52 19.1932 348.249C18.7489 343.472 44.5267 355.109 71.8441 345.831C74.6244 344.887 71.4081 352.953 65.3971 356.28Z" fill="#001F54"/>
<path d="M74.4715 357.915L57.9765 366.956C57.9765 366.956 56.4483 367.654 45.6785 368.066C41.1621 367.677 35.3079 367.752 30.8427 366.895C15.5984 363.955 6.01268 351.279 10.8689 336.107C10.8689 336.107 11.9069 338.971 11.9008 338.963C2.36027 331.836 -1.04444 318.745 2.53633 307.677C3.63983 304.017 5.51314 300.741 7.50928 297.611L8.10709 301.188C-1.91045 292.73 -2.44071 276.147 5.39029 266.199C9.46242 260.734 18.4471 252.21 36.0157 250.746L35.7229 255.334C35.7229 255.334 20.7063 257.209 11.0655 267.552C7.88598 271.012 5.70559 275.453 5.31864 280.176C4.74334 286.017 6.72924 293.293 11.2272 296.991L13.1251 298.512L11.825 300.567C8.24427 305.911 5.86323 312.157 6.43034 318.604C6.95445 325.36 10.6028 332.045 16.3209 335.724L15.9053 337.517C12.8589 349.662 19.4001 358.556 31.4138 360.76C52.7141 365.089 66.6632 362.991 74.4715 357.915Z" fill="#001F54"/>
<path d="M30.3506 360.988C43.476 363.94 65.1265 365.097 74.5912 353.939C80.3544 346.943 78.5896 336.512 70.6358 332.022L67.0059 329.84L70.5928 327.561C74.5073 325.014 77.2732 319.994 77.3879 315.259C77.695 309.094 73.7272 303.753 69.6326 299.425L72.2081 297.693C77.1647 293.139 78.4566 284.539 75.5125 278.466C69.9813 267.523 42.931 263.957 35.4296 261.582C73.2998 261.973 84.9691 273.884 82.5655 289.857C81.6422 294.761 79.558 299.449 74.9229 302.164L75.5105 298.18C83.6568 306.85 85.5055 319.46 77.1586 328.74C76.0673 329.954 74.8369 331.058 73.3649 331.993L73.3219 327.532C79.9306 331.285 84.2095 339.196 83.0856 346.843C79.2448 370.444 47.1489 370.231 29.0424 366.051C25.6623 365.123 26.9296 360.156 30.3506 360.986V360.988Z" fill="#001F54"/>
<path d="M33.709 300.766C43.1799 301.628 69.7439 303.436 75.0117 294.469C76.5308 291.365 81.1475 293.48 79.7778 296.664C72.8804 308.368 44.9734 303.033 33.709 300.769V300.766Z" fill="#001F54"/>
<path d="M33.709 333.655C46.0666 334.603 64.6235 334.433 73.599 324.88C74.5571 323.789 76.2237 323.684 77.3087 324.651C78.4839 325.679 78.4778 327.552 77.3006 328.578C74.1559 331.348 70.4543 333.051 66.7569 334.058C55.8794 336.894 44.5475 335.841 33.709 333.655Z" fill="#001F54"/>
</svg>
