<svg width="117" height="164" viewBox="0 0 117 164" fill="none" xmlns="http://www.w3.org/2000/svg">
<g id="Group 48270">
<g id="Group">
<path id="Vector" d="M36.3037 136.845C38.6304 140.139 55.2867 151.159 70.7358 141.6C74.2339 145.415 78.1137 144.62 79.9697 143.19C83.3921 140.553 81.5146 134.516 81.1453 133.425C79.7599 129.332 78.1577 125.873 73.862 126.361C69.9694 126.601 63.7891 129.253 60.669 124.507" fill="white"/>
<path id="Vector_2" d="M81.9796 138.687C81.9075 140.376 81.4051 142.084 79.9686 143.191C78.1116 144.62 74.2324 145.414 70.7347 141.6C55.2862 151.159 38.6288 140.14 36.3037 136.846L55.7962 126.974L60.6685 124.507C63.7881 129.253 69.9684 126.602 73.8604 126.362C78.1561 125.874 79.7589 129.331 81.1437 133.425C81.3581 134.058 82.0799 136.355 81.9801 138.687L81.9796 138.687Z" fill="white"/>
<path id="Vector_3" d="M81.9796 138.684C81.9075 140.373 81.4051 142.082 79.9686 143.188C78.1116 144.617 74.2324 145.411 70.7347 141.598C55.2862 151.156 38.6288 140.137 36.3037 136.844L55.7962 126.971L59.1419 130.745C59.1419 130.745 57.4051 136.776 62.9414 137.44C68.8199 138.147 74.7066 133.499 74.7066 133.499C74.7066 133.499 75.9589 138.975 79.0724 139.543C80.4751 139.8 81.3954 139.301 81.9796 138.685V138.684Z" fill="#EFEFEF"/>
<path id="Vector_4" d="M81.9824 138.686C81.9102 140.375 81.4079 142.084 79.9714 143.19C78.1144 144.619 74.2351 145.413 70.7375 141.6C70.6935 141.628 70.6495 141.654 70.6055 141.68C72.4604 139.707 74.231 137.075 74.4131 133.722C74.605 133.582 74.7093 133.5 74.7093 133.5C74.7093 133.5 75.9617 138.976 79.0751 139.545C80.4778 139.801 81.3982 139.303 81.9824 138.686Z" fill="#595959"/>
<path id="Vector_5" d="M79.9714 143.19C78.1144 144.619 74.2351 145.413 70.7375 141.6C70.6935 141.628 70.6495 141.654 70.6055 141.68C73.6289 138.464 76.4241 133.5 72.5044 126.515C72.9807 126.443 73.435 126.387 73.8632 126.361C78.1589 125.873 79.7616 129.33 81.1465 133.424C81.5168 134.515 83.3933 140.554 79.9719 143.191L79.9714 143.19Z" fill="#5F5F82"/>
<g id="Group_2" opacity="0.2">
<path id="Vector_6" d="M81.9804 138.688C81.9083 140.377 81.4059 142.086 79.9694 143.192C78.1124 144.621 74.2331 145.415 70.7355 141.602C70.6915 141.63 70.6475 141.656 70.6035 141.682C72.4585 139.709 74.229 137.077 74.4112 133.724C74.603 133.584 74.7074 133.502 74.7074 133.502C74.7074 133.502 75.9597 138.978 79.0731 139.547C80.4759 139.803 81.3962 139.305 81.9804 138.688Z" fill="#001F54"/>
</g>
<path id="Vector_7" d="M57.3645 146.156C53.9748 146.156 50.8946 145.53 48.3787 144.753C41.9221 142.759 36.9946 139.112 35.6973 137.275L36.9077 136.42C37.9282 137.865 42.4685 141.377 48.8161 143.337C54.2045 145.001 62.3135 145.941 70.3447 140.972C70.647 140.785 71.0399 140.839 71.2809 141.102C74.6168 144.74 78.1262 143.677 79.5162 142.606C82.4997 140.307 80.811 134.755 80.4426 133.665C78.8987 129.104 77.4049 126.708 73.9446 127.1C73.9318 127.101 73.9196 127.102 73.9068 127.103C73.0683 127.155 72.0927 127.329 71.0599 127.513C67.3489 128.174 62.7309 128.997 60.0487 124.917L61.2872 124.103C63.4333 127.367 67.3469 126.67 70.8 126.054C71.8687 125.864 72.8785 125.684 73.7968 125.625C78.6741 125.08 80.4498 129.064 81.8464 133.19C82.4439 134.956 84.107 140.94 80.4212 143.78C78.0648 145.596 74.0531 145.928 70.6127 142.543C66.0444 145.235 61.4776 146.157 57.3655 146.157L57.3645 146.156Z" fill="#001F54"/>
<path id="Vector_8" d="M73.5327 140.553C75.248 142.488 78.4162 143.161 80.5469 141.561L81.2862 142.846C78.5272 144.206 75.1309 143.11 73.5322 140.553H73.5327Z" fill="#001F54"/>
<path id="Vector_9" d="M69.1914 141.651C70.9666 140.662 72.3857 139.124 73.5347 137.444C73.1715 138.431 72.7008 139.385 72.1381 140.302C71.562 141.24 70.8791 142.105 70.0509 142.858L69.1914 141.651V141.651Z" fill="#001F54"/>
<g id="Group_3">
<g id="Group_4">
<path id="Vector_10" d="M104.592 111.116C101.143 112.379 99.9038 114.598 99.668 116.11C99.4813 117.307 99.5841 118.533 100.65 119.732C101.774 120.997 104.367 122.297 107.46 121.969C108.722 121.834 110.324 121.553 112.091 122.386C112.393 122.064 112.32 121.541 112.049 120.944C113.056 120.679 114.259 120.496 116.132 120.608C116.151 120.609 116.365 115.496 109.531 111.554C109.989 110.527 109.566 109.72 108.689 109.324C107.641 111.024 106.905 110.269 104.591 111.116H104.592Z" fill="#C4612B"/>
<path id="Vector_11" d="M100.652 119.732C101.775 120.997 104.367 122.299 107.461 121.969C108.719 121.836 110.314 121.554 112.075 122.377C112.082 122.379 112.089 122.382 112.093 122.385C112.139 122.336 112.177 122.283 112.205 122.226C112.282 122.07 112.302 121.886 112.278 121.681C112.25 121.457 112.168 121.208 112.049 120.945C113.057 120.68 114.261 120.496 116.132 120.609C116.135 120.604 116.142 120.496 116.131 120.304C116.13 120.273 116.126 120.238 116.123 120.2C116.113 120.071 116.095 119.916 116.068 119.736C116.062 119.7 116.057 119.662 116.049 119.622C116.034 119.54 116.018 119.454 115.999 119.361C115.991 119.32 115.98 119.277 115.97 119.235C115.905 118.946 115.813 118.622 115.687 118.268C115.03 116.424 113.422 113.801 109.531 111.555C109.989 110.527 109.567 109.721 108.689 109.324C107.642 111.026 106.906 110.27 104.591 111.117C101.737 112.164 100.396 113.863 99.8863 115.274C99.8863 115.274 99.8853 115.275 99.8832 115.277C99.7768 115.57 99.7067 115.851 99.6673 116.112C99.4821 117.308 99.5834 118.533 100.651 119.733L100.652 119.732Z" fill="#C4612B"/>
<path id="Vector_12" d="M100.652 119.732C101.775 120.997 104.367 122.299 107.461 121.969C108.719 121.836 110.314 121.554 112.075 122.377C112.082 122.379 112.089 122.382 112.094 122.385C112.139 122.336 112.177 122.283 112.205 122.226C112.282 122.07 112.302 121.886 112.278 121.681C112.25 121.457 112.168 121.208 112.049 120.945C113.058 120.68 114.261 120.496 116.133 120.609C116.135 120.604 116.142 120.496 116.131 120.304C116.131 120.273 116.126 120.238 116.123 120.2C116.114 120.071 116.095 119.916 116.068 119.736C116.062 119.7 116.057 119.662 116.05 119.622C116.034 119.54 116.019 119.454 115.999 119.361C115.991 119.32 115.981 119.277 115.97 119.235C115.905 118.946 115.813 118.622 115.688 118.268C115.03 116.424 113.422 113.801 109.531 111.555C109.545 111.524 109.557 111.496 109.569 111.466C109.723 111.085 109.753 110.736 109.683 110.429C109.677 110.407 109.672 110.387 109.667 110.365C109.547 109.935 109.229 109.594 108.777 109.366C108.749 109.352 108.72 109.338 108.689 109.324C107.642 111.026 106.906 110.27 104.591 111.117C101.737 112.164 100.396 113.863 99.8865 115.274C99.8865 115.274 99.8855 115.275 99.8835 115.277C99.7771 115.57 99.707 115.851 99.6676 116.112C99.6231 116.398 99.5949 116.686 99.5929 116.976C99.5862 117.893 99.8405 118.821 100.651 119.733L100.652 119.732Z" fill="#5F5F82"/>
<g id="Group_5" opacity="0.4">
<path id="Vector_13" d="M109.569 111.458C109.57 111.493 109.57 111.531 109.566 111.569C109.554 111.562 109.542 111.554 109.53 111.548C109.545 111.518 109.557 111.487 109.569 111.458H109.569Z" fill="white"/>
</g>
<g id="Group_6" opacity="0.4">
<path id="Vector_14" d="M99.5923 116.976C99.9325 116.526 100.247 116.183 100.543 115.662C101.256 114.404 102.731 112.907 104.428 112.285C106.577 111.497 107.437 112.173 108.879 110.82C109.399 111.053 109.565 111.045 109.568 111.466C109.722 111.085 109.752 110.736 109.682 110.429C109.676 110.407 109.671 110.387 109.666 110.365C109.546 109.935 109.228 109.594 108.776 109.366C108.748 109.354 108.719 109.34 108.689 109.326V109.324C107.641 111.026 106.905 110.27 104.59 111.116C101.736 112.164 100.395 113.863 99.8854 115.274C99.8854 115.274 99.8844 115.275 99.8824 115.277C99.776 115.57 99.7059 115.851 99.6665 116.112C99.622 116.397 99.5938 116.686 99.5918 116.976L99.5923 116.976Z" fill="white"/>
</g>
<g id="Group_7" opacity="0.4">
<path id="Vector_15" d="M115.69 118.262C116.183 119.645 116.144 120.588 116.136 120.604C116.023 120.597 115.913 120.593 115.805 120.588C115.74 120.217 115.628 119.755 115.442 119.232C114.784 117.387 113.178 114.764 109.285 112.52C109.45 112.15 109.551 111.837 109.57 111.571C113.436 113.811 115.034 116.426 115.69 118.263V118.262Z" fill="white"/>
</g>
<g id="Group_8" opacity="0.2">
<path id="Vector_16" d="M100.65 119.732C101.773 120.997 104.365 122.298 107.459 121.968C108.717 121.836 110.312 121.553 112.073 122.377C112.08 122.379 112.087 122.382 112.091 122.385C112.137 122.336 112.175 122.283 112.203 122.226C112.28 122.07 112.301 121.885 112.276 121.681C112.248 121.457 112.166 121.208 112.047 120.945C113.055 120.68 114.259 120.496 116.13 120.609C116.133 120.604 116.14 120.495 116.129 120.304C116.128 120.272 116.124 120.238 116.121 120.199C116.111 120.071 116.093 119.916 116.066 119.736C116.06 119.7 116.055 119.662 116.047 119.622C116.032 119.54 116.016 119.453 115.997 119.36C115.989 119.319 115.978 119.277 115.968 119.234C115.903 118.946 115.811 118.622 115.685 118.268C115.627 119.177 115.175 119.529 114.291 119.355C112.524 119.008 111.094 118.246 109.322 118.438C109.88 119.626 107.383 119.996 106.695 119.755C103.998 118.814 104.217 116.516 102.934 115.261C101.594 113.949 99.8838 115.276 99.8822 115.277C99.7758 115.57 99.7058 115.851 99.6664 116.111C99.4812 117.308 99.5825 118.533 100.65 119.733V119.732Z" fill="#001F54"/>
</g>
<path id="Vector_17" d="M112.092 123.125C111.985 123.125 111.877 123.102 111.776 123.054C110.353 122.383 109.041 122.533 107.883 122.665L107.54 122.704C104.234 123.055 101.42 121.711 100.098 120.223C98.7098 118.661 98.7707 117.061 98.9369 115.994C99.0766 115.099 99.8793 112.051 104.339 110.418C105.243 110.087 105.916 109.983 106.458 109.9C107.312 109.768 107.57 109.729 108.059 108.934C108.255 108.617 108.656 108.495 108.995 108.647C110.098 109.144 110.62 110.13 110.413 111.215C113.744 113.267 115.32 115.59 116.06 117.212C116.916 119.088 116.919 120.567 116.844 120.818C116.745 121.147 116.428 121.367 116.091 121.346C114.703 121.263 113.739 121.35 112.997 121.488C113.111 122.18 112.885 122.622 112.633 122.891C112.49 123.044 112.293 123.125 112.092 123.125H112.092ZM109.405 121.071C110.029 121.071 110.706 121.136 111.415 121.339C111.403 121.31 111.39 121.28 111.375 121.248C111.285 121.05 111.287 120.821 111.38 120.624C111.474 120.427 111.65 120.281 111.861 120.226C112.628 120.024 113.694 119.809 115.339 119.834C115.119 118.397 114.073 115.027 109.161 112.194C108.832 112.005 108.7 111.597 108.855 111.25C109.018 110.885 109.019 110.587 108.854 110.352C108.163 111.137 107.466 111.244 106.683 111.365C106.181 111.442 105.613 111.529 104.848 111.81C101.149 113.164 100.509 115.529 100.401 116.222C100.205 117.481 100.445 118.383 101.205 119.238C102.24 120.404 104.616 121.525 107.383 121.23L107.715 121.193C108.211 121.136 108.781 121.071 109.405 121.071Z" fill="#001F54"/>
<path id="Vector_18" d="M111.433 121.352C110.984 120.305 110.422 119.181 109.458 118.505C110.729 118.782 111.762 119.67 112.688 120.553C113.483 121.481 111.938 122.466 111.433 121.352H111.433Z" fill="#001F54"/>
</g>
<g id="Group_9">
<path id="Vector_19" d="M74.9756 120.503C80.8781 127.381 89.3058 126.831 92.144 125.852C96.4407 124.37 99.7363 120.349 102.149 118.042C103.629 116.844 102.82 114.852 100.649 115.126C98.373 115.476 97.5012 117.405 95.0093 119.353C91.1326 122.383 83.0293 122.754 77.9018 114.375" fill="white"/>
<path id="Vector_20" d="M87.976 127.158C84.063 127.158 78.6557 125.928 74.4111 120.982L75.5356 120.017C81.3598 126.804 89.5062 125.974 91.9003 125.148C95.2297 124 97.9712 121.207 100.174 118.963C100.69 118.437 101.176 117.942 101.636 117.503C101.65 117.489 101.665 117.476 101.681 117.462C102.09 117.131 102.253 116.711 102.105 116.366C101.935 115.967 101.412 115.773 100.74 115.858C99.5223 116.045 98.7518 116.822 97.6857 117.898C97.0703 118.518 96.3735 119.222 95.4634 119.933C93.1828 121.714 89.9466 122.438 86.8076 121.871C84.1464 121.389 80.3306 119.764 77.2678 114.759L78.5319 113.985C81.3087 118.522 84.7086 119.985 87.0716 120.413C89.7619 120.9 92.6278 120.268 94.5508 118.765C95.3867 118.112 96.0492 117.444 96.6334 116.855C97.8034 115.674 98.8143 114.655 100.534 114.391C101.891 114.218 103.035 114.767 103.469 115.785C103.876 116.741 103.551 117.84 102.639 118.594C102.202 119.012 101.731 119.493 101.231 120.001C98.9196 122.356 96.0426 125.287 92.3833 126.549C91.5049 126.852 89.9256 127.157 87.9755 127.157L87.976 127.158Z" fill="#001F54"/>
</g>
</g>
<path id="Vector_21" d="M45.7154 93.871C37.2565 95.4696 24.0078 103.358 11.3166 101.732C6.51856 101.247 -0.300217 98.0919 0.873847 88.0953C1.91081 80.9158 5.69595 77.4453 5.69595 77.4453L20.106 79.9587C29.4305 79.817 32.7941 78.0479 42.2853 77.9354" fill="#C97043"/>
<path id="Vector_22" d="M45.7176 93.8699C42.0977 94.5534 37.6 96.3894 32.6423 98.1406C26.8999 100.168 20.541 102.08 14.2184 101.943C13.2505 101.925 12.2826 101.856 11.3188 101.732C6.52179 101.248 -0.296474 98.092 0.876566 88.0948C1.91353 80.9163 5.69816 77.4453 5.69816 77.4453L20.1077 79.9587C29.4332 79.8165 32.7968 78.0469 42.2875 77.9354L45.7181 93.8699H45.7176Z" fill="#C97043"/>
<path id="Vector_23" d="M45.7167 93.8704C42.0963 94.5534 37.5975 96.3894 32.6409 98.14C26.8974 100.167 20.5391 102.079 14.216 101.944C13.2481 101.926 12.2802 101.856 11.3164 101.732C6.51886 101.248 -0.299404 98.0919 0.873636 88.0953C1.91111 80.9163 5.69676 77.4453 5.69676 77.4453L20.1047 79.9587C23.3727 79.9091 25.9096 79.6599 28.2337 79.3514C32.5411 78.78 36.1196 78.007 42.2851 77.9354L43.3783 83.0133L45.7162 93.8704H45.7167Z" fill="white"/>
<path id="Vector_24" d="M2.9876 81.5293C2.37064 84.3721 4.76328 87.7981 6.7267 87.6447C8.34584 87.5178 7.55187 83.6181 7.55187 83.6181L5.53831 82.2174" fill="#5F5F82"/>
<path id="Vector_25" d="M43.379 83.0198C41.965 82.9543 40.4932 82.8126 38.9283 82.5819C36.1622 82.1716 31.2834 80.9029 28.2344 79.3579C32.5418 78.7865 36.1203 78.0135 42.2858 77.9419L43.379 83.0198Z" fill="#EFEFEF"/>
<path id="Vector_26" d="M69.3438 80.2251C61.4021 81.0058 55.9794 82.1967 50.7757 82.7543L49.1826 81.4422C55.7083 81.3286 62.8657 80.0819 69.3438 80.2256V80.2251Z" fill="#B25B36"/>
<path id="Vector_27" d="M59.3242 81.53C51.8204 82.6908 46.4857 83.7047 38.9282 82.5833C37.5542 82.3802 35.6603 81.9638 33.7266 81.4062C34.8914 79.6817 36.7576 77.5627 39.3263 76.5851C44.0338 74.7931 58.1113 79.4725 58.1113 79.4725C58.5134 80.1175 58.918 80.8046 59.3242 81.5295V81.53Z" fill="#B25B36"/>
<path id="Vector_28" d="M31.0381 86.7549L32.6408 98.1456C26.8984 100.173 20.5395 102.085 14.217 101.948C9.56627 101.013 5.58673 98.979 4.75695 95.2967C3.49592 89.7026 6.11314 88.3219 5.05776 86.6459C9.25472 86.7191 15.7804 86.0991 18.8227 86.2638C19.0422 88.8355 19.9707 91.1437 21.8865 91.3008C26.284 91.6609 31.0376 86.7554 31.0376 86.7554L31.0381 86.7549Z" fill="#EFEFEF"/>
<path id="Vector_29" d="M14.8106 102.694C13.612 102.694 12.4144 102.624 11.2239 102.471C9.53319 102.301 5.25438 101.525 2.47602 98.0662C0.439955 95.5308 -0.346335 92.1483 0.139149 88.0132C1.20425 80.6373 5.03338 77.0522 5.19606 76.9034C5.3659 76.7484 5.59765 76.6803 5.82427 76.7197L20.1652 79.2213C24.6922 79.1481 27.8598 78.678 30.9237 78.2227C34.123 77.748 37.4309 77.2563 42.277 77.199L42.2944 78.6811C37.5491 78.7374 34.2914 79.2208 31.1411 79.6889C28.0138 80.1534 24.7796 80.6332 20.1177 80.7044C20.0691 80.7059 20.0246 80.7013 19.979 80.6936L5.9537 78.2473C5.12802 79.1446 2.43919 82.4478 1.60737 88.2061C1.17253 91.9124 1.85241 94.9241 3.63064 97.1387C6.05806 100.161 9.86674 100.846 11.3912 101C19.7611 102.071 28.2752 98.9645 35.7857 96.223C39.3646 94.9169 42.7451 93.683 45.5782 93.1474L45.8534 94.6038C43.1395 95.1164 39.8143 96.3304 36.2942 97.615C30.0008 99.9119 22.3793 102.694 14.8096 102.694H14.8106Z" fill="#001F54"/>
<path id="Vector_30" d="M20.0887 87.8977C21.1195 89.7966 20.9538 92.1642 19.9803 94.0422C19.7235 94.5195 19.3966 95.0137 19.0763 95.4455C19.2047 95.1554 19.3428 94.874 19.459 94.585C19.9982 93.1986 20.1644 91.5923 19.6713 90.1773C19.4953 89.6636 19.2569 89.1577 18.9106 88.7449C18.4982 88.5827 18.2962 88.1166 18.4583 87.7048C18.6747 87.1001 19.5623 87.0249 19.8831 87.5713L20.0887 87.8977Z" fill="#001F54"/>
<path id="Vector_31" d="M65.627 128.433C61.937 134.336 54.3677 137.918 48.0288 139.125C46.9295 139.334 45.8679 139.471 44.8683 139.537C39.3244 139.778 30.3289 133.495 25.5216 129.128C23.7654 127.533 22.5683 126.193 22.3033 125.522C17.759 113.985 22.7095 103.558 27.4354 94.2846C29.2714 90.6801 31.0737 87.251 32.2723 83.9969C32.2723 83.9969 34.6164 78.3711 39.3259 76.579C44.0334 74.787 58.1109 79.4663 58.1109 79.4663C62.2931 86.1813 66.7714 97.3413 68.2851 107.977C69.3866 115.712 68.9185 123.168 65.6265 128.433H65.627Z" fill="white"/>
<path id="Vector_32" d="M59.3242 81.53C51.8204 82.6908 46.4857 83.7047 38.9282 82.5833C37.5542 82.3802 35.6603 81.9638 33.7266 81.4062C34.8914 79.6817 36.7576 77.5627 39.3263 76.5851C44.0338 74.7931 58.1113 79.4725 58.1113 79.4725C58.5134 80.1175 58.918 80.8046 59.3242 81.5295V81.53Z" fill="#EFEFEF"/>
<path id="Vector_33" d="M65.6298 128.432C61.9398 134.335 54.3705 137.917 48.0316 139.124C47.9359 136.155 47.9282 132.839 48.3559 132.713C49.5152 132.377 55.1824 130.768 54.5634 127.458C54.0717 124.835 39.9922 118.272 48.0889 98.003C50.8529 90.9494 66.5158 107.5 68.2884 107.976C69.3898 115.71 68.9217 123.166 65.6298 128.431V128.432Z" fill="#EFEFEF"/>
<path id="Vector_34" d="M48.3532 107.016C48.3532 112.898 47.1704 115.993 42.0802 116.507C40.5327 122.672 39.9992 128.432 35.4768 129.186C31.771 129.804 28.4192 129.734 25.5216 129.128C23.7654 127.533 22.5683 126.193 22.3033 125.522C17.759 113.985 22.7095 103.558 27.4354 94.2845C27.4553 94.2763 27.4773 94.2707 27.4993 94.2625C30.0132 89.7724 32.9701 85.0925 39.7904 86.3725C46.2117 87.5777 48.3557 96.8909 48.3537 107.016H48.3532Z" fill="#FFD8BE"/>
<path id="Vector_35" d="M40.5844 122.738C39.6467 126.145 38.3877 128.705 35.4763 129.19C31.7705 129.808 28.4187 129.737 25.5211 129.132C23.7649 127.537 22.5678 126.197 22.3028 125.526C21.1159 122.51 20.5742 119.569 20.5107 116.706C24.5353 118.99 29.1175 117.803 36.0038 117.074C39.0446 116.751 40.2197 119.593 40.5839 122.738L40.5844 122.738Z" fill="#FFB6B8"/>
<path id="Vector_36" d="M32.2726 84.001C30.4443 89.8564 27.3063 95.2387 24.9643 100.872C21.6365 108.56 19.7856 116.754 22.9226 124.824L23.0208 125.085L23.0699 125.215C23.2899 125.667 23.6562 126.073 24.0061 126.473C26.0232 128.658 28.4174 130.597 30.8208 132.374C34.456 134.965 38.3307 137.51 42.6837 138.553C46.3496 139.348 52.156 137.48 55.5278 135.908C59.5411 134.004 63.2628 131.217 65.4329 127.302C70.1783 118.324 67.7012 105.776 64.8558 96.467C63.0167 90.6975 60.6461 85.0251 57.483 79.8623L58.741 79.0791C61.988 84.38 64.3857 90.1199 66.2693 96.0219C69.2416 105.764 71.7227 118.584 66.7303 128.019C64.4128 132.212 60.4072 135.245 56.1729 137.268C52.4865 138.999 46.3998 140.942 42.3624 140.083C37.7245 139.009 33.6616 136.397 29.8534 133.699C27.3329 131.835 24.9264 129.897 22.7773 127.577C22.211 126.946 21.6344 126.257 21.3735 125.405C18.1348 117.115 20.0501 108.114 23.7836 100.347C26.3711 94.7445 29.7536 89.6237 32.2726 84.0015V84.001Z" fill="#001F54"/>
<path id="Vector_37" d="M42.0821 116.507C38.5722 116.756 29.4723 117.266 23.6516 121.94C17.9859 126.489 13.3306 135.028 13.3306 135.028C8.9924 135.9 7.34974 138.309 6.69134 139.546C6.08717 140.681 5.04049 144.479 8.32173 146.479C20.179 154.617 24.3243 152.528 26.6064 150.485C29.0257 148.731 31.7426 144.271 34.4146 142.147C38.1061 139.212 43.4485 140.599 50.6069 138.536" fill="white"/>
<path id="Vector_38" d="M50.6062 138.537C43.4493 140.599 38.1069 139.213 34.4154 142.146C31.7424 144.272 29.0249 148.731 26.6062 150.486C24.3251 152.529 20.1793 154.618 8.32202 146.478C5.04078 144.48 6.08695 140.682 6.69112 139.546C6.74534 139.445 6.8052 139.335 6.87324 139.221C7.63549 137.926 9.34619 135.828 13.3298 135.027C13.3298 135.027 17.9857 126.49 23.6503 121.942C29.471 117.268 38.5709 116.757 42.0803 116.507L48.3532 132.717L50.6062 138.537V138.537Z" fill="white"/>
<path id="Vector_39" d="M50.6067 138.537C43.4498 140.599 38.1074 139.213 34.4159 142.146C32.5471 143.633 30.6563 146.26 28.8612 148.305C28.0887 149.186 27.3347 149.96 26.6062 150.486C24.3251 152.529 20.1793 154.618 8.32202 146.478C5.04078 144.48 6.08695 140.682 6.69112 139.546C6.74534 139.445 6.8052 139.335 6.87323 139.221C7.55772 138.059 9.00599 136.25 12.1757 135.313C12.5379 135.205 12.9221 135.109 13.3303 135.027C13.3303 135.027 17.9862 126.49 23.6508 121.942C29.4715 117.268 38.5714 116.757 42.0808 116.507L48.3537 132.717L50.6067 138.537V138.537Z" fill="white"/>
<path id="Vector_40" d="M50.6083 138.537C43.4499 140.6 38.1075 139.215 34.417 142.147C32.5477 143.633 30.6564 146.26 28.8628 148.305C28.0904 149.187 27.3342 149.961 26.6063 150.488C24.3257 152.529 20.1799 154.619 8.32312 146.478C5.04034 144.48 6.08702 140.682 6.69119 139.546C6.74695 139.446 6.80629 139.335 6.87485 139.222C7.55831 138.058 9.00709 136.25 12.1768 135.315C12.538 135.205 12.9232 135.109 13.3309 135.028C13.3309 135.028 15.6836 130.713 19.0795 126.584C20.4597 124.903 22.0139 123.255 23.6514 121.941C26.4543 119.69 30.0185 118.405 33.3514 117.649C36.9396 116.837 40.2612 116.637 42.0809 116.507L48.3538 132.717L50.6083 138.536V138.537Z" fill="white"/>
<path id="Vector_41" d="M33.3674 120.05C32.6599 121.451 33.9731 122.905 31.4224 124.511C29.7552 125.561 28.2266 124.867 26.4668 125.3C25.2942 125.589 24.1509 128.248 21.5577 128.155C20.3033 128.11 19.5293 127.316 19.0791 126.588C20.4593 124.907 22.0135 123.259 23.651 121.945C26.454 119.694 30.0181 118.408 33.351 117.652C33.7976 118.189 33.9199 118.956 33.3679 120.05L33.3674 120.05Z" fill="#5F5F82"/>
<path id="Vector_42" d="M50.6062 138.536C43.4493 140.598 38.1069 139.212 34.4154 142.145C31.7424 144.271 29.0249 148.73 26.6062 150.485C24.3251 152.528 20.1793 154.617 8.32202 146.477C5.04078 144.479 6.08695 140.681 6.69112 139.545C6.74534 139.444 6.8052 139.334 6.87324 139.22C6.83948 140.065 7.21753 141.391 8.22789 142.196C12.4095 145.681 19.281 149.267 23.3966 147.574C30.0235 144.847 29.0868 138.728 34.4154 136.355C38.7612 134.418 45.0341 133.866 48.3532 132.715L50.6062 138.536Z" fill="#EFEFEF"/>
<path id="Vector_43" d="M28.8612 148.305C28.0887 149.186 27.3347 149.96 26.6062 150.486C24.3251 152.529 20.1793 154.618 8.32202 146.479C5.04078 144.48 6.08695 140.682 6.69112 139.546C6.74534 139.446 6.8052 139.336 6.87323 139.221C6.83947 140.066 7.21752 141.393 8.22788 142.197C12.4095 145.682 19.281 149.268 23.3966 147.575C24.2131 147.239 24.9154 146.853 25.5273 146.424C26.6937 147.543 27.7102 148.103 28.8607 148.305H28.8612Z" fill="#595959"/>
<path id="Vector_44" d="M28.8612 148.3C28.0887 149.18 27.3347 149.955 26.6062 150.48C24.3251 152.523 20.1793 154.612 8.32202 146.473C5.04078 144.474 6.08695 140.676 6.69112 139.54C6.74534 139.44 6.8052 139.33 6.87323 139.216C7.55772 138.053 9.00599 136.244 12.1757 135.308C15.193 135.926 18.5985 137.532 21.8982 142.031C25.0075 146.271 26.6962 147.919 28.8612 148.3Z" fill="#5F5F82"/>
<g id="Group_10" opacity="0.2">
<path id="Vector_45" d="M28.8583 148.304C28.0858 149.184 27.3318 149.958 26.6033 150.484C24.3222 152.527 20.1764 154.616 8.31909 146.477C5.03785 144.478 6.08402 140.68 6.68819 139.544C6.74241 139.444 6.80227 139.334 6.8703 139.219C6.83654 140.064 7.21459 141.391 8.22495 142.195C12.4066 145.68 19.278 149.266 23.3937 147.573C24.2101 147.237 24.9125 146.851 25.5244 146.422C26.6908 147.541 27.7073 148.101 28.8578 148.304H28.8583Z" fill="#001F54"/>
</g>
<path id="Vector_46" d="M42.0818 116.51C34.8501 117.495 27.0057 118.96 21.9134 124.648C18.7739 127.959 16.1552 131.792 13.7983 135.687C11.3024 136.137 8.80026 137.338 7.50904 139.606C6.68899 141.003 6.51301 142.955 7.23433 144.33C7.55867 144.961 8.1081 145.482 8.73631 145.867C12.5097 148.377 17.8434 151.838 22.4777 151.57C23.8784 151.461 25.1036 150.872 26.1375 149.913C27.9152 148.557 29.3139 146.561 30.7985 144.833C33.7308 141.306 35.4083 139.954 40.0774 139.4C43.5551 139.013 47.065 138.824 50.402 137.826L50.8123 139.251C47.3643 140.281 43.7817 140.483 40.2621 140.871C35.9398 141.38 34.6368 142.561 31.9342 145.785C29.8122 148.291 27.9337 150.979 25.0361 152.424C19.7311 154.774 12.5102 150.142 8.16488 147.269C7.26656 146.715 6.42297 146.004 5.92368 145.022C4.93173 143.087 5.17575 140.692 6.23164 138.855C7.67172 136.332 10.4056 134.842 13.1844 134.304L12.68 134.675C13.3973 133.297 14.1825 131.999 15.0154 130.71C17.5773 126.866 20.4585 123.123 24.3363 120.497C29.6418 117.154 35.9935 116.461 42.0818 116.51V116.51Z" fill="#001F54"/>
<g id="Group 48170">
<g id="Group 48097">
<path id="Vector_47" d="M39.6466 109.944L43.073 110.523C43.8358 110.652 44.5166 111.079 44.9661 111.708L51.0783 120.275C52.4078 122.138 54.4214 123.398 56.678 123.78L80.3831 127.791C85.1507 128.597 89.6692 125.386 90.4758 120.619L93.2912 103.978C94.0978 99.2102 90.887 94.6917 86.1194 93.8851L62.4143 89.8746C60.1578 89.4928 57.8415 90.0208 55.9731 91.343L47.3831 97.4221C46.7515 97.8692 45.9684 98.0473 45.2056 97.9182L41.7792 97.3385" fill="white"/>
<g id="Group_11">
<path id="Vector_48" d="M32.9812 110.703L35.7735 94.4564C35.9455 93.4556 36.8878 92.778 37.8782 92.943L40.599 93.3961C41.5894 93.561 42.2528 94.5061 42.0808 95.5069L39.2884 111.753C39.1164 112.754 38.1741 113.432 37.1838 113.267L34.463 112.814C33.4726 112.649 32.8092 111.704 32.9812 110.703Z" fill="#CCEEFF"/>
<path id="Vector_49" d="M39.6906 110.064L43.1078 110.632C43.8686 110.758 44.5463 111.184 44.9921 111.814L51.0551 120.394C52.374 122.26 54.3782 123.517 56.6288 123.891L80.2705 127.819C85.0254 128.609 89.5492 125.364 90.375 120.571L93.2575 103.842C94.0833 99.0496 90.8984 94.5242 86.1435 93.7343L62.5017 89.8067C60.2512 89.4328 57.9371 89.9731 56.0666 91.3093L47.4667 97.4528C46.8343 97.9047 46.0519 98.0869 45.2912 97.9605L41.8739 97.3928" fill="#CCEEFF"/>
</g>
<path id="Vector_50" d="M67.8694 116.515C68.1774 114.832 68.1249 113.123 67.7599 111.472C67.5079 110.32 67.1025 109.196 66.5641 108.129C65.9662 106.944 65.5477 105.744 65.2932 104.548C64.2491 99.6703 65.9112 94.8248 69.171 91.0193L86.1245 93.8876C90.8921 94.6942 94.1034 99.2128 93.2968 103.98L90.4814 120.621C89.6748 125.389 85.1563 128.6 80.3882 127.793L62.645 124.791C65.4214 123.779 67.1989 120.178 67.8695 116.515L67.8694 116.515Z" fill="white"/>
<path id="Vector_51" d="M68.7694 116.497C69.0592 114.784 69.01 113.028 68.6226 111.277C68.3577 110.066 67.9304 108.871 67.3523 107.726C66.8032 106.638 66.4008 105.505 66.1571 104.36C65.222 99.9904 66.5304 95.4559 69.8417 91.591C70.1599 91.2192 70.1168 90.6598 69.7451 90.3412C69.3733 90.023 68.8139 90.0661 68.4953 90.4378C64.8695 94.6702 63.3857 99.8797 64.4232 104.73C64.6986 106.023 65.1515 107.301 65.7695 108.525C66.2802 109.537 66.6579 110.591 66.8907 111.657C67.2404 113.238 67.2748 114.827 66.9946 116.352C66.4339 119.412 64.9161 123.016 62.3367 123.956C61.8764 124.123 61.6396 124.633 61.8073 125.091C61.9749 125.551 62.4834 125.788 62.9428 125.621C65.7306 124.605 67.8964 121.26 68.7369 116.671C68.7472 116.613 68.7576 116.554 68.7674 116.496L68.7694 116.497Z" fill="#001F54"/>
<g id="Group_12" opacity="0.32">
<path id="Vector_52" d="M39.6886 110.067L43.1059 110.634C43.8666 110.761 44.5443 111.186 44.9902 111.816L51.0532 120.396C52.372 122.262 54.3762 123.52 56.6268 123.894L80.2685 127.821C85.0234 128.611 89.5472 125.366 90.373 120.574L93.2555 103.845C94.0813 99.0518 90.8964 94.5264 86.1415 93.7365L62.4998 89.8089C60.2492 89.435 57.9352 89.9753 56.0646 91.3115L47.4647 97.455C46.8324 97.9069 46.05 98.0891 45.2893 97.9627L41.872 97.395" fill="white"/>
</g>
<g id="Group_13" opacity="0.3">
<path id="Vector_53" d="M56.6525 123.875L80.3236 127.816C85.0842 128.608 89.6133 125.351 90.4401 120.543L92.0202 111.354C91.1934 116.162 86.6643 119.42 81.9037 118.627L58.2325 114.687C56.6048 114.416 55.1058 113.682 53.9012 112.591C51.994 110.859 49.9076 109.336 47.7696 107.903L46.5125 107.06C45.5838 106.436 44.5375 106.021 43.436 105.838L40.4949 105.348L39.6945 110.003L43.1168 110.573C43.877 110.699 44.5575 111.126 45.0023 111.759L51.0729 120.365C52.3942 122.237 54.4002 123.5 56.6534 123.875L56.6525 123.875Z" fill="#001F54"/>
</g>
<g id="Group_14" opacity="0.32">
<path id="Vector_54" d="M32.9812 110.701L35.7735 94.4544C35.9455 93.4536 36.8878 92.7761 37.8782 92.941L40.599 93.3941C41.5894 93.5591 42.2528 94.5041 42.0808 95.5049L39.2884 111.751C39.1164 112.752 38.1741 113.43 37.1838 113.265L34.463 112.812C33.4726 112.647 32.8092 111.702 32.9812 110.701Z" fill="white"/>
</g>
<path id="Vector_55" d="M40.3391 111.921L43.0841 95.6963C43.3461 94.1477 42.2992 92.6744 40.7511 92.4125L38.0054 91.948C36.4569 91.686 34.9841 92.733 34.7221 94.2815L31.9771 110.506C31.7151 112.055 32.762 113.528 34.31 113.79L37.0558 114.255C38.6043 114.517 40.0771 113.47 40.3391 111.921ZM36.719 94.6194C36.7947 94.172 37.2201 93.8697 37.6675 93.9454L40.4132 94.4099C40.8606 94.4856 41.1629 94.911 41.0872 95.3584L38.3422 111.583C38.2665 112.031 37.8411 112.333 37.3937 112.257L34.648 111.793C34.2006 111.717 33.8983 111.292 33.974 110.844L36.719 94.6194Z" fill="#001F54"/>
<path id="Vector_56" d="M91.4752 120.784L94.2906 104.143C95.1891 98.8326 91.5997 93.7814 86.2892 92.883L62.5842 88.8724C60.0453 88.4429 57.4903 89.0253 55.389 90.5125L46.799 96.5916C46.3829 96.8856 45.8775 97.0011 45.3754 96.9161L41.9485 96.3363C41.397 96.243 40.8745 96.6143 40.7812 97.1658C40.6878 97.7174 41.0591 98.2399 41.6107 98.3332L45.0376 98.913C46.0715 99.0879 47.1125 98.8508 47.9691 98.2447L56.5591 92.1656C58.22 90.99 60.2398 90.5298 62.2463 90.8693L85.9514 94.8799C90.1607 95.592 93.0058 99.5959 92.2937 103.805L89.4783 120.446C88.7661 124.656 84.7622 127.501 80.5529 126.789L56.8478 122.778C54.8413 122.439 53.0854 121.339 51.9035 119.683L45.7913 111.117C45.1823 110.263 44.2773 109.696 43.2428 109.521L39.816 108.941C39.2644 108.848 38.7419 109.219 38.6486 109.771C38.5553 110.322 38.9266 110.845 39.4781 110.938L42.905 111.518C43.4071 111.603 43.8464 111.878 44.1426 112.293L50.2548 120.859C51.7499 122.955 53.9712 124.345 56.51 124.775L80.2151 128.785C85.5256 129.684 90.5767 126.095 91.4752 120.784Z" fill="#001F54"/>
<path id="Vector_57" d="M84.6489 111.072C83.6539 116.954 79.9417 121.23 76.3574 120.623C72.7731 120.017 70.6741 114.758 71.6691 108.876C72.6641 102.995 76.3763 98.7191 79.9606 99.3255C83.5449 99.932 85.6439 105.191 84.6489 111.072Z" fill="#001F54"/>
<g id="Group_15">
<path id="Vector_58" d="M76.0887 108.209L80.1564 108.623L80.4285 107.373L78.3051 107.032L80.1135 106.747L80.1972 106.261L78.743 105.57L80.5201 105.86L80.7783 104.59L76.9806 104.016L76.6809 105.427L78.3983 106.291L76.3443 106.723L76.0882 108.209L76.0887 108.209Z" fill="white"/>
<path id="Vector_59" d="M75.9415 109.919L79.7364 110.236L79.998 109.076L76.272 108.456L75.9415 109.919Z" fill="white"/>
<path id="Vector_60" d="M77.7978 112.908L79.0364 112.994L79.6188 110.694C78.9782 110.599 78.3411 110.506 77.7073 110.415C77.0733 110.324 76.4356 110.235 75.7934 110.15L75.5455 111.588C75.9536 111.612 76.3608 111.638 76.7672 111.666C77.1737 111.694 77.5816 111.733 77.991 111.784C77.9798 111.872 77.9665 111.957 77.9519 112.042L77.9076 112.3C77.8898 112.403 77.8714 112.504 77.8523 112.603C77.8333 112.702 77.8148 112.804 77.797 112.907L77.7978 112.908Z" fill="white"/>
<path id="Vector_61" d="M74.8224 116.141L76.8788 115.112L78.6274 116.557L79.0733 115.312L78.0331 114.275L79.2804 114.436L79.5226 113.294L75.3051 112.684L75.1544 113.984L76.4111 114.091L74.9525 114.73L74.8219 116.141L74.8224 116.141Z" fill="white"/>
</g>
</g>
</g>
<g id="Group_16">
<path id="Vector_62" d="M85.8895 109.42C83.9261 112.67 81.1083 114.894 77.7565 114.843C71.9138 114.723 71.4876 109.777 71.5015 106.702C71.4058 100.302 75.2733 89.572 59.1188 89.0901C58.8998 89.084 58.6788 89.0784 58.4517 89.0763L49.1855 81.439C64.1015 81.1781 82.3228 75.0049 88.1778 93.0113C89.7411 98.1614 88.6735 104.818 85.8895 109.421V109.42Z" fill="white"/>
<path id="Vector_63" d="M88.058 104.294C87.546 106.143 86.8113 107.893 85.889 109.42C83.924 112.671 81.1068 114.894 77.7555 114.844C71.9128 114.724 71.4866 109.778 71.5009 106.702C71.4769 105.102 71.701 103.231 71.7971 101.316C72.0872 95.5755 71.2329 89.451 59.1178 89.0908C58.8998 89.0847 58.6778 89.0791 58.4517 89.077L49.1855 81.4397C64.1 81.1778 82.3218 75.0051 88.1767 93.0105C89.2214 96.4539 89.0909 100.568 88.0586 104.293L88.058 104.294Z" fill="white"/>
<path id="Vector_64" d="M88.0575 104.294C87.5465 106.143 86.8108 107.893 85.888 109.42C83.924 112.673 81.1063 114.896 77.7555 114.844C71.9123 114.725 71.4866 109.779 71.5015 106.704C71.4774 105.103 71.7015 103.232 71.7961 101.317C72.0872 95.5772 71.2329 89.4511 59.1173 89.0914C58.8988 89.0858 58.6763 89.0802 58.4502 89.0786L49.1855 81.4403C54.7044 81.3421 60.6771 80.4361 66.309 80.2453C72.3241 80.0417 77.9504 80.6545 82.2189 83.945C84.7497 85.8941 86.8042 88.7876 88.1767 93.0116C89.2214 96.4555 89.0899 100.568 88.058 104.294H88.0575Z" fill="white"/>
<path id="Vector_65" d="M80.4866 85.0065C77.0519 84.9252 77.1056 86.2977 74.3267 86.8533C71.5478 87.4089 70.4065 84.9712 69.0467 84.5691C67.689 84.167 64.1541 84.6786 63.7059 82.8093C63.467 81.8127 65.0396 80.8495 66.3108 80.2453C72.3259 80.0417 77.9522 80.6545 82.2208 83.945C82.3692 84.5563 82.0172 85.0433 80.4866 85.0065Z" fill="#5F5F82"/>
<g id="Group_17" opacity="0.35">
<path id="Vector_66" d="M86.9266 107.439C87.9579 103.363 87.0519 95.6563 86.4784 93.6136C82.9434 81.0263 69.0424 81.3415 63.6279 80.3828C74.2625 79.6799 84.1487 80.6201 88.1774 93.0115C89.5274 97.4622 88.914 103.038 86.9266 107.439V107.439Z" fill="white"/>
</g>
<path id="Vector_67" d="M85.8898 109.42C83.9264 112.67 81.1087 114.894 77.7568 114.842C71.9141 114.723 71.488 109.776 71.5018 106.702C71.4061 100.301 75.2736 89.5716 59.1191 89.0897C61.8949 88.3131 68.1505 87.2695 72.3244 91.9453C77.0662 97.2564 72.0574 107.478 75.6757 110.699C79.5468 114.144 83.6154 111.533 85.8898 109.42V109.42Z" fill="#EFEFEF"/>
<path id="Vector_68" d="M85.8888 109.42C83.9239 112.671 81.1067 114.894 77.7553 114.844C71.9126 114.724 71.4865 109.778 71.5008 106.702C71.4768 105.102 71.7008 103.231 71.797 101.316C72.5772 100.668 73.5036 100.124 74.5124 99.6953C74.4705 104.165 73.4678 108.735 75.6748 110.698C79.5464 114.144 83.6144 111.533 85.8894 109.42H85.8888Z" fill="#595959"/>
<path id="Vector_69" d="M88.0579 104.291C87.5458 106.14 86.8112 107.89 85.8889 109.417C83.9239 112.668 81.1067 114.891 77.7553 114.841C71.9126 114.721 71.4865 109.775 71.5008 106.699C71.4768 105.099 71.7008 103.228 71.797 101.313C76.6483 97.288 87.0885 97.288 88.0579 104.29V104.291Z" fill="#5F5F82"/>
<g id="Group_18" opacity="0.2">
<path id="Vector_70" d="M85.8908 109.42C83.9258 112.671 81.1086 114.894 77.7573 114.844C71.9146 114.724 71.4884 109.778 71.5028 106.702C71.4787 105.102 71.7028 103.231 71.799 101.316C72.5791 100.668 73.5056 100.124 74.5144 99.6953C74.4725 104.165 73.4698 108.735 75.6767 110.698C79.5483 114.144 83.6163 111.533 85.8913 109.42H85.8908Z" fill="#001F54"/>
</g>
<path id="Vector_71" d="M69.3448 80.2212C61.4031 81.0019 55.9804 82.1928 50.7766 82.7504L49.1836 81.4383C55.7092 81.3247 62.8667 80.078 69.3448 80.2217V80.2212Z" fill="#EFEFEF"/>
<path id="Vector_72" d="M49.1836 81.4404C60.8102 80.4858 77.466 75.4616 85.8159 86.3781C87.2688 88.3149 88.2996 90.4953 89.045 92.7886C90.6805 98.5899 89.6164 105.037 86.505 110.167C84.5861 113.318 81.1744 116.068 77.2798 115.724C74.4753 115.595 72.1257 114.044 71.2478 111.355C69.7397 106.798 71.4985 102.047 70.901 97.4322C70.2201 91.014 63.7824 89.9259 58.4497 89.0777C60.7723 88.7692 63.1746 88.8214 65.4573 89.4112C69.3693 90.3842 71.9379 93.1994 72.4674 97.2102C72.8163 99.5731 72.5886 101.942 72.4434 104.275C72.3313 107.161 71.9978 111.209 74.5915 113.069C76.1952 114.132 78.5782 114.194 80.3661 113.434C82.3091 112.618 83.8325 110.977 84.9544 109.191C87.2386 105.467 88.2664 100.876 87.9246 96.5216C87.7609 94.3049 87.0718 92.2208 86.1116 90.2395C82.9629 83.5609 76.8889 81.1994 69.8369 80.9856C62.9547 80.7093 56.0735 81.8466 49.1836 81.4404Z" fill="#001F54"/>
<path id="Vector_73" d="M81.6932 106.454C81.5704 109.438 81.0107 114.832 77.4476 115.581L77.2686 114.11C80.0096 113.912 81.2778 108.735 81.6932 106.454V106.454Z" fill="#001F54"/>
</g>
<g id="Group_19">
<g id="Group_20">
<g id="Group_21">
<path id="Vector_74" d="M36.0611 15.5024C33.6859 12.388 27.7997 12.2652 24.9073 12.3429C17.1119 12.5522 16.5103 11.0389 14.3663 11.7628C12.4791 12.3997 12.2724 18.313 15.3454 22.3115C18.4307 26.3253 24.0862 27.9715 31.2799 24.852" fill="#5F5F82"/>
<path id="Vector_75" d="M35.766 15.7306C33.0664 12.8837 27.6698 13.0422 24.0003 13.14C21.8123 13.1681 19.588 13.0474 17.4337 12.6161C16.4346 12.4396 15.5204 12.1301 14.5822 12.4795C13.4291 13.2893 13.7033 16.2718 14.0082 17.538C15.1674 22.7877 19.7138 26.0541 25.028 25.9119C27.1076 25.9058 29.203 25.4607 31.279 24.8555C28.4714 26.5018 25.0332 27.4564 21.7253 26.9484C17.0137 26.3135 13.3554 22.4706 12.4934 17.8664C12.1174 15.883 11.8785 12.8202 13.5908 11.3489C14.7792 10.5145 16.4274 10.8783 17.71 11.1315C19.767 11.5111 21.8624 11.6057 23.9839 11.5858C26.1545 11.55 28.4055 11.5612 30.5408 12.0155C32.1768 12.3572 33.8593 12.9261 35.1848 14.0071C35.6314 14.3723 36.0381 14.7959 36.3553 15.2814C36.4679 15.4528 36.4193 15.683 36.2479 15.7955C36.0913 15.8978 35.8857 15.8666 35.766 15.7306Z" fill="#001F54"/>
</g>
<g id="Group_22" opacity="0.2">
<path id="Vector_76" d="M16.1858 16.2798C17.5537 19.0489 22.9662 18.0805 25.5844 17.8877C29.4253 17.6048 31.5601 20.1217 28.9674 23.6864C28.9674 23.6864 25.0462 26.014 20.2645 23.1016C15.7571 20.356 16.1858 16.2803 16.1858 16.2803V16.2798Z" fill="#001F54"/>
</g>
<path id="Vector_77" d="M16.1865 16.2798C17.1242 17.6227 18.881 17.7506 20.3891 17.7352C21.9515 17.7096 23.5087 17.4666 25.1248 17.2907C26.4195 17.1351 27.8479 17.2134 29.0076 17.9153C30.2896 18.6202 30.8943 20.2532 30.3761 21.613C30.0886 22.4509 29.5703 23.1318 28.9687 23.6864C29.2966 22.9364 29.5923 22.19 29.6619 21.4513C29.9724 18.8888 27.2447 18.324 25.2378 18.5517C22.6185 18.7282 17.3739 19.3595 16.187 16.2798H16.1865Z" fill="#001F54"/>
</g>
<g id="Group_23">
<path id="Vector_78" d="M65.4588 22.7443L73.1396 25.1077L75.6806 25.7891C79.742 23.397 81.3156 16.3204 80.7677 11.9004C80.5288 9.94823 79.8766 8.51685 78.8432 8.23241C77.132 7.76125 75.564 12.2452 71.4386 14.5064C69.136 15.7689 66.0385 16.3424 61.6727 14.9765C52.2065 12.0181 65.4583 22.7448 65.4583 22.7448L65.4588 22.7443Z" fill="#F9E3D2"/>
<g id="Group_24" opacity="0.5">
<path id="Vector_79" d="M64.4199 15.6195C67.5728 16.4007 70.0887 16.0421 72.1401 15.1831C76.0864 13.5333 78.3102 10.0352 79.9887 9.23506C79.6828 8.71479 79.3011 8.36436 78.8448 8.23852C77.1336 7.76736 75.5656 12.2513 71.4403 14.5125C69.6544 15.4921 67.3881 16.0569 64.4204 15.62L64.4199 15.6195Z" fill="white"/>
</g>
<path id="Vector_80" d="M65.4588 22.7496L73.1396 25.1131L75.6806 25.7945C79.742 23.4024 81.3156 16.3258 80.7677 11.9058C80.7677 11.9058 79.5051 20.5186 75.6341 17.9915C73.7059 16.734 72.7089 15.5773 71.4386 14.5117C69.136 15.7743 66.0385 16.3478 61.6727 14.9819C52.2065 12.0234 65.4583 22.7501 65.4583 22.7501L65.4588 22.7496Z" fill="#E2C3AF"/>
<path id="Vector_81" d="M75.6825 26.5333C75.4287 26.5333 75.1811 26.4028 75.043 26.168C74.8353 25.8156 74.953 25.3613 75.3054 25.1536C79.1729 22.8755 80.5491 15.8654 80.0221 11.8905C79.8047 10.2499 79.2783 9.12288 78.6486 8.94946C78.2685 8.84509 77.4198 9.86108 76.6718 10.7584C74.7785 13.0293 71.8763 16.509 66.3943 16.5095C64.9389 16.5095 63.3029 16.2645 61.454 15.6864C59.9679 15.2219 59.3054 15.1861 59.0379 15.2081C59.3704 16.2338 62.3288 19.2459 65.8142 22.0816L73.3594 24.4011C73.7508 24.5213 73.9702 24.9356 73.85 25.327C73.7298 25.7184 73.3159 25.9383 72.9235 25.8176L65.1036 23.4137L64.9921 23.3232C64.9721 23.3068 62.9591 21.6739 61.0734 19.8736C57.4008 16.3673 57.2678 15.1871 57.6715 14.434C58.271 13.3147 60.1439 13.724 61.896 14.2719C69.7625 16.7315 73.2356 12.5658 75.5336 9.80941C76.7665 8.32994 77.741 7.16201 79.0425 7.52063C80.3112 7.87003 81.1814 9.35258 81.4919 11.6956C82.0864 16.1811 80.5291 23.7969 76.058 26.43C75.9398 26.4995 75.8104 26.5328 75.6825 26.5328V26.5333Z" fill="#001F54"/>
</g>
<g id="Group_25">
<path id="Vector_82" d="M41.1568 20.1136L33.3492 18.2116L30.8174 17.4959C28.5537 13.3619 30.8245 6.47708 33.5574 2.96103C34.7621 1.40686 36.0549 0.510583 37.0888 0.795019C38.8 1.26618 37.851 5.921 40.2375 9.97523C41.5691 12.2384 43.9367 14.317 48.3859 15.3785C58.0321 17.6836 41.1568 20.1131 41.1568 20.1131V20.1136Z" fill="#F9E3D2"/>
<g id="Group_26" opacity="0.5">
<path id="Vector_83" d="M45.6989 14.5218C42.5906 13.5785 40.6128 11.9829 39.2904 10.1949C36.7448 6.75716 36.6256 2.61443 35.5938 1.06743C36.1227 0.777364 36.6302 0.671467 37.0865 0.796803C38.7977 1.26796 37.8488 5.92278 40.2353 9.97701C41.2681 11.7327 42.9256 13.378 45.6984 14.5218H45.6989Z" fill="white"/>
</g>
<path id="Vector_84" d="M41.1568 20.1074L33.3492 18.2054L30.8174 17.4897C28.5537 13.3557 30.8245 6.47089 33.5574 2.95483C33.5574 2.95483 30.2327 10.9993 34.8517 10.8106C37.1517 10.7175 38.6005 10.234 40.237 9.96903C41.5686 12.2322 43.9362 14.3108 48.3854 15.3723C58.0316 17.6774 41.1563 20.1069 41.1563 20.1069L41.1568 20.1074Z" fill="#E2C3AF"/>
<path id="Vector_85" d="M41.122 20.8666L33.1742 18.9282C32.7767 18.8316 32.5332 18.4305 32.6299 18.033C32.7266 17.6355 33.1276 17.3915 33.5251 17.4887L41.1936 19.359C45.6392 18.7078 49.7226 17.6345 50.5335 16.9234C50.316 16.7689 49.7277 16.4594 48.2129 16.0977C39.2323 13.9532 38.25 7.76876 37.6633 4.07365C37.4801 2.92005 37.2724 1.61298 36.8908 1.5076C36.26 1.33366 35.2317 2.03298 34.2055 3.33034C31.7177 6.47499 29.3118 13.2017 31.4671 17.1382C31.6635 17.4974 31.532 17.9476 31.1729 18.144C30.8138 18.341 30.3631 18.209 30.1672 17.8498C27.6748 13.2989 30.2357 5.95932 33.0427 2.41052C34.5089 0.55709 36.0134 -0.271149 37.2842 0.0782561C38.5861 0.43687 38.8245 1.93885 39.1269 3.84038C39.6896 7.38457 40.5404 12.7408 48.5567 14.6551C50.3426 15.0817 52.1603 15.6884 52.1025 16.9571C52.0636 17.811 51.3453 18.7569 46.3953 19.8885C43.8538 20.4696 41.2888 20.842 41.2627 20.8456L41.121 20.8661L41.122 20.8666Z" fill="#001F54"/>
</g>
<path id="Vector_86" d="M35.2194 61.623C35.2194 61.623 12.174 44.937 12.2139 44.54C12.9301 37.425 17.0913 20.6725 29.5195 13.0071C35.8082 9.12831 44.9122 7.67595 54.4096 9.70639C70.6342 13.1744 77.9548 22.2118 80.5802 29.7381C86.1942 45.8328 80.7168 69.1043 71.1939 75.9655C70.8695 76.1993 36.5531 61.976 36.5531 61.976" fill="white"/>
<path id="Vector_87" d="M12.2144 44.539C12.175 44.9354 35.2189 61.622 35.2189 61.622L36.552 61.975C36.552 61.975 70.8705 76.1978 71.1943 75.9655C80.7168 69.1037 86.1947 45.8332 80.5802 29.7386C77.9548 22.2103 70.6331 13.1743 54.4096 9.70635C51.8348 9.15641 49.2887 8.86123 46.8204 8.80189C40.1816 8.64177 34.1036 10.1806 29.5194 13.007C26.0919 15.1198 23.2961 17.9222 21.0268 21.0244L21.0242 21.0265C15.0577 29.1759 12.7316 39.3859 12.2139 44.54L12.2144 44.539Z" fill="white"/>
<path id="Vector_88" d="M12.4354 42.7802C12.3403 43.4156 12.2671 44.0029 12.2139 44.538C12.1745 44.9345 35.2184 61.621 35.2184 61.621L36.5516 61.974C36.5516 61.974 70.87 76.1968 71.1939 75.9645C80.7163 69.1028 86.1943 45.8328 80.5797 29.7376C79.9065 27.8095 78.9263 25.7816 77.5655 23.7732C77.94 24.5702 78.2597 25.3606 78.5283 26.1331C79.6732 29.4153 74.4347 29.3857 73.9067 33.8062C75.7975 40.8992 80.8365 42.1694 80.6304 44.9166C79.7474 56.672 75.287 67.9323 69.1424 72.36C68.8186 72.5923 34.5002 58.3695 34.5002 58.3695L33.167 58.0165C33.167 58.0165 18.2382 47.2064 12.4344 42.7807L12.4354 42.7802Z" fill="#EAEAEA"/>
<path id="Vector_89" d="M21.0244 21.026C23.5577 22.7802 27.2881 24.2208 31.5501 24.1957C41.0393 24.1409 46.1842 15.8468 46.8211 8.80189C40.1824 8.64177 34.1044 10.1806 29.5201 13.007C26.0926 15.1198 23.2968 17.9222 21.0275 21.0244L21.0249 21.0265L21.0244 21.026Z" fill="#5F5F82"/>
<path id="Vector_90" d="M71.2456 76.713C70.7657 76.713 69.6152 76.2597 65.3691 74.5669C62.4803 73.4154 58.4767 71.7932 53.4704 69.7448C44.9476 66.2579 36.3542 62.6969 36.2687 62.6611C36.0114 62.5541 35.8462 62.3199 35.816 62.0615C35.575 62.3894 35.1141 62.4621 34.7841 62.2232C34.7268 62.1812 28.9553 58.0022 23.263 53.8282C19.9183 51.3757 17.2545 49.4046 15.3458 47.9692C11.4205 45.0179 11.4236 44.9867 11.4763 44.4659C12.3219 36.0699 16.9911 19.8633 29.1302 12.3764C35.7889 8.26944 45.297 7.00073 54.5642 8.98155C62.0823 10.5884 68.3117 13.5018 73.0801 17.6405C77.8986 21.8226 80.1986 26.395 81.2796 29.4936C83.9495 37.1483 84.3173 46.9803 82.2879 56.469C80.3224 65.6599 76.3368 73.1729 71.6267 76.5667C71.5096 76.6511 71.4241 76.7125 71.2466 76.7125L71.2456 76.713ZM36.5521 61.2353C36.6468 61.2353 36.7429 61.2537 36.8355 61.2921C49.4617 66.525 68.3987 74.2927 71.0312 75.1629C79.6727 68.5652 85.5456 46.2257 79.8794 29.9822C77.8981 24.3027 71.9347 14.2104 54.2536 10.4308C45.3512 8.52829 36.2493 9.7264 29.9073 13.6379C18.4214 20.7217 13.894 36.0566 12.9859 44.2725C14.7954 45.8303 27.2952 54.9711 35.6528 61.0225C35.8277 61.1494 35.9311 61.3386 35.9541 61.5376C36.0943 61.3463 36.3183 61.2348 36.5516 61.2348L36.5521 61.2353Z" fill="#001F54"/>
<path id="Vector_91" d="M19.0327 38.4573C15.7694 38.3089 9.84279 39.4815 7.11149 45.1569C0.207791 59.505 16.0001 75.7224 39.0634 79.9306C59.2844 83.6206 71.5776 78.5433 74.7365 71.6232C77.2207 66.1805 75.7719 59.5152 69.586 54.0972C69.586 54.0972 65.9073 51.0911 58.4915 48.4494C53.2044 46.5658 43.6645 44.655 37.3389 43.0814C32.1838 41.7989 27.6113 39.8672 24.2477 39.153C21.5573 38.5816 19.0327 38.4578 19.0327 38.4578V38.4573Z" fill="#FFD8BE"/>
<path id="Vector_92" d="M7.12356 59.4338C11.3921 68.8765 23.5937 77.1041 39.0663 79.9265C59.2863 83.6165 71.5804 78.5406 74.7379 71.6201C75.5656 69.8055 75.9569 67.8559 75.8817 65.8623C75.7794 66.1288 75.6679 66.3938 75.5477 66.6552C72.182 74.0311 59.0781 79.442 37.528 75.5101C24.2879 73.0949 13.2988 66.9663 7.12305 59.4343L7.12356 59.4338Z" fill="#FFB6B8"/>
<path id="Vector_93" d="M19.034 38.4522C15.2249 38.7254 11.3435 40.3107 9.04248 43.4334C7.57836 45.4546 6.71891 47.9179 6.39457 50.3826C5.33715 59.6769 12.6204 67.4104 20.0055 71.9879C30.7384 78.6481 45.1949 81.4025 57.707 80.0545C66.5634 78.9633 76.4634 74.73 75.1006 64.1701C74.5271 60.2739 72.3437 56.9011 69.5873 54.0915C75.1875 58.1724 78.4872 65.473 75.342 72.1501C72.1948 78.4584 64.3954 80.8014 57.8922 81.5861C44.9878 82.8604 30.304 80.1205 19.2203 73.2454C12.4439 68.9891 6.03238 62.6 4.82557 54.3514C4.29353 50.2373 5.25632 45.782 7.89809 42.5259C10.5593 39.327 14.9762 37.8664 19.034 38.4517V38.4522Z" fill="#001F54"/>
<g id="Group_27">
<g id="Group_28">
<path id="Vector_94" d="M74.8356 23.0555C78.5312 21.7571 83.5175 24.888 85.8917 26.5419C92.291 30.9982 93.6252 30.0646 95.0192 31.8469C96.2465 33.4159 93.1714 38.4708 88.4071 40.1237C83.6239 41.7832 77.994 40.0526 73.6963 33.4947" fill="white"/>
<path id="Vector_95" d="M74.7128 22.707C78.4038 21.2572 82.6719 23.5434 85.7403 25.5171C87.9109 26.9899 90.1705 28.4812 92.5734 29.4803C93.9234 30.022 95.8674 30.7925 96.0193 32.5011C96.1268 35.5005 92.9458 38.6763 90.5143 40.0581C86.4089 42.463 81.2349 41.7575 77.6866 38.6794C75.9841 37.2301 74.6555 35.436 73.6963 33.4966C75.099 35.1424 76.6051 36.6653 78.3398 37.8133C82.7041 40.851 88.2951 40.6193 92.1483 36.8679C93.1852 35.8524 94.1444 34.6119 94.4923 33.2173C94.5568 32.8782 94.6084 32.5461 94.4181 32.2883C93.8134 31.5 92.909 31.2723 91.9886 30.8733C90.9711 30.4584 89.9654 29.9714 89.0057 29.4358C87.6198 28.6643 86.1838 27.702 84.8916 26.7817C82.346 25.1017 79.5533 23.3705 76.4383 23.235C75.937 23.2273 75.4382 23.2846 74.9517 23.4084C74.5214 23.5184 74.2953 22.8922 74.7128 22.7075V22.707Z" fill="#001F54"/>
</g>
<path id="Vector_96" d="M91.0227 34.6146C88.3589 36.1774 84.3676 32.3949 82.2855 30.7957C79.2314 28.4496 76.0647 29.3802 76.2735 33.7833C76.2735 33.7833 78.2717 37.882 83.8673 38.0744C89.1421 38.256 91.0227 34.6146 91.0227 34.6146Z" fill="#EAEAEA"/>
<path id="Vector_97" d="M91.0222 34.6237C88.3431 36.5457 84.3001 33.1361 82.2108 31.5507C80.6597 30.2579 78.0676 29.2322 76.9211 31.544C76.5738 32.1994 76.4106 32.9857 76.273 33.7924C76.075 32.9984 76.0162 32.1446 76.2356 31.2862C76.5595 29.8569 77.9387 28.8383 79.4099 28.9483C80.7651 28.9984 82.0011 29.7182 82.9981 30.5593C84.252 31.5937 85.4194 32.6526 86.7111 33.532C87.963 34.373 89.5008 35.2315 91.0222 34.6242V34.6237Z" fill="#001F54"/>
</g>
<path id="Vector_98" d="M24.6483 41.1946C24.2109 41.4341 23.8805 42.3349 24.6182 43.0061C25.3594 43.6804 26.9908 43.7602 26.9908 43.7602C26.9908 43.7602 27.0947 42.8961 26.5662 41.9686C26.1427 41.2258 25.1911 40.8974 24.6483 41.1951V41.1946Z" fill="#F48990"/>
<path id="Vector_99" d="M50.4867 48.1708C50.6806 48.6302 50.3798 49.5413 49.3853 49.6094C48.3857 49.6774 47.0576 48.7264 47.0576 48.7264C47.0576 48.7264 47.5129 47.9846 48.5033 47.5861C49.2968 47.2669 50.2463 47.6009 50.4867 48.1708Z" fill="#F48990"/>
</g>
<g id="Group_29">
<path id="Vector_100" d="M17.1018 85.9942C17.1018 85.9942 15.2039 90.1651 18.2784 91.0818C20.3943 91.7126 24.7273 90.4454 25.4256 88.261C26.4877 84.9378 23.1982 80.8508 23.1982 80.8508L17.1023 85.9947L17.1018 85.9942Z" fill="#4E4E6B"/>
<path id="Vector_101" d="M19.5702 91.9686C19.0188 91.9686 18.5077 91.9062 18.0744 91.7767C17.1525 91.502 16.4742 90.9367 16.113 90.1417C15.2904 88.3343 16.3243 85.9586 16.4445 85.6936C16.489 85.5959 16.555 85.5089 16.6369 85.4393L22.7333 80.2955C22.8822 80.1696 23.0771 80.1087 23.271 80.1277C23.4654 80.1466 23.6439 80.2428 23.7667 80.3947C23.9109 80.5738 27.2878 84.828 26.1204 88.4812C25.418 90.6779 22.0759 91.9681 19.5707 91.9681L19.5702 91.9686ZM17.7045 86.4374C17.438 87.0973 17.0011 88.5952 17.4344 89.5432C17.6227 89.955 17.9675 90.2307 18.4888 90.3858C20.3519 90.9413 24.2071 89.6982 24.7371 88.0397C25.4472 85.8179 23.8751 83.0973 23.0714 81.9084L17.7045 86.4369V86.4374Z" fill="#001F54"/>
<path id="Vector_102" d="M4.4021 85.4947C5.26257 88.2925 8.87684 88.5688 9.43855 86.1669C9.43855 86.1669 6.95536 80.6046 5.49789 80.8486C4.04041 81.0926 4.4021 85.4947 4.4021 85.4947Z" fill="#5F5F82"/>
<path id="Vector_103" d="M4.40039 85.4963C4.93857 86.9302 6.86259 87.9748 8.18092 87.031C8.51805 86.7726 8.68329 86.4089 8.71501 86.0002C8.81528 85.0179 10.26 85.129 10.2083 86.1158C9.34629 89.4594 4.92987 88.5473 4.40039 85.4963Z" fill="#001F54"/>
<path id="Vector_104" d="M0.873047 88.102C3.26926 72.5364 16.0607 71.7276 21.4327 73.9094C24.7902 75.2733 26.4502 76.8464 26.087 82.7888C25.953 84.9774 24.9048 87.1608 19.7542 87.6375C10.6544 90.1478 8.34153 88.9308 5.89671 82.3832L2.99455 83.217C2.21286 84.8177 1.93201 87.2646 0.873047 88.1015V88.102Z" fill="#5F5F82"/>
<g id="Group_30" opacity="0.35">
<path id="Vector_105" d="M26.0278 79.3962C25.2814 77.4297 23.8173 76.4945 21.7106 75.6382C16.5315 73.5336 4.71049 74.105 1.04199 87.1256C3.8137 72.5043 16.1754 71.7742 21.4323 73.9096C24.0352 74.967 25.6175 76.1503 26.0283 79.3962H26.0278Z" fill="white"/>
</g>
<g id="Group_31" opacity="0.2">
<path id="Vector_106" d="M9.5891 84.6827C9.34866 86.1616 10.7974 87.2119 14.0454 87.1356C16.7286 87.0727 18.5718 85.7697 19.4707 85.8639C20.369 85.958 23.3515 85.4229 24.2391 83.7388C24.8391 82.6005 24.809 81.0331 24.4984 80.8494C24.1879 80.6658 21.3195 82.6005 18.7882 82.9438C16.2943 83.2825 10.0372 81.9242 9.5891 84.6827Z" fill="#001F54"/>
</g>
<path id="Vector_107" d="M0.15581 87.9895C1.41991 78.9101 7.39868 71.9998 17.0275 72.2914C19.7107 72.3993 22.4615 73.1416 24.5963 74.8498C25.9279 75.9322 26.6109 77.7422 26.7838 79.3516C26.9378 81.0004 27.0084 82.5991 26.6533 84.2075C25.9238 87.2181 22.5449 88.2561 19.8299 88.4612C18.4727 88.872 15.4304 89.58 13.4168 89.5913C8.64795 89.7647 6.79656 86.5546 5.8967 82.3822C6.60574 83.6514 7.2846 84.937 8.15581 86.0046C9.96269 88.3824 12.6761 88.3395 15.4089 87.8212C16.7835 87.5782 18.1581 87.2089 19.5332 86.8375C20.5369 86.7086 21.558 86.5853 22.4686 86.264C23.9962 85.7836 25.1104 84.7313 25.27 83.1521C25.3969 81.9688 25.4082 80.694 25.2843 79.5353C25.1744 78.5924 24.9411 77.6895 24.4822 76.9549C23.0749 74.7802 19.4611 73.846 16.9713 73.7647C10.8927 73.4879 5.51353 76.9053 3.18024 82.53C2.39701 84.3262 1.89516 86.2527 1.58975 88.2131C1.42298 89.1483 0.0355905 88.9477 0.15581 87.9906V87.9895Z" fill="#001F54"/>
</g>
<g id="Group_32">
<path id="Vector_108" d="M61.2194 40.2201C61.7264 36.1617 59.2882 32.5158 55.7737 32.0768C52.2591 31.6378 48.9991 34.5719 48.4921 38.6303C47.9852 42.6887 50.4233 46.3346 53.9379 46.7736C57.4524 47.2127 60.7125 44.2785 61.2194 40.2201Z" fill="#001F54"/>
<path id="Vector_109" d="M58.9442 38.6977C59.1254 37.2472 58.3434 35.9552 57.1976 35.8121C56.0518 35.669 54.9761 36.7289 54.7949 38.1794C54.6137 39.63 55.3957 40.9219 56.5415 41.0651C57.6873 41.2082 58.763 40.1483 58.9442 38.6977Z" fill="white"/>
<g id="Group_33" opacity="0.2">
<path id="Vector_110" d="M52.9415 39.6676C53.0641 38.6858 52.649 37.8256 52.0143 37.7463C51.3796 37.667 50.7656 38.3987 50.643 39.3805C50.5203 40.3623 50.9354 41.2225 51.5702 41.3018C52.2049 41.381 52.8189 40.6494 52.9415 39.6676Z" fill="white"/>
</g>
</g>
<g id="Group_34">
<path id="Vector_111" d="M32.5309 33.2692C33.0379 29.2107 30.5997 25.5648 27.0852 25.1258C23.5706 24.6868 20.3106 27.6209 19.8036 31.6794C19.2967 35.7378 21.7348 39.3837 25.2494 39.8227C28.7639 40.2617 32.024 37.3276 32.5309 33.2692Z" fill="#001F54"/>
<path id="Vector_112" d="M30.2558 31.7468C30.4369 30.2962 29.655 29.0043 28.5092 28.8612C27.3633 28.7181 26.2876 29.7779 26.1064 31.2285C25.9252 32.6791 26.7072 33.971 27.853 34.1141C28.9988 34.2573 30.0746 33.1974 30.2558 31.7468Z" fill="white"/>
<g id="Group_35" opacity="0.2">
<path id="Vector_113" d="M24.254 32.7167C24.3766 31.7349 23.9615 30.8747 23.3268 30.7954C22.6921 30.7161 22.0781 31.4477 21.9555 32.4296C21.8328 33.4114 22.2479 34.2715 22.8827 34.3508C23.5174 34.4301 24.1314 33.6985 24.254 32.7167Z" fill="white"/>
</g>
</g>
<g id="Group_36">
<path id="Vector_114" d="M40.2471 61.1749C41.657 63.5066 44.9623 64.4121 47.3104 63.0718C48.0527 62.6431 48.6451 61.9888 49.0538 61.2081C49.1485 61.0255 49.3736 60.9539 49.5557 61.0495C49.7266 61.1391 49.7982 61.3442 49.7266 61.5192C48.0639 65.6946 41.6416 65.3022 40.2471 61.1749Z" fill="#001F54"/>
<path id="Vector_115" d="M47.8145 60.6807C49.1486 60.1154 50.6148 61.6271 49.9851 62.9424C49.7093 62.4763 49.4899 61.9852 49.1108 61.6154C48.7384 61.2276 48.3076 60.9841 47.8145 60.6807Z" fill="#001F54"/>
</g>
<path id="Vector_116" d="M13.1448 137.804C12.1319 138.159 11.3369 138.934 10.6709 139.745C9.11261 141.624 8.28795 144.607 10.0953 146.542C10.4146 146.893 10.7875 147.199 11.1845 147.477L10.2826 148.653C8.33399 147.05 7.55691 144.584 8.53965 142.25C9.34845 140.31 11.0857 138.349 13.1448 137.804Z" fill="#001F54"/>
</g>
<path id="Vector_117" opacity="0.1" d="M46.9008 164C71.6578 164 91.7273 161.797 91.7273 159.08C91.7273 156.363 71.6578 154.16 46.9008 154.16C22.1438 154.16 2.07422 156.363 2.07422 159.08C2.07422 161.797 22.1438 164 46.9008 164Z" fill="#001F54"/>
</g>
</svg>
